# Blender 4.5.3 LTS
# www.blender.org
mtllib Markers.mtl
o Markers
v -6.515679 117.777458 6.071984
v -3.376148 123.301117 1.369984
v -2.520649 124.520302 6.831563
v -1.888601 117.214279 2.031967
v -48.050072 96.734665 -18.427256
v -50.404419 98.709305 -16.811825
v -47.314503 103.658882 -14.329573
v -52.296894 70.165565 -91.546509
v -47.670395 69.854546 -94.144196
v -47.302860 67.864166 -86.705864
v -51.495659 72.679382 -86.862610
v -50.207119 75.031349 -91.866943
v -46.883698 74.487823 -86.195366
v -43.091595 100.596321 -20.243624
v -44.007992 98.562935 -14.423560
v -47.843704 104.334831 -19.548855
v -41.818146 104.248169 -17.262892
v -44.146538 72.820572 -90.312813
v 0.768113 119.386497 6.095167
v 20.247328 117.880104 -49.226391
v 23.805450 115.351402 -49.464531
v 24.167810 124.872528 -49.198448
v 23.813377 118.901321 -54.374050
v 29.571447 120.286865 -51.102787
v 51.495239 104.119141 -6.832824
v 57.570065 109.802620 -4.014713
v 52.640018 111.866753 -8.097168
v 55.500439 108.446533 -11.402680
v 58.331230 103.463379 -5.466977
v 59.678455 111.272690 -8.232537
v 79.776413 78.653313 -63.680519
v 83.407227 73.490150 -64.589973
v 83.784317 75.093964 -58.645046
v 84.589752 79.051048 -66.510208
v 83.890541 82.006844 -61.018013
v 88.729881 77.220360 -64.302765
vn 0.0248 -0.1264 0.9917
vn 0.2004 -0.9124 0.3567
vn -0.8706 0.4688 0.1490
vn -0.6873 -0.5845 0.4313
vn -0.3856 0.8693 0.3093
vn -0.4767 0.1476 -0.8666
vn 0.3857 0.5233 -0.7599
vn -0.2465 -0.1349 -0.9597
vn 0.3063 0.5356 -0.7870
vn -0.0358 0.9906 0.1319
vn -0.5238 -0.6899 -0.4997
vn 0.2684 0.6218 -0.7358
vn 0.3032 -0.0381 0.9522
vn -0.2124 -0.2424 0.9466
vn 0.0853 0.9268 0.3657
vn 0.0596 -0.7504 -0.6583
vn -0.4856 -0.1913 -0.8530
vn 0.5284 0.7739 -0.3492
vn -0.8612 0.5078 0.0215
vn -0.6551 -0.2381 -0.7171
vn -0.6178 -0.0984 -0.7802
vn -0.3444 -0.2402 0.9076
vn -0.2008 -0.9488 -0.2440
vn 0.7511 -0.6275 -0.2050
vn -0.9188 0.3911 -0.0527
vn -0.1163 -0.0690 0.9908
vn 0.3686 0.9208 -0.1278
vn -0.2388 -0.7694 0.5924
vn 0.5575 -0.8072 -0.1942
vn 0.4319 0.2643 0.8623
vn 0.9371 -0.3480 0.0260
vn 0.8106 -0.0958 0.5777
vn 0.7993 0.5476 -0.2474
vn 0.7964 0.1304 -0.5905
vn -0.7774 0.4377 -0.4517
vn 0.0458 -0.0296 0.9985
vn 0.4667 -0.7171 -0.5177
vn -0.7540 0.0042 -0.6568
vn -0.5684 0.2136 0.7945
vn 0.0468 0.7142 -0.6984
vn 0.8938 0.0046 0.4484
vn 0.7038 -0.3419 -0.6227
vn -0.6623 0.2523 0.7055
vn -0.7825 -0.5869 0.2080
vn 0.6899 0.2255 0.6878
vn 0.3054 -0.3682 -0.8782
vn 0.5576 -0.8097 0.1831
vn -0.3478 0.8064 -0.4783
s 0
usemtl mtl1.002
f 1//1 19//1 3//1
f 1//2 4//2 19//2
f 6//3 7//3 16//3
f 8//4 10//4 11//4
f 12//5 11//5 13//5
f 12//6 9//6 8//6
f 9//7 12//7 18//7
f 16//8 14//8 5//8
f 17//9 14//9 16//9
f 7//10 17//10 16//10
f 23//11 21//11 20//11
f 24//12 23//12 22//12
f 21//13 24//13 22//13
f 25//14 29//14 26//14
f 30//15 27//15 26//15
f 28//16 29//16 25//16
f 34//17 32//17 31//17
f 34//18 35//18 36//18
f 2//19 1//19 3//19
f 2//20 4//20 1//20
f 5//21 6//21 16//21
f 7//22 6//22 15//22
f 8//23 9//23 10//23
f 18//24 10//24 9//24
f 12//25 8//25 11//25
f 11//26 10//26 13//26
f 18//27 12//27 13//27
f 5//28 15//28 6//28
f 14//29 15//29 5//29
f 17//30 7//30 15//30
f 15//31 14//31 17//31
f 13//32 10//32 18//32
f 19//33 2//33 3//33
f 2//34 19//34 4//34
f 20//35 22//35 23//35
f 22//36 20//36 21//36
f 23//37 24//37 21//37
f 27//38 28//38 25//38
f 27//39 25//39 26//39
f 30//40 28//40 27//40
f 30//41 26//41 29//41
f 28//42 30//42 29//42
f 35//43 31//43 33//43
f 31//44 32//44 33//44
f 36//45 35//45 33//45
f 34//46 36//46 32//46
f 32//47 36//47 33//47
f 31//48 35//48 34//48
