# Blender 4.5.3 LTS
# www.blender.org
mtllib skull.mtl
o Phantom_08
v 93.999161 -12.501710 -38.337376
v 92.215363 -12.223317 -19.614954
v 87.073303 -11.825354 -37.714573
v 98.717789 -0.579213 -33.362797
v 84.887604 -12.510406 -49.435562
v 81.953003 -12.303518 -64.206207
v 89.148460 -12.456481 -8.991024
v 87.743065 -8.532088 -19.333838
v 91.216476 -10.438495 -30.246725
v 93.899368 -11.052409 -36.467953
v 84.433891 -11.068107 -45.773003
v 86.758484 -11.286134 -17.358969
v 86.834419 -10.626391 -26.598055
v 88.850533 -9.902060 -29.416744
v 81.413597 -10.667307 -63.005230
v 47.774956 -12.444219 -90.361336
v 88.899475 -12.483562 21.368164
v 84.436546 -11.284120 -5.806133
v 45.479992 -11.279639 -90.051239
v 89.070465 -10.471422 -24.113504
v 96.971886 2.159891 -35.681160
v 90.681778 -4.453513 -42.647743
v 88.049072 -0.490114 -46.315445
v 80.614822 0.171056 -65.468193
v 88.693474 -5.626626 -12.280243
v 87.720055 -11.120369 21.633305
v 83.261574 10.637193 -6.558345
v 85.885254 -11.006177 -31.721630
v 92.888939 2.664845 -45.837780
v 80.300873 -11.063112 40.186996
v 80.224113 -11.291287 3.879158
v 90.240509 4.749562 -14.802260
v 91.558022 -3.769838 -33.232632
v 89.652664 -0.917882 -34.963875
v 5.193720 -12.423551 -100.251602
v 78.003120 -12.447322 48.857994
v 83.178223 4.794696 -29.858110
v 53.964840 9.273253 -91.163933
v 57.723103 -11.414926 68.513008
v 81.625755 -12.437214 2.410708
v 64.398247 -11.259788 60.357788
v 85.484947 2.606322 25.583208
v 85.341652 12.028728 9.983884
v 82.195427 5.802159 -19.343449
v 98.552544 3.779445 -35.906033
v 86.073914 9.733097 -45.633038
v 79.156578 1.143715 -64.988380
v -2.086226 -11.331549 -98.823334
v -8.007945 -12.370518 -98.455734
v 4.343116 6.989912 -105.967728
v 30.053593 0.592162 -101.687904
v 81.748863 7.895958 -28.248323
v 32.025059 1.495324 -100.009148
v 46.800751 -11.357162 69.374901
v 53.460781 3.374149 69.304092
v -38.595592 -12.400973 -80.154892
v 50.505276 21.130341 -98.067444
v 19.090284 -9.235396 78.633339
v 25.800760 -12.498446 71.145477
v 26.408195 -11.246334 68.952469
v 81.716072 21.237541 -56.573292
v -38.079659 -11.155893 -79.274910
v 5.349968 12.392743 -109.048111
v -46.039711 -11.325750 -62.437920
v -47.061329 -12.499166 -49.142540
v -48.129230 -12.113992 -61.802948
v 64.029060 13.583514 59.734684
v -12.220712 6.629099 -102.741104
v -4.299810 -12.101339 83.720688
v 16.194117 -11.278735 79.085312
v 50.106075 10.394596 71.090607
v -47.432915 -11.271536 -47.884541
v 82.446457 11.670420 4.061086
v -55.528141 -12.529346 -34.493546
v 89.444572 17.374311 -18.102858
v -57.646500 -12.578367 -41.866402
v -62.771858 -12.312604 -53.548183
v -56.255699 -10.143966 -50.010391
v 89.024475 12.041849 -39.559193
v 4.852760 -5.082664 81.579163
v -7.719369 -11.083028 75.304161
v -16.142300 -12.245542 63.083939
v -38.091717 -12.365794 58.935436
v -53.831459 -11.250514 -40.961456
v -59.645058 -10.972609 -52.128384
v 91.649994 18.714254 -32.062759
v -54.900043 -11.188242 -1.249126
v -56.733437 -12.162903 0.214239
v -57.428936 -12.382971 -18.711245
v -57.317905 -11.412086 -29.269505
v -61.037376 -11.892530 -43.003460
v -54.092476 -2.835480 -43.062691
v 95.475685 14.499946 -43.180016
v 84.987648 19.150318 -67.450127
v -13.615892 -11.002844 63.193645
v -31.894258 -11.286270 58.647724
v -51.897316 -11.281917 46.003887
v -62.252350 -11.409879 16.394947
v -62.206341 -5.362540 -32.217743
v 85.380196 24.646753 -15.888147
v -53.497559 -4.775365 -31.703917
v 85.202759 8.825574 -19.947079
v -62.231594 -3.701042 -50.388313
v 35.885269 9.487250 69.245865
v -48.078953 -11.159959 49.088455
v -60.693035 -11.028746 18.170149
v 83.222893 15.031808 22.279526
v -60.224186 -1.407932 -36.340340
v 0.757036 -6.118640 82.639061
v -53.759960 -3.587870 -30.155115
v -56.415062 -1.505933 -37.590828
v -66.583183 -2.735304 -39.752270
v -66.852409 0.338793 -40.003456
v 97.261589 22.407005 -39.740093
v 83.938766 19.954775 -56.375885
v 19.382830 -1.965808 70.165291
v 88.266716 18.579012 -42.211052
v 21.705223 -0.983549 70.858299
v -59.634495 -0.438698 -43.997509
v -2.885130 10.829038 71.256256
v 86.444633 11.701907 -22.693537
v -56.123241 12.419633 -67.197968
v -46.099319 4.782373 50.043308
v -48.616409 11.803224 37.400738
v -63.647526 2.881479 -33.733444
v -66.648994 -6.673552 -39.418026
v 92.119118 18.506865 -21.043484
v -52.899967 -2.057775 -41.736736
v -19.096338 10.193208 61.006191
v 64.452446 16.625893 59.931717
v 70.848106 14.080379 45.031448
v -63.071476 9.940838 -21.764008
v 93.413605 18.221592 -31.960957
v -57.156422 -0.217185 -49.022129
v -53.787628 -1.073468 -52.194008
v -57.603951 13.464559 -69.276161
v 8.072928 8.663087 72.590218
v -13.533850 10.752447 62.893772
v 98.748337 15.099916 -38.368179
v 86.681786 25.519066 -34.810619
v -6.477751 19.200785 60.704094
v -65.766830 41.946243 -10.643065
v -61.556679 11.107820 -25.801714
v 87.516060 28.267155 -71.267479
v -35.363140 15.493582 61.839291
v -37.931583 16.375614 58.789650
v -32.851017 14.898429 -97.767090
v -20.243193 29.594517 -107.500145
v 43.725128 21.423668 68.403854
v -62.297188 1.198736 17.320917
v 84.625229 19.805750 8.233696
v -58.864773 7.391755 -43.257278
v -52.740829 21.123505 -82.034119
v 1.417193 6.113199 72.413887
v 43.841541 21.916162 70.184555
v 97.634209 21.639786 -33.010185
v 87.893776 25.485075 -17.664045
v -60.327534 8.205968 -43.912533
v 20.950329 11.805140 68.190918
v 11.092228 20.166101 64.800400
v 83.090790 25.581221 -4.190148
v -50.013943 11.838434 37.484623
v -55.425926 24.370382 -82.585594
v 22.242800 24.798893 -107.003510
v 87.476990 45.645378 -4.536020
v 32.190212 22.201454 73.100830
v 82.557274 30.685205 -5.313053
v 54.262840 52.033524 -95.281555
v -0.091367 26.249903 66.213089
v 82.902840 36.181015 13.958200
v 13.652929 18.320354 64.321266
v -54.500072 26.645695 30.521791
v 73.564064 30.394634 39.646458
v -26.743446 21.682144 63.291378
v 57.245937 27.188568 53.401031
v 75.835564 28.183311 34.505676
v 85.678383 39.360783 -1.085625
v 87.564095 27.301500 -33.450413
v 78.017502 36.657711 -77.637833
v -45.988480 21.841749 54.068855
v 57.905045 27.952013 54.881989
v -55.588169 25.754425 31.741529
v -66.599960 31.666811 -57.864197
v 89.856308 55.206303 -48.903690
v 85.260757 33.551014 -70.804138
v -27.693802 23.295023 -102.340843
v 70.366974 18.666544 46.819439
v -48.963852 27.146318 47.244240
v -25.083298 22.256977 64.587021
v -8.156919 19.439152 61.876652
v 32.097904 34.069740 74.299110
v -0.764712 29.676308 64.522072
v 85.339066 47.630920 -32.136848
v 41.370659 38.470356 67.954308
v 86.572769 47.272747 -32.107731
v 31.754564 27.665779 72.314865
v -55.567547 42.968605 -85.992355
v 56.675549 42.742271 55.192924
v 55.899918 43.428402 52.756931
v -7.632083 45.442379 -108.757042
v 28.005245 52.950771 -105.850967
v -50.693024 28.823549 47.235161
v -64.782227 32.072910 -61.748425
v -27.802357 36.189293 63.660164
v 58.228157 57.700783 -93.297325
v -54.267918 42.518864 -85.495476
v 13.501166 34.041264 66.287880
v 82.616226 52.493137 -63.085140
v 29.636751 36.251354 72.081917
v -5.250273 36.895298 67.021690
v 22.853018 41.531437 71.528648
v 42.873852 60.480659 -100.196808
v 45.238632 39.111282 67.501450
v 78.764427 42.413486 16.909925
v -66.629890 38.711002 -41.253239
v -12.370481 36.700523 64.993126
v -59.447136 45.894299 12.128402
v -34.072117 40.060184 61.393970
v -0.717563 49.595604 -108.996407
v 82.217598 63.563427 -65.169113
v 10.069216 47.904408 70.172607
v 82.102089 62.415306 -3.300929
v 88.619011 50.351337 -47.497200
v -36.120789 42.447376 61.250061
v 75.468742 74.808960 3.669105
v 86.860855 55.683456 -26.659176
v 29.895933 54.950027 -103.331963
v -65.840759 60.953426 -58.892109
v 77.197227 70.741280 -74.868713
v -33.282402 45.922672 -103.571503
v 20.177608 50.318951 73.475388
v 14.508270 49.454319 72.162285
v 63.207535 67.937317 26.666628
v -38.959507 57.628998 -97.192131
v 38.104462 53.038113 63.555546
v 64.855431 68.317734 27.249226
v -66.000473 55.051975 -55.565495
v -18.411234 71.356529 -101.896721
v -17.543829 64.006783 -105.309662
v -15.606670 50.644184 63.540939
v -67.568901 42.243385 -14.827590
v 70.280823 76.659317 6.725410
v 85.580833 67.797562 -48.012623
v -17.859106 51.914879 63.793892
v 38.594208 56.250759 63.157051
v -61.906242 66.692017 -7.409950
v 7.635800 55.015427 68.674080
v -58.298389 47.535763 18.724257
v -41.154224 61.681900 -96.462379
v 78.341118 82.788757 -28.735987
v 35.205101 60.972187 56.643894
v 31.464638 66.314926 57.284340
v 78.261383 71.267342 -59.046440
v 84.083412 78.157814 -49.283813
v 79.466164 70.228813 -59.988354
v 71.190842 80.385574 -70.267937
v -44.328197 67.972595 -85.870255
v 77.936966 65.463730 -73.710945
v 58.728401 86.303085 -80.369164
v -48.679798 64.188370 -86.314064
v 17.116449 64.996613 63.523941
v 18.267090 73.036758 55.300911
v -48.081886 59.441551 29.741707
v 76.940613 73.888313 -64.848114
v 32.932961 90.661072 -90.560875
v 79.119850 82.033585 -59.319313
v 5.641919 81.511482 -99.100342
v -26.028572 71.626381 46.783386
v 40.957718 72.614166 46.002472
v 55.028687 88.824387 -82.971436
v 90.153122 76.299149 -61.365219
v 84.285904 75.883629 -67.914177
v -41.723404 67.097366 -88.968155
v 47.595078 78.260231 -91.665421
v 4.261008 83.630562 -99.767235
v 77.162773 86.291420 -26.732666
v -59.509811 73.863411 -54.675117
v 78.108505 78.838081 -59.908138
v -47.675327 62.174507 31.764271
v 70.004974 90.663399 -65.274002
v -54.109703 74.297302 -73.722298
v 82.684860 77.715057 -62.171513
v -25.417200 85.849373 39.514786
v -41.026085 73.012527 -84.935165
v 41.180630 74.696480 46.959755
v -59.520542 69.183205 -9.484162
v -45.202023 72.578590 -94.712006
v 77.391075 84.143539 -55.402660
v -52.034073 77.086937 -77.319099
v -45.533028 73.720673 -83.152412
v 62.387318 83.568138 -82.511612
v -28.344868 79.475189 -95.554459
v 31.217745 90.426300 -92.669472
v 66.243111 100.391983 -45.259033
v -52.243828 75.899635 -89.287384
v -2.952126 75.269264 53.579384
v -45.153362 69.552711 -85.321007
v -41.335003 83.631042 19.632296
v -59.134544 76.816566 -57.141201
v 63.242649 102.003860 -24.268101
v 60.148281 97.447914 -63.054909
v 3.335390 93.410217 -92.699753
v -3.996254 76.927284 54.137794
v 22.811378 89.684074 43.023952
v 58.610130 104.389465 -48.028145
v -34.517693 84.112358 -85.317215
v -47.481491 95.017509 -13.397680
v -36.421448 85.396347 -85.449699
v 43.691036 93.364716 21.547234
v -48.195507 89.722626 -10.065784
v -20.626575 91.463493 -90.092873
v -0.281666 99.885750 35.413174
v -11.499673 98.013939 -86.134201
v 61.798092 102.080589 -24.280851
v -45.580334 89.549767 -62.523281
v 0.800393 100.593246 36.869282
v 22.392910 98.583527 34.827419
v -49.086681 90.908249 -30.454239
v 43.373703 92.906715 26.248152
v -42.743103 86.393547 17.483297
v 57.060219 99.341431 -4.296495
v -23.809860 96.910255 -78.974815
v 47.933865 98.464722 -78.534164
v -47.102428 94.676468 -36.848263
v 24.577269 106.195389 -78.825508
v 56.308804 101.429817 -1.617304
v 22.050297 104.099823 -78.201515
v 55.628735 101.589439 -11.905767
v -29.173737 99.827927 17.351271
v 23.198301 100.287918 35.624336
v -45.764023 90.959946 -18.796535
v -44.990303 93.174629 -20.645872
v -38.953609 95.008408 -67.952332
v -36.760754 102.704903 -13.514655
v 6.760533 96.861023 -90.348869
v -9.778675 104.174957 27.656218
v -31.142868 102.761711 12.754082
v 49.058727 108.653343 -8.642867
v 18.029480 101.555931 -81.214630
v 58.704506 112.067673 -7.265968
v 51.236607 102.417183 -12.208117
v -30.892271 106.463409 -23.527548
v 50.085304 109.956665 -21.991158
v 61.331543 110.076118 -9.669336
v 48.352024 108.228439 -12.800727
v -24.929638 106.425217 -58.042065
v -20.376263 99.560997 -81.921684
v -38.637520 101.596786 -17.217062
v -26.632416 103.273216 -59.657303
v -37.205292 105.422813 -17.151533
v -52.504452 100.891891 -19.975431
v -7.791046 108.225624 -69.704422
v -13.351099 105.432556 26.057524
v 43.871143 108.884865 -62.383484
v 55.709484 113.795303 -7.054228
v 45.121948 115.160599 -39.770046
v 24.738583 112.147934 -65.296257
v 3.082022 106.752464 -80.368004
v 45.279915 109.851204 -6.600250
v 42.217171 112.589897 -59.384014
v -7.197495 110.195160 -69.325668
v 39.757511 113.890129 -27.182362
v 10.896085 111.663612 23.446396
v -8.268216 115.417938 4.199379
v 37.542782 114.758835 -9.549076
v -47.622810 105.329948 -14.225126
v 33.532413 113.160919 -28.876116
v -8.225534 117.132416 4.089477
v 30.008121 114.404739 -50.320114
v 18.687969 113.962021 -52.687157
v 25.388205 113.659462 -55.236500
v 23.424061 114.322670 -65.516434
v 5.654848 116.417595 10.340894
v 29.446384 117.382408 -22.233891
v -7.780781 117.968765 -42.017006
v 29.675444 116.885071 -45.752502
v 13.195903 115.874046 -54.790623
v -2.754737 116.136230 9.915427
v 43.951801 114.609497 -11.814791
v 26.293768 124.172981 -51.602379
v 30.439278 124.526810 -49.995308
v 23.891136 117.670219 -45.770229
v -3.190838 115.323929 -0.014636
v -7.856934 116.595413 -41.727249
v 37.632141 115.806870 -39.975605
v 16.783718 119.409546 -49.223091
v 5.820333 119.417229 -12.700271
v 21.751738 124.252945 -51.898109
v 5.204239 117.905785 6.513885
v 0.095815 118.313782 -1.261656
v 30.721128 117.692528 -7.705416
v 13.239365 120.547150 -37.520054
v 12.851027 121.831436 -29.396233
v -3.211493 125.334198 4.754576
v -7.979020 124.617714 3.955600
v 0.766608 124.189285 7.338869
vn -0.0967 -0.9953 0.0056
vn 0.9120 -0.3997 0.0928
vn -0.9681 -0.1630 0.1901
vn -0.0114 -0.9997 0.0202
vn 0.6313 0.7497 0.1987
vn -0.0001 -0.9998 -0.0220
vn 0.0166 0.9973 0.0714
vn 0.8410 0.4364 0.3196
vn -0.0700 0.9893 -0.1278
vn 0.0499 -0.9984 -0.0255
vn -0.6003 0.7981 0.0521
vn 0.0541 -0.9984 0.0136
vn -0.4897 0.8706 0.0467
vn -0.0016 -1.0000 0.0007
vn -0.0299 0.9994 0.0170
vn 0.1645 0.9864 -0.0059
vn -0.0048 -1.0000 -0.0006
vn -0.8726 0.4558 -0.1755
vn -0.0008 1.0000 0.0004
vn 0.0003 1.0000 -0.0001
vn -0.9030 -0.2617 -0.3407
vn -0.9023 0.2315 -0.3636
vn -0.7421 0.6662 0.0737
vn 0.2839 -0.3878 -0.8769
vn 0.3538 0.7254 0.5904
vn 0.9633 -0.2099 -0.1674
vn -0.0005 -1.0000 0.0003
vn 0.5978 0.6937 0.4018
vn -0.0012 1.0000 0.0006
vn -0.3431 0.7905 0.5073
vn 0.9071 -0.2781 0.3159
vn 0.0927 -0.4298 -0.8982
vn 0.8779 -0.1591 -0.4516
vn -0.1233 -0.4471 -0.8859
vn -0.0080 0.9999 -0.0063
vn 0.8250 0.1530 0.5441
vn -0.9354 0.3218 -0.1465
vn 0.0164 0.9969 -0.0769
vn 0.4384 -0.5669 -0.6974
vn -0.0552 -0.9985 -0.0045
vn -0.0203 0.9998 -0.0062
vn 0.8552 -0.2366 -0.4611
vn -0.0037 -1.0000 0.0026
vn 0.5926 -0.2257 -0.7732
vn 0.1989 -0.4746 -0.8574
vn 0.0002 1.0000 -0.0005
vn 0.9244 0.1069 0.3663
vn 0.9758 0.1911 0.1064
vn -0.9132 0.0915 -0.3971
vn 0.9762 -0.1224 -0.1791
vn -0.8976 -0.2793 -0.3409
vn 0.9311 0.3609 0.0532
vn 0.5648 0.2417 0.7891
vn -0.8010 0.1518 0.5791
vn -0.4735 0.0314 0.8802
vn 0.0363 -0.9989 0.0286
vn -0.0040 1.0000 0.0030
vn -0.0002 1.0000 -0.0004
vn 0.0002 -1.0000 -0.0007
vn 0.0004 -1.0000 -0.0010
vn -0.8452 -0.1667 0.5078
vn -0.8113 -0.4516 0.3714
vn -0.1578 0.4984 0.8525
vn 0.1200 -0.3324 -0.9355
vn 0.9332 -0.0309 -0.3581
vn -0.9848 -0.0253 0.1720
vn 0.9775 0.0853 -0.1930
vn -0.4478 0.1983 -0.8719
vn 0.0055 1.0000 -0.0036
vn 0.8036 0.1440 0.5775
vn -0.6489 -0.0022 -0.7609
vn 0.0139 0.9998 0.0167
vn 0.7380 0.0109 -0.6747
vn 0.0036 -1.0000 -0.0022
vn -0.9769 -0.2136 -0.0012
vn -0.0760 -0.9968 -0.0239
vn -0.9002 0.0681 0.4302
vn -0.8755 -0.0875 0.4752
vn 0.2181 -0.8079 0.5475
vn -0.0024 1.0000 0.0007
vn -0.7849 -0.0272 -0.6191
vn -0.0105 -0.9999 0.0064
vn 0.1758 0.3035 0.9365
vn -0.1174 0.3963 0.9106
vn 0.0158 -0.9999 -0.0021
vn 0.0063 1.0000 -0.0031
vn 0.0051 -1.0000 0.0009
vn 0.0101 -0.9999 0.0038
vn 0.1294 -0.2513 0.9592
vn -0.6224 -0.2040 0.7556
vn 0.9592 -0.0320 -0.2810
vn -0.4320 0.2256 0.8732
vn -0.9826 -0.1708 0.0734
vn -0.9182 0.0858 0.3868
vn 0.9868 -0.1144 -0.1145
vn -0.0121 -0.9999 0.0078
vn 0.4045 -0.8929 -0.1978
vn 0.1073 0.7614 -0.6393
vn 0.2095 0.0250 0.9775
vn 0.7721 0.2887 0.5661
vn 0.0077 1.0000 0.0029
vn 0.0848 -0.0877 0.9925
vn -0.6556 -0.0287 -0.7546
vn 0.8685 0.2395 0.4341
vn -0.0014 1.0000 -0.0020
vn 0.0126 0.9999 -0.0063
vn 0.0057 -1.0000 -0.0012
vn -0.0536 -0.9985 0.0136
vn -0.9183 -0.1489 -0.3668
vn -0.0252 0.9997 -0.0058
vn 0.0269 0.9994 0.0218
vn -0.7558 -0.1584 -0.6354
vn -0.5052 0.2272 0.8325
vn -0.4989 -0.8434 0.1997
vn -0.7929 -0.6074 0.0484
vn -0.7238 -0.0225 0.6896
vn -0.5802 0.2809 0.7645
vn -0.6441 -0.4025 -0.6505
vn -0.0954 0.0577 -0.9938
vn 0.0014 -0.0054 -1.0000
vn -0.0176 0.9998 0.0084
vn 0.9594 0.1316 -0.2495
vn -0.5639 0.1051 -0.8192
vn -0.7316 -0.3615 0.5780
vn -0.2994 0.1024 0.9486
vn 0.8477 -0.0871 -0.5233
vn 0.0207 0.0047 -0.9998
vn 0.0144 0.9999 -0.0039
vn -0.1217 -0.9915 0.0469
vn -0.0757 -0.9969 0.0206
vn -0.7421 -0.6651 -0.0832
vn -0.6772 -0.1597 -0.7183
vn -0.9504 0.1510 0.2721
vn 0.7342 -0.0172 0.6787
vn 0.8684 0.4623 0.1791
vn 0.7711 0.3424 0.5368
vn -0.1285 -0.3306 -0.9350
vn -0.3627 -0.5861 -0.7245
vn 0.0070 1.0000 0.0014
vn 0.8897 -0.3751 0.2601
vn 0.6870 0.6556 0.3133
vn -0.9680 -0.0486 -0.2462
vn -0.2158 -0.8883 0.4054
vn -0.8546 0.2253 -0.4679
vn 0.3769 0.2981 -0.8770
vn -0.3286 0.6141 -0.7175
vn 0.3942 -0.2359 -0.8882
vn -0.9510 -0.2092 0.2276
vn 0.0334 0.3306 -0.9432
vn 0.9159 0.3245 -0.2362
vn -0.0551 -0.4529 0.8898
vn 0.7450 0.0857 -0.6616
vn -0.2800 0.1088 0.9538
vn 0.2197 0.7082 -0.6709
vn -0.7436 -0.6623 0.0913
vn 0.8311 0.5507 0.0775
vn 0.7727 0.4078 -0.4864
vn -0.5173 0.1070 -0.8491
vn -0.9125 0.2514 -0.3227
vn -0.3531 -0.5813 -0.7331
vn 0.6964 0.0519 0.7158
vn 0.9205 0.3819 -0.0825
vn 0.2225 0.3709 -0.9016
vn -0.0409 0.2107 -0.9767
vn 0.8719 -0.2412 -0.4261
vn 0.3252 0.5918 0.7375
vn -0.2120 0.2046 0.9556
vn -0.6485 -0.4525 0.6122
vn -0.9843 0.1085 -0.1393
vn 0.6520 -0.3221 -0.6864
vn 0.8529 0.5216 -0.0233
vn -0.8262 0.3075 0.4720
vn -0.0159 0.0193 0.9997
vn -0.9874 -0.0181 -0.1570
vn -0.7431 0.6421 0.1882
vn 0.1426 0.4067 -0.9023
vn 0.7594 0.0325 -0.6498
vn -0.1633 0.2201 0.9617
vn 0.7205 -0.3249 -0.6127
vn 0.5059 0.1148 -0.8549
vn 0.9219 -0.0919 -0.3765
vn -0.8753 -0.2492 -0.4144
vn -0.9435 -0.0276 0.3301
vn -0.8511 -0.2289 -0.4725
vn -0.8361 0.5362 -0.1162
vn 0.4611 -0.4181 -0.7827
vn -0.2904 0.1180 0.9496
vn -0.8171 -0.1405 -0.5591
vn 0.7791 0.1086 0.6174
vn -0.8817 -0.3998 -0.2506
vn 0.4410 -0.6057 0.6623
vn -0.8080 -0.4200 -0.4132
vn 0.2417 -0.0376 -0.9696
vn 0.0892 -0.7399 -0.6668
vn 0.6867 -0.6605 -0.3034
vn 0.5654 -0.5043 0.6527
vn 0.5665 -0.6066 -0.5578
vn 0.1508 0.2611 -0.9535
vn 0.9565 0.0509 -0.2873
vn 0.9701 -0.2149 0.1131
vn 0.4349 0.4192 0.7970
vn 0.5809 0.1075 0.8069
vn 0.9232 -0.2272 -0.3100
vn -0.9700 -0.2399 0.0384
vn 0.5355 0.8433 0.0449
vn 0.2096 0.9750 0.0740
vn 0.8749 0.4199 0.2414
vn -0.2934 0.2221 0.9298
vn -0.1655 0.4789 0.8622
vn 0.4073 0.4311 0.8051
vn -0.1858 0.0292 0.9822
vn -0.0875 0.1984 0.9762
vn -0.8524 0.0189 0.5225
vn -0.4686 -0.4072 -0.7840
vn -0.4033 0.1036 0.9092
vn -0.6162 0.0764 0.7839
vn 0.7661 -0.0568 -0.6402
vn 0.0618 0.7145 -0.6969
vn 0.5122 -0.7382 0.4390
vn 0.8145 -0.5693 0.1115
vn -0.8509 0.5185 -0.0847
vn -0.4039 0.7774 -0.4821
vn -0.9519 -0.2633 -0.1568
vn 0.3583 -0.2723 -0.8930
vn -0.0690 -0.0967 0.9929
vn 0.1275 0.0329 -0.9913
vn -0.0172 -0.0591 -0.9981
vn 0.8680 0.2483 0.4301
vn 0.9660 0.0037 -0.2585
vn -0.5420 -0.8393 -0.0423
vn -0.5282 0.7177 -0.4538
vn 0.0418 -0.0919 -0.9949
vn -0.9007 -0.2787 0.3334
vn 0.7726 0.1718 0.6112
vn 0.8018 -0.1339 0.5823
vn -0.4489 0.7733 -0.4476
vn 0.0726 -0.5659 0.8213
vn 0.4504 0.3990 0.7987
vn -0.4092 0.0903 0.9080
vn 0.0060 0.5463 0.8376
vn 0.1161 -0.2445 -0.9627
vn -0.9650 0.2622 -0.0072
vn 0.8085 0.1693 0.5636
vn 0.9092 -0.1269 0.3965
vn -0.4369 0.8993 0.0173
vn -0.3544 -0.7283 0.5865
vn 0.8239 0.4078 0.3936
vn 0.2499 -0.0787 -0.9651
vn 0.0683 -0.6420 -0.7636
vn -0.2639 -0.3351 -0.9045
vn -0.0977 0.0251 0.9949
vn -0.8803 0.2255 0.4173
vn 0.8432 0.0939 0.5293
vn -0.8767 -0.0473 -0.4788
vn 0.9158 0.3590 0.1803
vn 0.9207 0.2445 0.3042
vn 0.2693 0.2118 0.9395
vn -0.9208 -0.2139 -0.3263
vn -0.8018 -0.2888 -0.5231
vn 0.8714 0.3738 0.3177
vn 0.7964 0.4245 0.4306
vn -0.2382 -0.2705 -0.9328
vn -0.6840 -0.0090 0.7294
vn 0.9914 0.0315 -0.1273
vn -0.6628 0.1898 -0.7243
vn -0.9740 -0.0956 -0.2054
vn -0.1042 0.7006 -0.7059
vn -0.9607 -0.1309 0.2450
vn -0.4692 -0.2946 -0.8325
vn -0.3235 -0.9439 -0.0658
vn 0.1576 0.5250 0.8364
vn 0.4869 0.3284 0.8094
vn -0.9460 0.0204 -0.3236
vn -0.9597 0.1288 0.2499
vn 0.9410 -0.0425 0.3357
vn 0.4943 0.8647 0.0892
vn -0.6572 0.2513 0.7106
vn 0.6538 -0.1971 -0.7306
vn -0.3464 -0.2931 -0.8912
vn 0.2471 -0.0618 -0.9670
vn 0.1852 -0.5762 0.7961
vn -0.9784 0.1368 0.1550
vn -0.7526 -0.5463 -0.3675
vn 0.8146 0.0554 -0.5773
vn 0.9946 0.0927 0.0469
vn 0.9782 0.1825 -0.0995
vn 0.9136 0.3225 -0.2478
vn -0.7982 -0.3954 -0.4546
vn 0.3529 0.4594 0.8151
vn -0.5597 0.4294 0.7088
vn 0.2947 0.2238 -0.9290
vn -0.2600 0.1030 -0.9601
vn -0.8251 -0.1011 0.5559
vn 0.9165 -0.2063 -0.3428
vn -0.7957 0.5881 -0.1446
vn -0.9217 -0.3482 -0.1712
vn 0.1859 0.1493 0.9712
vn -0.0522 0.3189 0.9463
vn 0.9057 0.1992 0.3741
vn 0.8685 -0.4403 0.2277
vn -0.9590 -0.0469 -0.2795
vn 0.2155 0.3265 -0.9203
vn -0.6190 -0.0798 0.7813
vn 0.7003 0.5864 0.4071
vn 0.9310 0.2392 0.2758
vn -0.9686 -0.1893 -0.1610
vn 0.5780 0.3265 0.7479
vn -0.5872 0.0816 0.8053
vn -0.4987 -0.5576 -0.6637
vn -0.9354 0.1919 0.2969
vn -0.6182 -0.3301 -0.7133
vn -0.3616 -0.0488 0.9311
vn 0.9848 0.1092 -0.1354
vn -0.0109 0.0690 0.9976
vn 0.4782 0.5731 0.6655
vn 0.9626 0.0535 0.2655
vn 0.9868 0.0926 0.1325
vn 0.1743 0.1251 0.9767
vn -0.6516 0.3398 0.6782
vn 0.7262 0.0070 -0.6874
vn 0.6529 0.2577 0.7123
vn -0.9338 -0.1117 -0.3398
vn -0.9673 -0.0875 0.2379
vn -0.0991 -0.2416 0.9653
vn -0.1109 0.1223 -0.9863
vn 0.1607 0.0161 0.9869
vn 0.7298 -0.1554 -0.6657
vn -0.9467 -0.3085 -0.0931
vn 0.9771 -0.1859 0.1032
vn -0.3563 -0.0966 0.9294
vn -0.2711 -0.3282 -0.9049
vn -0.3435 -0.0721 -0.9364
vn -0.7430 -0.2113 -0.6351
vn 0.9232 -0.1961 0.3305
vn -0.9961 -0.0519 -0.0709
vn 0.9827 0.0605 -0.1748
vn -0.5954 -0.1557 -0.7882
vn -0.1205 -0.4294 0.8950
vn -0.5772 -0.0801 -0.8127
vn 0.9986 0.0506 -0.0150
vn 0.6119 0.1687 0.7728
vn 0.2394 0.3202 -0.9166
vn -0.9642 -0.0272 -0.2637
vn -0.4717 -0.1685 -0.8655
vn 0.2395 -0.0957 0.9662
vn -0.9739 -0.1322 -0.1845
vn 0.8837 0.2868 0.3698
vn 0.6046 -0.0238 -0.7961
vn -0.8974 -0.2461 0.3663
vn 0.9587 0.2511 0.1338
vn 0.1734 0.0990 0.9799
vn -0.3127 -0.1028 -0.9443
vn 0.4246 0.1058 0.8992
vn -0.9795 -0.1620 0.1195
vn 0.9987 0.0404 -0.0304
vn -0.1441 -0.1583 -0.9768
vn 0.2055 -0.2940 -0.9334
vn 0.1289 0.2768 -0.9523
vn -0.7150 -0.1169 -0.6893
vn 0.7259 0.0481 0.6861
vn 0.9238 0.2214 -0.3125
vn 0.7250 0.0458 0.6872
vn -0.2657 0.0123 0.9640
vn -0.5370 0.1228 0.8346
vn -0.7059 -0.0864 -0.7030
vn -0.9144 -0.2284 0.3342
vn -0.8370 -0.3490 -0.4216
vn -0.9900 -0.1405 0.0122
vn 0.3480 0.0168 -0.9374
vn -0.0667 -0.0095 -0.9977
vn 0.1067 0.0188 -0.9941
vn -0.2536 0.0446 0.9663
vn 0.6933 0.0425 0.7194
vn 0.9867 0.1565 -0.0444
vn -0.3106 -0.2208 0.9245
vn -0.7639 -0.3496 -0.5424
vn 0.9084 0.4148 -0.0524
vn -0.9098 -0.2354 -0.3418
vn -0.9495 0.2732 -0.1544
vn 0.8824 0.1359 0.4505
vn -0.6003 -0.1485 -0.7859
vn -0.3173 -0.0349 0.9477
vn 0.2007 0.2964 -0.9337
vn -0.1343 -0.1396 0.9811
vn -0.9640 -0.2292 -0.1345
vn 0.3306 0.0560 -0.9421
vn 0.3545 0.0449 -0.9340
vn 0.9487 -0.0538 -0.3115
vn 0.9646 -0.0486 -0.2593
vn -0.9515 0.2774 0.1331
vn -0.9233 0.1036 0.3698
vn 0.9547 0.0946 0.2821
vn -0.9839 0.1786 0.0108
vn 0.1044 0.2373 -0.9658
vn 0.7050 -0.0370 -0.7082
vn 0.0340 0.2775 -0.9601
vn -0.7484 0.1319 0.6500
vn 0.8832 0.2718 0.3823
vn 0.8945 0.2676 0.3582
vn 0.8926 -0.0550 -0.4475
vn 0.6673 0.0763 -0.7409
vn 0.4144 0.0311 -0.9096
vn -0.1201 -0.0899 0.9887
vn -0.1344 -0.2595 0.9563
vn 0.8739 -0.4827 -0.0572
vn 0.9963 0.0314 0.0797
vn -0.9471 0.2825 -0.1522
vn -0.1742 0.0967 -0.9800
vn -0.3722 -0.1415 0.9173
vn 0.8842 -0.1833 -0.4296
vn -0.9456 0.0720 0.3173
vn -0.9169 -0.0786 -0.3912
vn 0.2796 0.3259 -0.9031
vn 0.5662 0.0625 0.8219
vn 0.3355 -0.0311 0.9415
vn 0.2051 0.5537 0.8071
vn -0.1134 -0.2477 0.9622
vn 0.2904 0.3242 -0.9003
vn -0.9641 0.0755 0.2545
vn -0.9842 -0.1725 -0.0389
vn 0.6025 0.0790 -0.7942
vn -0.6465 -0.0792 0.7588
vn 0.1569 -0.1678 0.9732
vn -0.2566 -0.3317 -0.9078
vn -0.9552 0.0550 0.2909
vn 0.7602 0.3529 0.5455
vn -0.9325 0.0115 -0.3611
vn -0.9632 -0.2052 0.1736
vn -0.2820 -0.3176 -0.9053
vn -0.6170 -0.3510 -0.7044
vn -0.9746 -0.1657 -0.1508
vn -0.1699 0.0533 -0.9840
vn 0.1531 -0.0671 -0.9859
vn 0.2454 -0.0439 -0.9684
vn -0.9292 -0.1519 0.3370
vn -0.3293 -0.2106 0.9204
vn -0.1495 0.0862 0.9850
vn 0.3654 0.3593 0.8587
vn 0.6057 0.4080 0.6832
vn 0.9337 -0.1899 -0.3034
vn -0.7522 -0.1777 -0.6345
vn 0.9641 0.2442 0.1043
vn 0.9225 0.1959 -0.3325
vn 0.3003 -0.1254 0.9456
vn -0.3099 0.1346 0.9412
vn -0.9036 -0.3114 -0.2943
vn -0.9993 0.0249 -0.0286
vn -0.9507 -0.1036 0.2922
vn -0.1934 0.0482 0.9799
vn -0.9589 0.1488 0.2415
vn 0.8193 0.3392 0.4622
vn 0.9270 0.3333 0.1719
vn 0.9217 -0.0545 0.3841
vn 0.9212 0.2265 -0.3163
vn -0.1954 0.1153 0.9739
vn -0.1575 -0.6808 -0.7154
vn -0.5616 -0.2675 0.7830
vn 0.5943 0.2263 -0.7718
vn 0.4359 0.3234 -0.8398
vn -0.9448 -0.3059 -0.1169
vn -0.6222 0.0419 -0.7817
vn 0.6547 0.6690 0.3517
vn 0.9981 -0.0577 -0.0220
vn -0.7144 -0.6450 0.2711
vn -0.5913 -0.2558 0.7648
vn 0.0736 0.8022 0.5925
vn -0.6220 -0.6311 -0.4635
vn -0.8007 0.3801 0.4631
vn -0.6339 -0.4672 -0.6164
vn -0.8310 -0.3374 -0.4423
vn -0.9464 -0.3055 -0.1048
vn -0.8763 -0.4409 0.1939
vn 0.7422 -0.2809 0.6085
vn 0.6367 0.4669 0.6137
vn 0.8947 -0.1591 0.4173
vn 0.3746 0.6604 -0.6508
vn -0.7521 0.2348 -0.6158
vn 0.2905 0.3281 -0.8989
vn -0.0037 -0.2573 0.9663
vn -0.0821 -0.2295 0.9699
vn 0.1523 0.3351 0.9298
vn 0.8829 0.4549 -0.1163
vn -0.1967 -0.3153 0.9284
vn -0.2201 0.6042 0.7658
vn -0.3076 -0.5205 -0.7965
vn 0.3610 -0.4659 -0.8079
vn -0.5064 -0.4320 -0.7463
vn -0.8957 -0.4446 0.0093
vn -0.8444 -0.1980 0.4979
vn -0.1848 -0.3170 0.9303
vn 0.0764 0.2505 -0.9651
vn 0.4615 0.4245 0.7790
vn -0.8582 0.2025 0.4718
vn 0.1965 0.3103 -0.9301
vn 0.4938 -0.5565 -0.6682
vn 0.6831 -0.2567 0.6837
vn 0.4325 -0.8373 -0.3344
vn -0.0283 -0.8055 -0.5919
vn 0.8825 0.4548 -0.1202
vn -0.4915 0.6877 -0.5343
vn -0.6820 -0.4427 0.5821
vn 0.7827 -0.3130 -0.5381
vn -0.9762 0.2106 0.0511
vn 0.9730 -0.2202 -0.0693
vn 0.9028 0.0507 -0.4270
vn -0.9924 -0.0335 -0.1185
vn -0.3648 0.5967 0.7147
vn 0.2647 0.6190 0.7394
vn -0.4050 0.2684 -0.8740
vn 0.1788 -0.4465 -0.8767
vn 0.9327 0.3173 0.1718
vn -0.8316 0.2625 -0.4894
vn 0.1562 -0.0513 0.9864
vn -0.4621 -0.1095 -0.8800
vn -0.2334 -0.9723 0.0106
vn 0.9208 0.3783 -0.0952
vn -0.3007 0.2633 -0.9166
vn 0.0113 0.2602 -0.9655
vn -0.3632 0.4873 0.7941
vn 0.8896 -0.3092 -0.3362
vn 0.9511 -0.2084 -0.2278
vn 0.9113 -0.3263 0.2509
vn 0.5369 -0.4804 0.6935
vn 0.3165 -0.4910 -0.8116
vn -0.6828 0.4548 0.5718
vn 0.8134 0.2407 0.5296
vn 0.3726 0.3600 -0.8553
vn 0.3687 0.8465 -0.3841
vn -0.7165 0.5384 -0.4435
vn -0.3267 -0.5446 -0.7724
vn -0.8259 -0.4933 -0.2730
vn 0.9453 -0.3246 -0.0334
vn -0.8468 0.1380 -0.5137
vn 0.4694 -0.6290 0.6197
vn -0.4428 0.5816 -0.6824
vn -0.1535 0.4288 0.8903
vn 0.6923 0.2692 -0.6695
vn 0.0313 -0.7135 -0.6999
vn 0.1668 0.3144 -0.9345
vn 0.2689 0.6083 0.7468
vn 0.6885 -0.4417 -0.5752
vn 0.1315 -0.2635 0.9557
vn -0.7598 -0.6501 -0.0060
vn -0.7628 -0.4754 0.4383
vn -0.6781 -0.0198 0.7347
vn -0.6701 -0.3676 -0.6448
vn 0.6965 -0.3876 0.6039
vn 0.0157 -0.5130 -0.8583
vn 0.7136 0.6955 -0.0843
vn -0.4793 0.4148 -0.7735
vn 0.6976 0.4993 -0.5138
vn 0.4627 -0.4262 0.7774
vn -0.6025 -0.5741 -0.5545
vn -0.6217 0.2835 -0.7301
vn 0.8563 0.5158 -0.0264
vn 0.4912 0.6356 -0.5955
vn -0.8780 0.3201 0.3559
vn 0.6738 0.5767 0.4620
vn -0.9218 0.3867 0.0273
vn -0.8665 0.3994 -0.2996
vn 0.7540 0.6353 -0.1671
vn -0.6633 -0.6116 0.4313
vn 0.3737 0.9240 -0.0806
vn -0.1699 0.4381 -0.8827
vn -0.6895 0.4669 0.5537
vn 0.6886 -0.4346 -0.5804
vn -0.7667 -0.5803 -0.2746
vn -0.3879 -0.5260 0.7568
vn 0.7409 0.6136 0.2730
vn -0.5182 -0.6227 -0.5863
vn 0.6142 0.5593 0.5568
vn 0.6502 0.5876 0.4816
vn -0.6528 -0.6115 0.4471
vn 0.1257 -0.5289 0.8393
vn 0.2990 0.5679 0.7669
vn 0.5969 -0.3247 0.7337
vn 0.3546 -0.5423 0.7617
vn -0.3389 0.4964 0.7992
vn -0.3232 -0.5595 -0.7632
vn 0.8568 -0.3832 -0.3450
vn 0.7812 0.6241 0.0146
vn 0.7807 -0.5893 0.2079
vn -0.5565 0.2804 -0.7821
vn -0.6224 0.3477 -0.7012
vn 0.0721 0.5693 -0.8189
vn 0.4074 0.6640 0.6270
vn -0.7617 -0.5927 -0.2618
vn -0.8864 0.4608 0.0444
vn -0.6594 -0.7059 0.2586
vn 0.5433 0.6642 -0.5135
vn 0.3127 -0.5857 -0.7478
vn 0.7517 0.6570 0.0570
vn -0.4277 0.5881 -0.6865
vn -0.1733 0.4985 -0.8494
vn 0.2555 -0.4191 0.8712
vn -0.0558 -0.6189 -0.7835
vn -0.6429 -0.5914 -0.4867
vn -0.3582 -0.7144 0.6011
vn 0.3100 0.6976 -0.6459
vn -0.7182 0.6517 -0.2440
vn -0.5910 0.6678 -0.4524
vn -0.4835 -0.7175 0.5015
vn 0.0028 -0.5940 -0.8045
vn -0.7099 0.6813 -0.1787
vn 0.5982 -0.6640 0.4487
vn -0.0233 0.5924 0.8053
vn 0.6090 -0.5392 -0.5817
vn -0.8534 0.3826 0.3541
vn -0.6424 -0.6038 -0.4720
vn 0.8813 -0.4701 -0.0485
vn -0.7271 -0.6858 0.0309
vn 0.4209 -0.6604 0.6219
vn 0.8349 -0.4685 -0.2890
vn -0.8176 0.5754 -0.0216
vn -0.4340 0.7616 -0.4812
vn -0.0026 -0.6781 0.7350
vn -0.1239 0.5909 -0.7972
vn 0.0919 0.6235 0.7764
vn 0.1820 0.5185 -0.8355
vn 0.8730 -0.4832 -0.0663
vn 0.5684 -0.6943 0.4415
vn -0.8362 0.4814 0.2627
vn 0.4845 0.7480 0.4537
vn 0.7621 0.5979 0.2485
vn -0.2459 -0.9508 -0.1886
vn 0.7700 -0.6283 0.1108
vn -0.2639 -0.7600 0.5940
vn -0.3368 -0.4959 0.8004
vn 0.5080 0.4804 0.7150
vn -0.0264 0.9995 0.0173
vn -0.5722 0.5912 -0.5683
vn 0.0082 -0.8099 0.5865
vn 0.2505 -0.9658 -0.0671
vn -0.1533 0.6147 -0.7737
vn 0.1517 0.7905 -0.5934
vn -0.2631 0.6029 0.7532
vn 0.5906 0.8070 -0.0022
vn 0.3297 -0.5952 -0.7328
vn 0.0533 0.5701 0.8198
vn -0.6269 0.5910 0.5076
vn 0.7437 -0.5999 -0.2949
vn -0.5619 -0.6934 -0.4510
vn 0.5190 -0.7865 0.3349
vn 0.5116 0.7573 -0.4059
vn 0.2180 0.7322 -0.6453
vn 0.4741 -0.6099 -0.6350
vn 0.6977 -0.6769 -0.2346
vn 0.7606 -0.6377 0.1215
vn 0.5741 -0.8130 0.0972
vn -0.5386 -0.7845 0.3073
vn -0.1454 0.7050 -0.6942
vn -0.7338 0.2429 0.6345
vn 0.8360 -0.5450 -0.0637
vn 0.6788 -0.7092 -0.1903
vn -0.5546 -0.6894 -0.4660
vn -0.5642 0.8138 -0.1391
vn 0.5589 0.7822 -0.2752
vn -0.7177 -0.6927 -0.0706
vn 0.2766 -0.9000 0.3369
vn -0.2210 -0.8062 0.5488
vn -0.1580 0.6716 -0.7238
vn -0.5027 0.6781 0.5361
vn -0.4624 -0.7705 -0.4387
vn 0.2226 -0.2487 -0.9427
vn 0.7086 -0.5419 0.4519
vn 0.5942 0.7037 0.3895
vn -0.5588 -0.8293 -0.0056
vn 0.4284 -0.8076 0.4053
vn 0.0310 -0.8520 0.5226
vn 0.2807 0.8298 -0.4824
vn 0.0467 0.7531 0.6563
vn -0.6234 0.7230 0.2976
vn 0.4307 0.8052 0.4076
vn 0.8192 -0.5098 -0.2627
vn 0.5764 0.8170 0.0197
vn 0.3754 -0.8877 0.2665
vn 0.2468 0.8136 -0.5264
vn 0.3290 0.9443 0.0118
vn -0.3841 -0.7944 -0.4706
vn -0.8531 0.4974 0.1573
vn 0.0464 -0.4835 0.8741
vn 0.2185 0.1087 -0.9698
vn -0.9558 -0.2763 -0.1005
vn 0.6590 0.3517 0.6648
vn 0.6118 -0.7784 0.1409
vn -0.4249 -0.8915 0.1571
vn 0.5299 0.8272 -0.1869
vn -0.4484 0.8327 -0.3249
vn -0.3011 0.6591 0.6891
vn -0.7767 0.0398 0.6286
vn -0.1099 0.3956 0.9118
vn 0.5645 0.8245 0.0399
vn -0.4918 -0.8694 -0.0485
vn -0.2595 0.9139 -0.3122
vn -0.5329 0.5285 -0.6608
vn -0.1537 0.6152 -0.7733
vn 0.5761 0.3522 0.7376
vn 0.1199 0.2012 -0.9722
vn -0.5723 0.8058 -0.1521
vn -0.3857 -0.9199 0.0704
vn 0.0050 -0.8926 0.4508
vn -0.7682 0.6050 0.2096
vn 0.8122 0.5189 0.2666
vn -0.3403 0.8546 -0.3923
vn -0.4575 -0.8809 -0.1212
vn 0.0869 0.6576 -0.7483
vn 0.2354 0.9715 0.0290
vn 0.0612 -0.8399 -0.5393
vn 0.2689 0.0807 0.9598
vn 0.1752 -0.8514 0.4944
vn -0.0619 -0.8264 -0.5596
vn 0.5252 -0.8509 -0.0116
vn 0.4855 -0.8640 0.1335
vn -0.1630 -0.9546 0.2495
vn 0.0081 -0.9892 0.1462
vn -0.1957 -0.9572 0.2131
vn -0.1491 0.8150 0.5600
vn -0.3042 -0.8569 -0.4162
vn -0.3565 -0.9343 0.0013
vn 0.1607 -0.9718 -0.1723
vn -0.4741 0.8721 -0.1209
vn 0.1678 0.9740 -0.1525
vn -0.0173 0.9490 -0.3149
vn -0.3224 -0.9464 -0.0185
vn -0.0075 0.9124 -0.4093
vn 0.0756 0.9959 0.0498
vn -0.3950 0.8459 0.3584
vn 0.5009 -0.8417 -0.2016
vn 0.4446 -0.8926 -0.0745
vn 0.5879 0.6665 0.4584
vn -0.1533 0.8410 -0.5189
vn -0.3179 -0.9481 0.0068
vn -0.3577 0.8961 -0.2627
vn 0.3592 -0.8824 -0.3038
vn -0.0408 -0.8544 0.5179
vn 0.1437 -0.9480 0.2839
vn -0.6076 0.6533 -0.4516
vn -0.1736 0.8694 0.4625
vn -0.2698 0.8746 0.4029
vn -0.4754 0.8626 0.1731
vn -0.8875 -0.2496 -0.3873
vn -0.1362 0.9521 -0.2739
vn 0.5320 0.8454 -0.0471
vn 0.3758 0.8355 0.4009
vn 0.3241 0.8570 0.4005
vn 0.1277 -0.9575 0.2587
vn -0.2063 0.0498 0.9772
vn 0.2837 -0.8114 -0.5110
vn -0.3828 0.9237 0.0131
vn -0.1315 -0.9829 -0.1289
vn -0.1327 -0.9840 -0.1188
vn -0.1908 -0.9816 -0.0009
vn -0.1607 -0.9554 0.2479
vn -0.6250 -0.0903 -0.7754
vn -0.4596 -0.5912 0.6627
vn -0.0582 -0.9636 0.2609
vn 0.9088 -0.2683 -0.3196
vn 0.3892 -0.9209 -0.0201
vn 0.2073 0.9781 0.0159
vn 0.3011 0.7765 -0.5535
vn 0.7815 -0.5511 -0.2925
vn -0.6715 -0.3416 -0.6576
vn 0.1696 0.9418 0.2902
vn -0.4751 -0.6810 -0.5572
vn 0.2478 -0.9685 -0.0226
vn -0.1176 -0.9898 -0.0802
vn 0.1754 0.9808 -0.0850
vn -0.5334 0.0822 -0.8418
vn 0.1895 0.3537 -0.9160
vn -0.0527 0.9311 0.3610
vn 0.2620 -0.9572 -0.1227
vn -0.1354 0.4913 0.8604
vn -0.0649 0.9934 0.0948
vn 0.0777 0.9891 0.1247
vn 0.1822 -0.9832 0.0097
vn -0.0988 0.9852 -0.1400
vn -0.1872 0.6150 0.7660
vn 0.4080 -0.1577 -0.8993
vn -0.1300 0.9914 0.0167
vn -0.2021 0.9789 0.0308
vn 0.3637 0.1358 0.9216
vn 0.5958 -0.3444 0.7255
vn -0.7080 -0.3049 0.6370
vn -0.7254 0.0362 0.6874
vn -0.5412 0.0028 -0.8409
vn 0.7074 0.5567 -0.4355
vn -0.3115 0.4104 0.8571
vn 0.2549 0.7891 -0.5589
s 0
usemtl Head_Transparent
f 2//1 3//1 1//1
f 1//2 4//2 2//2
f 6//3 5//3 3//3
f 16//4 6//4 3//4
f 2//5 8//5 7//5
f 2//6 7//6 3//6
f 12//7 9//7 13//7
f 12//8 10//8 9//8
f 9//9 10//9 28//9
f 7//10 16//10 3//10
f 13//11 28//11 12//11
f 13//12 9//12 20//12
f 28//13 11//13 12//13
f 40//14 16//14 7//14
f 19//15 12//15 15//15
f 11//16 15//16 12//16
f 40//17 17//17 36//17
f 25//18 12//18 18//18
f 19//19 31//19 18//19
f 18//20 12//20 19//20
f 20//21 10//21 12//21
f 21//22 10//22 20//22
f 11//23 28//23 22//23
f 9//24 28//24 34//24
f 28//25 10//25 22//25
f 3//26 5//26 23//26
f 40//27 35//27 16//27
f 8//28 2//28 33//28
f 19//29 48//29 31//29
f 2//30 4//30 33//30
f 20//31 9//31 21//31
f 21//32 9//32 34//32
f 1//33 29//33 4//33
f 1//34 3//34 29//34
f 31//35 30//35 26//35
f 27//36 40//36 7//36
f 8//37 33//37 14//37
f 13//38 20//38 28//38
f 29//39 3//39 23//39
f 39//40 40//40 36//40
f 30//41 31//41 41//41
f 29//42 45//42 4//42
f 40//43 49//43 35//43
f 6//44 16//44 57//44
f 35//45 51//45 16//45
f 41//46 31//46 48//46
f 36//47 17//47 42//47
f 17//48 43//48 42//48
f 18//49 31//49 73//49
f 7//50 8//50 32//50
f 12//51 44//51 20//51
f 14//52 37//52 8//52
f 14//53 33//53 37//53
f 10//54 21//54 22//54
f 46//55 11//55 22//55
f 39//56 59//56 40//56
f 54//57 41//57 64//57
f 41//58 48//58 64//58
f 40//59 59//59 56//59
f 40//60 56//60 49//60
f 12//61 25//61 44//61
f 20//62 44//62 28//62
f 19//63 53//63 48//63
f 35//64 63//64 51//64
f 40//65 43//65 17//65
f 11//66 61//66 15//66
f 24//67 5//67 6//67
f 54//68 55//68 41//68
f 60//69 54//69 64//69
f 7//70 32//70 27//70
f 28//71 52//71 34//71
f 62//72 64//72 48//72
f 24//73 6//73 57//73
f 59//74 65//74 56//74
f 44//75 52//75 28//75
f 65//76 66//76 56//76
f 46//77 61//77 11//77
f 15//78 61//78 47//78
f 58//79 69//79 59//79
f 60//80 64//80 70//80
f 67//81 30//81 41//81
f 69//82 65//82 59//82
f 48//83 50//83 68//83
f 48//84 53//84 50//84
f 69//85 82//85 65//85
f 70//86 64//86 72//86
f 74//87 65//87 82//87
f 76//88 65//88 74//88
f 4//89 37//89 33//89
f 22//90 21//90 79//90
f 5//91 24//91 115//91
f 38//92 53//92 19//92
f 26//93 107//93 73//93
f 31//94 26//94 73//94
f 43//95 40//95 27//95
f 74//96 82//96 89//96
f 78//97 76//97 77//97
f 109//98 70//98 81//98
f 58//99 80//99 69//99
f 118//100 58//100 59//100
f 81//101 70//101 95//101
f 59//102 39//102 71//102
f 55//103 67//103 41//103
f 36//104 42//104 130//104
f 72//105 87//105 95//105
f 70//106 72//106 95//106
f 82//107 83//107 89//107
f 88//108 89//108 83//108
f 30//109 107//109 26//109
f 90//110 87//110 72//110
f 72//111 84//111 90//111
f 100//112 25//112 18//112
f 25//113 75//113 44//113
f 76//114 126//114 77//114
f 65//115 92//115 66//115
f 15//116 47//116 38//116
f 15//117 38//117 19//117
f 60//118 70//118 116//118
f 60//119 116//119 104//119
f 54//120 104//120 55//120
f 95//121 87//121 96//121
f 102//122 8//122 37//122
f 65//123 76//123 92//123
f 21//124 86//124 79//124
f 22//125 93//125 46//125
f 5//126 115//126 23//126
f 54//127 60//127 104//127
f 87//128 106//128 96//128
f 97//129 98//129 83//129
f 83//130 98//130 88//130
f 89//131 99//131 74//131
f 25//132 100//132 75//132
f 101//133 76//133 74//133
f 128//134 84//134 72//134
f 91//135 85//135 112//135
f 4//136 45//136 102//136
f 49//137 63//137 35//137
f 154//138 70//138 109//138
f 96//139 106//139 105//139
f 90//140 84//140 110//140
f 103//141 76//141 78//141
f 77//142 126//142 113//142
f 4//143 102//143 37//143
f 77//144 113//144 103//144
f 103//145 78//145 77//145
f 121//146 21//146 34//146
f 57//147 16//147 51//147
f 132//148 99//148 89//148
f 101//149 74//149 99//149
f 110//150 84//150 111//150
f 126//151 76//151 108//151
f 102//152 32//152 8//152
f 84//153 128//153 91//153
f 121//154 34//154 52//154
f 92//155 134//155 66//155
f 72//156 64//156 135//156
f 45//157 29//157 133//157
f 22//158 79//158 93//158
f 61//159 94//159 47//159
f 70//160 154//160 116//160
f 36//161 130//161 39//161
f 87//162 90//162 125//162
f 84//163 91//163 111//163
f 29//164 23//164 117//164
f 95//165 141//165 81//165
f 58//166 118//166 80//166
f 90//167 110//167 125//167
f 108//168 76//168 101//168
f 91//169 119//169 85//169
f 76//170 103//170 92//170
f 72//171 135//171 128//171
f 120//172 82//172 69//172
f 59//173 71//173 118//173
f 18//174 73//174 100//174
f 44//175 121//175 52//175
f 112//176 111//176 91//176
f 139//177 29//177 114//177
f 50//178 53//178 164//178
f 81//179 141//179 109//179
f 146//180 96//180 105//180
f 123//181 105//181 106//181
f 67//182 131//182 30//182
f 97//183 150//183 98//183
f 107//184 30//184 131//184
f 44//185 75//185 121//185
f 127//186 32//186 102//186
f 91//187 128//187 119//187
f 21//188 121//188 86//188
f 102//189 45//189 133//189
f 136//190 66//190 134//190
f 139//191 133//191 29//191
f 56//192 66//192 136//192
f 95//193 96//193 129//193
f 99//194 108//194 101//194
f 108//195 99//195 126//195
f 112//196 85//196 119//196
f 92//197 103//197 134//197
f 29//198 117//198 114//198
f 117//199 23//199 115//199
f 24//200 144//200 115//200
f 48//201 68//201 62//201
f 71//202 39//202 130//202
f 106//203 124//203 123//203
f 89//204 88//204 132//204
f 111//205 125//205 110//205
f 128//206 135//206 119//206
f 135//207 64//207 122//207
f 185//208 47//208 94//208
f 80//209 120//209 69//209
f 80//210 118//210 137//210
f 138//211 83//211 82//211
f 71//212 159//212 118//212
f 99//213 113//213 126//213
f 56//214 147//214 49//214
f 38//215 164//215 53//215
f 120//216 138//216 82//216
f 105//217 123//217 146//217
f 125//218 111//218 112//218
f 119//219 125//219 112//219
f 102//220 133//220 127//220
f 121//221 75//221 86//221
f 103//222 113//222 134//222
f 134//223 158//223 136//223
f 144//224 24//224 179//224
f 138//225 145//225 83//225
f 96//226 146//226 129//226
f 55//227 104//227 149//227
f 187//228 130//228 42//228
f 87//229 125//229 143//229
f 139//230 127//230 133//230
f 86//231 93//231 79//231
f 95//232 129//232 141//232
f 99//233 132//233 113//233
f 32//234 127//234 157//234
f 152//235 119//235 135//235
f 156//236 93//236 86//236
f 140//237 46//237 93//237
f 62//238 68//238 186//238
f 164//239 38//239 168//239
f 120//240 80//240 137//240
f 104//241 116//241 171//241
f 151//242 73//242 107//242
f 157//243 27//243 32//243
f 119//244 152//244 125//244
f 75//245 156//245 86//245
f 140//246 93//246 156//246
f 153//247 64//247 62//247
f 57//248 51//248 63//248
f 154//249 109//249 141//249
f 116//250 154//250 171//250
f 71//251 155//251 159//251
f 162//252 150//252 97//252
f 187//253 42//253 173//253
f 131//254 176//254 107//254
f 122//255 152//255 135//255
f 127//256 139//256 114//256
f 118//257 159//257 137//257
f 107//258 176//258 214//258
f 100//259 156//259 75//259
f 157//260 127//260 114//260
f 153//261 122//261 64//261
f 49//262 148//262 63//262
f 145//263 97//263 83//263
f 43//264 27//264 161//264
f 134//265 113//265 158//265
f 73//266 167//266 100//266
f 117//267 178//267 114//267
f 46//268 140//268 61//268
f 55//269 149//269 67//269
f 100//270 140//270 156//270
f 160//271 137//271 159//271
f 130//272 155//272 71//272
f 150//273 88//273 98//273
f 151//274 167//274 73//274
f 27//275 157//275 161//275
f 157//276 114//276 178//276
f 185//277 38//277 47//277
f 57//278 179//278 24//278
f 49//279 147//279 148//279
f 57//280 63//280 201//280
f 166//281 159//281 155//281
f 162//282 97//282 180//282
f 131//283 67//283 175//283
f 172//284 124//284 106//284
f 170//285 42//285 43//285
f 142//286 87//286 143//286
f 115//287 178//287 117//287
f 163//288 56//288 136//288
f 160//289 169//289 137//289
f 120//290 190//290 138//290
f 171//291 196//291 104//291
f 149//292 104//292 196//292
f 150//293 162//293 182//293
f 161//294 165//294 43//294
f 132//295 158//295 113//295
f 158//296 183//296 136//296
f 68//297 50//297 186//297
f 137//298 169//298 120//298
f 173//299 42//299 170//299
f 143//300 125//300 152//300
f 61//301 185//301 94//301
f 146//302 174//302 129//302
f 97//303 145//303 180//303
f 187//304 181//304 130//304
f 106//305 87//305 142//305
f 107//306 214//306 151//306
f 186//307 153//307 62//307
f 38//308 185//308 168//308
f 67//309 149//309 175//309
f 167//310 151//310 177//310
f 147//311 56//311 163//311
f 160//312 159//312 166//312
f 188//313 123//313 124//313
f 200//314 50//314 164//314
f 181//315 155//315 130//315
f 170//316 43//316 165//316
f 143//317 152//317 122//317
f 50//318 200//318 186//318
f 190//319 120//319 169//319
f 123//320 188//320 146//320
f 187//321 173//321 181//321
f 177//322 151//322 214//322
f 140//323 193//323 61//323
f 138//324 189//324 145//324
f 174//325 141//325 129//325
f 138//326 190//326 189//326
f 154//327 141//327 192//327
f 132//328 183//328 158//328
f 115//329 184//329 195//329
f 191//330 160//330 166//330
f 192//331 171//331 154//331
f 196//332 194//332 149//332
f 131//333 199//333 176//333
f 161//334 157//334 165//334
f 100//335 193//335 140//335
f 178//336 115//336 195//336
f 230//337 147//337 163//337
f 160//338 191//338 169//338
f 175//339 199//339 131//339
f 178//340 195//340 157//340
f 186//341 206//341 153//341
f 171//342 192//342 196//342
f 208//343 185//343 61//343
f 230//344 148//344 147//344
f 166//345 155//345 191//345
f 100//346 167//346 193//346
f 153//347 203//347 122//347
f 179//348 57//348 205//348
f 180//349 202//349 162//349
f 143//350 122//350 215//350
f 190//351 204//351 189//351
f 196//352 209//352 194//352
f 191//353 155//353 213//353
f 241//354 132//354 88//354
f 165//355 157//355 195//355
f 141//356 174//356 218//356
f 192//357 207//357 196//357
f 141//358 216//358 192//358
f 194//359 175//359 149//359
f 155//360 181//360 213//360
f 188//361 124//361 172//361
f 181//362 198//362 213//362
f 145//363 189//363 204//363
f 145//364 204//364 180//364
f 194//365 199//365 175//365
f 202//366 182//366 162//366
f 176//367 233//367 214//367
f 132//368 241//368 183//368
f 57//369 201//369 212//369
f 63//370 148//370 219//370
f 63//371 219//371 201//371
f 191//372 211//372 169//372
f 181//373 173//373 198//373
f 143//374 215//374 142//374
f 169//375 210//375 190//375
f 176//376 199//376 233//376
f 215//377 122//377 203//377
f 183//378 163//378 136//378
f 193//379 223//379 61//379
f 153//380 206//380 203//380
f 163//381 197//381 230//381
f 227//382 164//382 168//382
f 141//383 218//383 216//383
f 169//384 211//384 210//384
f 88//385 150//385 241//385
f 209//386 196//386 207//386
f 174//387 146//387 218//387
f 106//388 217//388 172//388
f 106//389 142//389 217//389
f 177//390 226//390 167//390
f 223//391 208//391 61//391
f 115//392 144//392 220//392
f 193//393 167//393 226//393
f 192//394 216//394 221//394
f 188//395 218//395 146//395
f 192//396 221//396 207//396
f 224//397 202//397 180//397
f 173//398 170//398 225//398
f 225//399 170//399 165//399
f 184//400 115//400 220//400
f 205//401 229//401 179//401
f 57//402 212//402 205//402
f 164//403 227//403 200//403
f 190//404 210//404 204//404
f 165//405 195//405 184//405
f 203//406 237//406 215//406
f 226//407 223//407 193//407
f 219//408 148//408 230//408
f 224//409 180//409 204//409
f 172//410 217//410 263//410
f 182//411 248//411 150//411
f 183//412 197//412 163//412
f 209//413 207//413 232//413
f 186//414 234//414 206//414
f 186//415 200//415 234//415
f 191//416 213//416 211//416
f 211//417 231//417 210//417
f 207//418 221//418 232//418
f 150//419 248//419 241//419
f 226//420 243//420 223//420
f 229//421 144//421 179//421
f 185//422 258//422 168//422
f 211//423 213//423 231//423
f 209//424 235//424 194//424
f 248//425 182//425 202//425
f 236//426 198//426 173//426
f 228//427 197//427 183//427
f 185//428 208//428 258//428
f 209//429 232//429 235//429
f 199//430 194//430 235//430
f 222//431 226//431 177//431
f 219//432 230//432 239//432
f 216//433 218//433 240//433
f 221//434 216//434 240//434
f 223//435 243//435 208//435
f 274//436 227//436 168//436
f 210//437 244//437 204//437
f 213//438 245//438 231//438
f 213//439 198//439 245//439
f 188//440 172//440 263//440
f 177//441 242//441 222//441
f 184//442 254//442 165//442
f 220//443 144//443 229//443
f 200//444 238//444 234//444
f 231//445 247//445 210//445
f 214//446 242//446 177//446
f 183//447 241//447 228//447
f 208//448 243//448 258//448
f 210//449 247//449 244//449
f 241//450 248//450 246//450
f 173//451 225//451 236//451
f 165//452 254//452 225//452
f 203//453 206//453 237//453
f 220//454 254//454 184//454
f 244//455 224//455 204//455
f 235//456 232//456 251//456
f 168//457 258//457 259//457
f 205//458 291//458 229//458
f 270//459 205//459 212//459
f 250//460 243//460 226//460
f 197//461 249//461 230//461
f 198//462 252//462 245//462
f 142//463 215//463 237//463
f 243//464 253//464 258//464
f 274//465 168//465 259//465
f 231//466 245//466 247//466
f 235//467 251//467 199//467
f 248//468 202//468 224//468
f 233//469 199//469 269//469
f 242//470 214//470 233//470
f 222//471 250//471 226//471
f 258//472 253//472 256//472
f 257//473 206//473 234//473
f 236//474 285//474 198//474
f 237//475 206//475 281//475
f 220//476 255//476 254//476
f 260//477 249//477 197//477
f 205//478 270//478 291//478
f 200//479 267//479 238//479
f 200//480 227//480 267//480
f 245//481 261//481 247//481
f 220//482 264//482 255//482
f 227//483 274//483 265//483
f 247//484 261//484 244//484
f 232//485 262//485 251//485
f 240//486 218//486 268//486
f 199//487 251//487 269//487
f 250//488 288//488 243//488
f 253//489 243//489 288//489
f 227//490 265//490 267//490
f 219//491 275//491 201//491
f 198//492 285//492 252//492
f 248//493 224//493 279//493
f 201//494 293//494 212//494
f 262//495 232//495 221//495
f 281//496 206//496 257//496
f 271//497 255//497 272//497
f 264//498 272//498 255//498
f 229//499 264//499 220//499
f 260//500 273//500 249//500
f 258//501 256//501 259//501
f 218//502 188//502 263//502
f 241//503 246//503 228//503
f 142//504 237//504 286//504
f 255//505 266//505 254//505
f 278//506 253//506 288//506
f 253//507 282//507 256//507
f 252//508 261//508 245//508
f 230//509 292//509 239//509
f 240//510 296//510 221//510
f 225//511 254//511 276//511
f 260//512 197//512 228//512
f 255//513 271//513 266//513
f 278//514 282//514 253//514
f 282//515 278//515 256//515
f 264//516 229//516 280//516
f 230//517 249//517 292//517
f 219//518 239//518 275//518
f 244//519 283//519 224//519
f 263//520 217//520 286//520
f 217//521 142//521 286//521
f 237//522 281//522 277//522
f 257//523 234//523 284//523
f 296//524 240//524 268//524
f 224//525 283//525 279//525
f 297//526 281//526 257//526
f 293//527 270//527 212//527
f 271//528 272//528 266//528
f 249//529 273//529 292//529
f 269//530 251//530 262//530
f 242//531 250//531 222//531
f 286//532 237//532 277//532
f 289//533 260//533 228//533
f 281//534 297//534 284//534
f 272//535 264//535 266//535
f 261//536 303//536 244//536
f 280//537 266//537 264//537
f 260//538 287//538 273//538
f 275//539 293//539 201//539
f 285//540 261//540 252//540
f 263//541 268//541 218//541
f 257//542 284//542 297//542
f 288//543 250//543 314//543
f 278//544 288//544 256//544
f 290//545 295//545 260//545
f 260//546 295//546 287//546
f 306//547 284//547 234//547
f 296//548 262//548 221//548
f 266//549 280//549 254//549
f 260//550 289//550 290//550
f 229//551 291//551 280//551
f 234//552 238//552 306//552
f 233//553 269//553 309//553
f 290//554 292//554 273//554
f 290//555 273//555 287//555
f 323//556 291//556 270//556
f 279//557 246//557 248//557
f 236//558 225//558 326//558
f 246//559 299//559 228//559
f 299//560 289//560 228//560
f 294//561 254//561 280//561
f 301//562 256//562 288//562
f 287//563 295//563 290//563
f 239//564 292//564 275//564
f 279//565 283//565 320//565
f 268//566 263//566 298//566
f 250//567 242//567 321//567
f 259//568 265//568 274//568
f 300//569 225//569 276//569
f 269//570 317//570 309//570
f 236//571 319//571 285//571
f 236//572 326//572 319//572
f 256//573 301//573 259//573
f 267//574 313//574 238//574
f 261//575 285//575 304//575
f 284//576 306//576 281//576
f 306//577 238//577 313//577
f 283//578 244//578 303//578
f 262//579 317//579 269//579
f 263//580 286//580 298//580
f 276//581 254//581 294//581
f 315//582 277//582 281//582
f 290//583 289//583 308//583
f 308//584 292//584 290//584
f 293//585 275//585 335//585
f 285//586 319//586 304//586
f 321//587 314//587 250//587
f 299//588 246//588 307//588
f 301//589 288//589 305//589
f 291//590 323//590 280//590
f 268//591 312//591 296//591
f 300//592 276//592 294//592
f 292//593 308//593 311//593
f 292//594 311//594 275//594
f 302//595 313//595 267//595
f 262//596 312//596 317//596
f 309//597 242//597 233//597
f 265//598 259//598 354//598
f 325//599 270//599 293//599
f 333//600 289//600 299//600
f 333//601 308//601 289//601
f 301//602 354//602 259//602
f 296//603 312//603 262//603
f 333//604 299//604 324//604
f 281//605 306//605 315//605
f 303//606 261//606 316//606
f 329//607 268//607 298//607
f 279//608 320//608 246//608
f 309//609 321//609 242//609
f 286//610 277//610 318//610
f 314//611 305//611 288//611
f 313//612 322//612 306//612
f 286//613 310//613 298//613
f 307//614 324//614 299//614
f 311//615 308//615 333//615
f 265//616 327//616 267//616
f 275//617 311//617 335//617
f 316//618 261//618 304//618
f 325//619 323//619 270//619
f 286//620 318//620 310//620
f 315//621 306//621 322//621
f 246//622 320//622 307//622
f 326//623 330//623 319//623
f 326//624 225//624 300//624
f 321//625 341//625 314//625
f 277//626 315//626 318//626
f 354//627 327//627 265//627
f 267//628 327//628 302//628
f 319//629 330//629 304//629
f 326//630 300//630 328//630
f 311//631 333//631 347//631
f 327//632 313//632 302//632
f 318//633 331//633 310//633
f 339//634 325//634 293//634
f 293//635 335//635 339//635
f 316//636 283//636 303//636
f 332//637 324//637 307//637
f 312//638 268//638 336//638
f 304//639 330//639 316//639
f 320//640 283//640 337//640
f 298//641 310//641 329//641
f 309//642 338//642 321//642
f 349//643 315//643 322//643
f 280//644 323//644 360//644
f 335//645 358//645 339//645
f 268//646 329//646 336//646
f 310//647 334//647 329//647
f 334//648 310//648 331//648
f 318//649 315//649 349//649
f 301//650 305//650 354//650
f 335//651 311//651 347//651
f 321//652 340//652 341//652
f 344//653 326//653 328//653
f 331//654 318//654 342//654
f 314//655 341//655 343//655
f 346//656 333//656 324//656
f 294//657 280//657 360//657
f 332//658 307//658 351//658
f 349//659 322//659 313//659
f 357//660 327//660 354//660
f 335//661 347//661 358//661
f 337//662 283//662 353//662
f 317//663 365//663 309//663
f 340//664 321//664 338//664
f 348//665 331//665 342//665
f 345//666 328//666 300//666
f 343//667 305//667 314//667
f 313//668 352//668 349//668
f 313//669 327//669 352//669
f 323//670 325//670 372//670
f 330//671 363//671 316//671
f 307//672 320//672 350//672
f 326//673 359//673 330//673
f 348//674 334//674 331//674
f 300//675 294//675 356//675
f 352//676 384//676 349//676
f 323//677 372//677 360//677
f 339//678 358//678 361//678
f 309//679 365//679 338//679
f 324//680 332//680 350//680
f 340//681 338//681 341//681
f 328//682 345//682 344//682
f 338//683 343//683 341//683
f 379//684 345//684 300//684
f 342//685 318//685 349//685
f 305//686 385//686 354//686
f 294//687 360//687 356//687
f 346//688 347//688 333//688
f 353//689 283//689 316//689
f 307//690 366//690 351//690
f 326//691 355//691 359//691
f 379//692 300//692 356//692
f 385//693 305//693 362//693
f 346//694 358//694 347//694
f 361//695 358//695 346//695
f 339//696 361//696 325//696
f 326//697 344//697 355//697
f 332//698 351//698 350//698
f 346//699 324//699 350//699
f 343//700 362//700 305//700
f 327//701 377//701 352//701
f 350//702 320//702 337//702
f 379//703 359//703 345//703
f 345//704 359//704 355//704
f 343//705 338//705 365//705
f 355//706 344//706 345//706
f 379//707 356//707 391//707
f 336//708 373//708 312//708
f 307//709 350//709 366//709
f 357//710 377//710 327//710
f 317//711 312//711 373//711
f 348//712 342//712 334//712
f 384//713 342//713 349//713
f 369//714 354//714 385//714
f 369//715 370//715 357//715
f 369//716 357//716 354//716
f 363//717 353//717 316//717
f 373//718 365//718 317//718
f 343//719 365//719 362//719
f 362//720 367//720 385//720
f 375//721 346//721 350//721
f 356//722 360//722 376//722
f 376//723 360//723 371//723
f 370//724 377//724 357//724
f 325//725 361//725 386//725
f 360//726 372//726 371//726
f 337//727 353//727 368//727
f 334//728 364//728 329//728
f 364//729 334//729 342//729
f 330//730 359//730 379//730
f 350//731 351//731 366//731
f 365//732 374//732 362//732
f 361//733 346//733 375//733
f 336//734 329//734 373//734
f 367//735 362//735 374//735
f 384//736 352//736 377//736
f 325//737 386//737 372//737
f 363//738 378//738 353//738
f 353//739 378//739 368//739
f 337//740 368//740 350//740
f 374//741 385//741 367//741
f 386//742 361//742 375//742
f 371//743 372//743 386//743
f 330//744 391//744 363//744
f 330//745 379//745 391//745
f 377//746 392//746 384//746
f 369//747 380//747 370//747
f 373//748 329//748 364//748
f 368//749 375//749 350//749
f 365//750 373//750 387//750
f 387//751 374//751 365//751
f 385//752 374//752 392//752
f 385//753 392//753 369//753
f 369//754 392//754 382//754
f 370//755 382//755 377//755
f 382//756 392//756 377//756
f 376//757 371//757 381//757
f 384//758 364//758 342//758
f 391//759 356//759 393//759
f 376//760 386//760 356//760
f 382//761 370//761 380//761
f 382//762 380//762 369//762
f 391//763 389//763 363//763
f 383//764 364//764 387//764
f 384//765 387//765 364//765
f 374//766 387//766 392//766
f 356//767 386//767 393//767
f 386//768 388//768 371//768
f 371//769 388//769 381//769
f 363//770 389//770 378//770
f 373//771 383//771 387//771
f 376//772 381//772 386//772
f 389//773 393//773 390//773
f 391//774 393//774 389//774
f 392//775 387//775 384//775
f 393//776 386//776 375//776
f 381//777 388//777 386//777
f 373//778 364//778 394//778
f 390//779 375//779 368//779
f 393//780 375//780 390//780
f 378//781 389//781 396//781
f 364//782 383//782 394//782
f 394//783 383//783 373//783
f 395//784 368//784 378//784
f 368//785 395//785 390//785
f 396//786 389//786 390//786
f 378//787 396//787 395//787
f 396//788 390//788 395//788
