# https://github.com/mikedh/trimesh
v -0.00004619 0.05539936 0.02687331
v -0.00056697 0.05523507 0.02730944
v -0.00007389 0.05477027 0.02717647
v 0.00090038 0.05475908 0.02724229
v 0.00092809 0.05538817 0.02693913
v 0.00187466 0.05474789 0.02730811
v 0.00190237 0.05537698 0.02700496
v 0.00284894 0.05473671 0.02737394
v 0.00287665 0.05536579 0.02707078
v 0.00382322 0.05472552 0.02743976
v 0.00385092 0.05535460 0.02713661
v 0.00430442 0.05517912 0.02763857
v 0.00579948 0.05533222 0.02726825
v 0.00527870 0.05516793 0.02770439
v 0.00577177 0.05470314 0.02757141
v 0.00625298 0.05515674 0.02777022
v -0.00005805 0.05631775 0.02720509
v -0.00057883 0.05615346 0.02764123
v 0.00091622 0.05630656 0.02727092
v 0.00189050 0.05629538 0.02733674
v 0.00286478 0.05628419 0.02740256
v 0.00383905 0.05627300 0.02746839
v 0.00478563 0.05563273 0.02783737
v 0.00481333 0.05626181 0.02753421
v 0.00578761 0.05625062 0.02760004
v 0.00673418 0.05561035 0.02796902
v 0.00676189 0.05623943 0.02766586
v 0.00721538 0.05606395 0.02816782
v -0.00006992 0.05723615 0.02753687
v -0.00059070 0.05707186 0.02797301
v 0.00090435 0.05722496 0.02760270
v 0.00187863 0.05721377 0.02766852
v 0.00285291 0.05720258 0.02773435
v 0.00382719 0.05719139 0.02780017
v 0.00480146 0.05718021 0.02786600
v 0.00577574 0.05716902 0.02793182
v 0.00675002 0.05715783 0.02799764
v 0.00720351 0.05698235 0.02849961
v -0.00008179 0.05815455 0.02786866
v -0.00060257 0.05799026 0.02830479
v 0.00089248 0.05814336 0.02793448
v 0.00186676 0.05813217 0.02800031
v 0.00284104 0.05812098 0.02806613
v 0.00381532 0.05810979 0.02813195
v 0.00426881 0.05793431 0.02863392
v 0.00476189 0.05746952 0.02850094
v 0.00576387 0.05808741 0.02826360
v 0.00524309 0.05792312 0.02869974
v 0.00673815 0.05807623 0.02832943
v 0.00719165 0.05790075 0.02883139
v -0.00012137 0.05844386 0.02850360
v 0.00085291 0.05843267 0.02856942
v 0.00182719 0.05842148 0.02863525
v 0.00280146 0.05841029 0.02870107
v 0.00377574 0.05839911 0.02876689
v 0.00572430 0.05837673 0.02889854
v 0.00669857 0.05836554 0.02896437
v 0.00283310 0.05318923 0.02734531
v 0.00231232 0.05302493 0.02778145
v 0.00280540 0.05256014 0.02764847
v 0.00377967 0.05254895 0.02771429
v 0.00380738 0.05317804 0.02741114
v 0.00426088 0.05300256 0.02791310
v -0.00205015 0.05416357 0.02734797
v -0.00257093 0.05399928 0.02778411
v -0.00207786 0.05353448 0.02765113
v -0.00159666 0.05398809 0.02784993
v -0.00010160 0.05414119 0.02747962
v -0.00062238 0.05397690 0.02791576
v -0.00012931 0.05351211 0.02778278
v 0.00084497 0.05350092 0.02784860
v 0.00087268 0.05413000 0.02754545
v 0.00181925 0.05348973 0.02791443
v 0.00184696 0.05411881 0.02761127
v 0.00282123 0.05410762 0.02767710
v 0.00379551 0.05409643 0.02774292
v 0.00474208 0.05345616 0.02811190
v 0.00476979 0.05408524 0.02780874
v 0.00522329 0.05390977 0.02831071
v -0.00303630 0.05509315 0.02761393
v -0.00355708 0.05492886 0.02805007
v -0.00306401 0.05446407 0.02791709
v -0.00206202 0.05508196 0.02767976
v -0.00111545 0.05444169 0.02804874
v -0.00108775 0.05507077 0.02774558
v 0.00475792 0.05500364 0.02814053
v 0.00570449 0.05436337 0.02850951
v 0.00667877 0.05435218 0.02857533
v 0.00670647 0.05498126 0.02827218
v 0.00715997 0.05480579 0.02877414
v -0.00304817 0.05601155 0.02794572
v -0.00356895 0.05584726 0.02838185
v -0.00207389 0.05600036 0.02801154
v -0.00109961 0.05598917 0.02807736
v 0.00714810 0.05572418 0.02910592
v -0.00308774 0.05630086 0.02858066
v -0.00208576 0.05691876 0.02834332
v -0.00260654 0.05675447 0.02877946
v -0.00111148 0.05690757 0.02840915
v 0.00713623 0.05664258 0.02943770
v -0.00212534 0.05720807 0.02897826
v -0.00115106 0.05719688 0.02904409
v -0.00066985 0.05765049 0.02924289
v 0.00472231 0.05775883 0.02913588
v 0.00712436 0.05756098 0.02976949
v -0.00018865 0.05810409 0.02944169
v 0.00078563 0.05809290 0.02950752
v 0.00175990 0.05808171 0.02957334
v 0.00273418 0.05807053 0.02963917
v 0.00370846 0.05805934 0.02970499
v 0.00468274 0.05804815 0.02977082
v 0.00565701 0.05803696 0.02983664
v 0.00663129 0.05802577 0.02990247
v 0.00081727 0.05287183 0.02815176
v 0.00029649 0.05270754 0.02858790
v 0.00078956 0.05224275 0.02845492
v 0.00127076 0.05269635 0.02865372
v 0.00224504 0.05268517 0.02871955
v 0.00273811 0.05222037 0.02858657
v 0.00371239 0.05220918 0.02865239
v 0.00468667 0.05219799 0.02871822
v 0.00471437 0.05282708 0.02841506
v 0.00566095 0.05218681 0.02878404
v 0.00568865 0.05281589 0.02848088
v 0.00663522 0.05217562 0.02884987
v 0.00666293 0.05280470 0.02854671
v 0.00711643 0.05262922 0.02904867
v -0.00211744 0.05382380 0.02828607
v -0.00068966 0.05363713 0.02885386
v -0.00019659 0.05317234 0.02872088
v 0.00175197 0.05314996 0.02885253
v 0.00567678 0.05373429 0.02881267
v 0.00665106 0.05372310 0.02887849
v 0.00710456 0.05354762 0.02938045
v -0.00310358 0.05475338 0.02855203
v -0.00212930 0.05474219 0.02861785
v -0.00118273 0.05410192 0.02898684
v -0.00167581 0.05456671 0.02911982
v 0.00758576 0.05400122 0.02957926
v 0.00761347 0.05463031 0.02927610
v 0.00856004 0.05399003 0.02964508
v 0.00858775 0.05461912 0.02934192
v 0.00953432 0.05397884 0.02971090
v 0.00956202 0.05460793 0.02940775
v 0.01001552 0.05443245 0.02990971
v -0.00311545 0.05567178 0.02888381
v -0.00214117 0.05566059 0.02894964
v -0.00168768 0.05548511 0.02945160
v 0.00760160 0.05554870 0.02960788
v 0.00857588 0.05553751 0.02967371
v 0.00955015 0.05552633 0.02973953
v 0.01000365 0.05535085 0.03024149
v -0.00215304 0.05657899 0.02928142
v -0.00169954 0.05640351 0.02978338
v 0.00758973 0.05646710 0.02993966
v 0.00856401 0.05645591 0.03000549
v 0.00901751 0.05628043 0.03050745
v 0.00951058 0.05581564 0.03037447
v -0.00171141 0.05732191 0.03011516
v -0.00119063 0.05748620 0.02967903
v 0.00757786 0.05738550 0.03027145
v 0.00855214 0.05737431 0.03033727
v 0.00900564 0.05719883 0.03083923
v -0.00123021 0.05777551 0.03031397
v -0.00025593 0.05776432 0.03037979
v 0.00074605 0.05838222 0.03014246
v 0.00022527 0.05821793 0.03057860
v 0.00172033 0.05837103 0.03020828
v 0.00269461 0.05835984 0.03027411
v 0.00366888 0.05834865 0.03033993
v 0.00464316 0.05833746 0.03040576
v 0.00561744 0.05832627 0.03047158
v 0.00659172 0.05831508 0.03053741
v 0.00704521 0.05813960 0.03103937
v 0.00753829 0.05767481 0.03090639
v 0.00851256 0.05766362 0.03097221
v 0.00073418 0.05930061 0.03047424
v 0.00021340 0.05913632 0.03091038
v 0.00118768 0.05912513 0.03097620
v 0.00168075 0.05866034 0.03084322
v 0.00268274 0.05927824 0.03060589
v 0.00216196 0.05911395 0.03104203
v 0.00365701 0.05926705 0.03067172
v 0.00463129 0.05925586 0.03073754
v 0.00560557 0.05924467 0.03080336
v 0.00657985 0.05923348 0.03086919
v 0.00703334 0.05905800 0.03137115
v 0.00069461 0.05958993 0.03110918
v 0.00264316 0.05956755 0.03124083
v 0.00361744 0.05955636 0.03130666
v 0.00459172 0.05954517 0.03137248
v 0.00556599 0.05953398 0.03143830
v 0.00654027 0.05952279 0.03150413
v -0.00020056 0.05070646 0.02836047
v -0.00072134 0.05054217 0.02879661
v -0.00022826 0.05007737 0.02866363
v 0.00074601 0.05006619 0.02872945
v 0.00077372 0.05069527 0.02842629
v 0.00122722 0.05051979 0.02892825
v 0.00272228 0.05067289 0.02855794
v 0.00220150 0.05050860 0.02899408
v 0.00269457 0.05004381 0.02886110
v 0.00366885 0.05003262 0.02892692
v 0.00369655 0.05066170 0.02862377
v 0.00415005 0.05048622 0.02912573
v 0.00564511 0.05063933 0.02875542
v 0.00512433 0.05047503 0.02919155
v 0.00561740 0.05001024 0.02905857
v 0.00659168 0.04999905 0.02912440
v 0.00661938 0.05062814 0.02882124
v 0.00707288 0.05045266 0.02932320
v -0.00021243 0.05162486 0.02869225
v -0.00073320 0.05146056 0.02912839
v 0.00076185 0.05161367 0.02875808
v 0.00170842 0.05097339 0.02912706
v 0.00173613 0.05160248 0.02882390
v 0.00271041 0.05159129 0.02888973
v 0.00368468 0.05158010 0.02895555
v 0.00463125 0.05093983 0.02932453
v 0.00465896 0.05156891 0.02902137
v 0.00563324 0.05155772 0.02908720
v 0.00660752 0.05154653 0.02915302
v 0.00706101 0.05137105 0.02965498
v -0.00119857 0.05255444 0.02895821
v -0.00171935 0.05239015 0.02939435
v -0.00122628 0.05192536 0.02926137
v -0.00022429 0.05254325 0.02902403
v 0.00172426 0.05252087 0.02915568
v 0.00754222 0.05182466 0.02985379
v 0.00756992 0.05245374 0.02955063
v 0.00802342 0.05227826 0.03005259
v -0.00121044 0.05347284 0.02928999
v -0.00173122 0.05330855 0.02972613
v 0.00755806 0.05337214 0.02988241
v 0.00850463 0.05273187 0.03025139
v 0.00853233 0.05336095 0.02994824
v 0.00947890 0.05272068 0.03031722
v 0.00950661 0.05334976 0.03001406
v 0.00996011 0.05317428 0.03051602
v -0.00174309 0.05422695 0.03005791
v 0.00994824 0.05409268 0.03084781
v -0.00175496 0.05514534 0.03038970
v 0.00993637 0.05501108 0.03117959
v -0.00176683 0.05606374 0.03072148
v 0.00947100 0.05610495 0.03100941
v 0.00992450 0.05592947 0.03151137
v -0.00177870 0.05698214 0.03105326
v 0.00945913 0.05702335 0.03134119
v 0.00991263 0.05684787 0.03184315
v -0.00129749 0.05743574 0.03125207
v -0.00029551 0.05805364 0.03101473
v -0.00081629 0.05788935 0.03145087
v 0.00749871 0.05796413 0.03154133
v 0.00847299 0.05795294 0.03160715
v 0.00944727 0.05794175 0.03167298
v 0.00990076 0.05776627 0.03217494
v -0.00030738 0.05897203 0.03134652
v -0.00082816 0.05880774 0.03178265
v 0.00164118 0.05894966 0.03147816
v 0.00745914 0.05825344 0.03217627
v 0.00696606 0.05871823 0.03230925
v 0.00843341 0.05824225 0.03224209
v 0.00940769 0.05823106 0.03230792
v -0.00034695 0.05926135 0.03198146
v 0.00062733 0.05925016 0.03204728
v 0.00160160 0.05923897 0.03211310
v 0.00257588 0.05922778 0.03217893
v 0.00357786 0.05984568 0.03194160
v 0.00305708 0.05968138 0.03237773
v 0.00403136 0.05967020 0.03244356
v 0.00452443 0.05920540 0.03231058
v 0.00549871 0.05919421 0.03237640
v 0.00647299 0.05918303 0.03244223
v 0.00353829 0.06013499 0.03257654
v -0.00026784 0.05036669 0.02929857
v 0.00070644 0.05035550 0.02936439
v 0.00213421 0.05016883 0.02993218
v 0.00262729 0.04970404 0.02979920
v 0.00360156 0.04969285 0.02986502
v 0.00408277 0.05014645 0.03006383
v 0.00505705 0.05013527 0.03012965
v 0.00555012 0.04967047 0.02999667
v 0.00652440 0.04965928 0.03006249
v 0.00700560 0.05011289 0.03026130
v -0.00080049 0.05112080 0.03006649
v -0.00030741 0.05065600 0.02993351
v 0.00066686 0.05064481 0.02999933
v 0.00164114 0.05063362 0.03006516
v 0.00456397 0.05060006 0.03026263
v 0.00699373 0.05103128 0.03059308
v -0.00178663 0.05205038 0.03033244
v -0.00129356 0.05158559 0.03019947
v 0.00747494 0.05148489 0.03079189
v 0.00795614 0.05193849 0.03099069
v -0.00179850 0.05296878 0.03066423
v 0.00843734 0.05239210 0.03118949
v 0.00941162 0.05238091 0.03125532
v 0.00989283 0.05283451 0.03145412
v -0.00181037 0.05388718 0.03099601
v 0.00988096 0.05375291 0.03178590
v -0.00182224 0.05480557 0.03132779
v 0.00986909 0.05467131 0.03211769
v -0.00183411 0.05572397 0.03165958
v 0.00985722 0.05558970 0.03244947
v -0.00184598 0.05664237 0.03199136
v 0.00984535 0.05650810 0.03278125
v -0.00231134 0.05773624 0.03182118
v -0.00283212 0.05757195 0.03225732
v -0.00233905 0.05710716 0.03212434
v -0.00133707 0.05772506 0.03188701
v 0.00983348 0.05742650 0.03311304
v -0.00232321 0.05865464 0.03215296
v -0.00284399 0.05849035 0.03258910
v -0.00134894 0.05864345 0.03221879
v 0.00741956 0.05854275 0.03281121
v 0.00839384 0.05853156 0.03287703
v 0.00936811 0.05852038 0.03294286
v 0.00982161 0.05834490 0.03344482
v -0.00236279 0.05894396 0.03278790
v -0.00138851 0.05893277 0.03285373
v -0.00038653 0.05955066 0.03261640
v -0.00090731 0.05938637 0.03305253
v 0.00058775 0.05953947 0.03268222
v 0.00104125 0.05936399 0.03318418
v 0.00153432 0.05889920 0.03305120
v 0.00253630 0.05951709 0.03281387
v 0.00201552 0.05935280 0.03325001
v 0.00448486 0.05949472 0.03294552
v 0.00545914 0.05948353 0.03301134
v 0.00643341 0.05947234 0.03307717
v 0.00688691 0.05929686 0.03357913
v 0.00737998 0.05883207 0.03344615
v 0.00838197 0.05944996 0.03320882
v 0.00786119 0.05928567 0.03364495
v 0.00883547 0.05927448 0.03371078
v 0.00932854 0.05880969 0.03357780
v -0.00042610 0.05983997 0.03325134
v 0.00054817 0.05982879 0.03331716
v 0.00249673 0.05980641 0.03344881
v 0.00347101 0.05979522 0.03351463
v 0.00444528 0.05978403 0.03358046
v 0.00541956 0.05977284 0.03364628
v 0.00642154 0.06039074 0.03340895
v 0.00590076 0.06022645 0.03384509
v 0.00687504 0.06021526 0.03391091
v 0.00834239 0.05973928 0.03384376
v 0.00638197 0.06068005 0.03404389
v -0.00130940 0.05003811 0.03017084
v -0.00183018 0.04987382 0.03060698
v -0.00133710 0.04940902 0.03047400
v -0.00036283 0.04939784 0.03053982
v -0.00033512 0.05002692 0.03023666
v 0.00061145 0.04938665 0.03060565
v 0.00063916 0.05001573 0.03030249
v 0.00158573 0.04937546 0.03067147
v 0.00161343 0.05000454 0.03036831
v 0.00256001 0.04936427 0.03073729
v 0.00353428 0.04935308 0.03080312
v 0.00450856 0.04934189 0.03086894
v 0.00453627 0.04997097 0.03056579
v 0.00548284 0.04933070 0.03093477
v 0.00645711 0.04931951 0.03100059
v 0.00743139 0.04930832 0.03106642
v 0.00745910 0.04993741 0.03076326
v 0.00840567 0.04929714 0.03113224
v 0.00843338 0.04992622 0.03082908
v 0.00937995 0.04928595 0.03119807
v 0.00940765 0.04991503 0.03089491
v 0.00986115 0.04973955 0.03139687
v -0.00132127 0.05095650 0.03050262
v -0.00184205 0.05079221 0.03093876
v 0.00744723 0.05085581 0.03109504
v 0.00842151 0.05084462 0.03116087
v 0.00939578 0.05083343 0.03122669
v 0.00984928 0.05065795 0.03172865
v -0.00185392 0.05171061 0.03127054
v 0.00840964 0.05176301 0.03149265
v 0.00938391 0.05175183 0.03155847
v 0.00983741 0.05157635 0.03206044
v -0.00231928 0.05280449 0.03110036
v -0.00284006 0.05264020 0.03153650
v -0.00234699 0.05217540 0.03140352
v 0.00982554 0.05249474 0.03239222
v -0.00233115 0.05372289 0.03143215
v -0.00285193 0.05355860 0.03186828
v 0.00981367 0.05341314 0.03272400
v -0.00234302 0.05464128 0.03176393
v -0.00286380 0.05447699 0.03220007
v 0.00980181 0.05433154 0.03305578
v -0.00238260 0.05493060 0.03239887
v -0.00190139 0.05538420 0.03259767
v 0.00978994 0.05524994 0.03338757
v -0.00191326 0.05630260 0.03292946
v 0.00977807 0.05616833 0.03371935
v -0.00237863 0.05739647 0.03275928
v -0.00192513 0.05722100 0.03326124
v 0.00976620 0.05708673 0.03405113
v -0.00239050 0.05831487 0.03309106
v -0.00193700 0.05813939 0.03359302
v 0.00975433 0.05800513 0.03438292
v -0.00145579 0.05859300 0.03379183
v -0.00097459 0.05904660 0.03399063
v 0.00149475 0.05918851 0.03368614
v 0.00734041 0.05912138 0.03408109
v 0.00928896 0.05909900 0.03421274
v 0.00974246 0.05892352 0.03471470
v -0.00049339 0.05950021 0.03418943
v 0.00050860 0.06011810 0.03395210
v -0.00001218 0.05995381 0.03438824
v 0.00148288 0.06010691 0.03401793
v 0.00245715 0.06009572 0.03408375
v 0.00343143 0.06008453 0.03414957
v 0.00440571 0.06007334 0.03421540
v 0.00537999 0.06006216 0.03428122
v 0.00730083 0.05941069 0.03471603
v 0.00680776 0.05987549 0.03484901
v 0.00830282 0.06002859 0.03447870
v 0.00778204 0.05986430 0.03491483
v 0.00927709 0.06001740 0.03454452
v 0.00973059 0.05984192 0.03504648
v 0.00046902 0.06040741 0.03458704
v 0.00144330 0.06039622 0.03465287
v 0.00241758 0.06038504 0.03471869
v 0.00339186 0.06037385 0.03478451
v 0.00436613 0.06036266 0.03485034
v 0.00534041 0.06035147 0.03491616
v 0.00631469 0.06034028 0.03498199
v 0.00826324 0.06031790 0.03511364
v 0.00923752 0.06030671 0.03517946
v -0.00137668 0.04969834 0.03110894
v -0.00092318 0.04952286 0.03161090
v -0.00043011 0.04905807 0.03147792
v 0.00054417 0.04904688 0.03154374
v 0.00151845 0.04903569 0.03160957
v 0.00249272 0.04902450 0.03167539
v 0.00346700 0.04901331 0.03174122
v 0.00444128 0.04900212 0.03180704
v 0.00541556 0.04899093 0.03187287
v 0.00638983 0.04897974 0.03193869
v 0.00736411 0.04896856 0.03200451
v 0.00833839 0.04895737 0.03207034
v 0.00931266 0.04894618 0.03213616
v 0.00979387 0.04939978 0.03233497
v -0.00190933 0.05045245 0.03187686
v -0.00141626 0.04998765 0.03174388
v 0.00978200 0.05031818 0.03266675
v -0.00192120 0.05137084 0.03220864
v 0.00977013 0.05123658 0.03299853
v -0.00238656 0.05246472 0.03203846
v -0.00193307 0.05228924 0.03254042
v 0.00975826 0.05215497 0.03333032
v -0.00239843 0.05338312 0.03237025
v -0.00194494 0.05320764 0.03287221
v 0.00974639 0.05307337 0.03366210
v -0.00293108 0.05413722 0.03313816
v -0.00243801 0.05367243 0.03300519
v 0.00973452 0.05399177 0.03399388
v -0.00244988 0.05459083 0.03333697
v -0.00196867 0.05504443 0.03353577
v 0.00972265 0.05491017 0.03432566
v -0.00198054 0.05596283 0.03386756
v 0.00971079 0.05582856 0.03465745
v -0.00199241 0.05688123 0.03419934
v 0.00969892 0.05674696 0.03498923
v -0.00200428 0.05779962 0.03453112
v 0.00968705 0.05766536 0.03532101
v -0.00152308 0.05825323 0.03472992
v -0.00104187 0.05870683 0.03492873
v 0.00967518 0.05858375 0.03565280
v -0.00056067 0.05916044 0.03512753
v -0.00007946 0.05961404 0.03532634
v 0.00726126 0.05970001 0.03535097
v 0.00966331 0.05950215 0.03598458
v 0.00040174 0.06006764 0.03552514
v 0.00137602 0.06005646 0.03559096
v 0.00237800 0.06067435 0.03535363
v 0.00185722 0.06051006 0.03578977
v 0.00335228 0.06066316 0.03541946
v 0.00380578 0.06048768 0.03592142
v 0.00429885 0.06002289 0.03578844
v 0.00530083 0.06064078 0.03555110
v 0.00478005 0.06047649 0.03598724
v 0.00627511 0.06062959 0.03561693
v 0.00672861 0.06045412 0.03611889
v 0.00722168 0.05998932 0.03598591
v 0.00819596 0.05997813 0.03605173
v 0.00919794 0.06059603 0.03581440
v 0.00867716 0.06043174 0.03625054
v 0.00965144 0.06042055 0.03631636
v 0.00233843 0.06096366 0.03598857
v 0.00331270 0.06095247 0.03605440
v 0.00526126 0.06093010 0.03618604
v 0.00623554 0.06091891 0.03625187
v 0.00915837 0.06088534 0.03644934
v -0.00144396 0.04935857 0.03204704
v -0.00196474 0.04919428 0.03248317
v -0.00147167 0.04872949 0.03235019
v -0.00049739 0.04871830 0.03241602
v 0.00047689 0.04870711 0.03248184
v 0.00145116 0.04869592 0.03254767
v 0.00242544 0.04868473 0.03261349
v 0.00339972 0.04867354 0.03267931
v 0.00437400 0.04866235 0.03274514
v 0.00534827 0.04865116 0.03281096
v 0.00632255 0.04863997 0.03287679
v 0.00729683 0.04862879 0.03294261
v 0.00827110 0.04861760 0.03300844
v 0.00924538 0.04860641 0.03307426
v 0.00972659 0.04906001 0.03327306
v -0.00197661 0.05011268 0.03281495
v 0.00971472 0.04997841 0.03360485
v -0.00198848 0.05103107 0.03314674
v 0.00970285 0.05089681 0.03393663
v -0.00200035 0.05194947 0.03347852
v 0.00969098 0.05181520 0.03426841
v -0.00246571 0.05304335 0.03330834
v -0.00298649 0.05287906 0.03374448
v -0.00249342 0.05241426 0.03361150
v 0.00967911 0.05273360 0.03460020
v -0.00299836 0.05379745 0.03407626
v 0.00966724 0.05365200 0.03493198
v -0.00251716 0.05425106 0.03427507
v -0.00203595 0.05470466 0.03447387
v 0.00965537 0.05457040 0.03526376
v -0.00204782 0.05562306 0.03480565
v 0.00964350 0.05548879 0.03559555
v -0.00205969 0.05654146 0.03513744
v 0.00963163 0.05640719 0.03592733
v -0.00207156 0.05745985 0.03546922
v 0.00961977 0.05732559 0.03625911
v -0.00156265 0.05854254 0.03536487
v -0.00208343 0.05837825 0.03580100
v 0.00960790 0.05824398 0.03659089
v -0.00160223 0.05883185 0.03599981
v -0.00060024 0.05944975 0.03576247
v -0.00112102 0.05928546 0.03619861
v 0.00959603 0.05916238 0.03692268
v -0.00063982 0.05973906 0.03639741
v 0.00033446 0.05972787 0.03646324
v 0.00130874 0.05971669 0.03652906
v 0.00178994 0.06017029 0.03672787
v 0.00423157 0.05968312 0.03672653
v 0.00373850 0.06014791 0.03685951
v 0.00471277 0.06013672 0.03692534
v 0.00715440 0.05964955 0.03692401
v 0.00666133 0.06011435 0.03705699
v 0.00812868 0.05963836 0.03698983
v 0.00913066 0.06025626 0.03675250
v 0.00910296 0.05962718 0.03705566
v 0.00227114 0.06062389 0.03692667
v 0.00324542 0.06061271 0.03699249
v 0.00519398 0.06059033 0.03712414
v 0.00616825 0.06057914 0.03718997
v -0.00203202 0.04885451 0.03342127
v -0.00153895 0.04838972 0.03328829
v -0.00056467 0.04837853 0.03335411
v 0.00040960 0.04836734 0.03341994
v 0.00138388 0.04835615 0.03348576
v 0.00235816 0.04834496 0.03355159
v 0.00333244 0.04833377 0.03361741
v 0.00430671 0.04832258 0.03368324
v 0.00528099 0.04831139 0.03374906
v 0.00625527 0.04830021 0.03381489
v 0.00722955 0.04828902 0.03388071
v 0.00820382 0.04827783 0.03394653
v 0.00917810 0.04826664 0.03401236
v 0.00965930 0.04872024 0.03421116
v -0.00204389 0.04977291 0.03375305
v 0.00964744 0.04963864 0.03454295
v -0.00205576 0.05069130 0.03408484
v 0.00963557 0.05055704 0.03487473
v -0.00252113 0.05178518 0.03391466
v -0.00304191 0.05162089 0.03435079
v -0.00254883 0.05115610 0.03421781
v 0.00962370 0.05147543 0.03520651
v -0.00305378 0.05253929 0.03468258
v 0.00961183 0.05239383 0.03553829
v -0.00306565 0.05345768 0.03501436
v 0.00959996 0.05331223 0.03587008
v -0.00258444 0.05391129 0.03521316
v -0.00210324 0.05436489 0.03541197
v 0.00958809 0.05423063 0.03620186
v -0.00211511 0.05528329 0.03574375
v 0.00957622 0.05514902 0.03653364
v -0.00212697 0.05620169 0.03607553
v 0.00956435 0.05606742 0.03686543
v -0.00213884 0.05712008 0.03640732
v 0.00955248 0.05698582 0.03719721
v -0.00215071 0.05803848 0.03673910
v 0.00954062 0.05790422 0.03752899
v -0.00166951 0.05849209 0.03693790
v -0.00118830 0.05894569 0.03713671
v 0.00952875 0.05882261 0.03786078
v -0.00070710 0.05939929 0.03733551
v 0.00026718 0.05938811 0.03740133
v 0.00124145 0.05937692 0.03746716
v 0.00224344 0.05999481 0.03722983
v 0.00221573 0.05936573 0.03753298
v 0.00269694 0.05981933 0.03773179
v 0.00416429 0.05934335 0.03766463
v 0.00367121 0.05980814 0.03779761
v 0.00516627 0.05996124 0.03742730
v 0.00513856 0.05933216 0.03773046
v 0.00561977 0.05978577 0.03792926
v 0.00708712 0.05930978 0.03786211
v 0.00659405 0.05977458 0.03799508
v 0.00806140 0.05929859 0.03792793
v 0.00903567 0.05928741 0.03799375
v 0.00317814 0.06027294 0.03793059
v 0.00610097 0.06023937 0.03812806
v -0.00209931 0.04851474 0.03435937
v -0.00160623 0.04804995 0.03422639
v -0.00063195 0.04803876 0.03429221
v 0.00034232 0.04802757 0.03435804
v 0.00131660 0.04801638 0.03442386
v 0.00229088 0.04800519 0.03448969
v 0.00326515 0.04799400 0.03455551
v 0.00423943 0.04798281 0.03462133
v 0.00521371 0.04797162 0.03468716
v 0.00618799 0.04796044 0.03475298
v 0.00716226 0.04794925 0.03481881
v 0.00813654 0.04793806 0.03488463
v 0.00911082 0.04792687 0.03495046
v 0.00959202 0.04838047 0.03514926
v -0.00211117 0.04943314 0.03469115
v 0.00958015 0.04929887 0.03548104
v -0.00212304 0.05035153 0.03502293
v 0.00956828 0.05021727 0.03581283
v -0.00258841 0.05144541 0.03485276
v -0.00213491 0.05126993 0.03535472
v 0.00955642 0.05113567 0.03614461
v -0.00260028 0.05236381 0.03518454
v -0.00214678 0.05218833 0.03568650
v 0.00954455 0.05205406 0.03647639
v -0.00261215 0.05328220 0.03551632
v -0.00215865 0.05310673 0.03601828
v 0.00953268 0.05297246 0.03680817
v -0.00217052 0.05402512 0.03635007
v 0.00952081 0.05389086 0.03713996
v -0.00218239 0.05494352 0.03668185
v 0.00950894 0.05480925 0.03747174
v -0.00219426 0.05586192 0.03701363
v 0.00949707 0.05572765 0.03780352
v -0.00171305 0.05631552 0.03721243
v -0.00168535 0.05694460 0.03690928
v -0.00123185 0.05676913 0.03741124
v 0.00948520 0.05664605 0.03813531
v -0.00169721 0.05786300 0.03724106
v -0.00075064 0.05722273 0.03761004
v -0.00072294 0.05785181 0.03730688
v 0.00025134 0.05784062 0.03737271
v 0.00022363 0.05721154 0.03767587
v 0.00070484 0.05766515 0.03787467
v 0.00947333 0.05756445 0.03846709
v -0.00073481 0.05877021 0.03763867
v 0.00023947 0.05875902 0.03770449
v 0.00069297 0.05858354 0.03820645
v 0.00413658 0.05871427 0.03796779
v 0.00410887 0.05808518 0.03827095
v 0.00361580 0.05854998 0.03840393
v 0.00459008 0.05853879 0.03846975
v 0.00705941 0.05868070 0.03816526
v 0.00703171 0.05805162 0.03846842
v 0.00653863 0.05851641 0.03860140
v 0.00803369 0.05866951 0.03823109
v 0.00800598 0.05804043 0.03853424
v 0.00900797 0.05865832 0.03829691
v 0.00898026 0.05802924 0.03860007
v 0.00117417 0.05903715 0.03840526
v 0.00214845 0.05902596 0.03847108
v 0.00315043 0.05964385 0.03823375
v 0.00312273 0.05901477 0.03853691
v 0.00507128 0.05899239 0.03866855
v 0.00607327 0.05961029 0.03843122
v 0.00604556 0.05898120 0.03873438
v -0.00216659 0.04817497 0.03529747
v -0.00167351 0.04771018 0.03516449
v -0.00069924 0.04769899 0.03523031
v 0.00027504 0.04768780 0.03529613
v 0.00124932 0.04767661 0.03536196
v 0.00222360 0.04766542 0.03542778
v 0.00319787 0.04765423 0.03549361
v 0.00417215 0.04764304 0.03555943
v 0.00514643 0.04763185 0.03562526
v 0.00612070 0.04762067 0.03569108
v 0.00709498 0.04760948 0.03575691
v 0.00806926 0.04759829 0.03582273
v 0.00904354 0.04758710 0.03588855
v 0.00952474 0.04804070 0.03608736
v -0.00217846 0.04909337 0.03562925
v 0.00951287 0.04895910 0.03641914
v -0.00219033 0.05001176 0.03596103
v 0.00950100 0.04987750 0.03675092
v -0.00220219 0.05093016 0.03629281
v 0.00948913 0.05079590 0.03708271
v -0.00221406 0.05184856 0.03662460
v 0.00947726 0.05171429 0.03741449
v -0.00222593 0.05276696 0.03695638
v 0.00946540 0.05263269 0.03774627
v -0.00223780 0.05368535 0.03728816
v 0.00945353 0.05355109 0.03807806
v -0.00224967 0.05460375 0.03761995
v 0.00944166 0.05446948 0.03840984
v -0.00226154 0.05552215 0.03795173
v 0.00942979 0.05538788 0.03874162
v -0.00175263 0.05660484 0.03784738
v -0.00227341 0.05644054 0.03828351
v 0.00941792 0.05630628 0.03907340
v -0.00179220 0.05689415 0.03848232
v -0.00079022 0.05751204 0.03824498
v -0.00131100 0.05734775 0.03868112
v 0.00018406 0.05750085 0.03831081
v 0.00940605 0.05722468 0.03940519
v -0.00082980 0.05780136 0.03887992
v 0.00014448 0.05779017 0.03894575
v 0.00062569 0.05824377 0.03914455
v 0.00406930 0.05837450 0.03890589
v 0.00696442 0.05771185 0.03940652
v 0.00647135 0.05817664 0.03953950
v 0.00793870 0.05770066 0.03947234
v 0.00891298 0.05768947 0.03953817
v 0.00110689 0.05869738 0.03934335
v 0.00208117 0.05868619 0.03940918
v 0.00305545 0.05867500 0.03947500
v 0.00402972 0.05866381 0.03954083
v 0.00500400 0.05865262 0.03960665
v 0.00597828 0.05864143 0.03967248
v 0.00317017 0.04702515 0.03579677
v 0.00264939 0.04686086 0.03623290
v 0.00314246 0.04639607 0.03609992
v 0.00362366 0.04684967 0.03629873
v -0.00223387 0.04783520 0.03623556
v -0.00174080 0.04737041 0.03610258
v -0.00076652 0.04735922 0.03616841
v 0.00020776 0.04734803 0.03623423
v 0.00118204 0.04733684 0.03630006
v 0.00215631 0.04732565 0.03636588
v 0.00410487 0.04730327 0.03649753
v 0.00507914 0.04729209 0.03656335
v 0.00605342 0.04728090 0.03662918
v 0.00702770 0.04726971 0.03669500
v 0.00800198 0.04725852 0.03676083
v 0.00897625 0.04724733 0.03682665
v 0.00945746 0.04770093 0.03702546
v -0.00224574 0.04875360 0.03656735
v 0.00944559 0.04861933 0.03735724
v -0.00225761 0.04967199 0.03689913
v 0.00943372 0.04953773 0.03768902
v -0.00226948 0.05059039 0.03723091
v 0.00942185 0.05045613 0.03802080
v -0.00228135 0.05150879 0.03756269
v 0.00940998 0.05137452 0.03835259
v -0.00229321 0.05242719 0.03789448
v 0.00939811 0.05229292 0.03868437
v -0.00230508 0.05334558 0.03822626
v 0.00938624 0.05321132 0.03901615
v -0.00231695 0.05426398 0.03855804
v 0.00937438 0.05412972 0.03934794
v -0.00183575 0.05471759 0.03875685
v -0.00180804 0.05534667 0.03845369
v -0.00135454 0.05517119 0.03895565
v 0.00936251 0.05504811 0.03967972
v -0.00181991 0.05626507 0.03878547
v -0.00087334 0.05562479 0.03915445
v -0.00084563 0.05625388 0.03885130
v -0.00039214 0.05607840 0.03935326
v 0.00935064 0.05596651 0.04001150
v -0.00085750 0.05717227 0.03918308
v 0.00008907 0.05653200 0.03955206
v 0.00011678 0.05716109 0.03924890
v 0.00109105 0.05714990 0.03931473
v 0.00106335 0.05652081 0.03961789
v 0.00154455 0.05697442 0.03981669
v 0.00888527 0.05706039 0.03984132
v 0.00885756 0.05643130 0.04014448
v 0.00836449 0.05689610 0.04027746
v 0.00107918 0.05806829 0.03964651
v 0.00202575 0.05742802 0.04001549
v 0.00205346 0.05805710 0.03971234
v 0.00302774 0.05804592 0.03977816
v 0.00300003 0.05741683 0.04008132
v 0.00348124 0.05787044 0.04028012
v 0.00689714 0.05737208 0.04034462
v 0.00640407 0.05783687 0.04047759
v 0.00787142 0.05736089 0.04041044
v 0.00396244 0.05832404 0.04047893
v 0.00493672 0.05831285 0.04054475
v 0.00591100 0.05830166 0.04061057
v 0.00310288 0.04668538 0.03673486
v -0.00178037 0.04765972 0.03673752
v -0.00080609 0.04764853 0.03680335
v 0.00016818 0.04763734 0.03686917
v 0.00114246 0.04762615 0.03693500
v 0.00211674 0.04761497 0.03700082
v 0.00309101 0.04760378 0.03706665
v 0.00406529 0.04759259 0.03713247
v 0.00503957 0.04758140 0.03719829
v 0.00601385 0.04757021 0.03726412
v 0.00698812 0.04755902 0.03732994
v 0.00796240 0.04754783 0.03739577
v 0.00893668 0.04753664 0.03746159
v -0.00179224 0.04857812 0.03706931
v -0.00081796 0.04856693 0.03713513
v 0.00015631 0.04855574 0.03720096
v 0.00113059 0.04854455 0.03726678
v 0.00210487 0.04853336 0.03733260
v 0.00307915 0.04852217 0.03739843
v 0.00405342 0.04851099 0.03746425
v 0.00502770 0.04849980 0.03753008
v 0.00600198 0.04848861 0.03759590
v 0.00697626 0.04847742 0.03766173
v 0.00795053 0.04846623 0.03772755
v 0.00892481 0.04845504 0.03779338
v -0.00180411 0.04949652 0.03740109
v -0.00082983 0.04948533 0.03746691
v 0.00014445 0.04947414 0.03753274
v 0.00111872 0.04946295 0.03759856
v 0.00209300 0.04945176 0.03766439
v 0.00306728 0.04944057 0.03773021
v 0.00404155 0.04942938 0.03779604
v 0.00501583 0.04941819 0.03786186
v 0.00599011 0.04940700 0.03792768
v 0.00696439 0.04939582 0.03799351
v 0.00793866 0.04938463 0.03805933
v 0.00891294 0.04937344 0.03812516
v -0.00181598 0.05041491 0.03773287
v -0.00084170 0.05040372 0.03779870
v 0.00013258 0.05039254 0.03786452
v 0.00110685 0.05038135 0.03793035
v 0.00208113 0.05037016 0.03799617
v 0.00253463 0.05019468 0.03849813
v 0.00302770 0.04972989 0.03836515
v 0.00350891 0.05018349 0.03856396
v 0.00402969 0.05034778 0.03812782
v 0.00448318 0.05017230 0.03862978
v 0.00497626 0.04970751 0.03849680
v 0.00595053 0.04969632 0.03856263
v 0.00643174 0.05014992 0.03876143
v 0.00695252 0.05031421 0.03832529
v 0.00792679 0.05030302 0.03839112
v 0.00890107 0.05029184 0.03845694
v -0.00234863 0.05116902 0.03850079
v -0.00185555 0.05070423 0.03836781
v -0.00088128 0.05069304 0.03843364
v 0.00009300 0.05068185 0.03849946
v 0.00106728 0.05067066 0.03856529
v 0.00204156 0.05065947 0.03863111
v 0.00399011 0.05063709 0.03876276
v 0.00691294 0.05060353 0.03896023
v 0.00788722 0.05059234 0.03902606
v 0.00886150 0.05058115 0.03909188
v 0.00934270 0.05103475 0.03929069
v -0.00236050 0.05208742 0.03883258
v 0.00933083 0.05195315 0.03962247
v -0.00187929 0.05254102 0.03903138
v -0.00185159 0.05317010 0.03872822
v -0.00139809 0.05299463 0.03923018
v 0.00931896 0.05287155 0.03995425
v -0.00186345 0.05408850 0.03906000
v -0.00140996 0.05391302 0.03956197
v 0.00930709 0.05378995 0.04028603
v -0.00090105 0.05499571 0.03945761
v -0.00092875 0.05436663 0.03976077
v 0.00007323 0.05498452 0.03952344
v 0.00004552 0.05435544 0.03982659
v 0.00104751 0.05497333 0.03958926
v 0.00101980 0.05434425 0.03989242
v 0.00202179 0.05496214 0.03965509
v 0.00199408 0.05433306 0.03995824
v 0.00299606 0.05495095 0.03972091
v 0.00296836 0.05432187 0.04002407
v 0.00344956 0.05477548 0.04022287
v 0.00689317 0.05490620 0.03998421
v 0.00686547 0.05427712 0.04028736
v 0.00637239 0.05474191 0.04042034
v 0.00786745 0.05489501 0.04005003
v 0.00783974 0.05426593 0.04035319
v 0.00884173 0.05488382 0.04011586
v 0.00881402 0.05425474 0.04041901
v 0.00006136 0.05590292 0.03985522
v 0.00103564 0.05589173 0.03992104
v 0.00200992 0.05588054 0.03998687
v 0.00298419 0.05586935 0.04005269
v 0.00393077 0.05522908 0.04042167
v 0.00395847 0.05585816 0.04011852
v 0.00441197 0.05568268 0.04062048
v 0.00688130 0.05582460 0.04031599
v 0.00636052 0.05566031 0.04075213
v 0.00785558 0.05581341 0.04038181
v 0.00882986 0.05580222 0.04044764
v 0.00199805 0.05679894 0.04031865
v 0.00297233 0.05678775 0.04038448
v 0.00394660 0.05677656 0.04045030
v 0.00489317 0.05613629 0.04081928
v 0.00492088 0.05676537 0.04051612
v 0.00589516 0.05675418 0.04058195
v 0.00586745 0.05612510 0.04088511
v 0.00686943 0.05674299 0.04064777
v 0.00784371 0.05673181 0.04071360
v 0.00393473 0.05769496 0.04078208
v 0.00490901 0.05768377 0.04084791
v 0.00588329 0.05767258 0.04091373
v 0.00298813 0.05001920 0.03900009
v 0.00493668 0.04999682 0.03913174
v 0.00591096 0.04998563 0.03919757
v -0.00189513 0.05099354 0.03900275
v -0.00092085 0.05098235 0.03906858
v -0.00046735 0.05080687 0.03957054
v 0.00002572 0.05034208 0.03943756
v 0.00100000 0.05033089 0.03950338
v 0.00197427 0.05031970 0.03956921
v 0.00294855 0.05030851 0.03963503
v 0.00392283 0.05029732 0.03970086
v 0.00489711 0.05028614 0.03976668
v 0.00587138 0.05027495 0.03983251
v 0.00684566 0.05026376 0.03989833
v 0.00781994 0.05025257 0.03996415
v 0.00882192 0.05087046 0.03972682
v 0.00830114 0.05070617 0.04016296
v -0.00190700 0.05191194 0.03933454
v -0.00093272 0.05190075 0.03940036
v -0.00047922 0.05172527 0.03990232
v 0.00881005 0.05178886 0.04005860
v 0.00828927 0.05162457 0.04049474
v -0.00094459 0.05281915 0.03973214
v 0.00000198 0.05217887 0.04010113
v 0.00002969 0.05280796 0.03979797
v 0.00048319 0.05263248 0.04029993
v 0.00877048 0.05207817 0.04069355
v 0.00925168 0.05253178 0.04089235
v -0.00095646 0.05373754 0.04006393
v 0.00001782 0.05372635 0.04012975
v 0.00047132 0.05355088 0.04063171
v 0.00923981 0.05345018 0.04122413
v 0.00095252 0.05400448 0.04083052
v 0.00192680 0.05399329 0.04089634
v 0.00290107 0.05398210 0.04096216
v 0.00338228 0.05443571 0.04116097
v 0.00679818 0.05393735 0.04122546
v 0.00630511 0.05440214 0.04135844
v 0.00777246 0.05392616 0.04129129
v 0.00874674 0.05391497 0.04135711
v 0.00386348 0.05488931 0.04135977
v 0.00434469 0.05534291 0.04155858
v 0.00629324 0.05532054 0.04169022
v 0.00482589 0.05579652 0.04175738
v 0.00580017 0.05578533 0.04182320
v -0.00001386 0.05063139 0.04007250
v 0.00043964 0.05045591 0.04057446
v 0.00093271 0.04999112 0.04044148
v 0.00190699 0.04997993 0.04050731
v 0.00288127 0.04996874 0.04057313
v 0.00385555 0.04995755 0.04063895
v 0.00482982 0.04994637 0.04070478
v 0.00580410 0.04993518 0.04077060
v 0.00680608 0.05055307 0.04053327
v 0.00628530 0.05038878 0.04096941
v 0.00778036 0.05054188 0.04059910
v -0.00002573 0.05154979 0.04040428
v 0.00042777 0.05137431 0.04090624
v 0.00679422 0.05147147 0.04086505
v 0.00627344 0.05130718 0.04130119
v 0.00776849 0.05146028 0.04093088
v 0.00093668 0.05245700 0.04080189
v 0.00090898 0.05182792 0.04110505
v 0.00191096 0.05244581 0.04086771
v 0.00188325 0.05181673 0.04117087
v 0.00236446 0.05227033 0.04136968
v 0.00678235 0.05238987 0.04119684
v 0.00626157 0.05222558 0.04163297
v 0.00775662 0.05237868 0.04126266
v 0.00873090 0.05236749 0.04132849
v 0.00092481 0.05337540 0.04113367
v 0.00189909 0.05336421 0.04119950
v 0.00284566 0.05272394 0.04156848
v 0.00287337 0.05335302 0.04126532
v 0.00384765 0.05334183 0.04133115
v 0.00381994 0.05271275 0.04163430
v 0.00482192 0.05333064 0.04139697
v 0.00479422 0.05270156 0.04170013
v 0.00579620 0.05331945 0.04146280
v 0.00576849 0.05269037 0.04176595
v 0.00677048 0.05330826 0.04152862
v 0.00774475 0.05329707 0.04159444
v 0.00871903 0.05328589 0.04166027
v 0.00383578 0.05426023 0.04166293
v 0.00481005 0.05424904 0.04172875
v 0.00578433 0.05423785 0.04179458
v 0.00479819 0.05516744 0.04206054
v 0.00577246 0.05515625 0.04212636
v 0.00089314 0.05028043 0.04107642
v 0.00186742 0.05026925 0.04114225
v 0.00232091 0.05009377 0.04164421
v 0.00281399 0.04962897 0.04151123
v 0.00381597 0.05024687 0.04127390
v 0.00329519 0.05008258 0.04171003
v 0.00479025 0.05023568 0.04133972
v 0.00576453 0.05022449 0.04140554
v 0.00088127 0.05119883 0.04140820
v 0.00185555 0.05118764 0.04147403
v 0.00230904 0.05101216 0.04197599
v 0.00380410 0.05116527 0.04160568
v 0.00328332 0.05100098 0.04204181
v 0.00477838 0.05115408 0.04167150
v 0.00575266 0.05114289 0.04173733
v 0.00281796 0.05209485 0.04187164
v 0.00279025 0.05146577 0.04217479
v 0.00379223 0.05208366 0.04193746
v 0.00476651 0.05207247 0.04200329
v 0.00574079 0.05206129 0.04206911
v 0.00277441 0.04991829 0.04214617
v 0.00276254 0.05083668 0.04247795
f 3 2 1
f 5 4 1
f 1 4 3
f 7 6 5
f 5 6 4
f 9 8 7
f 7 8 6
f 11 10 9
f 9 10 8
f 11 12 10
f 15 14 13
f 13 16 15
f 1 2 17
f 17 2 18
f 1 19 5
f 1 17 19
f 5 20 7
f 5 19 20
f 7 21 9
f 7 20 21
f 9 22 11
f 9 21 22
f 12 11 23
f 11 24 23
f 11 22 24
f 23 24 14
f 24 13 14
f 24 25 13
f 16 13 26
f 13 27 26
f 13 25 27
f 27 28 26
f 17 18 29
f 29 18 30
f 17 31 19
f 17 29 31
f 19 32 20
f 19 31 32
f 20 33 21
f 20 32 33
f 21 34 22
f 21 33 34
f 22 35 24
f 22 34 35
f 24 36 25
f 24 35 36
f 25 37 27
f 25 36 37
f 28 27 38
f 38 27 37
f 29 30 39
f 39 30 40
f 29 41 31
f 29 39 41
f 31 42 32
f 31 41 42
f 32 43 33
f 32 42 43
f 33 44 34
f 33 43 44
f 46 35 45
f 35 44 45
f 35 34 44
f 48 47 46
f 47 35 46
f 47 36 35
f 36 49 37
f 36 47 49
f 38 37 50
f 50 37 49
f 40 51 39
f 39 51 41
f 41 51 52
f 41 52 42
f 42 52 53
f 42 53 43
f 43 53 54
f 43 54 44
f 44 54 55
f 44 55 45
f 48 56 47
f 47 56 49
f 49 56 57
f 49 57 50
f 60 59 58
f 62 61 58
f 58 61 60
f 62 63 61
f 66 65 64
f 64 67 66
f 70 69 68
f 72 71 68
f 68 71 70
f 74 73 72
f 72 73 71
f 73 74 59
f 74 58 59
f 74 75 58
f 58 76 62
f 58 75 76
f 63 62 77
f 62 78 77
f 62 76 78
f 78 79 77
f 82 81 80
f 82 80 65
f 80 64 65
f 80 83 64
f 67 64 84
f 64 85 84
f 64 83 85
f 84 85 69
f 69 85 68
f 85 2 68
f 2 3 68
f 68 3 4
f 68 4 72
f 72 4 6
f 72 6 74
f 74 6 8
f 74 8 75
f 75 8 10
f 75 10 76
f 76 10 12
f 86 76 12
f 78 76 86
f 15 87 14
f 87 78 14
f 78 86 14
f 78 87 79
f 89 88 16
f 88 15 16
f 88 87 15
f 89 90 88
f 80 81 91
f 91 81 92
f 80 93 83
f 80 91 93
f 83 94 85
f 83 93 94
f 94 18 2
f 94 2 85
f 23 86 12
f 86 23 14
f 26 89 16
f 26 28 89
f 28 90 89
f 28 95 90
f 92 96 91
f 98 97 96
f 97 91 96
f 97 93 91
f 93 99 94
f 93 97 99
f 99 30 18
f 99 18 94
f 38 95 28
f 38 100 95
f 98 101 97
f 97 101 99
f 99 101 102
f 30 99 102
f 103 30 102
f 40 30 103
f 45 104 46
f 104 48 46
f 50 100 38
f 50 105 100
f 103 106 40
f 40 106 51
f 51 107 52
f 106 107 51
f 52 108 53
f 107 108 52
f 53 109 54
f 108 109 53
f 54 110 55
f 109 110 54
f 45 55 104
f 55 111 104
f 55 110 111
f 104 111 48
f 111 56 48
f 111 112 56
f 56 113 57
f 112 113 56
f 50 57 105
f 105 57 113
f 116 115 114
f 114 117 116
f 119 118 60
f 60 118 59
f 120 60 61
f 120 119 60
f 122 121 63
f 121 61 63
f 121 120 61
f 124 123 122
f 122 123 121
f 126 125 124
f 124 125 123
f 126 127 125
f 128 65 66
f 67 128 66
f 130 129 70
f 70 129 69
f 71 114 115
f 130 71 115
f 70 71 130
f 131 117 114
f 71 131 114
f 73 131 71
f 73 59 118
f 73 118 131
f 77 122 63
f 122 77 79
f 132 122 79
f 124 122 132
f 124 133 126
f 124 132 133
f 127 126 134
f 134 126 133
f 135 81 82
f 65 128 82
f 128 135 82
f 128 136 135
f 136 128 67
f 137 136 67
f 84 137 67
f 138 136 137
f 84 69 129
f 84 129 137
f 87 132 79
f 132 87 88
f 132 88 133
f 140 139 90
f 90 139 88
f 139 134 88
f 134 133 88
f 142 141 140
f 140 141 139
f 144 143 142
f 142 143 141
f 144 145 143
f 146 92 135
f 135 92 81
f 147 135 136
f 146 135 147
f 136 138 148
f 136 148 147
f 95 149 140
f 95 140 90
f 140 150 142
f 140 149 150
f 142 151 144
f 142 150 151
f 145 144 152
f 152 144 151
f 146 96 92
f 96 146 98
f 146 153 98
f 146 147 153
f 147 148 154
f 147 154 153
f 100 155 149
f 100 149 95
f 149 156 150
f 149 155 156
f 158 151 157
f 151 156 157
f 151 150 156
f 151 158 152
f 153 101 98
f 102 101 153
f 159 102 153
f 154 159 153
f 160 102 159
f 160 103 102
f 105 161 155
f 105 155 100
f 155 162 156
f 155 161 162
f 157 156 163
f 163 156 162
f 159 164 160
f 160 164 103
f 164 106 103
f 164 165 106
f 165 167 166
f 107 165 166
f 106 165 107
f 168 108 107
f 168 107 166
f 169 109 108
f 169 108 168
f 170 110 109
f 170 109 169
f 171 111 110
f 171 110 170
f 172 112 111
f 172 111 171
f 173 113 112
f 173 112 172
f 173 174 113
f 113 174 105
f 174 175 105
f 175 161 105
f 161 175 162
f 162 175 176
f 162 176 163
f 166 167 177
f 177 167 178
f 180 168 179
f 168 177 179
f 168 166 177
f 182 181 180
f 181 168 180
f 181 169 168
f 169 183 170
f 169 181 183
f 170 184 171
f 170 183 184
f 171 185 172
f 171 184 185
f 172 186 173
f 172 185 186
f 174 173 187
f 187 173 186
f 178 188 177
f 177 188 179
f 182 189 181
f 181 189 183
f 183 189 190
f 183 190 184
f 184 190 191
f 184 191 185
f 185 191 192
f 185 192 186
f 186 192 193
f 186 193 187
f 196 195 194
f 198 197 194
f 194 197 196
f 198 199 197
f 202 201 200
f 204 203 200
f 200 203 202
f 204 205 203
f 208 207 206
f 210 209 206
f 206 209 208
f 210 211 209
f 194 195 212
f 212 195 213
f 194 214 198
f 194 212 214
f 199 198 215
f 198 216 215
f 198 214 216
f 215 216 201
f 216 200 201
f 216 217 200
f 200 218 204
f 200 217 218
f 205 204 219
f 204 220 219
f 204 218 220
f 219 220 207
f 220 206 207
f 220 221 206
f 206 222 210
f 206 221 222
f 211 210 223
f 223 210 222
f 226 225 224
f 226 224 213
f 224 212 213
f 224 227 212
f 227 115 116
f 214 227 116
f 212 227 214
f 214 116 117
f 228 214 117
f 216 214 228
f 228 118 119
f 217 228 119
f 216 228 217
f 217 119 120
f 217 120 218
f 218 120 121
f 218 121 220
f 220 121 123
f 220 123 221
f 221 123 125
f 221 125 222
f 230 229 127
f 127 229 125
f 229 223 125
f 223 222 125
f 230 231 229
f 224 225 232
f 232 225 233
f 232 129 130
f 227 232 130
f 224 232 227
f 227 130 115
f 131 228 117
f 228 131 118
f 134 234 230
f 134 230 127
f 231 230 235
f 230 236 235
f 230 234 236
f 238 237 236
f 236 237 235
f 238 239 237
f 232 233 137
f 233 138 137
f 233 240 138
f 232 137 129
f 139 234 134
f 234 139 141
f 234 141 236
f 236 141 143
f 236 143 238
f 143 145 238
f 145 239 238
f 145 241 239
f 240 148 138
f 242 148 240
f 152 241 145
f 152 243 241
f 242 154 148
f 244 154 242
f 157 245 158
f 245 246 158
f 246 152 158
f 246 243 152
f 244 159 154
f 247 159 244
f 163 248 245
f 163 245 157
f 246 245 249
f 249 245 248
f 247 250 159
f 159 250 164
f 250 252 251
f 165 250 251
f 164 250 165
f 251 167 165
f 174 253 175
f 254 176 175
f 254 175 253
f 248 163 176
f 254 248 176
f 255 248 254
f 249 248 256
f 256 248 255
f 251 252 257
f 257 252 258
f 257 178 167
f 257 167 251
f 179 259 180
f 259 182 180
f 261 260 253
f 174 261 253
f 187 261 174
f 253 260 254
f 254 260 262
f 254 262 255
f 255 262 263
f 255 263 256
f 258 264 257
f 257 264 178
f 264 188 178
f 264 265 188
f 179 188 259
f 188 266 259
f 188 265 266
f 259 266 182
f 266 189 182
f 266 267 189
f 267 269 268
f 190 267 268
f 189 267 190
f 190 268 270
f 271 190 270
f 191 190 271
f 191 272 192
f 271 272 191
f 192 273 193
f 272 273 192
f 187 193 261
f 261 193 273
f 269 274 268
f 268 274 270
f 275 195 196
f 197 276 196
f 196 276 275
f 199 276 197
f 278 277 202
f 202 277 201
f 279 202 203
f 279 278 202
f 203 205 279
f 279 205 280
f 282 281 208
f 208 281 207
f 283 208 209
f 283 282 208
f 209 211 283
f 283 211 284
f 286 285 275
f 285 195 275
f 285 213 195
f 286 275 276
f 286 276 287
f 287 276 199
f 215 287 199
f 288 287 215
f 215 201 277
f 215 277 288
f 289 280 205
f 289 205 219
f 219 207 281
f 219 281 289
f 223 284 211
f 223 290 284
f 292 291 226
f 226 291 225
f 226 213 285
f 226 285 292
f 293 290 223
f 293 223 229
f 229 231 293
f 293 231 294
f 291 233 225
f 295 233 291
f 296 294 231
f 296 231 235
f 297 235 237
f 297 296 235
f 237 239 297
f 297 239 298
f 295 240 233
f 299 240 295
f 241 298 239
f 241 300 298
f 299 242 240
f 301 242 299
f 243 300 241
f 243 302 300
f 301 244 242
f 303 244 301
f 246 302 243
f 246 304 302
f 303 247 244
f 305 247 303
f 249 304 246
f 249 306 304
f 309 308 307
f 307 310 250
f 305 307 250
f 247 305 250
f 307 305 309
f 310 252 250
f 256 306 249
f 256 311 306
f 307 308 312
f 312 308 313
f 307 314 310
f 307 312 314
f 314 258 252
f 314 252 310
f 261 315 260
f 316 262 260
f 316 260 315
f 317 263 262
f 317 262 316
f 317 318 263
f 318 256 263
f 318 311 256
f 313 319 312
f 312 319 314
f 314 319 320
f 320 322 321
f 320 321 264
f 314 320 264
f 258 314 264
f 323 265 264
f 323 264 321
f 265 323 324
f 325 265 324
f 266 265 325
f 325 327 326
f 267 325 326
f 266 325 267
f 326 269 267
f 270 328 271
f 329 272 271
f 329 271 328
f 330 273 272
f 330 272 329
f 330 331 273
f 273 331 261
f 331 332 261
f 332 315 261
f 334 333 332
f 333 315 332
f 333 316 315
f 336 317 335
f 317 333 335
f 317 316 333
f 317 336 318
f 322 337 321
f 321 337 323
f 323 337 338
f 323 338 324
f 327 339 326
f 326 339 269
f 339 274 269
f 339 340 274
f 270 274 328
f 274 341 328
f 274 340 341
f 328 341 329
f 329 341 342
f 344 343 342
f 343 329 342
f 343 330 329
f 331 330 345
f 345 330 343
f 334 346 333
f 333 346 335
f 344 347 343
f 343 347 345
f 350 349 348
f 352 351 348
f 348 351 350
f 354 353 352
f 352 353 351
f 356 355 354
f 354 355 353
f 277 278 356
f 278 355 356
f 278 357 355
f 358 278 279
f 358 357 278
f 360 359 280
f 359 279 280
f 359 358 279
f 281 282 360
f 282 359 360
f 282 361 359
f 362 282 283
f 362 361 282
f 364 363 284
f 363 283 284
f 363 362 283
f 366 365 364
f 364 365 363
f 368 367 366
f 366 367 365
f 368 369 367
f 348 349 370
f 370 349 371
f 370 285 286
f 352 370 286
f 348 370 352
f 352 286 287
f 352 287 354
f 354 287 288
f 354 288 356
f 356 288 277
f 289 360 280
f 360 289 281
f 290 372 364
f 290 364 284
f 364 373 366
f 364 372 373
f 366 374 368
f 366 373 374
f 369 368 375
f 375 368 374
f 370 371 292
f 371 291 292
f 371 376 291
f 370 292 285
f 293 372 290
f 372 293 294
f 377 372 294
f 373 372 377
f 373 378 374
f 373 377 378
f 375 374 379
f 379 374 378
f 382 381 380
f 376 382 380
f 295 376 380
f 291 376 295
f 296 377 294
f 377 296 297
f 377 297 378
f 297 298 378
f 298 379 378
f 298 383 379
f 380 381 384
f 384 381 385
f 384 299 295
f 384 295 380
f 300 383 298
f 300 386 383
f 384 385 387
f 387 385 388
f 387 301 299
f 387 299 384
f 302 386 300
f 302 389 386
f 388 390 387
f 301 387 390
f 391 301 390
f 303 301 391
f 304 389 302
f 304 392 389
f 391 305 303
f 393 305 391
f 306 392 304
f 306 394 392
f 395 308 309
f 396 395 309
f 305 396 309
f 393 396 305
f 311 394 306
f 311 397 394
f 398 313 395
f 395 313 308
f 395 396 399
f 395 399 398
f 318 397 311
f 318 400 397
f 398 319 313
f 399 401 398
f 401 319 398
f 401 320 319
f 322 320 401
f 322 401 402
f 324 403 325
f 403 327 325
f 331 404 332
f 404 334 332
f 335 405 336
f 405 406 336
f 406 318 336
f 406 400 318
f 402 407 322
f 322 407 337
f 407 409 408
f 338 407 408
f 337 407 338
f 403 324 338
f 408 403 338
f 410 403 408
f 411 339 327
f 403 411 327
f 410 411 403
f 412 340 339
f 412 339 411
f 413 341 340
f 413 340 412
f 414 342 341
f 414 341 413
f 414 344 342
f 416 415 404
f 331 416 404
f 345 416 331
f 415 418 417
f 415 417 346
f 404 415 346
f 334 404 346
f 405 335 346
f 417 405 346
f 419 405 417
f 406 405 420
f 420 405 419
f 409 421 408
f 408 421 410
f 410 421 422
f 410 422 411
f 411 422 423
f 411 423 412
f 412 423 424
f 412 424 413
f 413 424 425
f 413 425 414
f 414 425 426
f 414 426 344
f 426 347 344
f 426 427 347
f 345 347 416
f 416 347 427
f 418 428 417
f 417 428 419
f 419 428 429
f 419 429 420
f 430 349 350
f 430 350 431
f 350 432 431
f 350 351 432
f 433 351 353
f 433 432 351
f 434 353 355
f 434 433 353
f 435 355 357
f 435 434 355
f 436 357 358
f 436 435 357
f 437 358 359
f 437 436 358
f 438 359 361
f 438 437 359
f 439 361 362
f 439 438 361
f 440 362 363
f 440 439 362
f 441 363 365
f 441 440 363
f 442 365 367
f 442 441 365
f 367 369 442
f 442 369 443
f 445 444 430
f 444 349 430
f 444 371 349
f 445 430 431
f 375 443 369
f 375 446 443
f 444 376 371
f 447 376 444
f 379 446 375
f 379 448 446
f 449 381 382
f 450 449 382
f 376 450 382
f 447 450 376
f 383 448 379
f 383 451 448
f 452 385 449
f 449 385 381
f 449 450 453
f 449 453 452
f 386 451 383
f 386 454 451
f 456 455 452
f 455 385 452
f 455 388 385
f 456 452 453
f 389 454 386
f 389 457 454
f 455 458 388
f 388 458 390
f 391 390 458
f 391 458 459
f 392 457 389
f 392 460 457
f 459 393 391
f 461 393 459
f 394 460 392
f 394 462 460
f 461 396 393
f 463 396 461
f 397 462 394
f 397 464 462
f 463 399 396
f 465 399 463
f 400 464 397
f 400 466 464
f 465 467 399
f 399 467 401
f 402 401 467
f 402 467 468
f 406 466 400
f 406 469 466
f 468 470 402
f 402 470 407
f 409 407 470
f 409 470 471
f 416 472 415
f 472 418 415
f 420 469 406
f 420 473 469
f 471 474 409
f 409 474 421
f 421 475 422
f 474 475 421
f 475 477 476
f 423 475 476
f 422 475 423
f 478 424 423
f 478 423 476
f 424 478 479
f 480 424 479
f 425 424 480
f 480 482 481
f 426 480 481
f 425 480 426
f 483 427 426
f 483 426 481
f 483 484 427
f 427 484 416
f 484 485 416
f 485 472 416
f 472 485 418
f 485 428 418
f 485 486 428
f 486 488 487
f 429 486 487
f 428 486 429
f 487 489 429
f 489 420 429
f 489 473 420
f 477 490 476
f 476 490 478
f 478 490 491
f 478 491 479
f 482 492 481
f 481 492 483
f 483 492 493
f 483 493 484
f 488 494 487
f 487 494 489
f 497 496 495
f 431 432 495
f 432 497 495
f 432 498 497
f 499 432 433
f 499 498 432
f 500 433 434
f 500 499 433
f 501 434 435
f 501 500 434
f 502 435 436
f 502 501 435
f 503 436 437
f 503 502 436
f 504 437 438
f 504 503 437
f 505 438 439
f 505 504 438
f 506 439 440
f 506 505 439
f 507 440 441
f 507 506 440
f 508 441 442
f 508 507 441
f 442 443 508
f 508 443 509
f 495 496 445
f 496 444 445
f 496 510 444
f 495 445 431
f 446 509 443
f 446 511 509
f 510 447 444
f 512 447 510
f 448 511 446
f 448 513 511
f 512 450 447
f 514 450 512
f 451 513 448
f 451 515 513
f 518 517 516
f 514 518 516
f 453 514 516
f 450 514 453
f 454 515 451
f 454 519 515
f 516 517 456
f 517 455 456
f 517 520 455
f 516 456 453
f 457 519 454
f 457 521 519
f 520 522 455
f 455 522 458
f 459 458 522
f 459 522 523
f 460 521 457
f 460 524 521
f 523 461 459
f 525 461 523
f 462 524 460
f 462 526 524
f 525 463 461
f 527 463 525
f 464 526 462
f 464 528 526
f 527 465 463
f 529 465 527
f 466 528 464
f 466 530 528
f 467 465 531
f 465 532 531
f 465 529 532
f 531 468 467
f 469 530 466
f 469 533 530
f 532 534 531
f 534 536 535
f 534 535 470
f 531 534 470
f 468 531 470
f 535 471 470
f 473 533 469
f 473 537 533
f 536 538 535
f 535 538 471
f 538 474 471
f 538 539 474
f 474 540 475
f 539 540 474
f 477 475 540
f 477 540 541
f 543 542 480
f 543 480 479
f 482 480 542
f 482 542 544
f 546 545 485
f 546 485 484
f 485 547 486
f 545 547 485
f 549 548 488
f 486 549 488
f 547 549 486
f 549 537 548
f 537 489 548
f 537 473 489
f 541 550 477
f 477 550 490
f 490 551 491
f 550 551 490
f 479 491 543
f 543 491 551
f 544 552 482
f 482 552 492
f 492 553 493
f 552 553 492
f 484 493 546
f 546 493 553
f 548 494 488
f 494 548 489
f 555 554 497
f 497 554 496
f 556 497 498
f 556 555 497
f 557 498 499
f 557 556 498
f 558 499 500
f 558 557 499
f 559 500 501
f 559 558 500
f 560 501 502
f 560 559 501
f 561 502 503
f 561 560 502
f 562 503 504
f 562 561 503
f 563 504 505
f 563 562 504
f 564 505 506
f 564 563 505
f 565 506 507
f 565 564 506
f 566 507 508
f 566 565 507
f 508 509 566
f 566 509 567
f 554 510 496
f 568 510 554
f 511 567 509
f 511 569 567
f 568 512 510
f 570 512 568
f 513 569 511
f 513 571 569
f 574 573 572
f 570 574 572
f 514 570 572
f 512 570 514
f 515 571 513
f 515 575 571
f 572 573 518
f 573 517 518
f 573 576 517
f 572 518 514
f 519 575 515
f 519 577 575
f 576 520 517
f 578 520 576
f 521 577 519
f 521 579 577
f 578 580 520
f 520 580 522
f 523 522 580
f 523 580 581
f 524 579 521
f 524 582 579
f 581 525 523
f 583 525 581
f 526 582 524
f 526 584 582
f 583 527 525
f 585 527 583
f 528 584 526
f 528 586 584
f 585 529 527
f 587 529 585
f 530 586 528
f 530 588 586
f 587 532 529
f 589 532 587
f 533 588 530
f 533 590 588
f 589 591 532
f 532 591 534
f 536 534 591
f 536 591 592
f 537 590 533
f 537 593 590
f 592 594 536
f 536 594 538
f 538 595 539
f 594 595 538
f 539 596 540
f 595 596 539
f 598 597 541
f 540 598 541
f 596 598 540
f 599 597 598
f 601 600 542
f 601 542 543
f 603 602 544
f 542 603 544
f 600 603 542
f 604 602 603
f 606 605 545
f 606 545 546
f 545 607 547
f 605 607 545
f 547 608 549
f 607 608 547
f 537 549 593
f 593 549 608
f 597 550 541
f 599 609 597
f 609 550 597
f 609 551 550
f 543 551 601
f 601 551 609
f 602 552 544
f 604 610 602
f 610 552 602
f 610 553 552
f 546 553 606
f 606 553 610
f 612 611 555
f 555 611 554
f 613 555 556
f 613 612 555
f 614 556 557
f 614 613 556
f 615 557 558
f 615 614 557
f 616 558 559
f 616 615 558
f 617 559 560
f 617 616 559
f 618 560 561
f 618 617 560
f 619 561 562
f 619 618 561
f 620 562 563
f 620 619 562
f 621 563 564
f 621 620 563
f 622 564 565
f 622 621 564
f 623 565 566
f 623 622 565
f 566 567 623
f 623 567 624
f 611 568 554
f 625 568 611
f 569 624 567
f 569 626 624
f 625 570 568
f 627 570 625
f 571 626 569
f 571 628 626
f 629 573 574
f 630 629 574
f 570 630 574
f 627 630 570
f 575 628 571
f 575 631 628
f 632 576 629
f 629 576 573
f 629 630 633
f 629 633 632
f 577 631 575
f 577 634 631
f 635 578 632
f 632 578 576
f 632 633 636
f 632 636 635
f 579 634 577
f 579 637 634
f 635 580 578
f 581 580 635
f 636 581 635
f 638 581 636
f 582 637 579
f 582 639 637
f 638 583 581
f 640 583 638
f 584 639 582
f 584 641 639
f 640 585 583
f 642 585 640
f 586 641 584
f 586 643 641
f 645 587 644
f 587 642 644
f 587 585 642
f 646 645 644
f 588 643 586
f 588 647 643
f 648 589 645
f 645 589 587
f 645 646 649
f 650 645 649
f 648 645 650
f 652 651 650
f 652 650 649
f 653 651 652
f 590 647 588
f 590 654 647
f 648 591 589
f 591 648 592
f 648 655 592
f 648 650 655
f 656 650 651
f 655 650 656
f 651 653 657
f 651 657 656
f 660 659 658
f 661 658 659
f 664 663 662
f 666 665 662
f 666 662 663
f 668 667 665
f 668 665 666
f 668 654 667
f 654 593 667
f 654 590 593
f 655 594 592
f 594 655 595
f 595 655 656
f 657 669 656
f 669 595 656
f 669 596 595
f 596 670 598
f 669 670 596
f 672 671 599
f 598 672 599
f 670 672 598
f 671 672 660
f 671 660 658
f 601 671 658
f 600 601 658
f 661 673 658
f 673 600 658
f 673 603 600
f 675 674 604
f 603 675 604
f 673 675 603
f 674 675 664
f 674 664 662
f 606 674 662
f 605 606 662
f 605 662 607
f 607 662 665
f 607 665 608
f 608 665 667
f 608 667 593
f 671 609 599
f 609 671 601
f 674 610 604
f 610 674 606
f 677 676 612
f 612 676 611
f 678 612 613
f 678 677 612
f 679 613 614
f 679 678 613
f 680 614 615
f 680 679 614
f 681 615 616
f 681 680 615
f 682 616 617
f 682 681 616
f 683 617 618
f 683 682 617
f 684 618 619
f 684 683 618
f 685 619 620
f 685 684 619
f 686 620 621
f 686 685 620
f 687 621 622
f 687 686 621
f 688 622 623
f 688 687 622
f 623 624 688
f 688 624 689
f 676 625 611
f 690 625 676
f 626 689 624
f 626 691 689
f 690 627 625
f 692 627 690
f 628 691 626
f 628 693 691
f 692 630 627
f 694 630 692
f 631 693 628
f 631 695 693
f 694 633 630
f 696 633 694
f 634 695 631
f 634 697 695
f 696 636 633
f 698 636 696
f 637 697 634
f 637 699 697
f 698 638 636
f 700 638 698
f 639 699 637
f 639 701 699
f 700 640 638
f 702 640 700
f 641 701 639
f 641 703 701
f 702 642 640
f 704 642 702
f 643 703 641
f 643 705 703
f 644 642 706
f 642 707 706
f 642 704 707
f 706 646 644
f 647 705 643
f 647 708 705
f 707 709 706
f 709 711 710
f 709 710 649
f 706 709 649
f 646 706 649
f 712 652 649
f 712 649 710
f 712 653 652
f 654 708 647
f 654 713 708
f 711 714 710
f 710 714 712
f 712 714 715
f 653 712 715
f 716 653 715
f 657 653 716
f 660 717 659
f 717 661 659
f 719 718 663
f 719 663 664
f 663 720 666
f 718 720 663
f 666 721 668
f 720 721 666
f 654 668 713
f 713 668 721
f 716 722 657
f 657 722 669
f 669 723 670
f 722 723 669
f 670 724 672
f 723 724 670
f 660 672 717
f 672 725 717
f 672 724 725
f 717 725 661
f 725 673 661
f 725 726 673
f 673 727 675
f 726 727 673
f 664 675 719
f 719 675 727
f 730 729 728
f 728 731 730
f 733 732 677
f 677 732 676
f 734 677 678
f 734 733 677
f 735 678 679
f 735 734 678
f 736 679 680
f 736 735 679
f 737 680 681
f 737 736 680
f 682 728 729
f 737 682 729
f 681 682 737
f 738 731 728
f 682 738 728
f 683 738 682
f 739 683 684
f 739 738 683
f 740 684 685
f 740 739 684
f 741 685 686
f 741 740 685
f 742 686 687
f 742 741 686
f 743 687 688
f 743 742 687
f 688 689 743
f 743 689 744
f 732 690 676
f 745 690 732
f 691 744 689
f 691 746 744
f 745 692 690
f 747 692 745
f 693 746 691
f 693 748 746
f 747 694 692
f 749 694 747
f 695 748 693
f 695 750 748
f 749 696 694
f 751 696 749
f 697 750 695
f 697 752 750
f 751 698 696
f 753 698 751
f 699 752 697
f 699 754 752
f 753 700 698
f 755 700 753
f 701 754 699
f 701 756 754
f 755 702 700
f 757 702 755
f 703 756 701
f 703 758 756
f 760 704 759
f 704 757 759
f 704 702 757
f 761 760 759
f 705 758 703
f 705 762 758
f 763 707 760
f 760 707 704
f 760 761 764
f 765 760 764
f 763 760 765
f 766 765 764
f 708 762 705
f 708 767 762
f 763 709 707
f 709 763 711
f 763 768 711
f 763 765 768
f 765 766 769
f 770 765 769
f 768 765 770
f 772 771 770
f 772 770 769
f 773 771 772
f 776 775 774
f 775 767 774
f 767 713 774
f 767 708 713
f 768 714 711
f 714 768 715
f 715 768 770
f 715 770 716
f 770 777 716
f 770 771 777
f 771 773 778
f 779 771 778
f 777 771 779
f 781 780 779
f 781 779 778
f 782 780 781
f 784 783 718
f 784 718 719
f 718 785 720
f 783 785 718
f 774 721 776
f 721 785 776
f 721 720 785
f 721 774 713
f 777 722 716
f 722 777 723
f 723 777 779
f 723 779 724
f 724 779 780
f 782 786 780
f 786 724 780
f 786 725 724
f 725 787 726
f 786 787 725
f 726 788 727
f 787 788 726
f 719 727 784
f 784 727 788
f 789 729 730
f 731 789 730
f 790 732 733
f 734 791 733
f 733 791 790
f 735 792 734
f 734 792 791
f 736 793 735
f 735 793 792
f 737 794 736
f 736 794 793
f 729 789 737
f 789 794 737
f 789 795 794
f 738 796 731
f 796 789 731
f 796 795 789
f 739 797 738
f 738 797 796
f 740 798 739
f 739 798 797
f 741 799 740
f 740 799 798
f 742 800 741
f 741 800 799
f 743 801 742
f 742 801 800
f 744 801 743
f 802 745 790
f 790 745 732
f 803 790 791
f 802 790 803
f 804 791 792
f 803 791 804
f 805 792 793
f 804 792 805
f 806 793 794
f 805 793 806
f 807 794 795
f 806 794 807
f 808 795 796
f 807 795 808
f 809 796 797
f 808 796 809
f 810 797 798
f 809 797 810
f 811 798 799
f 810 798 811
f 812 799 800
f 811 799 812
f 813 800 801
f 812 800 813
f 746 813 744
f 744 813 801
f 814 747 802
f 802 747 745
f 815 802 803
f 814 802 815
f 816 803 804
f 815 803 816
f 817 804 805
f 816 804 817
f 818 805 806
f 817 805 818
f 819 806 807
f 818 806 819
f 820 807 808
f 819 807 820
f 821 808 809
f 820 808 821
f 822 809 810
f 821 809 822
f 823 810 811
f 822 810 823
f 824 811 812
f 823 811 824
f 825 812 813
f 824 812 825
f 748 825 746
f 746 825 813
f 826 749 814
f 814 749 747
f 827 814 815
f 826 814 827
f 828 815 816
f 827 815 828
f 829 816 817
f 828 816 829
f 830 817 818
f 829 817 830
f 819 832 831
f 830 819 831
f 818 819 830
f 834 833 832
f 819 834 832
f 820 834 819
f 821 836 835
f 834 821 835
f 820 821 834
f 836 821 822
f 836 822 837
f 839 838 837
f 822 839 837
f 823 839 822
f 840 823 824
f 839 823 840
f 841 824 825
f 840 824 841
f 750 841 748
f 748 841 825
f 843 842 826
f 842 749 826
f 842 751 749
f 843 826 827
f 843 827 844
f 844 827 828
f 844 828 845
f 845 828 829
f 845 829 846
f 846 829 830
f 846 830 847
f 847 830 831
f 848 833 834
f 848 834 835
f 849 838 839
f 849 839 840
f 849 840 850
f 850 840 841
f 850 841 851
f 841 750 851
f 750 852 851
f 750 752 852
f 842 753 751
f 853 753 842
f 754 852 752
f 754 854 852
f 856 755 855
f 755 853 855
f 755 753 853
f 857 856 855
f 756 854 754
f 756 858 854
f 859 757 856
f 856 757 755
f 856 857 860
f 856 860 859
f 758 858 756
f 758 861 858
f 859 759 757
f 863 862 761
f 863 761 759
f 860 863 759
f 859 860 759
f 865 864 862
f 865 862 863
f 867 866 864
f 867 864 865
f 869 868 866
f 869 866 867
f 871 870 868
f 871 868 869
f 872 870 871
f 875 874 873
f 877 876 873
f 877 873 874
f 879 878 876
f 879 876 877
f 879 861 878
f 861 762 878
f 861 758 762
f 862 764 761
f 764 862 766
f 862 880 766
f 862 864 880
f 881 864 866
f 880 864 881
f 882 866 868
f 881 866 882
f 883 868 870
f 882 868 883
f 870 872 884
f 885 870 884
f 883 870 885
f 886 885 884
f 875 873 887
f 875 887 888
f 889 873 876
f 887 873 889
f 890 876 878
f 889 876 890
f 767 890 762
f 762 890 878
f 880 769 766
f 769 880 772
f 772 880 881
f 772 881 773
f 881 891 773
f 881 882 891
f 892 882 883
f 891 882 892
f 893 883 885
f 892 883 893
f 885 886 894
f 895 885 894
f 893 885 895
f 897 896 895
f 897 895 894
f 896 897 888
f 887 896 888
f 898 896 887
f 899 887 889
f 898 887 899
f 776 899 775
f 899 890 775
f 899 889 890
f 775 890 767
f 891 778 773
f 778 891 781
f 781 891 892
f 781 892 782
f 892 900 782
f 892 893 900
f 901 893 895
f 900 893 901
f 902 895 896
f 901 895 902
f 784 902 783
f 902 898 783
f 902 896 898
f 783 898 785
f 785 898 899
f 785 899 776
f 900 786 782
f 786 900 787
f 787 900 901
f 787 901 788
f 788 901 902
f 788 902 784
f 903 831 832
f 833 903 832
f 904 835 836
f 837 905 836
f 836 905 904
f 838 905 837
f 906 842 843
f 844 907 843
f 843 907 906
f 907 844 908
f 844 909 908
f 844 845 909
f 910 845 846
f 910 909 845
f 911 846 847
f 911 910 846
f 847 831 903
f 912 847 903
f 911 847 912
f 912 903 833
f 848 912 833
f 913 912 848
f 848 835 904
f 914 848 904
f 913 848 914
f 914 904 905
f 914 905 915
f 915 905 838
f 849 915 838
f 916 915 849
f 917 849 850
f 917 916 849
f 919 917 918
f 917 851 918
f 917 850 851
f 852 918 851
f 920 853 906
f 906 853 842
f 921 906 907
f 920 906 921
f 907 908 922
f 907 922 921
f 919 918 923
f 919 923 924
f 854 923 852
f 852 923 918
f 920 855 853
f 855 920 857
f 920 925 857
f 920 921 925
f 921 922 926
f 927 921 926
f 925 921 927
f 928 927 926
f 929 924 923
f 923 854 929
f 854 930 929
f 854 858 930
f 931 860 925
f 925 860 857
f 932 925 927
f 931 925 932
f 927 928 933
f 927 933 932
f 861 930 858
f 861 934 930
f 931 863 860
f 863 931 865
f 865 931 932
f 933 935 932
f 935 865 932
f 935 867 865
f 867 936 869
f 935 936 867
f 869 937 871
f 936 937 869
f 872 871 937
f 872 937 938
f 940 939 874
f 940 874 875
f 874 941 877
f 939 941 874
f 877 942 879
f 941 942 877
f 861 879 934
f 934 879 942
f 938 943 872
f 872 943 884
f 886 884 943
f 886 943 944
f 888 940 875
f 888 945 940
f 944 946 886
f 886 946 894
f 894 947 897
f 946 947 894
f 888 897 945
f 945 897 947
f 948 908 909
f 948 909 949
f 909 950 949
f 909 910 950
f 951 910 911
f 951 950 910
f 952 911 912
f 952 951 911
f 953 912 913
f 953 952 912
f 954 913 914
f 954 953 913
f 955 914 915
f 955 954 914
f 957 955 956
f 955 916 956
f 955 915 916
f 917 958 916
f 916 958 956
f 919 958 917
f 959 922 948
f 948 922 908
f 948 949 960
f 948 960 959
f 957 956 961
f 957 961 962
f 963 956 958
f 961 956 963
f 924 963 919
f 919 963 958
f 959 926 922
f 965 964 928
f 965 928 926
f 960 965 926
f 959 960 926
f 967 966 964
f 967 964 965
f 968 966 967
f 962 961 969
f 962 969 970
f 971 961 963
f 969 961 971
f 929 972 924
f 972 963 924
f 972 971 963
f 930 972 929
f 973 933 964
f 964 933 928
f 974 964 966
f 973 964 974
f 966 968 975
f 976 966 975
f 974 966 976
f 978 977 976
f 978 976 975
f 980 979 977
f 980 977 978
f 982 981 979
f 982 979 980
f 981 982 970
f 969 981 970
f 983 981 969
f 984 969 971
f 983 969 984
f 985 971 972
f 984 971 985
f 934 985 930
f 930 985 972
f 973 935 933
f 935 973 936
f 936 973 974
f 936 974 937
f 937 974 976
f 937 976 938
f 976 986 938
f 976 977 986
f 987 977 979
f 986 977 987
f 988 979 981
f 987 979 988
f 940 988 939
f 988 983 939
f 988 981 983
f 939 983 941
f 941 983 984
f 941 984 942
f 942 984 985
f 942 985 934
f 986 943 938
f 943 986 944
f 986 989 944
f 986 987 989
f 990 987 988
f 989 987 990
f 945 990 940
f 940 990 988
f 989 946 944
f 946 989 947
f 947 989 990
f 947 990 945
f 991 949 950
f 951 992 950
f 950 992 991
f 992 951 993
f 951 994 993
f 951 952 994
f 996 994 995
f 994 953 995
f 994 952 953
f 954 997 953
f 953 997 995
f 955 998 954
f 954 998 997
f 957 998 955
f 999 960 991
f 991 960 949
f 1000 991 992
f 999 991 1000
f 992 993 1001
f 992 1001 1000
f 996 995 1002
f 996 1002 1003
f 1004 995 997
f 1002 995 1004
f 1005 997 998
f 1004 997 1005
f 962 1005 957
f 957 1005 998
f 999 965 960
f 965 999 967
f 967 999 1000
f 1007 1006 968
f 1007 968 967
f 1001 1007 967
f 1000 1001 967
f 1006 1007 1003
f 1002 1006 1003
f 1008 1006 1002
f 1009 1002 1004
f 1008 1002 1009
f 1010 1004 1005
f 1009 1004 1010
f 970 1010 962
f 962 1010 1005
f 1006 975 968
f 975 1006 978
f 978 1006 1008
f 978 1008 980
f 980 1008 1009
f 980 1009 982
f 982 1009 1010
f 982 1010 970
f 1011 993 994
f 996 1011 994
f 1012 1001 1011
f 1011 1001 993
f 1003 1012 996
f 996 1012 1011
f 1012 1007 1001
f 1007 1012 1003

