# https://github.com/mikedh/trimesh
v 0.92809132 55.38816676 26.93913211
v 0.40731166 55.22387640 27.37526876
v 0.90038478 54.75908337 27.24228947
v 1.38158897 55.21268758 27.44109315
v -0.05805492 56.31775283 27.20509068
v -0.57883458 56.15346247 27.64122733
v -0.08576146 55.68866944 27.50824805
v 0.91622239 56.30656401 27.27091508
v 1.86279316 55.66629180 27.63989684
v 1.89049970 56.29537519 27.33673947
v 2.83707047 55.65510298 27.70572123
v 2.86477701 56.28418637 27.40256387
v 3.81134778 55.64391416 27.77154563
v 3.83905432 56.27299755 27.46838826
v 4.78562509 55.63272533 27.83737002
v 4.81333163 56.26180873 27.53421266
v 5.75990240 55.62153651 27.90319441
v 5.78760894 56.25061991 27.60003705
v 6.73417971 55.61034769 27.96901881
v 6.76188625 56.23943108 27.66586145
v 7.21538390 56.06395191 28.16782249
v -2.01847847 57.25852772 27.40522486
v -2.53925813 57.09423736 27.84136152
v -2.04618501 56.62944433 27.70838223
v -1.07190770 56.61825551 27.77420662
v -1.04420116 57.24733890 27.47104926
v -0.06992385 57.23615008 27.53687365
v 0.90435346 57.22496126 27.60269805
v 1.87863077 57.21377244 27.66852244
v 2.85290808 57.20258362 27.73434684
v 3.82718539 57.19139480 27.80017123
v 4.80146269 57.18020597 27.86599563
v 5.77574000 57.16901715 27.93182002
v 6.75001731 57.15782833 27.99764442
v 7.20351496 56.98234915 28.49960546
v -2.03034740 58.17692497 27.73700784
v -2.55112706 58.01263461 28.17314449
v -1.05607009 58.16573615 27.80283223
v -0.08179278 58.15454733 27.86865662
v 0.89248453 58.14335851 27.93448102
v 1.86676183 58.13216969 28.00030541
v 2.84103914 58.12098086 28.06612981
v 3.81531645 58.10979204 28.13195420
v 4.78959376 58.09860322 28.19777860
v 5.76387107 58.08741440 28.26360299
v 6.73814838 58.07622558 28.32942739
v 7.68471915 57.43595337 28.69840915
v 7.71242569 58.06503676 28.39525178
v 8.65899646 57.42476455 28.76423354
v 8.68670300 58.05384794 28.46107618
v 9.14020065 57.87836876 28.96303722
v -2.06992287 58.46623883 28.37194817
v -1.09564556 58.45505000 28.43777256
v -0.12136825 58.44386118 28.50359696
v 0.85290906 58.43267236 28.56942135
v 1.82718637 58.42148354 28.63524575
v 2.80146367 58.41029472 28.70107014
v 3.77574098 58.39910590 28.76689454
v 4.75001829 58.38791708 28.83271893
v 5.72429560 58.37672826 28.89854333
v 6.69857291 58.36553944 28.96436772
v 7.67285022 58.35435062 29.03019212
v 8.64712753 58.34316179 29.09601651
v -2.05015368 54.16356644 27.34797365
v -2.57093334 53.99927608 27.78411030
v -2.07786022 53.53448305 27.65113101
v -1.10358291 53.52329423 27.71695541
v -1.07587637 54.15237762 27.41379805
v -0.12930560 53.51210541 27.78277980
v -0.10159907 54.14118880 27.47962244
v 0.84497171 53.50091659 27.84860420
v 0.87267824 54.12999998 27.54544683
v 1.81924902 53.48972777 27.91442859
v 1.84695555 54.11881116 27.61127123
v 2.79352633 53.47853894 27.98025299
v 2.82123286 54.10762234 27.67709562
v 3.76780363 53.46735012 28.04607738
v 3.79551017 54.09643352 27.74292002
v 4.74208094 53.45616130 28.11190178
v 4.76978748 54.08524469 27.80874441
v 5.22328513 53.90976552 28.31070546
v -3.03629993 55.09315251 27.61393223
v -3.55707958 54.92886215 28.05006888
v -3.06400646 54.46406912 27.91708959
v -2.06202262 55.08196369 27.67975662
v -1.08774531 55.07077487 27.74558102
v -0.11346800 55.05958605 27.81140541
v 1.83508662 55.03720841 27.94305420
v 2.80936393 55.02601958 28.00887859
v 3.78364124 55.01483076 28.07470299
v 4.75791855 55.00364194 28.14052738
v 5.70448932 54.36336973 28.50950914
v 5.73219586 54.99245312 28.20635178
v 6.67876663 54.35218091 28.57533354
v 6.70647317 54.98126430 28.27217617
v 7.65304394 54.34099209 28.64115793
v 7.68075048 54.97007548 28.33800057
v 8.13424813 54.79459630 28.83996161
v -4.02244617 56.02273858 27.87989080
v -4.54322583 55.85844822 28.31602745
v -4.05015270 55.39365519 28.18304817
v -3.04816886 56.01154976 27.94571520
v -2.07389155 56.00036094 28.01153959
v -1.09961424 55.98917212 28.07736399
v 7.66888155 55.88847273 28.66978354
v 8.12237920 55.71299355 29.17174458
v -4.06202164 56.31205244 28.51483114
v -3.06003779 56.92994701 28.27749817
v -3.58081745 56.76565665 28.71363482
v 7.62930608 56.17778658 29.30472387
v 7.13623296 56.64257962 29.43770316
v -3.07190672 57.84834425 28.60928114
v -3.59268638 57.68405390 29.04541779
v 7.64514368 57.72526722 29.33334948
v 7.12436403 57.56097687 29.76948613
v 8.61942099 57.71407840 29.39917387
v -3.11148219 58.13765811 29.24422147
v -2.13720488 58.12646929 29.31004587
v -1.16292757 58.11528047 29.37587026
v -0.18865026 58.10409165 29.44169466
v 0.78562705 58.09290283 29.50751905
v 1.75990436 58.08171401 29.57334345
v 2.73418167 58.07052518 29.63916784
v 3.70845898 58.05933636 29.70499224
v 4.68273629 58.04814754 29.77081663
v 5.65701360 58.03695872 29.83664102
v 6.63129090 58.02576990 29.90246542
v -0.14514321 51.96462477 27.75415420
v -0.66592287 51.80033441 28.19029085
v -0.17284975 51.33554138 28.05731156
v 0.80142756 51.32435255 28.12313596
v 0.82913410 51.95343595 27.81997859
v 1.28263175 51.77795677 28.32193964
v -1.13128945 52.89421084 28.02011277
v -1.65206911 52.72992048 28.45624942
v -1.15899599 52.26512744 28.32327014
v -0.15701214 52.88302202 28.08593717
v 0.81726517 52.87183319 28.15176156
v 1.76383594 52.23156098 28.52074332
v 1.79154248 52.86064437 28.21758596
v 2.73811325 52.22037216 28.58656772
v 2.76581979 52.84945555 28.28341035
v 3.71239056 52.20918334 28.65239211
v 3.74009710 52.83826673 28.34923475
v 4.68666787 52.19799452 28.71821650
v 4.71437441 52.82707791 28.41505914
v 5.66094518 52.18680570 28.78404090
v 5.68865172 52.81588909 28.48088354
v 6.63522249 52.17561688 28.84986529
v 6.66292902 52.80470027 28.54670793
v 7.11642668 52.62922109 29.04866898
v -2.11743569 53.82379691 28.28607135
v -1.66393804 53.64831773 28.78803239
v 5.67678278 53.73428634 28.81266651
v 6.65106009 53.72309752 28.87849090
v 7.59763086 53.08282530 29.24747266
v 7.62533740 53.71190870 28.94431530
v 8.07883505 53.53642952 29.44627634
v -3.10358193 54.75338297 28.55202992
v -2.12930462 54.74219415 28.61785432
v -1.67580697 54.56671498 29.11981537
v 8.56003924 53.99003373 29.64508002
v 8.58774578 54.61911712 29.34192266
v 9.53431655 53.97884491 29.71090442
v 9.56202309 54.60792830 29.40774705
v 10.01552074 54.43244912 29.90970810
v -4.08972817 55.68296904 28.81798850
v -3.11545086 55.67178022 28.88381290
v -2.14117356 55.66059140 28.94963729
v -1.68767590 55.48511222 29.45159834
v 8.57587685 55.53751437 29.67370563
v 9.55015416 55.52632555 29.73953003
v 10.00365181 55.35084637 30.24149107
v -3.12731980 56.59017747 29.21559587
v -2.15304249 56.57898865 29.28142026
v -1.69954484 56.40350947 29.78338131
v 7.58973061 56.46710044 29.93966421
v 8.56400792 56.45591162 30.00548860
v 9.53828523 56.44472280 30.07131300
v 9.99178288 56.26924362 30.57327404
v -3.13918873 57.50857472 29.54737884
v -2.16491142 57.49738590 29.61320323
v -1.71141377 57.32190672 30.11516428
v 7.57786168 57.38549769 30.27144718
v 8.55213899 57.37430887 30.33727157
v 9.52641629 57.36312005 30.40309597
v 9.97991395 57.18764087 30.90505701
v -1.23020958 57.77551093 30.31396796
v -0.22822573 58.39340550 30.07663499
v -0.74900539 58.22911515 30.51277164
v 0.74605158 58.38221668 30.14245939
v 1.72032889 58.37102786 30.20828378
v 2.69460620 58.35983904 30.27410817
v 3.66888351 58.34865022 30.33993257
v 4.64316082 58.33746140 30.40575696
v 5.61743813 58.32627258 30.47158136
v 6.59171543 58.31508376 30.53740575
v 7.56599274 58.30389494 30.60323015
v 8.01949040 58.12841576 31.10519119
v 8.51256352 57.66362272 30.97221191
v 9.48684083 57.65243390 31.03803630
v -0.24009466 59.31180275 30.40841796
v -0.76087432 59.14751239 30.84455461
v 0.73418265 59.30061393 30.47424236
v 1.70845996 59.28942511 30.54006675
v 2.68273727 59.27823629 30.60589115
v 3.65701457 59.26704747 30.67171554
v 4.63129188 59.25585865 30.73753993
v 5.60556919 59.24466983 30.80336433
v 6.57984650 59.23348101 30.86918872
v 7.03334415 59.05800183 31.37114977
v 7.52641727 58.59320879 31.23817048
v -0.27967013 59.60111661 31.04335830
v 0.69460718 59.58992779 31.10918269
v 1.66888449 59.57873897 31.17500708
v 2.64316180 59.56755015 31.24083148
v 3.64514564 60.18544472 31.00349851
v 3.12436598 60.02115436 31.43963516
v 4.09864329 60.00996554 31.50545956
v 4.59171641 59.54517250 31.37248027
v 5.56599372 59.53398368 31.43830466
v 6.54027103 59.52279486 31.50412906
v 3.60557017 60.47475857 31.63843884
v -1.17483360 50.71764680 28.29464453
v -1.69561325 50.55335645 28.73078118
v -1.20254013 50.08856341 28.59780189
v -0.22826282 50.07737459 28.66362629
v -0.20055629 50.70645798 28.36046892
v 0.74601449 50.06618577 28.72945068
v 0.77372102 50.69526916 28.42629332
v 1.72029180 50.05499695 28.79527508
v 1.74799833 50.68408034 28.49211771
v 2.69456910 50.04380813 28.86109947
v 2.72227564 50.67289152 28.55794211
v 3.66884641 50.03261931 28.92692387
v 3.69655295 50.66170270 28.62376650
v 4.64312372 50.02143049 28.99274826
v 4.67083026 50.65051388 28.68959090
v 5.61740103 50.01024167 29.05857266
v 5.64510757 50.63932506 28.75541529
v 6.09860522 50.46384588 29.25737634
v -1.18670253 51.63604405 28.62642750
v -1.70748219 51.47175370 29.06256415
v 1.73612940 51.60247759 28.82390068
v 2.71040671 51.59128877 28.88972508
v 3.68468402 51.58009995 28.95554947
v 4.65896133 51.56891113 29.02137387
v 5.63323864 51.55772231 29.08719826
v 6.57980941 50.91745009 29.45618002
v 6.60751595 51.54653349 29.15302266
v 7.55408672 50.90626127 29.52200442
v 7.58179326 51.53534466 29.21884705
v 8.52836403 50.89507245 29.58782881
v 8.55607057 51.52415584 29.28467145
v 9.00956822 51.34867667 29.78663249
v -1.71935112 52.39015094 29.39434712
v 7.56992433 52.45374191 29.55063002
v 8.54420164 52.44255309 29.61645442
v 8.99769929 52.26707391 30.11841546
v -1.73122005 53.30854819 29.72613009
v 8.53233270 53.36095034 29.94823739
v 9.47890348 52.72067813 30.31721915
v 9.50661001 53.34976152 30.01406178
v 9.96010766 53.17428234 30.51602283
v -1.74308898 54.22694544 30.05791306
v 9.94823873 54.09267959 30.84780580
v -1.75495791 55.14534269 30.38969603
v 10.42944292 54.54628380 31.04660948
v 10.45714946 55.17536719 30.74345212
v 10.91064711 54.99988802 31.24541316
v -1.76682684 56.06373994 30.72147900
v 10.41757399 55.46468105 31.37839245
v 9.92450087 55.92947408 31.51137174
v -1.77869578 56.98213718 31.05326198
v 10.40570506 56.38307830 31.71017542
v 10.43341160 57.01216169 31.40701806
v 10.88690925 56.83668251 31.90897911
v -2.24406236 58.07601361 30.88308390
v -2.76484202 57.91172325 31.31922055
v -2.27176890 57.44693022 31.18624126
v -1.26978505 58.06482479 30.94890829
v 8.47298805 57.95293658 31.60715224
v 9.44726536 57.94174776 31.67297663
v 9.90076301 57.76626858 32.17493768
v 10.39383613 57.30147555 32.04195839
v -2.28363783 58.36532747 31.51802423
v -1.30936052 58.35413865 31.58384863
v -0.82815633 58.80774286 31.78265231
v 7.48684180 58.88252265 31.87311082
v 8.46111911 58.87133383 31.93893521
v 8.91461677 58.69585465 32.44089626
v 9.40768989 58.23106162 32.30791697
v -0.34695214 59.26134707 31.98145599
v 0.65503171 59.87924164 31.74412302
v 0.13425205 59.71495129 32.18025968
v 1.62930902 59.86805282 31.80994742
v 2.60358633 59.85686400 31.87577181
v 4.55214094 59.83448636 32.00742060
v 5.52641825 59.82329754 32.07324500
v 6.50069556 59.81210872 32.13906939
v 6.95419321 59.63662954 32.64103044
v 7.44726634 59.17183651 32.50805115
v 8.42154364 59.16064768 32.57387555
v 0.61545624 60.16855550 32.37906336
v 1.58973355 60.15736668 32.44488775
v 2.56401086 60.14617786 32.51071215
v 3.53828817 60.13498904 32.57653654
v 4.51256547 60.12380022 32.64236094
v 5.48684278 60.11261140 32.70818533
v 6.46112009 60.10142257 32.77400973
v -1.24211560 50.37787727 29.23274223
v -0.26783829 50.36668845 29.29856662
v 0.70643902 50.35549963 29.36439102
v 1.68071633 50.34431081 29.43021541
v 2.13421398 50.16883163 29.93217646
v 2.62728710 49.70403859 29.79919717
v 3.60156441 49.69284977 29.86502156
v 4.57584172 49.68166095 29.93084596
v 5.57782556 50.29955552 29.69351299
v 5.05704590 50.13526517 30.12964964
v -1.77476419 51.13198416 30.00066185
v -1.28169107 50.66719113 29.86768256
v -0.30741376 50.65600230 29.93350696
v 0.66686355 50.64481348 29.99933135
v 1.64114086 50.63362466 30.06515575
v 5.53825009 50.58886938 30.32845332
v 6.51252740 50.57768056 30.39427772
v 7.48680471 50.56649174 30.46010211
v 8.48878856 51.18438631 30.22276914
v 7.96800890 51.02009595 30.65890580
v -1.78663313 52.05038141 30.33244482
v 8.44921309 51.47370016 30.85770948
v 8.93041728 51.92730438 31.05651316
v -1.79850206 52.96877866 30.66422779
v 9.41162147 52.38090859 31.25531684
v 9.89282566 52.83451280 31.45412053
v -1.81037099 53.88717590 30.99601076
v 9.88095673 53.75291005 31.78590350
v -1.82223992 54.80557315 31.32779373
v 10.36216091 54.20651427 31.98470718
v 10.84336510 54.66011848 32.18351086
v -1.83410885 55.72397040 31.65957670
v 10.37799852 55.75399491 32.01333279
v 10.83149617 55.57851573 32.51529383
v -1.84597778 56.64236765 31.99135967
v 10.81962724 56.49691298 32.84707680
v -2.83212402 57.57195372 32.25731825
v -2.33905090 57.10716068 32.12433896
v 10.35426066 57.59078940 32.67689873
v 10.80775831 57.41531022 33.17885977
v -2.32321330 58.65464132 32.15296457
v -2.84399296 58.49035097 32.58910122
v -1.34893599 58.64345250 32.21878896
v 9.36811442 58.52037547 32.94285730
v 9.82161207 58.34489629 33.44481835
v 10.31468519 57.88010326 33.31183906
v -2.36278877 58.94395518 32.78790490
v -1.38851146 58.93276636 32.85372930
v -0.38652761 59.55066093 32.61639633
v -0.90730727 59.38637057 33.05253298
v 7.40769087 59.46115036 33.14299148
v 8.38196817 59.44996154 33.20881588
v 9.35624548 59.43877272 33.27464027
v 9.80974314 59.26329354 33.77660132
v -0.42610308 59.83997479 33.25133666
v 0.57588077 60.45786936 33.01400369
v 0.05510111 60.29357900 33.45014034
v 1.02937842 60.28239018 33.51596474
v 1.52245154 59.81759714 33.38298545
v 2.52443539 60.43549171 33.14565248
v 2.00365573 60.27120136 33.58178913
v 3.49871270 60.42430289 33.21147688
v 4.47299001 60.41311407 33.27730127
v 5.44726731 60.40192525 33.34312567
v 6.42154462 60.39073643 33.40895006
v 7.39582193 60.37954761 33.47477446
v 7.84931958 60.20406843 33.97673550
v 8.34239271 59.73927540 33.84375621
v 9.31667001 59.72808658 33.90958061
v 0.53630530 60.74718321 33.64894403
v 2.48485992 60.72480557 33.78059282
v 3.45913723 60.71361675 33.84641721
v 4.43341454 60.70242793 33.91224161
v 5.40769184 60.69123911 33.97806600
v 6.38196915 60.68005029 34.04389039
v 7.35624646 60.66886147 34.10971479
v -0.33512030 50.02691891 30.23666432
v -0.85589996 49.86262856 30.67280097
v -0.36282684 49.39783552 30.53982168
v 0.61145047 49.38664670 30.60564608
v 0.63915701 50.01573009 30.30248871
v 1.58572778 49.37545788 30.67147047
v 1.61343432 50.00454127 30.36831311
v 2.56000509 49.36426906 30.73729487
v 3.53428240 49.35308024 30.80311926
v 4.50855971 49.34189142 30.86894366
v 5.48283702 49.33070260 30.93476805
v 5.51054356 49.95978599 30.63161069
v 6.45711433 49.31951377 31.00059245
v 6.48482086 49.94859717 30.69743508
v 6.93831852 49.77311799 31.19939613
v -1.84204620 50.79221462 30.93875955
v -1.34897308 50.32742159 30.80578026
v 7.41952270 50.22672220 31.39819981
v 8.39380001 50.21553338 31.46402421
v 8.42150655 50.84461677 31.16086684
v 8.87500420 50.66913759 31.66282789
v -1.85391513 51.71061187 31.27054252
v 9.35620839 51.12274181 31.86163157
v 9.38391493 51.75182520 31.55847421
v 9.83741258 51.57634602 32.06043525
v -1.86578406 52.62900912 31.60232549
v 9.82554365 52.49474327 32.39221822
v -1.87765300 53.54740637 31.93410846
v 9.81367472 53.41314052 32.72400119
v -1.88952193 54.46580362 32.26589143
v 10.32258544 54.49582812 32.61964751
v 9.80180579 54.33153777 33.05578417
v -1.90139086 55.38420086 32.59767440
v 10.31071651 55.41422537 32.95143048
v 9.78993685 55.24993501 33.38756714
v -1.91325979 56.30259811 32.92945737
v 10.29884758 56.33262262 33.28321345
v 9.77806792 56.16833226 33.71935011
v -2.37862637 57.39647454 32.75927930
v -1.92512872 57.22099536 33.26124034
v 10.28697865 57.25101987 33.61499643
v 9.76619899 57.08672951 34.05113308
v -2.39049531 58.31487179 33.09106227
v -1.93699765 58.13939261 33.59302331
v 9.75433006 58.00512676 34.38291605
v -1.45579347 58.59299682 33.79182699
v -0.45380962 59.21089139 33.55449403
v -0.48151616 58.58180800 33.85765139
v -0.00031197 59.03541222 34.05645507
v 9.74246113 58.92352401 34.71469902
v 0.50859876 60.11809982 33.95210139
v 0.48089222 59.48901643 34.25525875
v 1.45516953 59.47782761 34.32108315
v 2.45715338 60.09572218 34.08375018
v 2.42944684 59.46663879 34.38690754
v 2.91065103 59.92024300 34.58571123
v 7.32853993 60.03977807 34.41287215
v 7.30083339 59.41069468 34.71602952
v 6.80776027 59.87548772 34.84900880
v 8.27511070 59.39950586 34.78185391
v 9.24938801 59.38831704 34.84767831
v 3.39185522 60.37384721 34.78451491
v 4.36613253 60.36265839 34.85033930
v 5.34040984 60.35146957 34.91616370
v 6.31468715 60.34028075 34.98198809
v -0.92318197 49.52285902 31.61089867
v -0.43010885 49.05806599 31.47791938
v 0.54416846 49.04687716 31.54374378
v 1.51844577 49.03568834 31.60956817
v 2.49272308 49.02449952 31.67539257
v 3.46700039 49.01331070 31.74121696
v 4.44127770 49.00212188 31.80704135
v 5.41555501 48.99093306 31.87286575
v 6.38983232 48.97974424 31.93869014
v 7.36410963 48.96855542 32.00451454
v 7.39181617 49.59763881 31.70135717
v 8.33838694 48.95736660 32.07033893
v 8.36609348 49.58644999 31.76718157
v 8.81959113 49.41097081 32.26914262
v -1.90932821 50.45244509 31.87685725
v -1.41625509 49.98765205 31.74387796
v 9.30079532 49.86457502 32.46794630
v 9.32850185 50.49365842 32.16478893
v 9.78199950 50.31817924 32.66674998
v -1.92119714 51.37084234 32.20864022
v 9.77013057 51.23657649 32.99853295
v -1.93306607 52.28923959 32.54042319
v 10.25133476 51.69018070 33.19733663
v 10.27904130 52.31926409 32.89417927
v 10.73253895 52.14378491 33.39614032
v -1.94493500 53.20763683 32.87220616
v 10.26717237 53.23766134 33.22596224
v 11.21374314 52.59738913 33.59494400
v 11.24144968 53.22647252 33.29178664
v 11.69494733 53.05099334 33.79374768
v -1.95680394 54.12603408 33.20398913
v 10.25530344 54.15605859 33.55774521
v 10.70880109 53.98057941 34.05970626
v 11.20187421 53.51578637 33.92672697
v -1.96867287 55.04443133 33.53577210
v 10.24343450 55.07445584 33.88952818
v 10.69693216 54.89897666 34.39148923
v -1.98054180 55.96282858 33.86755507
v 10.23156557 55.99285308 34.22131115
v 10.68506322 55.81737391 34.72327220
v -1.99241073 56.88122583 34.19933804
v 10.21969664 56.91125033 34.55309412
v 10.67319429 56.73577115 35.05505517
v -2.00427966 57.79962307 34.53112101
v 10.20782771 57.82964758 34.88487709
v 10.66132536 57.65416840 35.38683814
v -1.52307547 58.25322729 34.72992469
v -0.52109163 58.87112186 34.49259172
v -1.04187128 58.70683150 34.92872837
v 10.16825224 58.11896144 35.51981743
v 9.67517912 58.58375447 35.65279672
v -0.56066710 59.16043571 35.12753206
v 0.44131675 59.77833029 34.89019909
v -0.07946291 59.61403993 35.32633574
v 1.41559406 59.76714146 34.95602348
v 2.38987137 59.75595264 35.02184788
v 7.26125792 59.70000854 35.35096985
v 8.23553523 59.68881972 35.41679425
v 9.20981254 59.67763090 35.48261864
v 9.66331019 59.50215172 35.98457969
v 0.40174128 60.06764414 35.52513942
v 1.37601859 60.05645532 35.59096382
v 2.35029590 60.04526650 35.65678821
v 3.32457321 60.03407768 35.72261261
v 4.29885052 60.02288886 35.78843700
v 5.27312783 60.01170004 35.85426140
v 6.24740514 60.00051122 35.92008579
v 7.22168245 59.98932240 35.98591019
v 8.19595976 59.97813357 36.05173458
v 9.17023707 59.96694475 36.11755897
v 0.51646192 48.41779377 31.84690114
v -0.00431773 48.25350342 32.28303779
v 0.48875539 47.78871038 32.15005850
v 0.96995957 48.24231459 32.34886219
v 2.46501654 48.39541613 31.97854993
v 1.94423688 48.23112577 32.41468658
v 2.43731000 47.76633274 32.28170729
v 3.41158731 47.75514392 32.34753169
v 3.43929385 48.38422731 32.04437432
v 3.89279150 48.20874813 32.54633537
v -1.44396163 49.35856866 32.04703532
v -1.96474129 49.19427831 32.48317197
v -1.47166816 48.72948527 32.35019268
v -0.49739086 48.71829645 32.41601708
v 1.45116376 48.69591881 32.54766587
v 4.37399569 48.66235235 32.74513905
v 5.34827300 48.65116352 32.81096345
v 6.32255031 48.63997470 32.87678784
v 7.29682762 48.62878588 32.94261224
v 8.27110493 48.61759706 33.00843663
v 9.24538224 48.60640824 33.07426103
v 9.27308878 49.23549163 32.77110366
v 9.72658643 49.06001245 33.27306471
v -1.97661022 50.11267555 32.81495494
v 10.20779062 49.51361667 33.47186839
v 10.23549716 50.14270006 33.16871103
v 10.68899481 49.96722088 33.67067207
v -1.98847915 51.03107280 33.14673791
v 10.22362822 51.06109731 33.50049400
v 10.67712587 50.88561813 34.00245504
v -2.00034808 51.94947005 33.47852088
v 11.15833006 51.33922234 34.20125873
v 11.18603660 51.96830573 33.89810136
v 11.63953425 51.79282656 34.40006241
v -2.01221701 52.86786730 33.81030385
v 11.62766532 52.71122380 34.73184538
v -2.02408594 53.78626455 34.14208683
v 11.16229874 53.80510023 34.56166730
v 11.61579639 53.62962105 35.06362835
v -2.03595488 54.70466179 34.47386980
v 11.15042981 54.72349748 34.89345027
v 11.60392746 54.54801830 35.39541132
v -2.04782381 55.62305904 34.80565277
v 11.13856087 55.64189473 35.22523325
v 11.59205853 55.46641555 35.72719429
v -2.05969274 56.54145629 35.13743574
v 11.12669194 56.56029198 35.55701622
v 11.58018959 56.38481280 36.05897726
v -2.07156167 57.45985354 35.46921871
v 11.08711647 56.84960583 36.19195655
v 10.59404335 57.31439887 36.32493584
v -1.59035748 57.91345775 35.66802239
v -1.10915329 58.36706197 35.86682607
v 10.10097023 57.77919190 36.45791513
v 9.60789711 58.24398494 36.59089441
v -0.62794910 58.82066618 36.06562976
v -0.14674491 59.27427039 36.26443344
v 9.59602818 59.16238218 36.92267738
v 0.33445927 59.72787461 36.46323712
v 1.30873658 59.71668579 36.52906152
v 2.28301389 59.70549696 36.59488591
v 3.25729120 59.69430814 36.66071030
v 4.23156851 59.68311932 36.72653470
v 5.20584582 59.67193050 36.79235909
v 6.18012313 59.66074168 36.85818349
v 7.15440044 59.64955286 36.92400788
v 8.12867775 59.63836404 36.98983228
v 9.10295506 59.62717522 37.05565667
v 0.44917992 48.07802424 32.78499884
v 2.39773454 48.05564660 32.91664763
v 3.37201184 48.04445777 32.98247202
v -1.51124363 49.01879913 32.98513302
v -1.05774598 48.84331995 33.48709407
v -0.56467286 48.37852691 33.35411478
v 0.40960445 48.36733809 33.41993917
v 1.38388176 48.35614927 33.48576357
v 2.35815907 48.34496045 33.55158796
v 3.33243637 48.33377163 33.61741236
v 4.30671368 48.32258281 33.68323675
v 5.28099099 48.31139399 33.74906115
v 6.25526830 48.30020517 33.81488554
v 7.22954561 48.28901635 33.88070993
v 8.20382292 48.27782753 33.94653433
v 9.17810023 48.26663870 34.01235872
v 9.65930442 48.72024292 34.21116241
v -2.04389222 49.77290602 33.75305264
v -1.55081910 49.30811298 33.62007335
v 10.16821515 49.80293052 34.10680873
v 9.64743549 49.63864017 34.54294538
v -2.05576116 50.69130327 34.08483561
v 10.15634622 50.72132777 34.43859170
v 9.63556656 50.55703741 34.87472835
v -2.06763009 51.60970051 34.41661858
v 10.11677075 51.01064163 35.07353203
v 11.09104806 50.99945281 35.13935642
v 11.57225224 51.45305702 35.33816011
v -2.07949902 52.52809776 34.74840155
v 11.56038331 52.37145427 35.66994308
v -2.09136795 53.44649501 35.08018452
v 11.54851438 53.28985152 36.00172605
v -2.10323688 54.36489226 35.41196749
v 11.53664545 54.20824877 36.33350902
v -2.11510581 55.28328951 35.74375046
v 11.52477652 55.12664601 36.66529199
v -2.12697475 56.20168675 36.07553343
v 11.51290759 56.04504326 36.99707496
v -2.13884368 57.12008400 36.40731641
v 11.01983447 56.50983630 37.13005425
v 10.52676134 56.97462933 37.26303354
v -1.65763949 57.57368822 36.60612009
v -1.17643530 58.02729243 36.80492377
v 10.03368822 57.43942237 37.39601282
v 9.54061510 57.90421540 37.52899211
v -0.69523111 58.48089664 37.00372745
v 0.30675274 59.09879121 36.76639448
v 0.27904620 58.46970782 37.06955185
v 1.28103005 59.08760239 36.83221888
v 1.25332351 58.45851900 37.13537624
v 1.73452770 58.91212322 37.33417993
v 9.07524852 58.99809183 37.35881404
v 9.04754198 58.36900843 37.66197140
v 8.55446886 58.83380147 37.79495069
v 2.21573189 59.36572743 37.53298361
v 3.19000919 59.35453861 37.59880800
v 4.16428650 59.34334979 37.66463240
v 5.13856381 59.33216097 37.73045679
v 6.11284112 59.32097215 37.79628119
v 7.08711843 59.30978332 37.86210558
v 8.06139574 59.29859450 37.92792998
v -0.60424833 48.66784077 33.98905511
v -0.15075068 48.49236159 34.49101616
v 0.34232244 48.02756856 34.35803687
v 1.31659975 48.01637974 34.42386126
v 2.29087706 48.00519092 34.48968566
v 3.26515437 47.99400210 34.55551005
v 4.23943168 47.98281327 34.62133445
v 5.21370899 47.97162445 34.68715884
v 6.18798630 47.96043563 34.75298324
v 7.16226360 47.94924681 34.81880763
v 8.13654091 47.93805799 34.88463203
v 9.13852476 48.55595256 34.64729906
v 8.61774510 48.39166220 35.08343571
v -1.59039457 49.59742684 34.25501369
v -1.13689692 49.42194766 34.75697473
v -0.64382380 48.95715463 34.62399545
v 9.09894929 48.84526642 35.28223939
v 10.07322660 48.83407760 35.34806379
v 10.10093314 49.46316099 35.04490642
v 10.55443079 49.28768181 35.54686747
v -1.60226351 50.51582409 34.58679666
v -1.14876585 50.34034491 35.08875770
v 10.08906421 50.38155824 35.37668939
v 10.54256186 50.20607906 35.87865044
v -2.13491210 51.26993098 35.35471628
v -1.64183898 50.80513794 35.22173699
v 11.02376605 50.65968327 36.07745412
v 11.50497024 51.11328749 36.27625780
v -2.14678103 52.18832823 35.68649925
v 11.98617443 51.56689170 36.47506149
v 12.01388096 52.19597509 36.17190412
v 12.46737861 52.02049591 36.67386517
v -2.15864996 53.10672547 36.01828222
v 11.97430549 52.48528895 36.80684446
v 11.48123237 52.95008198 36.93982375
v -2.17051889 54.02512272 36.35006519
v 11.46936344 53.86847923 37.27160672
v -1.68931470 54.47872694 36.54886887
v -1.66160816 55.10781033 36.24571151
v -1.20811051 54.93233115 36.74767256
v 11.45749451 54.78687648 37.60338969
v -2.19425675 55.86191722 37.01363113
v -1.70118363 55.39712418 36.88065184
v 10.99212793 55.88075290 37.43321161
v 10.96442139 55.25166951 37.73636898
v 10.47134827 55.71646255 37.86934826
v -1.71305257 56.31552143 37.21243482
v -1.68534603 56.94460482 36.90927745
v -1.23184838 56.76912565 37.41123850
v 10.00598169 56.81033897 37.69917019
v 9.97827515 56.18125558 38.00232755
v 9.48520203 56.64604862 38.13530684
v -0.72293765 57.85181325 37.30688482
v -0.75064419 57.22272986 37.61004218
v 0.25133966 57.84062443 37.37270921
v 0.22363312 57.21154104 37.67586658
v 1.22561697 57.82943561 37.43853361
v 1.19791043 57.20035222 37.74169097
v 2.19989428 57.81824679 37.50435800
v 2.17218774 57.18916340 37.80751536
v 2.65339193 57.64276761 38.00631905
v 4.14844890 57.79586915 37.63600679
v 4.12074236 57.16678576 37.93916415
v 3.62766924 57.63157879 38.07214344
v 4.60194655 57.62038997 38.13796784
v 7.07128083 57.76230268 37.83347997
v 7.04357429 57.13321929 38.13663734
v 6.55050117 57.59801233 38.26961663
v 8.04555814 57.75111386 37.89930437
v 8.01785160 57.12203047 38.20246173
v 9.01983545 57.73992504 37.96512876
v 8.99212891 57.11084165 38.26828613
v 2.18802535 58.73664404 37.83614097
v 3.13459612 58.09637182 38.20512273
v 3.16230266 58.72545522 37.90196537
v 4.13657997 58.71426640 37.96778976
v 5.08315074 58.07399418 38.33677152
v 5.11085728 58.70307757 38.03361416
v 6.08513458 58.69188875 38.09943855
v 6.05742805 58.06280536 38.40259591
v 7.05941189 58.68069993 38.16526294
v 8.03368920 58.66951111 38.23108734
v -0.21803269 48.15259206 35.42911386
v 0.27504043 47.68779902 35.29613457
v 1.24931774 47.67661020 35.36195896
v 2.22359505 47.66542138 35.42778336
v 3.19787236 47.65423256 35.49360775
v 4.17214967 47.64304374 35.55943215
v 5.14642698 47.63185492 35.62525654
v 6.12070429 47.62066610 35.69108094
v 7.09498160 47.60947728 35.75690533
v 8.06925891 47.59828845 35.82272972
v 8.55046310 48.05189267 36.02153341
v -1.20417893 49.08217813 35.69507243
v -0.71110581 48.61738509 35.56209314
v 9.03166728 48.50549688 36.22033709
v 10.03365113 49.12339145 35.98300412
v 9.51287147 48.95910110 36.41914077
v -1.66954551 50.17605455 35.52489436
v -2.19032517 50.01176419 35.96103101
v -1.69725205 49.54697116 35.82805172
v 10.02178220 50.04178870 36.31478709
v 9.50100254 49.87749834 36.75092374
v -2.20219410 50.93016144 36.29281398
v 9.98220673 50.33110256 36.94972743
v 10.98419058 50.94899713 36.71239446
v 10.46341092 50.78470677 37.14853111
v -2.21406304 51.84855869 36.62459695
v 10.94461511 51.23831098 37.34733479
v 11.94659896 51.85620556 37.11000182
v 11.42581930 51.69191520 37.54613847
v -2.22593197 52.76695594 36.95637992
v 11.41395037 52.61031245 37.87792144
v -2.23780090 53.68535319 37.28816289
v 11.40208143 53.52870969 38.20970441
v -1.72889017 54.76804079 37.18380921
v -2.24966983 54.60375044 37.61994586
v 11.39021250 54.44710694 38.54148739
v -2.26153876 55.52214768 37.95172883
v 9.95056861 55.55217219 38.30548491
v 9.92286207 54.92308880 38.60864228
v 9.42978895 55.38788183 38.74162157
v 10.89713938 54.91189998 38.67446667
v -1.75262804 56.60483529 37.84737515
v -2.27340769 56.44054493 38.28351180
v 9.41792002 56.30627908 39.07340454
v -1.79220351 56.89414915 38.48231548
v -0.81792620 56.88296032 38.54813988
v 0.18405765 57.50085490 38.31080691
v -0.33672201 57.33656454 38.74694356
v 1.15833496 57.48966607 38.37663130
v 2.13261227 57.47847725 38.44245570
v 4.08116689 57.45609961 38.57410449
v 7.00399882 57.42253315 38.77157767
v 7.97827613 57.41134433 38.83740207
v 8.43177378 57.23586515 39.33936311
v 8.92484690 56.77107211 39.20638382
v 0.14448218 57.79016875 38.94574724
v 1.11875949 57.77897993 39.01157164
v 2.12074334 58.39687450 38.77423867
v 1.59996368 58.23258414 39.21037532
v 3.09502065 58.38568568 38.84006306
v 3.54851830 58.21020650 39.34202411
v 4.04159142 57.74541347 39.20904482
v 5.01586873 57.73422465 39.27486922
v 5.99014604 57.72303583 39.34069361
v 6.96442335 57.71184700 39.40651801
v 7.93870066 57.70065818 39.47234240
v 2.08116787 58.68618836 39.40917900
v 3.05544518 58.67499954 39.47500340
v 2.19588851 47.03633799 35.73094072
v 1.67510885 46.87204763 36.16707737
v 2.16818197 46.40725460 36.03409808
v 3.14245928 46.39606578 36.09992248
v 3.17016582 47.02514917 35.79676512
v 4.11673659 46.38487695 36.16574687
v 4.14444313 47.01396035 35.86258951
v 5.09101390 46.37368813 36.23157127
v 5.11872044 47.00277153 35.92841390
v 6.06529121 46.36249931 36.29739566
v 6.09299775 46.99158270 35.99423830
v 6.54649540 46.81610353 36.49619935
v 0.23546496 47.97711288 35.93107490
v 0.68896261 47.80163370 36.43303595
v 1.18203573 47.33684067 36.30005666
v 7.02769959 47.26970774 36.69500303
v 8.00197690 47.25851892 36.76082742
v 8.97625421 47.24733010 36.82665182
v 9.00396075 47.87641349 36.52349445
v 9.45745840 47.70093431 37.02545550
v -0.75068128 48.90669895 36.19703348
v -0.29718363 48.73121977 36.69899452
v 0.19588949 48.26642673 36.56601524
v 9.93866259 48.15453853 37.22425918
v 9.96636912 48.78362192 36.92110182
v 10.41986677 48.60814274 37.42306286
v -1.73682752 49.83628502 36.46299205
v -1.28332987 49.66080584 36.96495310
v -0.79025675 49.19601280 36.83197381
v 9.95450019 49.70201917 37.25288479
v 10.40799784 49.52653999 37.75484584
v -1.74869645 50.75468226 36.79477502
v -1.29519880 50.57920309 37.29673607
v 10.88920203 49.98014420 37.95364952
v 10.91690857 50.60922759 37.65049215
v 11.37040622 50.43374841 38.15245320
v -1.76056538 51.67307951 37.12655799
v -1.30706773 51.49760033 37.62851904
v 11.35853729 51.35214566 38.48423617
v -2.29321397 52.42718640 37.89447762
v -1.80014085 51.96239337 37.76149833
v 11.34666836 52.27054291 38.81601914
v -1.81200979 52.88079062 38.09328130
v -1.78430325 53.50987401 37.79012394
v -1.33080560 53.33439483 38.29208498
v 11.33479943 53.18894016 39.14780211
v -1.79617218 54.42827126 38.12190691
v -1.34267453 54.25279208 38.62386795
v 11.32293049 54.10733741 39.47958508
v -1.80804111 55.34666851 38.45368988
v -1.35454346 55.17118933 38.95565092
v 9.85558006 54.58331926 39.54673998
v 9.36250694 55.04811230 39.67971926
v 10.82985737 54.57213044 39.61256437
v -1.81991004 56.26506575 38.78547285
v -1.36641239 56.08958658 39.28743389
v 9.35063801 55.96650954 40.01150223
v -0.88520820 56.54319079 39.48623758
v -0.40400401 56.99679500 39.68504126
v 1.09105295 57.14989654 39.31472900
v 1.06334642 56.52081315 39.61788637
v 0.57027329 56.98560618 39.75086565
v 1.54455060 56.97441736 39.81669005
v 8.85756489 56.43130258 40.14448152
v 8.36449177 56.89609561 40.27746081
v 0.07720017 57.45039922 39.88384494
v 2.05346133 58.05710497 39.71233637
v 2.02575479 57.42802157 40.01549373
v 2.50695898 57.88162579 40.21429741
v 4.00201595 58.03472732 39.84398516
v 4.97629326 58.02353850 39.90980955
v 5.95057057 58.01234968 39.97563395
v 6.40406822 57.83687050 40.47759499
v 6.89714134 57.37207747 40.34461570
v 7.87141865 57.36088865 40.41044010
v 2.98816317 58.33523000 40.41310110
v 3.96244048 58.32404118 40.47892549
v 4.93671779 58.31285236 40.54474989
v 5.91099510 58.30166354 40.61057428
v 2.12860650 46.69656845 36.66903842
v 3.10288381 46.68537963 36.73486281
v 4.07716112 46.67419081 36.80068721
v 5.05143843 46.66300199 36.86651160
v 6.02571574 46.65181317 36.93233600
v 1.14246026 47.62615452 36.93499699
v 2.11673757 47.61496570 37.00082139
v 3.09101488 47.60377688 37.06664578
v 4.06529219 47.59258806 37.13247018
v 5.03956950 47.58139924 37.19829457
v 6.01384681 47.57021042 37.26411897
v 6.98812412 47.55902160 37.32994336
v 7.96240143 47.54783278 37.39576776
v 8.93667874 47.53664395 37.46159215
v 0.15631402 48.55574059 37.20095557
v 1.13059133 48.54455177 37.26677996
v 2.10486864 48.53336295 37.33260436
v 3.07914595 48.52217413 37.39842875
v 4.05342326 48.51098531 37.46425315
v 5.02770057 48.49979649 37.53007754
v 6.00197788 48.48860767 37.59590194
v 6.97625519 48.47741884 37.66172633
v 7.95053250 48.46623002 37.72755073
v 8.92480981 48.45504120 37.79337512
v 9.89908712 48.44385238 37.85919952
v -0.82983222 49.48532666 37.46691415
v 0.14444509 49.47413784 37.53273854
v 1.11872240 49.46294902 37.59856294
v 2.09299971 49.45176020 37.66438733
v 3.06727702 49.44057138 37.73021172
v 4.04155433 49.42938256 37.79603612
v 5.01583164 49.41819373 37.86186051
v 5.99010895 49.40700491 37.92768491
v 6.96438626 49.39581609 37.99350930
v 7.93866357 49.38462727 38.05933370
v 8.91294088 49.37343845 38.12515809
v 9.88721818 49.36224963 38.19098249
v -0.84170115 50.40372391 37.79869712
v 0.13257616 50.39253509 37.86452151
v 0.58607381 50.21705591 38.36648256
v 1.07914693 49.75226287 38.23350327
v 2.05342424 49.74107405 38.29932766
v 3.02770155 49.72988523 38.36515206
v 4.00197886 49.71869641 38.43097645
v 4.97625617 49.70750759 38.49680085
v 5.95053348 49.69631877 38.56262524
v 6.43173767 50.14992298 38.76142893
v 6.95251732 50.31421334 38.32529227
v 7.92679463 50.30302452 38.39111667
v 8.90107194 50.29183570 38.45694106
v 9.87534925 50.28064688 38.52276546
v 10.84962656 50.26945806 38.58858985
v -1.37434974 51.15783080 38.56661674
v -0.88127662 50.69303776 38.43363745
v 0.09300069 50.68184894 38.49946185
v 6.91294185 50.60352720 38.96023261
v 7.88721916 50.59233838 39.02605700
v 8.86149647 50.58114956 39.09188140
v 9.34270066 51.03475377 39.29068508
v 9.86348032 51.19904413 38.85454843
v 10.83775763 51.18785531 38.92037282
v -1.83971632 52.25170723 38.39643866
v -1.38621867 52.07622805 38.89839971
v 9.82390485 51.48835798 39.48948876
v 10.30510904 51.94196220 39.68829245
v 10.82588870 52.10625255 39.25215579
v -1.39808761 52.99462530 39.23018268
v 10.81401977 53.02464980 39.58393876
v 10.29324011 52.86035944 40.02007542
v -1.40995654 53.91302254 39.56196565
v 10.80215084 53.94304705 39.91572173
v 10.28137118 53.77875669 40.35185839
v -0.92875235 54.36662676 39.76076933
v -0.90104581 54.99571015 39.45761197
v -0.44754816 54.82023097 39.95957302
v 1.04750881 54.97333251 39.58926076
v 1.01980227 54.34424912 39.89241812
v 0.52672915 54.80904215 40.02539741
v 1.50100646 54.79785333 40.09122180
v 7.86744998 54.89501076 40.05003152
v 7.83974344 54.26592737 40.35318888
v 7.34667032 54.73072040 40.48616817
v 8.84172729 54.88382194 40.11585592
v 8.81402075 54.25473855 40.41901328
v 9.78829806 54.24354973 40.48483767
v -0.91291474 55.91410740 39.78939494
v 0.03365603 55.27383518 40.15837670
v 0.06136257 55.90291858 39.85521933
v 1.03563988 55.89172976 39.92104373
v 1.98221065 55.25145754 40.29002549
v 2.00991719 55.88054093 39.98686812
v 2.46341484 55.70506176 40.48882917
v 6.88130373 55.82459683 40.31599010
v 6.85359720 55.19551344 40.61914746
v 6.36052408 55.66030647 40.75212675
v 7.85558104 55.81340801 40.38181449
v 8.82985835 55.80221919 40.44763889
v 0.04949364 56.82131582 40.18700231
v 1.99804826 56.79893818 40.31865109
v 2.94461903 56.15866597 40.68763285
v 2.97232556 56.78774936 40.38447549
v 3.94660287 56.77656054 40.45029988
v 3.91889634 56.14747715 40.75345725
v 4.92088018 56.76537172 40.51612428
v 4.89317365 56.13628833 40.81928164
v 5.89515749 56.75418290 40.58194867
v 5.86745096 56.12509951 40.88510604
v 6.86943480 56.74299408 40.64777307
v 7.84371211 56.73180526 40.71359746
v 2.96045663 57.70614661 40.71625846
v 3.93473394 57.69495779 40.78208285
v 4.90901125 57.68376897 40.84790725
v 5.88328856 57.67258015 40.91373164
v 1.03957146 50.04157673 38.86844360
v 2.01384877 50.03038791 38.93426800
v 2.98812608 50.01919909 39.00009239
v 3.96240339 50.00801027 39.06591679
v 4.93668070 49.99682145 39.13174118
v 5.91095801 49.98563263 39.19756558
v -0.92085209 50.98235162 39.06857779
v -0.46735444 50.80687244 39.57053883
v 0.02571868 50.34207941 39.43755954
v 0.99999599 50.33089059 39.50338394
v 1.97427330 50.31970177 39.56920833
v 2.94855061 50.30851295 39.63503273
v 3.92282792 50.29732412 39.70085712
v 4.89710523 50.28613530 39.76668152
v 5.87138254 50.27494648 39.83250591
v 6.84565985 50.26375766 39.89833031
v 7.81993716 50.25256884 39.96415470
v 8.79421447 50.24138002 40.02997910
v 9.27541865 50.69498423 40.22878278
v -0.93272102 51.90074887 39.40036076
v -0.47922337 51.72526969 39.90232180
v 9.75662284 51.14858845 40.42758646
v 10.23782703 51.60219266 40.62639014
v -0.94458995 52.81914612 39.73214373
v -0.49109230 52.64366694 40.23410477
v 10.22595810 52.52058991 40.95817311
v -1.47723854 53.57325301 40.50006335
v -0.98416542 53.10845997 40.36708406
v 10.21408917 53.43898716 41.28995608
v -0.99603436 54.02685722 40.69886703
v -0.51483017 54.48046144 40.89767071
v 0.98022680 54.63356297 40.52735846
v 6.82589066 54.56643005 40.92230482
v 6.79818412 53.93734665 41.22546219
v 6.30511100 54.40213969 41.35844148
v 7.77246143 53.92615783 41.29128658
v 8.74673874 53.91496901 41.35711098
v 9.72101605 53.90378019 41.42293537
v -0.03362598 54.93406565 41.09647440
v 0.94065133 54.92287683 41.16229879
v 1.91492864 54.91168801 41.22812319
v 2.39613283 55.36529222 41.42692687
v 6.29324207 55.32053694 41.69022445
v 2.87733702 55.81889643 41.62573055
v 3.85161433 55.80770761 41.69155495
v 4.82589164 55.79651879 41.75737934
v 5.80016895 55.78532997 41.82320373
v -0.01385679 50.63139326 40.07249988
v 0.43964086 50.45591409 40.57446092
v 0.93271398 49.99112105 40.44148164
v 1.90699129 49.97993223 40.50730603
v 2.88126860 49.96874341 40.57313043
v 3.85554591 49.95755459 40.63895482
v 4.82982322 49.94636577 40.70477921
v 5.80410053 49.93517695 40.77060361
v 6.77837784 49.92398813 40.83642800
v 7.75265515 49.91279931 40.90225240
v 8.75463900 50.53069388 40.66491943
v 8.23385934 50.36640352 41.10105608
v -0.02572572 51.54979051 40.40428285
v 0.42777193 51.37431133 40.90624389
v 8.71506353 50.82000773 41.29985976
v 9.71704737 51.43790230 41.06252679
v 9.19626772 51.27361195 41.49866345
v -1.01187196 52.47937658 40.67024142
v -1.53265162 52.31508622 41.10637808
v -1.03957850 51.85029319 40.97339879
v -0.06530119 51.83910437 41.03922318
v 9.70517844 52.35629955 41.39430977
v 9.18439878 52.19200919 41.83044642
v -1.54452055 53.23348347 41.43816105
v 9.69330951 53.27469680 41.72609274
v 9.17252985 53.11040644 42.16222939
v -1.06331636 53.68708769 41.63696473
v -0.06133252 54.30498226 41.39963176
v -0.08903905 53.67589887 41.70278912
v 0.91294479 54.29379344 41.46545615
v 0.88523826 53.66471004 41.76861352
v 1.88722210 54.28260461 41.53128055
v 1.85951556 53.65352122 41.83443791
v 2.86149941 54.27141579 41.59710494
v 2.83379287 53.64233240 41.90026231
v 3.83577672 54.26022697 41.66292934
v 3.80807018 53.63114358 41.96608670
v 4.81005403 54.24903815 41.72875373
v 4.78234749 53.61995476 42.03191110
v 5.78433134 54.23784933 41.79457813
v 5.75662480 53.60876594 42.09773549
v 6.73090211 53.59757712 42.16355989
v 7.70517942 53.58638830 42.22938428
v 8.67945673 53.57519948 42.29520868
v 2.84963048 55.18981304 41.92888791
v 3.82390779 55.17862422 41.99471231
v 4.79818510 55.16743540 42.06053670
v 5.77246241 55.15624658 42.12636110
v 0.89313851 50.28043491 41.07642197
v 1.86741582 50.26924609 41.14224636
v 2.84169313 50.25805727 41.20807076
v 3.81597044 50.24686845 41.27389515
v 4.79024775 50.23567962 41.33971955
v 5.76452506 50.22449080 41.40554394
v 6.73880237 50.21330198 41.47136834
v 7.71307968 50.20211316 41.53719273
v 0.88126958 51.19883216 41.40820494
v 1.85554689 51.18764334 41.47402934
v 2.30904454 51.01216416 41.97599038
v 2.80211766 50.54737112 41.84301109
v 3.77639497 50.53618230 41.90883549
v 4.75067228 50.52499348 41.97465988
v 5.72494959 50.51380466 42.04048428
v 6.69922690 50.50261584 42.10630867
v 7.67350421 50.49142702 42.17213307
v 8.67548806 51.10932159 41.93480010
v 8.15470840 50.94503123 42.37093675
v -1.07915397 52.13960705 41.60833912
v -0.10487666 52.12841823 41.67416352
v 0.34862099 51.95293905 42.17612456
v 0.84169411 51.48814601 42.04314527
v 1.81597142 51.47695719 42.10896967
v 8.63591259 51.39863544 42.56974043
v 9.11711678 51.85223966 42.76854411
v -1.09102290 53.05800429 41.94012209
v -0.11674559 53.04681547 42.00594649
v 0.33675206 52.87133629 42.50790753
v 9.59832096 52.30584387 42.96734780
v 9.62602750 52.93492726 42.66419043
v 10.07952515 52.75944809 43.16615148
v 0.81795625 53.32494051 42.70671122
v 1.79223356 53.31375169 42.77253561
v 2.76651087 53.30256287 42.83836001
v 3.74078818 53.29137405 42.90418440
v 4.71506549 53.28018522 42.97000879
v 5.68934280 53.26899640 43.03583319
v 6.66362010 53.25780758 43.10165758
v 7.63789741 53.24661876 43.16748198
v 8.61217472 53.23542994 43.23330637
v 9.58645203 53.22424112 43.29913077
v 2.76254219 50.83668498 42.47795143
v 3.73681950 50.82549616 42.54377582
v 4.71109681 50.81430734 42.60960022
v 5.68537412 50.80311852 42.67542461
v 6.65965143 50.79192969 42.74124901
v 7.63392874 50.78074087 42.80707340
v 0.80211864 51.77745987 42.67808561
v 1.77639595 51.76627105 42.74391000
v 2.75067326 51.75508223 42.80973440
v 3.72495057 51.74389341 42.87555879
v 4.69922788 51.73270458 42.94138319
v 5.67350519 51.72151576 43.00720758
v 6.64778250 51.71032694 43.07303198
v 7.62205981 51.69913812 43.13885637
v 8.59633712 51.68794930 43.20468077
v 0.79024971 52.69585712 43.00986858
v 1.76452702 52.68466830 43.07569297
v 2.73880433 52.67347947 43.14151737
v 3.71308164 52.66229065 43.20734176
v 4.68735895 52.65110183 43.27316616
v 5.66163626 52.63991301 43.33899055
v 6.63591357 52.62872419 43.40481495
v 7.61019088 52.61753537 43.47063934
v 8.58446819 52.60634655 43.53646374
v 9.55874549 52.59515773 43.60228813
f 3 2 1
f 1 4 3
f 7 6 5
f 7 5 2
f 5 1 2
f 5 8 1
f 4 1 9
f 1 10 9
f 1 8 10
f 12 11 10
f 10 11 9
f 14 13 12
f 12 13 11
f 16 15 14
f 14 15 13
f 18 17 16
f 16 17 15
f 20 19 18
f 18 19 17
f 20 21 19
f 24 23 22
f 26 25 22
f 22 25 24
f 25 26 6
f 26 5 6
f 26 27 5
f 5 28 8
f 5 27 28
f 8 29 10
f 8 28 29
f 10 30 12
f 10 29 30
f 12 31 14
f 12 30 31
f 14 32 16
f 14 31 32
f 16 33 18
f 16 32 33
f 18 34 20
f 18 33 34
f 21 20 35
f 35 20 34
f 22 23 36
f 36 23 37
f 22 38 26
f 22 36 38
f 26 39 27
f 26 38 39
f 27 40 28
f 27 39 40
f 28 41 29
f 28 40 41
f 29 42 30
f 29 41 42
f 30 43 31
f 30 42 43
f 31 44 32
f 31 43 44
f 32 45 33
f 32 44 45
f 33 46 34
f 33 45 46
f 35 34 47
f 34 48 47
f 34 46 48
f 50 49 48
f 48 49 47
f 50 51 49
f 37 52 36
f 36 52 38
f 38 52 53
f 38 53 39
f 39 53 54
f 39 54 40
f 40 54 55
f 40 55 41
f 41 55 56
f 41 56 42
f 42 56 57
f 42 57 43
f 43 57 58
f 43 58 44
f 44 58 59
f 44 59 45
f 45 59 60
f 45 60 46
f 46 60 61
f 46 61 48
f 48 61 62
f 48 62 50
f 50 62 63
f 50 63 51
f 66 65 64
f 68 67 64
f 64 67 66
f 70 69 68
f 68 69 67
f 72 71 70
f 70 71 69
f 74 73 72
f 72 73 71
f 76 75 74
f 74 75 73
f 78 77 76
f 76 77 75
f 80 79 78
f 78 79 77
f 80 81 79
f 84 83 82
f 84 82 65
f 82 64 65
f 82 85 64
f 64 86 68
f 64 85 86
f 68 87 70
f 68 86 87
f 87 2 3
f 72 87 3
f 70 87 72
f 72 3 4
f 88 72 4
f 74 72 88
f 74 89 76
f 74 88 89
f 76 90 78
f 76 89 90
f 78 91 80
f 78 90 91
f 81 80 92
f 80 93 92
f 80 91 93
f 95 94 93
f 93 94 92
f 97 96 95
f 95 96 94
f 97 98 96
f 101 100 99
f 101 99 83
f 99 82 83
f 99 102 82
f 82 103 85
f 82 102 103
f 85 104 86
f 85 103 104
f 104 6 7
f 87 104 7
f 86 104 87
f 87 7 2
f 9 88 4
f 88 9 11
f 88 11 89
f 89 11 13
f 89 13 90
f 90 13 15
f 90 15 91
f 91 15 17
f 91 17 93
f 93 17 19
f 93 19 95
f 95 19 21
f 105 95 21
f 97 95 105
f 98 97 106
f 106 97 105
f 100 107 99
f 109 108 107
f 108 99 107
f 108 102 99
f 108 23 24
f 103 108 24
f 102 108 103
f 103 24 25
f 103 25 104
f 104 25 6
f 111 110 105
f 21 111 105
f 35 111 21
f 105 110 106
f 108 109 112
f 112 109 113
f 112 37 23
f 112 23 108
f 35 47 114
f 115 35 114
f 111 35 115
f 49 116 47
f 47 116 114
f 51 116 49
f 113 117 112
f 112 117 37
f 117 52 37
f 117 118 52
f 52 119 53
f 118 119 52
f 53 120 54
f 119 120 53
f 54 121 55
f 120 121 54
f 55 122 56
f 121 122 55
f 56 123 57
f 122 123 56
f 57 124 58
f 123 124 57
f 58 125 59
f 124 125 58
f 59 126 60
f 125 126 59
f 60 127 61
f 126 127 60
f 114 62 115
f 62 127 115
f 62 61 127
f 62 114 63
f 63 114 116
f 63 116 51
f 130 129 128
f 132 131 128
f 128 131 130
f 132 133 131
f 136 135 134
f 136 134 129
f 134 128 129
f 134 137 128
f 128 138 132
f 128 137 138
f 133 132 139
f 132 140 139
f 132 138 140
f 142 141 140
f 140 141 139
f 144 143 142
f 142 143 141
f 146 145 144
f 144 145 143
f 148 147 146
f 146 147 145
f 150 149 148
f 148 149 147
f 150 151 149
f 152 65 66
f 135 153 134
f 153 66 134
f 66 67 134
f 66 153 152
f 134 67 69
f 134 69 137
f 137 69 71
f 137 71 138
f 138 71 73
f 138 73 140
f 140 73 75
f 140 75 142
f 142 75 77
f 142 77 144
f 144 77 79
f 144 79 146
f 146 79 81
f 154 146 81
f 148 146 154
f 148 155 150
f 148 154 155
f 151 150 156
f 150 157 156
f 150 155 157
f 157 158 156
f 159 83 84
f 65 152 84
f 152 159 84
f 152 160 159
f 152 153 161
f 152 161 160
f 92 154 81
f 154 92 94
f 154 94 155
f 155 94 96
f 155 96 157
f 163 162 98
f 98 162 96
f 162 158 96
f 158 157 96
f 165 164 163
f 163 164 162
f 165 166 164
f 167 100 101
f 83 159 101
f 159 167 101
f 159 168 167
f 169 159 160
f 168 159 169
f 160 161 170
f 160 170 169
f 106 171 163
f 106 163 98
f 163 172 165
f 163 171 172
f 166 165 173
f 173 165 172
f 167 107 100
f 107 167 109
f 167 174 109
f 167 168 174
f 175 168 169
f 174 168 175
f 169 170 176
f 169 176 175
f 111 177 110
f 171 106 110
f 177 171 110
f 178 171 177
f 171 179 172
f 171 178 179
f 173 172 180
f 180 172 179
f 181 113 174
f 174 113 109
f 182 174 175
f 181 174 182
f 175 176 183
f 175 183 182
f 115 184 177
f 115 177 111
f 177 185 178
f 177 184 185
f 178 186 179
f 178 185 186
f 180 179 187
f 187 179 186
f 181 117 113
f 117 181 118
f 118 181 182
f 183 188 182
f 188 118 182
f 188 119 118
f 188 190 189
f 120 188 189
f 119 188 120
f 191 121 120
f 191 120 189
f 192 122 121
f 192 121 191
f 193 123 122
f 193 122 192
f 194 124 123
f 194 123 193
f 195 125 124
f 195 124 194
f 196 126 125
f 196 125 195
f 197 127 126
f 197 126 196
f 184 115 127
f 197 184 127
f 198 184 197
f 200 185 199
f 185 198 199
f 185 184 198
f 185 200 186
f 186 200 201
f 186 201 187
f 189 190 202
f 202 190 203
f 189 204 191
f 189 202 204
f 191 205 192
f 191 204 205
f 192 206 193
f 192 205 206
f 193 207 194
f 193 206 207
f 194 208 195
f 194 207 208
f 195 209 196
f 195 208 209
f 196 210 197
f 196 209 210
f 212 198 211
f 198 210 211
f 198 197 210
f 198 212 199
f 203 213 202
f 202 213 204
f 204 213 214
f 204 214 205
f 205 214 215
f 205 215 206
f 206 215 216
f 218 217 216
f 217 206 216
f 217 207 206
f 220 208 219
f 208 217 219
f 208 207 217
f 208 220 209
f 209 220 221
f 209 221 210
f 210 221 222
f 210 222 211
f 218 223 217
f 217 223 219
f 226 225 224
f 228 227 224
f 224 227 226
f 230 229 228
f 228 229 227
f 232 231 230
f 230 231 229
f 234 233 232
f 232 233 231
f 236 235 234
f 234 235 233
f 238 237 236
f 236 237 235
f 240 239 238
f 238 239 237
f 240 241 239
f 224 225 242
f 242 225 243
f 242 129 130
f 228 242 130
f 224 242 228
f 228 130 131
f 228 131 230
f 230 131 133
f 244 230 133
f 232 230 244
f 232 245 234
f 232 244 245
f 234 246 236
f 234 245 246
f 236 247 238
f 236 246 247
f 238 248 240
f 238 247 248
f 241 240 249
f 240 250 249
f 240 248 250
f 252 251 250
f 250 251 249
f 254 253 252
f 252 253 251
f 254 255 253
f 242 243 136
f 243 135 136
f 243 256 135
f 242 136 129
f 139 244 133
f 244 139 141
f 244 141 245
f 245 141 143
f 245 143 246
f 246 143 145
f 246 145 247
f 247 145 147
f 247 147 248
f 248 147 149
f 248 149 250
f 250 149 151
f 257 250 151
f 252 250 257
f 252 258 254
f 252 257 258
f 255 254 259
f 259 254 258
f 256 153 135
f 260 153 256
f 156 257 151
f 257 156 158
f 261 257 158
f 258 257 261
f 259 258 262
f 258 263 262
f 258 261 263
f 263 264 262
f 260 161 153
f 265 161 260
f 162 261 158
f 261 162 164
f 261 164 263
f 164 166 263
f 166 264 263
f 166 266 264
f 265 170 161
f 267 170 265
f 173 269 268
f 266 173 268
f 166 173 266
f 269 270 268
f 267 176 170
f 271 176 267
f 273 272 269
f 173 273 269
f 180 273 173
f 269 272 270
f 271 183 176
f 274 183 271
f 187 276 275
f 273 187 275
f 180 187 273
f 276 277 275
f 280 279 278
f 278 281 188
f 274 278 188
f 183 274 188
f 278 274 280
f 281 190 188
f 199 282 200
f 283 201 200
f 283 200 282
f 283 284 201
f 201 284 187
f 284 285 187
f 285 276 187
f 276 285 277
f 279 286 278
f 278 286 281
f 281 286 287
f 190 281 287
f 288 190 287
f 203 190 288
f 211 289 212
f 282 199 212
f 289 282 212
f 290 282 289
f 292 283 291
f 283 290 291
f 283 282 290
f 283 292 284
f 288 293 203
f 203 293 213
f 293 295 294
f 214 293 294
f 213 293 214
f 296 215 214
f 296 214 294
f 297 216 215
f 297 215 296
f 297 218 216
f 219 298 220
f 299 221 220
f 299 220 298
f 300 222 221
f 300 221 299
f 300 301 222
f 222 301 211
f 301 302 211
f 302 289 211
f 289 302 290
f 290 302 303
f 290 303 291
f 295 304 294
f 294 304 296
f 296 304 305
f 296 305 297
f 297 305 306
f 297 306 218
f 306 223 218
f 306 307 223
f 219 223 298
f 223 308 298
f 223 307 308
f 298 308 299
f 299 308 309
f 299 309 300
f 300 309 310
f 300 310 301
f 311 225 226
f 227 312 226
f 226 312 311
f 229 313 227
f 227 313 312
f 231 314 229
f 229 314 313
f 314 231 315
f 231 316 315
f 231 233 316
f 317 233 235
f 317 316 233
f 318 235 237
f 318 317 235
f 320 318 319
f 318 239 319
f 318 237 239
f 241 319 239
f 322 321 311
f 321 225 311
f 321 243 225
f 322 311 312
f 322 312 323
f 323 312 313
f 323 313 324
f 324 313 314
f 324 314 325
f 325 314 315
f 326 320 319
f 326 319 241
f 249 326 241
f 327 326 249
f 328 249 251
f 328 327 249
f 330 328 329
f 328 253 329
f 328 251 253
f 255 329 253
f 321 256 243
f 331 256 321
f 332 330 329
f 329 255 332
f 255 333 332
f 255 259 333
f 331 260 256
f 334 260 331
f 335 333 259
f 335 259 262
f 262 264 335
f 335 264 336
f 334 265 260
f 337 265 334
f 266 336 264
f 266 338 336
f 337 267 265
f 339 267 337
f 340 338 266
f 340 266 268
f 268 270 340
f 340 270 341
f 339 271 267
f 342 271 339
f 273 343 272
f 343 344 272
f 344 270 272
f 344 341 270
f 342 274 271
f 345 274 342
f 275 343 273
f 275 277 343
f 277 344 343
f 277 346 344
f 348 347 280
f 280 347 279
f 280 274 345
f 280 345 348
f 284 349 285
f 349 350 285
f 350 277 285
f 350 346 277
f 286 279 351
f 279 352 351
f 279 347 352
f 353 287 286
f 353 286 351
f 353 288 287
f 291 354 292
f 354 355 292
f 292 355 284
f 355 356 284
f 356 349 284
f 349 356 350
f 352 357 351
f 351 357 353
f 353 357 358
f 358 360 359
f 358 359 293
f 353 358 293
f 288 353 293
f 359 295 293
f 301 361 302
f 362 303 302
f 362 302 361
f 354 291 303
f 362 354 303
f 363 354 362
f 355 354 364
f 364 354 363
f 360 365 359
f 365 367 366
f 365 366 304
f 359 365 304
f 295 359 304
f 304 366 368
f 369 304 368
f 305 304 369
f 369 371 370
f 306 369 370
f 305 369 306
f 372 307 306
f 372 306 370
f 373 308 307
f 373 307 372
f 374 309 308
f 374 308 373
f 375 310 309
f 375 309 374
f 361 301 310
f 375 361 310
f 376 361 375
f 378 362 377
f 362 376 377
f 362 361 376
f 362 378 363
f 363 378 379
f 363 379 364
f 367 380 366
f 366 380 368
f 371 381 370
f 370 381 372
f 372 381 382
f 372 382 373
f 373 382 383
f 373 383 374
f 374 383 384
f 374 384 375
f 375 384 385
f 375 385 376
f 376 385 386
f 376 386 377
f 389 388 387
f 391 390 387
f 387 390 389
f 393 392 391
f 391 392 390
f 315 316 393
f 316 392 393
f 316 394 392
f 395 316 317
f 395 394 316
f 396 317 318
f 396 395 317
f 398 397 320
f 397 318 320
f 397 396 318
f 400 399 398
f 398 399 397
f 400 401 399
f 403 402 322
f 322 402 321
f 323 387 388
f 403 323 388
f 322 323 403
f 387 323 324
f 387 324 391
f 391 324 325
f 391 325 393
f 393 325 315
f 326 398 320
f 398 326 327
f 398 327 400
f 404 401 400
f 327 404 400
f 328 404 327
f 406 405 330
f 405 328 330
f 405 404 328
f 406 407 405
f 402 331 321
f 408 331 402
f 332 406 330
f 410 409 333
f 333 409 332
f 409 407 332
f 407 406 332
f 410 411 409
f 408 334 331
f 412 334 408
f 335 410 333
f 335 336 410
f 336 411 410
f 336 413 411
f 412 337 334
f 414 337 412
f 338 413 336
f 338 415 413
f 414 339 337
f 416 339 414
f 338 340 417
f 418 338 417
f 415 338 418
f 341 417 340
f 416 342 339
f 419 342 416
f 418 417 420
f 418 420 421
f 344 420 341
f 341 420 417
f 419 345 342
f 422 345 419
f 421 420 423
f 421 423 424
f 346 423 344
f 344 423 420
f 425 347 348
f 426 425 348
f 345 426 348
f 422 426 345
f 424 423 427
f 424 427 428
f 350 427 346
f 346 427 423
f 429 352 425
f 425 352 347
f 425 426 430
f 425 430 429
f 428 427 356
f 355 428 356
f 431 428 355
f 356 427 350
f 429 357 352
f 430 432 429
f 432 357 429
f 432 358 357
f 434 433 360
f 358 434 360
f 432 434 358
f 435 433 434
f 364 431 355
f 364 436 431
f 433 365 360
f 438 437 367
f 438 367 365
f 435 438 365
f 433 435 365
f 369 368 437
f 438 369 437
f 439 369 438
f 441 440 371
f 369 441 371
f 439 441 369
f 442 440 441
f 445 444 443
f 378 377 443
f 444 378 443
f 446 378 444
f 378 447 379
f 446 447 378
f 364 379 436
f 436 379 447
f 437 380 367
f 380 437 368
f 440 381 371
f 442 448 440
f 448 381 440
f 448 382 381
f 382 449 383
f 448 449 382
f 383 450 384
f 449 450 383
f 384 451 385
f 450 451 384
f 443 386 445
f 386 451 445
f 386 385 451
f 386 443 377
f 453 452 389
f 389 452 388
f 454 389 390
f 454 453 389
f 455 390 392
f 455 454 390
f 456 392 394
f 456 455 392
f 457 394 395
f 457 456 394
f 458 395 396
f 458 457 395
f 459 396 397
f 459 458 396
f 460 397 399
f 460 459 397
f 462 461 401
f 461 399 401
f 461 460 399
f 464 463 462
f 462 463 461
f 464 465 463
f 467 466 403
f 403 466 402
f 403 388 452
f 403 452 467
f 404 462 401
f 462 404 405
f 462 405 464
f 469 468 407
f 407 468 405
f 468 465 405
f 465 464 405
f 469 470 468
f 466 408 402
f 471 408 466
f 409 469 407
f 409 411 469
f 411 470 469
f 411 472 470
f 471 412 408
f 473 412 471
f 413 475 474
f 472 413 474
f 411 413 472
f 475 476 474
f 473 414 412
f 477 414 473
f 415 478 475
f 415 475 413
f 476 475 479
f 475 480 479
f 475 478 480
f 480 481 479
f 477 416 414
f 482 416 477
f 418 483 478
f 418 478 415
f 485 480 484
f 480 483 484
f 480 478 483
f 480 485 481
f 482 419 416
f 486 419 482
f 421 487 483
f 421 483 418
f 484 483 488
f 488 483 487
f 486 422 419
f 489 422 486
f 424 490 487
f 424 487 421
f 488 487 491
f 491 487 490
f 489 426 422
f 492 426 489
f 428 493 490
f 428 490 424
f 491 490 494
f 494 490 493
f 492 430 426
f 495 430 492
f 431 496 493
f 431 493 428
f 494 493 497
f 497 493 496
f 495 498 430
f 430 498 432
f 498 500 499
f 434 498 499
f 432 498 434
f 499 435 434
f 502 501 496
f 431 502 496
f 436 502 431
f 496 501 497
f 500 503 499
f 503 505 504
f 503 504 438
f 499 503 438
f 435 499 438
f 506 439 438
f 506 438 504
f 507 441 439
f 507 439 506
f 507 442 441
f 445 508 444
f 509 446 444
f 509 444 508
f 510 447 446
f 510 446 509
f 510 511 447
f 511 436 447
f 511 502 436
f 505 512 504
f 504 512 506
f 506 512 513
f 506 513 507
f 507 513 514
f 507 514 442
f 514 448 442
f 514 515 448
f 448 516 449
f 515 516 448
f 449 517 450
f 516 517 449
f 450 518 451
f 517 518 450
f 445 451 508
f 451 519 508
f 451 518 519
f 508 519 509
f 509 519 520
f 509 520 510
f 510 520 521
f 510 521 511
f 524 523 522
f 522 525 524
f 528 527 526
f 530 529 526
f 526 529 528
f 530 531 529
f 534 533 532
f 452 453 532
f 453 534 532
f 453 535 534
f 454 522 523
f 535 454 523
f 453 454 535
f 536 525 522
f 454 536 522
f 455 536 454
f 456 526 527
f 536 456 527
f 455 456 536
f 526 456 457
f 526 457 530
f 537 531 530
f 457 537 530
f 458 537 457
f 538 458 459
f 538 537 458
f 539 459 460
f 539 538 459
f 540 460 461
f 540 539 460
f 541 461 463
f 541 540 461
f 543 542 465
f 542 463 465
f 542 541 463
f 543 544 542
f 532 533 467
f 533 466 467
f 533 545 466
f 532 467 452
f 468 543 465
f 547 546 470
f 470 546 468
f 546 544 468
f 544 543 468
f 547 548 546
f 545 471 466
f 549 471 545
f 472 550 547
f 472 547 470
f 548 547 551
f 551 547 550
f 549 473 471
f 552 473 549
f 474 550 472
f 554 553 476
f 476 553 474
f 553 551 474
f 551 550 474
f 554 555 553
f 552 477 473
f 556 477 552
f 479 554 476
f 479 481 554
f 481 555 554
f 481 557 555
f 556 482 477
f 558 482 556
f 484 559 485
f 559 560 485
f 560 481 485
f 560 557 481
f 558 486 482
f 561 486 558
f 488 562 559
f 488 559 484
f 560 559 563
f 563 559 562
f 561 489 486
f 564 489 561
f 491 565 562
f 491 562 488
f 563 562 566
f 566 562 565
f 564 492 489
f 567 492 564
f 494 568 565
f 494 565 491
f 566 565 569
f 569 565 568
f 567 495 492
f 570 495 567
f 572 571 568
f 494 572 568
f 497 572 494
f 568 571 569
f 570 573 495
f 495 573 498
f 500 498 573
f 500 573 574
f 576 575 501
f 576 501 502
f 497 501 572
f 572 501 575
f 574 577 500
f 500 577 503
f 505 503 577
f 505 577 578
f 511 576 502
f 511 579 576
f 578 580 505
f 505 580 512
f 512 581 513
f 580 581 512
f 513 582 514
f 581 582 513
f 514 583 515
f 582 583 514
f 515 584 516
f 583 584 515
f 516 585 517
f 584 585 516
f 517 586 518
f 585 586 517
f 518 587 519
f 586 587 518
f 519 588 520
f 587 588 519
f 520 589 521
f 588 589 520
f 511 521 579
f 579 521 589
f 590 523 524
f 525 590 524
f 591 527 528
f 529 592 528
f 528 592 591
f 531 592 529
f 593 533 534
f 593 534 594
f 534 595 594
f 534 535 595
f 535 523 590
f 596 535 590
f 595 535 596
f 596 590 525
f 536 596 525
f 597 596 536
f 536 527 591
f 598 536 591
f 597 536 598
f 598 591 592
f 598 592 599
f 599 592 531
f 537 599 531
f 600 599 537
f 601 537 538
f 601 600 537
f 602 538 539
f 602 601 538
f 603 539 540
f 603 602 539
f 604 540 541
f 604 603 540
f 605 541 542
f 605 604 541
f 542 544 605
f 605 544 606
f 608 607 593
f 607 533 593
f 607 545 533
f 608 593 594
f 544 546 609
f 610 544 609
f 606 544 610
f 548 609 546
f 607 549 545
f 611 549 607
f 610 609 612
f 610 612 613
f 551 612 548
f 548 612 609
f 611 552 549
f 614 552 611
f 615 613 612
f 615 612 551
f 553 615 551
f 616 615 553
f 553 555 616
f 616 555 617
f 614 556 552
f 618 556 614
f 557 617 555
f 557 619 617
f 618 558 556
f 620 558 618
f 560 619 557
f 560 621 619
f 620 561 558
f 622 561 620
f 563 621 560
f 563 623 621
f 622 564 561
f 624 564 622
f 566 623 563
f 566 625 623
f 624 567 564
f 626 567 624
f 569 625 566
f 569 627 625
f 626 570 567
f 628 570 626
f 630 629 571
f 630 571 572
f 569 571 627
f 627 571 629
f 628 631 570
f 570 631 573
f 574 573 631
f 574 631 632
f 634 633 575
f 634 575 576
f 572 575 630
f 630 575 633
f 632 635 574
f 574 635 577
f 637 636 578
f 577 637 578
f 635 637 577
f 639 638 636
f 639 636 637
f 640 638 639
f 643 642 641
f 642 634 641
f 634 579 641
f 634 576 579
f 636 580 578
f 580 636 581
f 581 636 638
f 640 644 638
f 644 581 638
f 644 582 581
f 582 645 583
f 644 645 582
f 583 646 584
f 645 646 583
f 584 647 585
f 646 647 584
f 585 648 586
f 647 648 585
f 586 649 587
f 648 649 586
f 587 650 588
f 649 650 587
f 641 589 643
f 589 650 643
f 589 588 650
f 589 641 579
f 651 594 595
f 651 595 652
f 595 653 652
f 595 596 653
f 654 596 597
f 654 653 596
f 655 597 598
f 655 654 597
f 656 598 599
f 656 655 598
f 657 599 600
f 657 656 599
f 658 600 601
f 658 657 600
f 659 601 602
f 659 658 601
f 660 602 603
f 660 659 602
f 661 603 604
f 661 660 603
f 663 661 662
f 661 605 662
f 661 604 605
f 606 662 605
f 664 607 608
f 665 664 608
f 665 608 594
f 666 665 594
f 651 666 594
f 666 651 652
f 667 663 662
f 606 610 662
f 610 668 662
f 668 667 662
f 668 610 669
f 669 670 668
f 671 611 664
f 664 611 607
f 664 665 672
f 664 672 671
f 613 673 669
f 613 669 610
f 670 669 674
f 674 669 673
f 676 675 671
f 675 611 671
f 675 614 611
f 676 671 672
f 615 673 613
f 677 674 673
f 615 677 673
f 616 677 615
f 616 617 677
f 677 617 678
f 675 618 614
f 679 618 675
f 619 681 680
f 678 619 680
f 617 619 678
f 681 682 680
f 679 620 618
f 683 620 679
f 685 684 681
f 619 685 681
f 621 685 619
f 681 684 682
f 683 622 620
f 686 622 683
f 623 685 621
f 623 687 685
f 689 624 688
f 624 686 688
f 624 622 686
f 690 689 688
f 625 687 623
f 625 691 687
f 693 692 689
f 692 624 689
f 692 626 624
f 693 689 690
f 696 695 694
f 695 691 694
f 691 627 694
f 691 625 627
f 698 628 697
f 628 692 697
f 628 626 692
f 699 698 697
f 702 701 700
f 700 701 696
f 700 696 694
f 630 700 694
f 629 630 694
f 629 694 627
f 698 631 628
f 704 703 632
f 704 632 631
f 699 704 631
f 698 699 631
f 706 705 703
f 706 703 704
f 708 707 705
f 708 705 706
f 710 709 707
f 710 707 708
f 711 709 710
f 714 713 712
f 715 712 713
f 718 717 716
f 720 719 716
f 720 716 717
f 722 721 719
f 722 719 720
f 721 722 702
f 721 702 700
f 634 721 700
f 633 634 700
f 633 700 630
f 703 635 632
f 635 703 637
f 637 703 705
f 637 705 639
f 639 705 707
f 639 707 640
f 707 723 640
f 707 709 723
f 709 711 724
f 725 709 724
f 723 709 725
f 725 724 714
f 712 725 714
f 726 725 712
f 712 715 727
f 728 712 727
f 726 712 728
f 730 729 728
f 730 728 727
f 729 730 718
f 716 729 718
f 731 729 716
f 732 716 719
f 731 716 732
f 643 732 642
f 732 721 642
f 732 719 721
f 642 721 634
f 723 644 640
f 644 723 645
f 645 723 725
f 645 725 646
f 646 725 726
f 646 726 647
f 647 726 728
f 647 728 648
f 648 728 729
f 648 729 649
f 649 729 731
f 649 731 650
f 650 731 732
f 650 732 643
f 734 733 653
f 653 733 652
f 735 653 654
f 735 734 653
f 736 654 655
f 736 735 654
f 737 655 656
f 737 736 655
f 738 656 657
f 738 737 656
f 739 657 658
f 739 738 657
f 740 658 659
f 740 739 658
f 741 659 660
f 741 740 659
f 742 660 661
f 742 741 660
f 661 663 742
f 742 663 743
f 745 744 666
f 666 744 665
f 666 652 733
f 666 733 745
f 746 743 663
f 746 663 667
f 748 746 747
f 746 668 747
f 746 667 668
f 670 747 668
f 751 750 749
f 744 751 749
f 672 744 749
f 665 744 672
f 748 747 752
f 748 752 753
f 674 752 670
f 670 752 747
f 749 750 676
f 750 675 676
f 750 754 675
f 749 676 672
f 755 753 752
f 757 755 756
f 756 755 677
f 755 752 677
f 752 674 677
f 678 756 677
f 754 679 675
f 758 679 754
f 759 757 756
f 761 759 760
f 760 759 680
f 759 756 680
f 756 678 680
f 682 760 680
f 758 683 679
f 762 683 758
f 761 760 684
f 685 761 684
f 763 761 685
f 684 760 682
f 762 686 683
f 764 686 762
f 687 763 685
f 687 765 763
f 688 686 766
f 686 767 766
f 686 764 767
f 766 690 688
f 691 765 687
f 691 768 765
f 766 767 693
f 767 692 693
f 767 769 692
f 766 693 690
f 772 771 770
f 695 696 770
f 771 695 770
f 773 695 771
f 691 695 768
f 768 695 773
f 697 692 774
f 692 775 774
f 692 769 775
f 774 699 697
f 772 770 701
f 702 772 701
f 776 772 702
f 701 770 696
f 775 777 774
f 774 777 699
f 777 704 699
f 777 778 704
f 778 780 779
f 706 778 779
f 704 778 706
f 781 708 706
f 781 706 779
f 782 710 708
f 782 708 781
f 782 711 710
f 714 783 713
f 783 715 713
f 718 784 717
f 785 720 717
f 785 717 784
f 720 785 786
f 787 720 786
f 722 720 787
f 702 722 776
f 776 722 787
f 780 788 779
f 779 788 781
f 781 788 789
f 791 790 789
f 790 781 789
f 790 782 781
f 792 724 711
f 782 792 711
f 790 792 782
f 792 793 724
f 724 793 714
f 793 794 714
f 794 783 714
f 783 794 715
f 794 727 715
f 794 795 727
f 727 796 730
f 795 796 727
f 718 730 784
f 730 797 784
f 730 796 797
f 784 797 785
f 785 797 798
f 785 798 786
f 791 799 790
f 790 799 792
f 792 799 800
f 792 800 793
f 803 802 801
f 805 804 801
f 801 804 803
f 807 806 805
f 805 806 804
f 809 808 807
f 807 808 806
f 811 810 809
f 809 810 808
f 811 812 810
f 813 733 734
f 813 734 814
f 734 815 814
f 734 735 815
f 736 801 802
f 815 736 802
f 735 736 815
f 801 736 737
f 801 737 805
f 805 737 738
f 805 738 807
f 807 738 739
f 807 739 809
f 809 739 740
f 809 740 811
f 816 812 811
f 740 816 811
f 741 816 740
f 817 741 742
f 817 816 741
f 819 818 743
f 818 742 743
f 818 817 742
f 819 820 818
f 821 744 745
f 822 821 745
f 822 745 733
f 823 822 733
f 813 823 733
f 823 813 814
f 746 819 743
f 825 824 748
f 748 824 746
f 824 820 746
f 820 819 746
f 825 826 824
f 827 750 751
f 828 827 751
f 828 751 744
f 829 828 744
f 821 829 744
f 829 821 822
f 753 830 825
f 753 825 748
f 826 825 831
f 831 825 830
f 832 754 827
f 827 754 750
f 827 828 833
f 827 833 832
f 755 830 753
f 835 834 757
f 757 834 755
f 834 831 755
f 831 830 755
f 835 836 834
f 837 758 832
f 832 758 754
f 832 833 838
f 832 838 837
f 759 835 757
f 759 761 835
f 761 836 835
f 761 839 836
f 841 840 837
f 840 758 837
f 840 762 758
f 841 837 838
f 763 839 761
f 763 842 839
f 844 764 843
f 764 840 843
f 764 762 840
f 845 844 843
f 765 842 763
f 765 846 842
f 847 767 844
f 844 767 764
f 844 845 848
f 844 848 847
f 768 846 765
f 768 849 846
f 850 769 847
f 847 769 767
f 847 848 851
f 847 851 850
f 853 852 771
f 853 771 772
f 771 854 773
f 852 854 771
f 768 773 849
f 849 773 854
f 855 775 850
f 850 775 769
f 850 851 856
f 850 856 855
f 776 853 772
f 776 857 853
f 855 777 775
f 856 858 855
f 858 777 855
f 858 778 777
f 780 778 858
f 780 858 859
f 862 861 860
f 863 860 861
f 865 864 787
f 865 787 786
f 776 787 857
f 857 787 864
f 859 866 780
f 780 866 788
f 860 789 862
f 789 866 862
f 789 788 866
f 868 867 791
f 868 791 789
f 863 868 789
f 860 863 789
f 869 867 868
f 793 870 794
f 871 795 794
f 871 794 870
f 872 796 795
f 872 795 871
f 796 872 873
f 874 796 873
f 797 796 874
f 797 875 798
f 874 875 797
f 786 798 865
f 865 798 875
f 867 799 791
f 869 876 867
f 876 799 867
f 876 800 799
f 793 800 870
f 800 877 870
f 800 876 877
f 870 877 871
f 871 877 878
f 871 878 872
f 872 878 879
f 872 879 873
f 880 802 803
f 804 881 803
f 803 881 880
f 806 882 804
f 804 882 881
f 808 883 806
f 806 883 882
f 810 884 808
f 808 884 883
f 812 884 810
f 885 814 815
f 802 880 815
f 880 885 815
f 880 886 885
f 887 880 881
f 886 880 887
f 888 881 882
f 887 881 888
f 889 882 883
f 888 882 889
f 890 883 884
f 889 883 890
f 816 891 812
f 891 884 812
f 891 890 884
f 817 892 816
f 816 892 891
f 818 893 817
f 817 893 892
f 820 893 818
f 894 822 823
f 814 885 823
f 885 894 823
f 885 895 894
f 896 885 886
f 895 885 896
f 897 886 887
f 896 886 897
f 898 887 888
f 897 887 898
f 899 888 889
f 898 888 899
f 900 889 890
f 899 889 900
f 901 890 891
f 900 890 901
f 902 891 892
f 901 891 902
f 903 892 893
f 902 892 903
f 824 904 820
f 904 893 820
f 904 903 893
f 826 904 824
f 905 828 829
f 822 894 829
f 894 905 829
f 894 906 905
f 907 894 895
f 906 894 907
f 908 895 896
f 907 895 908
f 909 896 897
f 908 896 909
f 910 897 898
f 909 897 910
f 911 898 899
f 910 898 911
f 912 899 900
f 911 899 912
f 913 900 901
f 912 900 913
f 914 901 902
f 913 901 914
f 915 902 903
f 914 902 915
f 916 903 904
f 915 903 916
f 831 916 826
f 826 916 904
f 917 833 905
f 905 833 828
f 918 905 906
f 917 905 918
f 907 920 919
f 918 907 919
f 906 907 918
f 920 907 908
f 920 908 921
f 921 908 909
f 921 909 922
f 922 909 910
f 922 910 923
f 923 910 911
f 923 911 924
f 924 911 912
f 924 912 925
f 927 926 925
f 912 927 925
f 913 927 912
f 928 913 914
f 927 913 928
f 929 914 915
f 928 914 929
f 930 915 916
f 929 915 930
f 834 931 831
f 931 916 831
f 931 930 916
f 836 931 834
f 933 932 917
f 932 833 917
f 932 838 833
f 933 917 918
f 933 918 934
f 934 918 919
f 935 926 927
f 935 927 928
f 935 928 936
f 936 928 929
f 936 929 937
f 939 938 937
f 929 939 937
f 930 939 929
f 940 930 931
f 939 930 940
f 839 940 836
f 836 940 931
f 941 840 841
f 942 941 841
f 838 942 841
f 932 942 838
f 943 938 939
f 945 944 943
f 939 945 943
f 940 945 939
f 842 945 839
f 839 945 940
f 941 843 840
f 845 843 941
f 942 845 941
f 946 845 942
f 944 945 947
f 944 947 948
f 846 947 842
f 842 947 945
f 946 848 845
f 949 848 946
f 948 947 950
f 948 950 951
f 849 950 846
f 846 950 947
f 953 851 952
f 851 949 952
f 851 848 949
f 954 953 952
f 957 956 955
f 958 955 956
f 961 960 959
f 963 962 959
f 963 959 960
f 852 853 962
f 963 852 962
f 964 852 963
f 950 854 951
f 854 964 951
f 854 852 964
f 854 950 849
f 965 856 953
f 953 856 851
f 953 954 966
f 967 953 966
f 965 953 967
f 967 966 957
f 955 967 957
f 968 967 955
f 955 958 969
f 970 955 969
f 968 955 970
f 971 970 969
f 974 973 972
f 972 973 961
f 959 972 961
f 975 972 959
f 976 959 962
f 975 959 976
f 857 976 853
f 853 976 962
f 965 858 856
f 858 965 859
f 965 977 859
f 965 967 977
f 862 977 861
f 977 968 861
f 977 967 968
f 861 968 863
f 968 978 863
f 968 970 978
f 970 971 979
f 980 970 979
f 978 970 980
f 982 981 980
f 982 980 979
f 984 983 981
f 984 981 982
f 986 985 983
f 986 983 984
f 985 986 974
f 972 985 974
f 987 985 972
f 988 972 975
f 987 972 988
f 865 988 864
f 988 976 864
f 988 975 976
f 864 976 857
f 977 866 859
f 866 977 862
f 978 868 863
f 868 978 869
f 978 989 869
f 978 980 989
f 990 980 981
f 989 980 990
f 991 981 983
f 990 981 991
f 992 983 985
f 991 983 992
f 873 992 874
f 992 987 874
f 992 985 987
f 874 987 875
f 875 987 988
f 875 988 865
f 989 876 869
f 876 989 877
f 877 989 990
f 877 990 878
f 878 990 991
f 878 991 879
f 879 991 992
f 879 992 873
f 993 919 920
f 921 994 920
f 920 994 993
f 922 995 921
f 921 995 994
f 923 996 922
f 922 996 995
f 924 997 923
f 923 997 996
f 925 998 924
f 924 998 997
f 926 998 925
f 999 932 933
f 999 933 1000
f 933 1001 1000
f 933 934 1001
f 934 919 993
f 1002 934 993
f 1001 934 1002
f 1002 993 994
f 1002 994 1003
f 1003 994 995
f 1003 995 1004
f 1004 995 996
f 1004 996 1005
f 1005 996 997
f 1005 997 1006
f 1006 997 998
f 1006 998 1007
f 1007 998 926
f 935 1007 926
f 1008 1007 935
f 1009 935 936
f 1009 1008 935
f 1010 936 937
f 1010 1009 936
f 937 938 1010
f 1010 938 1011
f 1012 942 999
f 999 942 932
f 999 1000 1013
f 999 1013 1012
f 1014 1011 938
f 1014 938 943
f 943 944 1014
f 1014 944 1015
f 1016 946 1012
f 1012 946 942
f 1012 1013 1017
f 1012 1017 1016
f 948 1015 944
f 948 1018 1015
f 1020 1019 1016
f 1019 946 1016
f 1019 949 946
f 1020 1016 1017
f 951 1018 948
f 951 1021 1018
f 1019 1022 949
f 949 1022 952
f 954 952 1022
f 954 1022 1023
f 957 1024 956
f 1024 958 956
f 1027 1026 1025
f 960 961 1025
f 1026 960 1025
f 1028 960 1026
f 960 1029 963
f 1028 1029 960
f 963 1030 964
f 1029 1030 963
f 951 964 1021
f 1021 964 1030
f 1023 1031 954
f 954 1031 966
f 957 966 1024
f 966 1032 1024
f 966 1031 1032
f 1024 1032 958
f 1032 969 958
f 1032 1033 969
f 971 969 1033
f 971 1033 1034
f 1027 1025 973
f 974 1027 973
f 1035 1027 974
f 973 1025 961
f 1034 1036 971
f 971 1036 979
f 979 1037 982
f 1036 1037 979
f 982 1038 984
f 1037 1038 982
f 984 1039 986
f 1038 1039 984
f 974 986 1035
f 1035 986 1039
f 1040 1000 1001
f 1040 1001 1041
f 1001 1042 1041
f 1001 1002 1042
f 1043 1002 1003
f 1043 1042 1002
f 1044 1003 1004
f 1044 1043 1003
f 1045 1004 1005
f 1045 1044 1004
f 1046 1005 1006
f 1046 1045 1005
f 1047 1006 1007
f 1047 1046 1006
f 1048 1007 1008
f 1048 1047 1007
f 1049 1008 1009
f 1049 1048 1008
f 1051 1049 1050
f 1049 1010 1050
f 1049 1009 1010
f 1011 1050 1010
f 1052 1013 1040
f 1040 1013 1000
f 1040 1041 1053
f 1040 1053 1052
f 1054 1051 1050
f 1056 1054 1055
f 1055 1054 1014
f 1054 1050 1014
f 1050 1011 1014
f 1015 1055 1014
f 1059 1058 1057
f 1060 1059 1052
f 1059 1017 1052
f 1017 1013 1052
f 1059 1057 1017
f 1060 1052 1053
f 1056 1055 1061
f 1056 1061 1062
f 1018 1061 1015
f 1015 1061 1055
f 1057 1058 1020
f 1058 1019 1020
f 1058 1063 1019
f 1057 1020 1017
f 1062 1061 1064
f 1062 1064 1065
f 1021 1064 1018
f 1018 1064 1061
f 1063 1066 1019
f 1019 1066 1022
f 1068 1067 1023
f 1022 1068 1023
f 1066 1068 1022
f 1070 1069 1067
f 1070 1067 1068
f 1072 1071 1069
f 1072 1069 1070
f 1074 1073 1071
f 1074 1071 1072
f 1076 1075 1073
f 1076 1073 1074
f 1078 1077 1075
f 1078 1075 1076
f 1080 1079 1077
f 1080 1077 1078
f 1026 1027 1079
f 1080 1026 1079
f 1081 1026 1080
f 1026 1082 1028
f 1081 1082 1026
f 1028 1083 1029
f 1082 1083 1028
f 1064 1030 1065
f 1030 1083 1065
f 1030 1029 1083
f 1030 1064 1021
f 1067 1031 1023
f 1031 1067 1032
f 1032 1067 1069
f 1032 1069 1033
f 1033 1069 1071
f 1033 1071 1034
f 1071 1084 1034
f 1071 1073 1084
f 1085 1073 1075
f 1084 1073 1085
f 1086 1075 1077
f 1085 1075 1086
f 1087 1077 1079
f 1086 1077 1087
f 1035 1087 1027
f 1027 1087 1079
f 1084 1036 1034
f 1036 1084 1037
f 1037 1084 1085
f 1037 1085 1038
f 1038 1085 1086
f 1038 1086 1039
f 1039 1086 1087
f 1039 1087 1035
f 1088 1041 1042
f 1043 1089 1042
f 1042 1089 1088
f 1044 1090 1043
f 1043 1090 1089
f 1045 1091 1044
f 1044 1091 1090
f 1046 1092 1045
f 1045 1092 1091
f 1047 1093 1046
f 1046 1093 1092
f 1048 1094 1047
f 1047 1094 1093
f 1049 1095 1048
f 1048 1095 1094
f 1051 1095 1049
f 1096 1053 1088
f 1088 1053 1041
f 1097 1088 1089
f 1096 1088 1097
f 1090 1099 1098
f 1097 1090 1098
f 1089 1090 1097
f 1099 1090 1091
f 1099 1091 1100
f 1100 1091 1092
f 1100 1092 1101
f 1101 1092 1093
f 1101 1093 1102
f 1102 1093 1094
f 1102 1094 1103
f 1103 1094 1095
f 1103 1095 1104
f 1106 1104 1105
f 1105 1104 1054
f 1104 1095 1054
f 1095 1051 1054
f 1056 1105 1054
f 1107 1058 1059
f 1060 1108 1059
f 1059 1108 1107
f 1109 1108 1060
f 1109 1060 1053
f 1110 1109 1053
f 1096 1110 1053
f 1110 1096 1097
f 1110 1097 1111
f 1111 1097 1098
f 1112 1106 1105
f 1105 1056 1112
f 1056 1113 1112
f 1056 1062 1113
f 1114 1063 1107
f 1107 1063 1058
f 1115 1107 1108
f 1114 1107 1115
f 1108 1109 1116
f 1108 1116 1115
f 1065 1118 1117
f 1113 1065 1117
f 1062 1065 1113
f 1118 1119 1117
f 1114 1066 1063
f 1066 1114 1068
f 1068 1114 1115
f 1116 1120 1115
f 1120 1068 1115
f 1120 1070 1068
f 1070 1121 1072
f 1120 1121 1070
f 1072 1122 1074
f 1121 1122 1072
f 1074 1123 1076
f 1122 1123 1074
f 1076 1124 1078
f 1123 1124 1076
f 1078 1125 1080
f 1124 1125 1078
f 1080 1126 1081
f 1125 1126 1080
f 1081 1127 1082
f 1126 1127 1081
f 1082 1128 1083
f 1127 1128 1082
f 1065 1083 1118
f 1083 1129 1118
f 1083 1128 1129
f 1118 1129 1119
f 1130 1098 1099
f 1100 1131 1099
f 1099 1131 1130
f 1101 1132 1100
f 1100 1132 1131
f 1102 1133 1101
f 1101 1133 1132
f 1103 1134 1102
f 1102 1134 1133
f 1104 1135 1103
f 1103 1135 1134
f 1106 1135 1104
f 1136 1109 1110
f 1111 1137 1110
f 1110 1137 1136
f 1098 1130 1111
f 1130 1137 1111
f 1130 1138 1137
f 1139 1130 1131
f 1138 1130 1139
f 1140 1131 1132
f 1139 1131 1140
f 1141 1132 1133
f 1140 1132 1141
f 1142 1133 1134
f 1141 1133 1142
f 1143 1134 1135
f 1142 1134 1143
f 1112 1144 1106
f 1144 1135 1106
f 1144 1143 1135
f 1113 1144 1112
f 1145 1116 1136
f 1136 1116 1109
f 1146 1136 1137
f 1145 1136 1146
f 1147 1137 1138
f 1146 1137 1147
f 1148 1138 1139
f 1147 1138 1148
f 1149 1139 1140
f 1148 1139 1149
f 1150 1140 1141
f 1149 1140 1150
f 1151 1141 1142
f 1150 1141 1151
f 1152 1142 1143
f 1151 1142 1152
f 1153 1143 1144
f 1152 1143 1153
f 1117 1154 1113
f 1154 1144 1113
f 1154 1153 1144
f 1119 1154 1117
f 1145 1120 1116
f 1120 1145 1121
f 1121 1145 1146
f 1121 1146 1122
f 1122 1146 1147
f 1122 1147 1123
f 1123 1147 1148
f 1123 1148 1124
f 1124 1148 1149
f 1124 1149 1125
f 1125 1149 1150
f 1125 1150 1126
f 1126 1150 1151
f 1126 1151 1127
f 1127 1151 1152
f 1127 1152 1128
f 1128 1152 1153
f 1128 1153 1129
f 1129 1153 1154
f 1129 1154 1119

