# https://github.com/mikedh/trimesh
v -58.83791864 60.96642380 10.00634878
v -59.36776405 60.85072881 10.44714022
v -58.80216612 60.45616356 10.48255758
v -57.84705428 60.62674633 10.59363060
v -57.88280681 61.13700658 10.11742181
v -56.89194245 60.79732911 10.70470363
v -56.92769497 61.30758936 10.22849483
v -55.93683061 60.96791189 10.81577665
v -55.97258314 61.47817214 10.33956786
v -54.98171878 61.13849467 10.92684968
v -55.01747130 61.64875491 10.45064088
v -54.02660695 61.30907745 11.03792270
v -54.06235947 61.81933769 10.56171390
v -53.07149511 61.47966023 11.14899573
v -53.10724764 61.98992047 10.67278693
v -52.11638328 61.65024301 11.26006875
v -52.15213580 62.16050325 10.78385995
v -51.16127144 61.82082579 11.37114178
v -51.19702397 62.33108603 10.89493298
v -50.20615961 61.99140856 11.48221480
v -50.24191213 62.50166881 11.00600600
v -49.25104778 62.16199134 11.59328783
v -49.28680030 62.67225159 11.11707903
v -48.86153388 62.72713938 11.66894348
v -59.01400268 61.92613709 10.04658708
v -59.54384809 61.81044211 10.48737851
v -58.05889085 62.09671987 10.15766010
v -57.10377901 62.26730265 10.26873313
v -56.14866718 62.43788543 10.37980615
v -55.19355534 62.60846821 10.49087917
v -54.23844351 62.77905099 10.60195220
v -53.28333168 62.94963377 10.71302522
v -52.32821984 63.12021655 10.82409825
v -51.37310801 63.29079932 10.93517127
v -50.41799617 63.46138210 11.04624430
v -49.46288434 63.63196488 11.15731732
v -49.03761792 63.68685267 11.70918178
v -59.15433419 62.37559014 10.56303417
v -58.23497488 63.05643317 10.19789840
v -58.76482030 62.94073818 10.63868983
v -57.80970846 63.11132096 10.74976285
v -57.24411053 62.71675570 10.78518022
v -56.28899869 62.88733848 10.89625324
v -55.36963938 63.56818150 10.53111747
v -55.89948480 63.45248652 10.97190890
v -54.41452755 63.73876428 10.64219049
v -53.45941571 63.90934706 10.75326352
v -52.50430388 64.07992984 10.86433654
v -51.54919205 64.25051262 10.97540957
v -50.59408021 64.42109540 11.08648259
v -49.63896838 64.59167818 11.19755562
v -49.21370196 64.64656597 11.74942007
v -58.41105892 64.01614646 10.23813669
v -58.94090434 63.90045148 10.67892812
v -57.98579250 64.07103425 10.79000115
v -55.54572342 64.52789480 10.57135576
v -56.07556883 64.41219981 11.01214720
v -54.59061159 64.69847758 10.68242879
v -53.63549975 64.86906035 10.79350181
v -52.68038792 65.03964313 10.90457484
v -51.72527609 65.21022591 11.01564786
v -50.77016425 65.38080869 11.12672089
v -49.81505242 65.55139147 11.23779391
v -49.38978600 65.60627926 11.78965837
v -58.55139044 64.46559951 10.75458378
v -55.68605494 64.97734785 11.08780286
v -54.73094310 65.14793063 11.19887588
v -53.77583127 65.31851341 11.30994891
v -52.82071944 65.48909618 11.42102193
v -51.86560760 65.65967896 11.53209496
v -50.91049577 65.83026174 11.64316798
v -49.95538393 66.00084452 11.75424101
v -57.63521772 59.15677280 11.02960111
v -58.16506313 59.04107781 11.47039254
v -57.59946519 58.64651255 11.50580991
v -57.20995130 59.21166059 11.58146557
v -55.72499405 59.49793835 11.25174716
v -56.25483946 59.38224337 11.69253859
v -55.68924153 58.98767811 11.72795596
v -54.73412969 59.15826089 11.83902898
v -54.76988222 59.66852113 11.36282018
v -54.34461580 59.72340893 11.91468464
v -52.85965855 60.00968669 11.58496623
v -53.38950396 59.89399170 12.02575766
v -52.82390603 59.49942645 12.06117503
v -51.86879419 59.67000923 12.17224805
v -51.90454672 60.18026947 11.69603926
v -50.91368236 59.84059200 12.28332108
v -50.94943488 60.35085225 11.80711228
v -49.95857052 60.01117478 12.39439410
v -49.99432305 60.52143503 11.91818530
v -49.00345869 60.18175756 12.50546713
v -49.03921121 60.69201781 12.02925833
v -48.61394479 60.74690560 12.58112279
v -58.76641359 59.94590331 10.95876638
v -59.29625900 59.83020833 11.39955781
v -58.73066107 59.43564307 11.43497518
v -57.81130176 60.11648609 11.06983940
v -56.82043740 59.77680863 11.65712123
v -56.85618992 60.28706887 11.18091243
v -55.90107809 60.45765165 11.29198545
v -54.94596626 60.62823443 11.40305848
v -53.95510190 60.28855696 11.99034030
v -53.99085442 60.79881721 11.51413150
v -53.03574259 60.96939998 11.62520453
v -52.08063075 61.13998276 11.73627755
v -51.12551892 61.31056554 11.84735057
v -50.17040709 61.48114832 11.95842360
v -49.21529525 61.65173110 12.06949662
v -48.22443090 61.31205363 12.65677845
v -48.26018342 61.82231388 12.18056965
v -47.83491700 61.87720167 12.73243411
v -59.47234304 60.78992162 11.43979611
v -48.43626746 62.78202717 12.22080794
v -47.44540310 62.44234971 12.80808977
v -47.48115562 62.95260995 12.33188097
v -46.49029127 62.61293249 12.91916279
v -46.52604379 63.12319273 12.44295399
v -46.10077737 63.17808052 12.99481845
v -59.64842708 61.74963491 11.48003440
v -48.61235150 63.74174047 12.26104624
v -47.65723966 63.91232325 12.37211926
v -47.23197324 63.96721104 12.92398372
v -46.66637531 63.57264578 12.95940109
v -59.25891319 62.31478295 11.55569006
v -58.86939929 62.87993099 11.63134572
v -57.34868952 62.65594851 11.77783611
v -57.91428745 63.05051377 11.74241875
v -56.39357768 62.82653129 11.88890914
v -56.00406379 63.39167932 11.96456480
v -54.51910654 63.67795709 11.63484639
v -54.48335402 63.16769684 12.11105518
v -55.04895195 63.56226210 12.07563782
v -54.09384012 63.73284488 12.18671084
v -48.78843554 64.70145376 12.30128453
v -47.83332370 64.87203654 12.41235756
v -47.40805728 64.92692433 12.96422202
v -58.47988539 63.44507902 11.70700138
v -58.51563791 63.95533927 11.23079258
v -55.61454989 63.95682736 12.04022046
v -55.65030241 64.46708760 11.56401166
v -54.69519058 64.63767038 11.67508468
v -54.26992416 64.69255818 12.22694914
v -48.96451958 65.66116706 12.34152283
v -48.53925315 65.71605485 12.89338729
v -47.97365522 65.32148959 12.92880465
v -53.88041026 65.25770621 12.30260480
v -52.92529843 65.42828899 12.41367782
v -51.97018659 65.59887177 12.52475085
v -51.01507476 65.76945455 12.63582387
v -50.05996293 65.94003733 12.74689690
v -49.10485109 66.11062011 12.85796992
v -54.69837717 58.64800065 12.31523778
v -55.22822258 58.53230566 12.75602921
v -54.66262465 58.13774040 12.79144658
v -53.70751281 58.30832318 12.90251960
v -53.74326534 58.81858342 12.42631080
v -52.75240098 58.47890596 13.01359263
v -52.78815350 58.98916620 12.53738383
v -51.79728914 58.64948874 13.12466565
v -51.83304167 59.15974898 12.64845685
v -50.84217731 58.82007152 13.23573868
v -50.87792983 59.33033176 12.75952988
v -49.88706548 58.99065430 13.34681170
v -49.92281800 59.50091454 12.87060290
v -48.93195364 59.16123707 13.45788472
v -48.96770617 59.67149732 12.98167593
v -47.97684181 59.33181985 13.56895775
v -48.01259433 59.84208010 13.09274895
v -47.58732791 59.89696789 13.64461341
v -58.26964212 58.98027062 12.46304843
v -57.70404419 58.58570536 12.49846580
v -56.74893235 58.75628814 12.60953882
v -56.78468488 59.26654838 12.13333002
v -55.79382052 58.92687092 12.72061185
v -53.91934937 59.77829672 12.46654910
v -48.18867837 60.80179339 13.13298725
v -47.19781401 60.46211593 13.72026907
v -47.23356654 60.97237617 13.24406027
v -46.80830012 61.02726396 13.79592473
v -59.40083800 59.76940113 12.39221370
v -58.83524006 59.37483588 12.42763107
v -47.40965058 61.93208946 13.28429856
v -46.41878622 61.59241200 13.87158039
v -46.45453874 62.10267224 13.39537159
v -46.02927232 62.15756003 13.94723605
v -59.01132410 60.33454917 12.46786936
v -59.04707662 60.84480941 11.99166057
v -58.62181020 60.89969721 12.54352502
v -46.20535636 63.11727333 13.98747434
v -59.22316066 61.80452271 12.03189886
v -58.79789424 61.85941050 12.58376332
v -46.80670682 64.02209883 13.47584818
v -46.38144040 64.07698662 14.02771264
v -58.44413287 62.93481878 12.18321018
v -58.40838034 62.42455854 12.65941898
v -57.45326851 62.59514132 12.77049200
v -56.49815668 62.76572409 12.88156503
v -56.10864278 63.33087213 12.95722069
v -54.62368553 63.61714990 12.62750228
v -46.98279086 64.98181212 13.51608647
v -46.55752444 65.03669992 14.06795093
v -55.71912888 63.89602017 13.03287635
v -54.76401705 64.06660295 13.14394937
v -54.37450315 64.63175098 13.21960503
v -48.11398673 65.77094264 13.44525174
v -47.15887490 65.94152542 13.55632477
v -46.73360848 65.99641321 14.10818923
v -53.98498925 65.19689902 13.29526069
v -53.02987742 65.36748180 13.40633372
v -52.11051811 66.04832482 13.04119794
v -52.64036352 65.93262983 13.48198938
v -51.15540627 66.21890760 13.15227097
v -50.20029444 66.38949038 13.26334399
v -49.24518261 66.56007316 13.37441701
v -48.29007077 66.73065593 13.48549004
v -47.33495894 66.90123871 13.59656306
v -46.90969252 66.95612651 14.14842752
v -52.25084962 66.49777787 13.55764503
v -51.33149031 67.17862089 13.19250926
v -51.86133573 67.06292591 13.63330069
v -50.37637848 67.34920367 13.30358229
v -49.42126665 67.51978645 13.41465531
v -48.99600022 67.57467424 13.96651977
v -48.43040229 67.18010899 14.00193713
v -47.47529045 67.35069176 14.11301016
v -51.47182183 67.62807394 13.70895635
v -50.51670999 67.79865672 13.82002938
v -49.56159816 67.96923950 13.93110240
v -55.58198396 57.45689738 13.15658235
v -56.11182937 57.34120239 13.59737379
v -55.54623143 56.94663714 13.63279115
v -54.59111960 57.11721991 13.74386417
v -54.62687212 57.62748016 13.26765538
v -53.63600776 57.28780269 13.85493720
v -53.67176029 57.79806294 13.37872840
v -53.24649387 57.85295073 13.93059286
v -51.76153662 58.13922849 13.60087445
v -52.29138203 58.02353351 14.04166588
v -51.72578410 57.62896825 14.07708325
v -50.77067226 57.79955103 14.18815627
v -50.80642479 58.30981127 13.71194747
v -49.81556043 57.97013381 14.29922930
v -49.85131295 58.48039405 13.82302050
v -48.86044859 58.14071659 14.41030232
v -48.89620112 58.65097683 13.93409352
v -47.90533676 58.31129937 14.52137535
v -47.94108928 58.82155961 14.04516655
v -46.95022493 58.48188214 14.63244837
v -46.98597745 58.99214239 14.15623957
v -46.56071103 59.04703018 14.70810403
v -55.75806799 58.41661067 13.19682065
v -56.28791341 58.30091569 13.63761208
v -52.85697997 58.41809877 14.00624852
v -47.16206149 59.95185568 14.19647787
v -46.17119713 59.61217822 14.78375969
v -46.20694966 60.12243846 14.30755089
v -45.78168323 60.17732625 14.85941535
v -57.84437570 59.03515841 13.01491289
v -57.41910928 59.09004620 13.56677735
v -56.85351134 58.69548095 13.60219472
v -46.38303369 61.08215175 14.34778919
v -45.95776727 61.13703955 14.89965364
v -58.97557157 59.82428893 12.94407816
v -58.55030515 59.87917672 13.49594262
v -57.98470722 59.48461146 13.53135999
v -46.13385131 62.09675284 14.93989194
v -58.19654378 60.95458500 13.09538948
v -58.16079126 60.44432475 13.57159828
v -57.77127736 61.00947279 13.64725394
v -46.30993535 63.05646614 14.98013023
v -58.37262782 61.91429829 13.13562778
v -57.94736140 61.96918609 13.68749224
v -46.48601939 64.01617943 15.02036853
v -57.55784750 62.53433412 13.76314790
v -56.63848819 63.21517714 13.39801212
v -57.16833360 63.09948216 13.83880355
v -46.66210343 64.97589272 15.06060682
v -56.77881971 63.66463020 13.91445921
v -55.85946040 64.34547322 13.54932344
v -56.38930581 64.22977823 13.99011487
v -54.90434856 64.51605600 13.66039646
v -46.83818747 65.93560602 15.10084512
v -55.99979191 64.79492627 14.06577053
v -55.04468008 64.96550905 14.17684356
v -54.08956824 65.13609183 14.28791658
v -53.17020893 65.81693485 13.92278081
v -53.70005435 65.70123986 14.36357224
v -47.01427151 66.89531931 15.14108341
v -53.31054045 66.26638790 14.43922790
v -52.39118114 66.94723092 14.07409213
v -52.92102655 66.83153593 14.51488356
v -48.57073380 67.62956204 14.51838423
v -47.61562197 67.80014481 14.62945725
v -47.19035555 67.85503261 15.18132171
v -52.53151265 67.39668397 14.59053922
v -51.57640082 67.56726675 14.70161225
v -50.65704151 68.24810977 14.33647647
v -51.18688692 68.13241479 14.77726791
v -50.23177509 68.30299757 14.88834093
v -49.66617715 67.90843231 14.92375830
v -48.71106532 68.07901509 15.03483132
v -47.75595348 68.24959786 15.14590434
v -50.79737303 68.69756282 14.85292357
v -56.21640836 57.28039520 14.59002968
v -55.65081042 56.88582994 14.62544704
v -54.69569859 57.05641272 14.73652007
v -53.74058675 57.22699550 14.84759309
v -52.78547492 57.39757828 14.95866612
v -52.82122744 57.90783852 14.48245732
v -51.83036309 57.56816106 15.06973914
v -50.87525125 57.73874384 15.18081216
v -49.92013942 57.90932661 15.29188519
v -48.96502759 58.07990939 15.40295821
v -48.00991575 58.25049217 15.51403124
v -47.05480392 58.42107495 15.62510426
v -46.09969208 58.59165773 15.73617729
v -46.13544461 59.10191797 15.25996849
v -45.71017819 59.15680577 15.81183295
v -56.39249240 58.24010849 14.63026797
v -45.88626223 60.11651906 15.85207124
v -57.52368827 59.02923901 14.55943324
v -56.95809034 58.63467375 14.59485061
v -46.06234626 61.07623235 15.89230954
v -58.12503873 59.93406451 14.04780708
v -57.69977231 59.98895230 14.59967154
v -46.23843030 62.03594565 15.93254783
v -57.34601094 61.06436058 14.19911840
v -57.31025841 60.55410034 14.67532720
v -56.92074452 61.11924838 14.75098286
v -45.84891641 62.60109368 16.00820349
v -45.88466893 63.11135393 15.53199469
v -44.89380457 62.77167646 16.11927652
v -44.92955710 63.28193671 15.64306772
v -44.50429068 63.33682450 16.19493218
v -57.52209498 62.02407388 14.23935669
v -57.09682856 62.07896167 14.79122115
v -46.06075297 64.07106722 15.57223299
v -45.63548655 64.12595502 16.12409745
v -45.06988861 63.73138976 16.15951481
v -56.74306718 63.15436995 14.39066801
v -56.70731466 62.64410971 14.86687681
v -56.31780076 63.20925774 14.94253247
v -46.23683701 65.03078052 15.61247128
v -45.81157059 65.08566831 16.16433574
v -55.96403939 64.28466602 14.54197933
v -55.92828686 63.77440578 15.01818813
v -55.00892755 64.45524880 14.65305236
v -54.97317503 63.94498856 15.12926116
v -54.58366113 64.51013660 15.20491682
v -46.37716852 65.48023357 16.12891838
v -46.94276646 65.87479883 16.09350101
v -54.19414723 65.07528463 15.28057247
v -53.80463334 65.64043267 15.35622813
v -47.11885050 66.83451212 16.13373931
v -53.41511944 66.20558071 15.43188379
v -53.02560554 66.77072874 15.50753945
v -47.29493454 67.79422541 16.17397760
v -52.63609165 67.33587678 15.58319511
v -51.68097981 67.50645956 15.69426814
v -50.76162050 68.18730258 15.32913236
v -50.72586798 67.67704234 15.80534116
v -49.77075614 67.84762511 15.91641419
v -48.81564431 68.01820789 16.02748721
v -47.86053248 68.18879067 16.13856024
v -55.61505790 56.37556970 15.10165584
v -56.14490331 56.25987471 15.54244727
v -55.57930537 55.86530945 15.57786464
v -54.62419354 56.03589223 15.68893766
v -54.65994606 56.54615248 15.21272886
v -53.66908171 56.20647501 15.80001069
v -53.70483423 56.71673526 15.32380189
v -52.71396987 56.37705779 15.91108371
v -52.74972240 56.88731803 15.43487491
v -51.75885804 56.54764057 16.02215674
v -51.79461056 57.05790081 15.54594794
v -50.80374621 56.71822335 16.13322976
v -50.83949873 57.22848359 15.65702096
v -49.84863437 56.88880613 16.24430279
v -49.88438690 57.39906637 15.76809399
v -49.45912047 57.45395416 16.31995845
v -47.97416323 57.74023193 15.99024004
v -48.50400864 57.62453694 16.43103147
v -47.93841070 57.22997168 16.46644883
v -47.54889681 57.79511972 16.54210449
v -56.74625377 57.16470021 15.03082111
v -57.27609918 57.04900523 15.47161254
v -56.71050125 56.65443997 15.50702991
v -49.06960658 58.01910220 16.39561411
v -47.15938291 58.36026776 16.61776015
v -46.20427108 58.53085054 16.72883318
v -45.81475718 59.09599857 16.80448884
v -56.92233781 58.12441351 15.07105941
v -57.45218322 58.00871852 15.51185084
v -45.99084122 60.05571187 16.84472713
v -57.62826726 58.96843182 15.55208913
v -46.16692526 61.01542516 16.88496543
v -57.80435130 59.92814511 15.59232743
v -45.77741136 61.58057320 16.96062109
v -45.81316388 62.09083344 16.48441229
v -45.38789746 62.14572123 17.03627675
v -57.45058993 61.00355339 15.19177429
v -57.98043534 60.88785840 15.63256572
v -45.56398150 63.10543453 17.07651504
v -45.03413609 63.22112951 16.63572361
v -57.59092144 61.45300644 15.70822138
v -57.20140755 62.01815448 15.78387704
v -45.74006554 64.06514782 17.11675334
v -56.81189365 62.58330251 15.85953270
v -56.42237975 63.14845055 15.93518836
v -46.34141600 64.96997332 16.60512717
v -46.30566348 64.45971308 17.08133597
v -46.87126141 64.85427834 17.04591861
v -56.03286585 63.71359859 16.01084402
v -55.07775402 63.88418137 16.12191705
v -54.68824012 64.44932940 16.19757271
v -47.04734545 65.81399163 17.08615690
v -54.33447875 65.52473768 15.79701957
v -54.86432416 65.40904270 16.23781100
v -47.22342949 66.77370493 17.12639520
v -54.47481027 65.97419073 16.31346666
v -53.55545096 66.65503376 15.94833089
v -54.08529637 66.53933877 16.38912232
v -47.39951353 67.73341822 17.16663349
v -53.69578247 67.10448681 16.46477798
v -52.74067064 67.27506958 16.57585101
v -51.82131133 67.95591261 16.21071523
v -52.35115674 67.84021762 16.65150667
v -50.86619949 68.12649539 16.32178826
v -50.44093307 68.18138318 16.87365271
v -49.87533514 67.78681792 16.90907008
v -48.92022330 67.95740070 17.02014310
v -47.96511147 68.12798348 17.13121613
v -51.96164284 68.40536566 16.72716233
v -51.00653101 68.57594844 16.83823535
v -55.71963689 56.31476250 16.09431173
v -54.76452506 56.48534528 16.20538476
v -53.80941322 56.65592806 16.31645778
v -52.85430139 56.82651084 16.42753081
v -51.89918955 56.99709362 16.53860383
v -50.94407772 57.16767640 16.64967685
v -49.98896589 57.33825918 16.76074988
v -48.07874222 57.67942473 16.98289593
v -56.85083276 57.10389302 16.02347700
v -56.42556634 57.15878081 16.57534146
v -55.85996841 56.76421556 16.61075883
v -54.90485657 56.93479833 16.72183185
v -53.94974474 57.10538111 16.83290487
v -52.99463290 57.27596389 16.94397790
v -52.03952107 57.44654667 17.05505092
v -51.08440924 57.61712945 17.16612395
v -50.12929740 57.78771223 17.27719697
v -49.17418557 57.95829501 17.38827000
v -48.21907373 58.12887779 17.49934302
v -47.26396190 58.29946056 17.61041605
v -46.30885007 58.47004334 17.72148907
v -45.35373823 58.64062612 17.83256210
v -45.38949076 59.15088637 17.35635330
v -44.96422434 59.20577416 17.90821775
v -57.02691680 58.06360631 16.06371530
v -56.60165038 58.11849411 16.61557976
v -45.56557480 60.11059966 17.39659159
v -45.14030837 60.16548745 17.94845605
v -57.73284625 58.90762462 16.54474503
v -57.16724832 58.51305937 16.58016239
v -45.74165883 61.07031295 17.43682989
v -45.31639241 61.12520075 17.98869434
v -57.90893029 59.86733792 16.58498332
v -45.49247645 62.08491404 18.02893264
v -58.08501433 60.82705121 16.62522162
v -45.10296256 62.65006208 18.10458830
v -45.13871508 63.16032232 17.62837950
v -44.71344866 63.21521011 18.18024396
v -57.73125296 61.90245949 16.22466848
v -58.26109837 61.78676451 16.66545991
v -45.31479912 64.12003562 17.66861780
v -44.88953270 64.17492341 18.22048225
v -57.87158447 62.35191254 16.74111557
v -56.91647264 62.52249532 16.85218860
v -56.52695874 63.08764336 16.92784426
v -46.44599499 64.90916613 17.59778307
v -45.49088316 65.07974891 17.70885609
v -45.06561674 65.13463670 18.26072055
v -56.13744485 63.65279139 17.00349991
v -55.18233301 63.82337417 17.11457294
v -54.79281911 64.38852221 17.19022860
v -46.62207903 65.86887942 17.63802136
v -46.19681261 65.92376722 18.18988582
v -45.63121467 65.52920196 18.22530318
v -54.96890315 65.34823550 17.23046689
v -46.76241055 66.31833248 18.15446845
v -47.32800848 66.71289773 18.11905109
v -54.57938926 65.91338354 17.30612255
v -54.18987536 66.47853158 17.38177821
v -47.50409252 67.67261103 18.15928938
v -53.80036146 67.04367961 17.45743387
v -52.88100215 67.72452264 17.09229810
v -53.41084756 67.60882765 17.53308953
v -50.01566665 68.23627097 17.42551717
v -49.06055482 68.40685375 17.53659020
v -48.10544298 68.57743653 17.64766322
v -47.68017656 68.63232432 18.19952768
v -53.02133367 68.17397569 17.60874519
v -52.06622183 68.34455846 17.71981822
v -51.11111000 68.51514124 17.83089124
v -50.15599817 68.68572402 17.94196427
v -49.20088633 68.85630680 18.05303729
v -48.24577450 69.02688958 18.16411032
v -52.00376855 56.93628643 17.53125972
v -52.53361396 56.82059144 17.97205116
v -51.96801602 56.42602618 18.00746852
v -51.57850212 56.99117422 18.08312418
v -49.13843304 57.44803476 17.86447880
v -49.66827846 57.33233978 18.30527023
v -49.10268052 56.93777452 18.34068759
v -48.71316662 57.50292256 18.41634325
v -56.53014533 57.09797362 17.56799735
v -55.96454740 56.70340836 17.60341472
v -55.00943556 56.87399114 17.71448774
v -54.05432373 57.04457392 17.82556077
v -53.09921190 57.21515670 17.93663379
v -51.18898823 57.55632226 18.15877984
v -50.23387639 57.72690503 18.26985286
v -48.32365273 58.06807059 18.49199891
v -47.36854089 58.23865337 18.60307194
v -46.41342906 58.40923615 18.71414496
v -45.45831722 58.57981893 18.82521799
v -45.06880333 59.14496696 18.90087365
v -56.70622937 58.05768691 17.60823565
v -45.24488737 60.10468026 18.94111194
v -57.83742525 58.84681743 17.53740092
v -57.27182731 58.45225217 17.57281828
v -45.42097140 61.06439355 18.98135024
v -58.01350928 59.80653072 17.57763921
v -45.59705544 62.02410685 19.02158853
v -58.18959332 60.76624402 17.61787751
v -45.20754155 62.58925488 19.09724419
v -44.25242971 62.75983766 19.20831722
v -44.28818224 63.27009791 18.73210842
v -43.86291582 63.32498570 19.28397288
v -58.36567736 61.72595731 17.65811580
v -44.42851375 63.71955096 19.24855551
v -44.99411169 64.11411621 19.21313815
v -57.97616347 62.29110535 17.73377146
v -57.02105163 62.46168813 17.84484449
v -56.63153773 63.02683616 17.92050015
v -45.17019573 65.07382951 19.25337644
v -56.24202384 63.59198420 17.99615581
v -55.28691200 63.76256698 18.10722883
v -54.89739811 64.32771502 18.18288449
v -45.73579366 65.46839477 19.21795908
v -46.30139160 65.86296002 19.18254171
v -54.50788421 64.89286305 18.25854015
v -54.54363673 65.40312330 17.78233135
v -54.11837031 65.45801109 18.33419581
v -46.90274206 66.76778553 18.67091555
v -46.47747564 66.82267332 19.22278001
v -53.76460894 66.53341937 17.93364267
v -53.72885641 66.02315913 18.40985147
v -53.33934252 66.58830716 18.48550713
v -47.04307358 67.21723858 19.18736264
v -47.60867151 67.61180383 19.15194528
v -52.98558114 67.66371544 18.08495399
v -52.94982862 67.15345520 18.56116279
v -52.03046931 67.83429822 18.19602702
v -51.99471679 67.32403798 18.67223581
v -51.07535748 68.00488100 18.30710004
v -51.03960495 67.49462076 18.78330884
v -50.12024564 68.17546378 18.41817306
v -50.08449312 67.66520353 18.89438186
v -49.16513381 68.34604656 18.52924609
v -49.12938128 67.83578631 19.00545489
v -48.21002197 68.51662934 18.64031911
v -48.17426945 68.00636909 19.11652791
v -54.01857120 56.53431368 18.30176957
v -54.54841662 56.41861869 18.74256100
v -53.98281868 56.02405343 18.77797836
v -53.02770685 56.19463621 18.88905139
v -53.06345937 56.70489645 18.41284259
v -52.07259501 56.36521899 19.00012441
v -51.11748318 56.53580177 19.11119744
v -51.15323570 57.04606201 18.63498864
v -50.16237135 56.70638455 19.22227046
v -50.19812387 57.21664479 18.74606166
v -49.20725951 56.87696733 19.33334349
v -48.25214768 57.04755010 19.44441651
v -48.28790020 57.55781035 18.96820771
v -47.29703584 57.21813288 19.55548953
v -47.33278837 57.72839313 19.07928074
v -46.90752195 57.78328092 19.63114519
v -56.63472432 57.03716643 18.56065324
v -56.06912639 56.64260117 18.59607061
v -55.11401455 56.81318395 18.70714363
v -46.51800805 58.34842896 19.70680085
v -45.56289622 58.51901173 19.81787388
v -45.17338232 59.08415977 19.89352954
v -57.23607479 57.94199193 18.04902708
v -57.76592020 57.82629694 18.48981852
v -57.20032226 57.43173168 18.52523588
v -45.34946636 60.04387307 19.93376783
v -57.94200424 58.78601024 18.53005681
v -44.95995246 60.60902110 20.00942349
v -44.99570498 61.11928135 19.53321469
v -44.57043856 61.17416914 20.08507915
v -58.11808828 59.74572353 18.57029511
v -45.17178902 62.07899464 19.57345299
v -44.74652260 62.13388243 20.12531745
v -57.72857438 60.31087157 18.64595076
v -57.76432690 60.82113181 18.16974197
v -57.33906048 60.87601960 18.72160642
v -44.35700870 62.69903047 20.20097311
v -43.96749481 63.26417851 20.27662877
v -57.94041094 61.78084511 18.20998026
v -57.51514452 61.83573290 18.76184472
v -44.53309274 63.65874376 20.24121140
v -45.09869068 64.05330902 20.20579404
v -57.12563062 62.40088093 18.83750038
v -56.73611673 62.96602897 18.91315604
v -45.27477472 65.01302232 20.24603233
v -56.38235535 64.04143725 18.51260290
v -56.91220077 63.92574227 18.95339433
v -55.42724352 64.21202003 18.62367592
v -45.87612518 65.91784782 19.73440617
v -45.45085876 65.97273561 20.28627063
v -56.52268687 64.49089030 19.02904999
v -55.56757503 64.66147308 19.14012302
v -54.61246320 64.83205586 19.25119604
v -54.22294930 65.39720390 19.32685170
v -46.05220922 66.87756111 19.77464446
v -45.62694280 66.93244890 20.32650892
v -53.83343541 65.96235193 19.40250736
v -53.44392151 66.52749997 19.47816302
v -47.14765257 67.15643138 20.18001853
v -47.71325050 67.55099664 20.14460117
v -46.19254073 67.32701416 20.29109156
v -53.05440761 67.09264800 19.55381868
v -52.09929578 67.26323078 19.66489171
v -51.14418394 67.43381356 19.77596473
v -50.18907211 67.60439634 19.88703776
v -49.26971280 68.28523936 19.52190198
v -49.79955821 68.16954438 19.96269341
v -48.31460097 68.45582214 19.63297501
v -47.88933454 68.51070993 20.18483946
v -49.41004431 68.73469241 20.03834907
v -48.45493248 68.90527519 20.14942210
v -54.12315020 56.47350648 19.29442546
v -53.16803836 56.64408926 19.40549848
v -52.21292653 56.81467204 19.51657151
v -51.25781469 56.98525482 19.62764453
v -50.30270286 57.15583760 19.73871755
v -49.34759103 57.32642038 19.84979058
v -48.39247919 57.49700315 19.96086360
v -47.43736736 57.66758593 20.07193663
v -56.73930332 56.97635923 19.55330914
v -56.17370538 56.58179398 19.58872650
v -55.21859355 56.75237675 19.69979953
v -54.26348171 56.92295953 19.81087255
v -53.30836988 57.09354231 19.92194557
v -52.35325804 57.26412509 20.03301860
v -51.39814621 57.43470787 20.14409162
v -50.44303438 57.60529065 20.25516465
v -49.48792254 57.77587343 20.36623767
v -48.53281071 57.94645621 20.47731070
v -47.57769887 58.11703898 20.58838372
v -46.65833956 58.79788201 20.22324795
v -47.18818498 58.68218702 20.66403938
v -45.70322773 58.96846479 20.33432097
v -57.87049919 57.76548975 19.48247441
v -57.30490125 57.37092449 19.51789177
v -46.79867108 59.24733506 20.73969504
v -46.40915718 59.81248309 20.81535070
v -45.87931177 59.92817808 20.37455927
v -58.04658323 58.72520304 19.52271270
v -46.05539581 60.88789137 20.41479756
v -46.58524122 60.77219639 20.85558900
v -45.10028398 61.05847415 20.52587059
v -58.22266727 59.68491634 19.56295100
v -46.23147985 61.84760467 20.45503586
v -46.76132526 61.73190968 20.89582729
v -45.27636801 62.01818745 20.56610888
v -57.86890589 60.76032462 19.16239786
v -58.39875131 60.64462963 19.60318929
v -46.37181136 62.29705772 20.97148295
v -45.41669953 62.46764050 21.08255598
v -44.49734022 63.14848352 20.71742020
v -45.02718563 63.03278853 21.15821163
v -58.04498993 61.72003791 19.20263615
v -58.57483535 61.60434293 19.64342759
v -45.62853609 63.93761404 20.64658547
v -45.59278357 63.42735379 21.12279427
v -46.15838151 63.82191905 21.08737691
v -58.18532145 62.16949096 19.71908325
v -57.26596214 62.85033398 19.35394747
v -57.79580755 62.73463900 19.79473891
v -45.80462013 64.89732733 20.68682377
v -46.33446554 64.78163234 21.12761520
v -57.40629365 63.29978704 19.87039457
v -57.01677976 63.86493507 19.94605023
v -46.93581601 65.68645784 20.61598904
v -46.90006348 65.17619760 21.09219784
v -47.46566142 65.57076286 21.05678047
v -45.98070417 65.85704062 20.72706206
v -56.62726586 64.43008311 20.02170589
v -55.67215403 64.60066589 20.13277891
v -54.75279472 65.28150891 19.76764314
v -55.28264013 65.16581392 20.20843457
v -47.07614752 66.13591090 21.13243613
v -46.12103569 66.30649367 21.24350916
v -45.73152179 66.87164171 21.31916481
v -54.89312623 65.73096196 20.28409023
v -53.93801440 65.90154474 20.39516325
v -53.54850050 66.46669278 20.47081891
v -47.25223156 67.09562419 21.17267443
v -47.81782950 67.49018945 21.13725706
v -46.29711973 67.26620697 21.28374745
v -53.15898660 67.03184081 20.54647457
v -52.20387477 67.20242359 20.65754760
v -51.24876293 67.37300637 20.76862062
v -50.29365110 67.54358915 20.87969365
v -49.37429179 68.22443217 20.51455787
v -49.33853927 67.71417193 20.99076667
v -48.41917996 68.39501495 20.62563090
v -48.38342743 67.88475471 21.10183970
v -56.31403689 57.03124703 20.10517359
v -55.35892506 57.20182980 20.21624662
v -54.40381323 57.37241258 20.32731964
v -53.97854681 57.42730038 20.87918410
v -53.41294887 57.03273512 20.91460147
v -52.45783704 57.20331790 21.02567449
v -51.50272520 57.37390068 21.13674752
v -50.54761337 57.54448345 21.24782054
v -49.59250153 57.71506623 21.35889356
v -48.63738970 57.88564901 21.46996659
v -47.71803039 58.56649203 21.10483082
v -48.24787580 58.45079705 21.54562225
v -57.44523277 57.82037754 20.03433887
v -56.49012093 57.99096032 20.14541189
v -56.06485451 58.04584811 20.69727635
v -55.49925658 57.65128286 20.73269371
v -54.54414474 57.82186563 20.84376674
v -47.85836190 59.01594508 21.62127791
v -46.90325007 59.18652786 21.73235093
v -46.51373617 59.75167590 21.80800659
v -58.15116222 58.66439585 20.51536859
v -57.58556428 58.26983059 20.55078596
v -56.63045245 58.44041337 20.66185898
v -46.68982021 60.71138919 21.84824489
v -58.32724626 59.62410914 20.55560689
v -46.86590425 61.67110249 21.88848318
v -58.50333030 60.58382244 20.59584518
v -46.47639035 62.23625053 21.96413884
v -45.55703104 62.91709355 21.59900307
v -46.08687646 62.80139856 22.03979450
v -58.67941434 61.54353573 20.63608348
v -46.68822692 63.70622406 21.52816834
v -46.65247439 63.19596382 22.00437714
v -47.21807233 63.59052908 21.96895977
v -58.28990044 62.10868377 20.71173914
v -57.37054113 62.78952679 20.34660336
v -57.33478861 62.27926655 20.82281216
v -56.94527471 62.84441458 20.89846782
v -46.86431096 64.66593736 21.56840663
v -47.39415637 64.55024237 22.00919807
v -57.12135875 63.80412788 20.93870612
v -47.57024041 65.50995567 22.04943636
v -56.73184485 64.36927592 21.01436178
v -55.77673302 64.53985869 21.12543480
v -55.38721912 65.10500673 21.20109046
v -47.18072651 66.07510370 22.12509202
v -46.22561468 66.24568648 22.23616505
v -45.83610078 66.81083452 22.31182071
v -54.99770522 65.67015477 21.27674612
v -54.07834591 66.35099779 20.91161035
v -54.60819132 66.23530280 21.35240178
v -53.08748155 66.01132032 21.49889217
v -53.65307949 66.40588558 21.46347481
v -53.12323408 66.52158057 21.02268337
v -52.16812224 66.69216335 21.13375640
v -52.13236972 66.18190310 21.60996519
v -51.21301041 66.86274613 21.24482942
v -51.17725789 66.35248588 21.72103822
v -50.78774399 66.91763392 21.79669388
v -47.35681055 67.03481700 22.16533032
v -47.92240849 67.42938225 22.12991295
v -46.40169872 67.20539978 22.27640334
v -54.21867743 66.80045084 21.42805744
v -50.39823009 67.48278195 21.87234954
v -49.44311826 67.65336473 21.98342256
v -48.48800642 67.82394751 22.09449559
v -54.08312580 57.36649318 21.87183999
v -53.51752786 56.97192793 21.90725736
v -52.56241603 57.14251070 22.01833038
v -51.60730419 57.31309348 22.12940341
v -50.65219236 57.48367626 22.24047643
v -49.69708052 57.65425904 22.35154946
v -48.74196869 57.82484182 22.46262248
v -47.78685686 57.99542460 22.57369551
v -47.82260938 58.50568484 22.09748671
v -47.39734296 58.56057263 22.64935117
v -56.16943350 57.98504092 21.68993224
v -55.60383557 57.59047566 21.72534960
v -54.64872373 57.76105844 21.83642263
v -47.57342700 59.52028593 22.68958946
v -47.04358159 59.63598091 22.24879803
v -57.72589580 58.71928364 21.06723305
v -57.30062938 58.77417144 21.61909751
v -56.73503144 58.37960618 21.65451488
v -47.18391310 60.08543396 22.76524512
v -46.79439920 60.65058200 22.84090078
v -58.43182525 59.56330195 21.54826278
v -57.86622731 59.16873669 21.58368015
v -46.97048324 61.61029530 22.88113907
v -58.60790929 60.52301525 21.58850108
v -46.61672187 62.68570358 22.48058594
v -47.14656728 62.57000859 22.92137737
v -58.78399333 61.48272854 21.62873937
v -47.32265132 63.52972188 22.96161566
v -58.39447943 62.04787658 21.70439503
v -57.47512012 62.72871960 21.33925926
v -58.00496553 62.61302461 21.78005069
v -47.49873536 64.48943518 23.00185396
v -57.61545164 63.17817265 21.85570635
v -57.22593774 63.74332069 21.93136201
v -47.67481940 65.44914847 23.04209225
v -56.83642384 64.30846872 22.00701767
v -55.88131201 64.47905150 22.11809069
v -55.49179811 65.04419954 22.19374635
v -47.28530550 66.01429651 23.11774791
v -46.33019367 66.18487929 23.22882094
v -45.94067977 66.75002732 23.30447660
v -55.10228421 65.60934757 22.26940201
v -54.18292490 66.29019060 21.90426624
v -54.14717238 65.77993035 22.38047504
v -53.19206055 65.95051313 22.49154806
v -52.23694871 66.12109591 22.60262109
v -51.31758940 66.80193893 22.23748531
v -51.84743481 66.68624395 22.67827675
v -47.46138954 66.97400980 23.15798621
v -48.02698748 67.36857506 23.12256884
v -46.50627771 67.14459258 23.26905923
v -51.45792092 67.25139198 22.75393241
v -50.50280908 67.42197476 22.86500543
v -49.54769725 67.59255754 22.97607846
v -48.59258542 67.76314032 23.08715148
v -53.65785938 57.42138098 22.42370445
v -52.70274754 57.59196375 22.53477748
v -52.27748112 57.64685155 23.08664194
v -51.71188318 57.25228629 23.12205930
v -50.75677135 57.42286907 23.23313232
v -49.80165952 57.59345185 23.34420535
v -48.88230021 58.27429487 22.97906957
v -49.41214562 58.15859988 23.41986101
v -47.92718837 58.44487765 23.09014260
v -56.27401250 57.92423373 22.68258813
v -55.70841456 57.52966847 22.71800550
v -54.75330272 57.70025125 22.82907852
v -53.79819089 57.87083403 22.94015155
v -52.84307906 58.04141680 23.05122457
v -49.02263172 58.72374792 23.49551667
v -48.06751989 58.89433070 23.60658969
v -47.67800599 59.45947873 23.68224535
v -57.40520837 58.71336424 22.61175340
v -56.83961043 58.31879898 22.64717077
v -47.32424462 60.53488702 23.28169221
v -47.85409003 60.41919203 23.72248365
v -58.00655883 59.61818974 22.10012724
v -57.58129241 59.67307754 22.65199170
v -47.46457613 60.98434007 23.79813931
v -47.07506223 61.54948810 23.87379497
v -58.71248828 60.46220805 22.58115697
v -58.14689034 60.06764279 22.61657433
v -47.25114627 62.50920140 23.91403326
v -58.88857232 61.42192135 22.62139526
v -47.42723031 63.46891469 23.95427156
v -58.49905842 61.98706938 22.69705092
v -58.10954453 62.55221742 22.77270658
v -47.60331435 64.42862798 23.99450985
v -57.72003063 63.11736546 22.84836224
v -57.33051673 63.68251349 22.92401790
v -47.77939839 65.38834128 24.03474815
v -56.94100283 64.24766153 22.99967356
v -55.98589100 64.41824431 23.11074659
v -55.06653169 65.09908733 22.74561081
v -55.03077917 64.58882709 23.22181961
v -54.11141986 65.26967011 22.85668384
v -54.07566733 64.75940986 23.33289263
v -53.15630802 65.44025289 22.96775686
v -53.12055550 64.92999264 23.44396566
v -52.73104160 65.49514068 23.51962132
v -47.42563702 66.46374956 23.63419501
v -47.95548243 66.34805457 24.07498644
v -46.47052518 66.63433234 23.74526803
v -52.34152770 66.06028872 23.59527698
v -51.42216839 66.74113174 23.23014120
v -51.38641587 66.23087149 23.70635000
v -50.46705656 66.91171452 23.34121423
v -50.43130404 66.40145427 23.81742303
v -49.51194473 67.08229730 23.45228725
v -49.47619220 66.57203705 23.92849605
v -48.55683289 67.25288007 23.56336028
v -48.52108037 66.74261983 24.03956908
v -51.85221470 57.70173934 23.63850639
v -50.89710287 57.87232212 23.74957942
v -49.94199103 58.04290490 23.86065244
v -55.84874607 57.97912152 23.23445259
v -54.89363424 58.14970430 23.34552561
v -53.93852241 58.32028708 23.45659864
v -52.98341057 58.49086986 23.56767166
v -52.02829874 58.66145263 23.67874469
v -51.07318690 58.83203541 23.78981771
v -50.11807507 59.00261819 23.90089074
v -49.16296324 59.17320097 24.01196376
v -48.20785140 59.34378375 24.12303679
v -56.97994195 58.76825203 23.16361786
v -56.02483011 58.93883481 23.27469089
v -55.06971828 59.10941759 23.38576391
v -54.64445186 59.16430538 23.93762837
v -54.07885392 58.76974013 23.97304573
v -53.12374209 58.94032291 24.08411876
v -52.16863025 59.11090568 24.19519178
v -51.21351842 59.28148846 24.30626481
v -50.25840659 59.45207124 24.41733783
v -49.86889269 60.01721928 24.49299349
v -49.33904728 60.13291426 24.05220206
v -48.38393544 60.30349704 24.16327508
v -57.15602599 59.72796533 23.20385616
v -56.73075957 59.78285312 23.75572061
v -56.16516163 59.38828786 23.79113798
v -55.21004979 59.55887064 23.90221100
v -49.47937879 60.58236731 24.56864915
v -49.08986489 61.14751535 24.64430481
v -48.56001948 61.26321034 24.20351338
v -47.60490765 61.43379312 24.31458640
v -58.28722186 60.51709584 23.13302143
v -57.86195544 60.57198364 23.68488588
v -57.29635750 60.17741838 23.72030325
v -48.70035100 61.71266339 24.71996047
v -47.74523916 61.88324617 24.83103349
v -47.35572527 62.44839420 24.90668915
v -58.46330590 61.47680914 23.17325972
v -58.03803948 61.53169693 23.72512418
v -47.53180930 63.40810750 24.94692745
v -57.68427810 62.60710521 23.32457104
v -57.64852558 62.09684497 23.80077984
v -57.25901168 62.66199300 23.87643550
v -47.70789334 64.36782079 24.98716574
v -57.43509572 63.62170630 23.91667379
v -55.95013848 63.90798406 23.58695538
v -55.91438595 63.39772382 24.06316418
v -56.47998389 63.79228908 24.02774682
v -55.52487205 63.96287186 24.13881984
v -47.88397738 65.32753409 25.02740404
v -57.04558182 64.18685434 23.99232945
v -55.13535816 64.52801989 24.21447550
v -54.18024632 64.69860267 24.32554853
v -53.22513449 64.86918545 24.43662155
v -52.30577518 65.55002847 24.07148578
v -52.27002266 65.03976823 24.54769458
v -51.88050876 65.60491627 24.62335024
v -48.06006142 66.28724738 25.06764233
v -51.49099486 66.17006430 24.69900590
v -50.53588303 66.34064708 24.81007892
v -49.58077119 66.51122986 24.92115194
v -48.62565936 66.68181264 25.03222497
v -54.21918544 59.21919318 24.48949283
v -53.26407360 59.38977596 24.60056585
v -52.30896177 59.56035873 24.71163888
v -51.35384994 59.73094151 24.82271190
v -50.39873810 59.90152429 24.93378492
v -56.30549314 59.83774091 24.30758507
v -55.35038131 60.00832369 24.41865810
v -54.39526948 60.17890647 24.52973112
v -53.44015764 60.34948925 24.64080415
v -52.48504581 60.52007203 24.75187717
v -51.52993397 60.69065481 24.86295019
v -50.57482214 60.86123759 24.97402322
v -49.61971031 61.03182037 25.08509624
v -57.43668902 60.62687143 24.23675034
v -56.48157718 60.79745421 24.34782337
v -55.52646535 60.96803699 24.45889639
v -54.57135352 61.13861977 24.56996942
v -53.61624168 61.30920254 24.68104244
v -52.66112985 61.47978532 24.79211547
v -51.70601801 61.65036810 24.90318849
v -50.75090618 61.82095088 25.01426151
v -49.79579435 61.99153366 25.12533454
v -48.84068251 62.16211644 25.23640756
v -47.88557068 62.33269922 25.34748059
v -57.61277306 61.58658472 24.27698864
v -56.65766122 61.75716750 24.38806166
v -55.70254939 61.92775028 24.49913469
v -54.74743755 62.09833306 24.61020771
v -53.79232572 62.26891584 24.72128074
v -52.83721389 62.43949862 24.83235376
v -51.88210205 62.61008140 24.94342678
v -50.92699022 62.78066418 25.05449981
v -49.97187838 62.95124695 25.16557283
v -49.01676655 63.12182973 25.27664586
v -48.06165472 63.29241251 25.38771888
v -56.83374526 62.71688080 24.42829996
v -55.87863343 62.88746358 24.53937298
v -54.92352159 63.05804635 24.65044601
v -53.96840976 63.22862913 24.76151903
v -53.01329793 63.39921191 24.87259205
v -52.05818609 63.56979469 24.98366508
v -51.10307426 63.74037747 25.09473810
v -50.14796242 63.91096025 25.20581113
v -49.19285059 64.08154303 25.31688415
v -48.23773876 64.25212581 25.42795718
v -57.00982930 63.67659409 24.46853825
v -55.09960563 64.01775965 24.69068430
v -54.14449380 64.18834243 24.80175733
v -53.18938197 64.35892521 24.91283035
v -52.23427013 64.52950798 25.02390337
v -51.27915830 64.70009076 25.13497640
v -50.32404646 64.87067354 25.24604942
v -49.36893463 65.04125632 25.35712245
v -48.41382280 65.21183910 25.46819547
v -51.45524234 65.65980406 25.17521469
v -50.50013050 65.83038684 25.28628772
v -49.54501867 66.00096962 25.39736074
v -48.58990683 66.17155239 25.50843377
f 3 2 1
f 5 4 1
f 1 4 3
f 7 6 5
f 5 6 4
f 9 8 7
f 7 8 6
f 11 10 9
f 9 10 8
f 13 12 11
f 11 12 10
f 15 14 13
f 13 14 12
f 17 16 15
f 15 16 14
f 19 18 17
f 17 18 16
f 21 20 19
f 19 20 18
f 23 22 21
f 21 22 20
f 23 24 22
f 1 2 25
f 25 2 26
f 1 27 5
f 1 25 27
f 5 28 7
f 5 27 28
f 7 29 9
f 7 28 29
f 9 30 11
f 9 29 30
f 11 31 13
f 11 30 31
f 13 32 15
f 13 31 32
f 15 33 17
f 15 32 33
f 17 34 19
f 17 33 34
f 19 35 21
f 19 34 35
f 21 36 23
f 21 35 36
f 24 23 37
f 37 23 36
f 26 38 25
f 40 39 38
f 39 25 38
f 39 27 25
f 42 28 41
f 28 39 41
f 28 27 39
f 28 42 29
f 29 42 43
f 45 44 43
f 44 29 43
f 44 30 29
f 30 46 31
f 30 44 46
f 31 47 32
f 31 46 47
f 32 48 33
f 32 47 48
f 33 49 34
f 33 48 49
f 34 50 35
f 34 49 50
f 35 51 36
f 35 50 51
f 37 36 52
f 52 36 51
f 39 40 53
f 53 40 54
f 41 39 55
f 55 39 53
f 44 45 56
f 56 45 57
f 44 58 46
f 44 56 58
f 46 59 47
f 46 58 59
f 47 60 48
f 47 59 60
f 48 61 49
f 48 60 61
f 49 62 50
f 49 61 62
f 50 63 51
f 50 62 63
f 52 51 64
f 64 51 63
f 54 65 53
f 53 65 55
f 57 66 56
f 56 66 58
f 58 66 67
f 58 67 59
f 59 67 68
f 59 68 60
f 60 68 69
f 60 69 61
f 61 69 70
f 61 70 62
f 62 70 71
f 62 71 63
f 63 71 72
f 63 72 64
f 75 74 73
f 73 76 75
f 79 78 77
f 81 80 77
f 77 80 79
f 81 82 80
f 85 84 83
f 87 86 83
f 83 86 85
f 89 88 87
f 87 88 86
f 91 90 89
f 89 90 88
f 93 92 91
f 91 92 90
f 93 94 92
f 97 96 95
f 97 95 74
f 95 73 74
f 95 98 73
f 76 73 99
f 73 100 99
f 73 98 100
f 99 100 78
f 100 77 78
f 100 101 77
f 77 102 81
f 77 101 102
f 82 81 103
f 81 104 103
f 81 102 104
f 103 104 84
f 104 83 84
f 104 105 83
f 83 106 87
f 83 105 106
f 87 107 89
f 87 106 107
f 89 108 91
f 89 107 108
f 91 109 93
f 91 108 109
f 94 93 110
f 93 111 110
f 93 109 111
f 111 112 110
f 95 96 3
f 96 2 3
f 96 113 2
f 95 3 4
f 95 4 98
f 98 4 6
f 98 6 100
f 100 6 8
f 100 8 101
f 101 8 10
f 101 10 102
f 102 10 12
f 102 12 104
f 104 12 14
f 104 14 105
f 105 14 16
f 105 16 106
f 106 16 18
f 106 18 107
f 107 18 20
f 107 20 108
f 108 20 22
f 108 22 109
f 109 22 24
f 114 109 24
f 111 109 114
f 112 111 115
f 111 116 115
f 111 114 116
f 118 117 116
f 116 117 115
f 118 119 117
f 113 26 2
f 120 26 113
f 37 121 114
f 37 114 24
f 114 122 116
f 114 121 122
f 124 118 123
f 118 122 123
f 118 116 122
f 118 124 119
f 120 125 26
f 26 125 38
f 40 38 125
f 40 125 126
f 128 127 42
f 128 42 41
f 42 129 43
f 127 129 42
f 45 43 129
f 45 129 130
f 133 132 131
f 134 131 132
f 52 135 121
f 52 121 37
f 121 136 122
f 121 135 136
f 123 122 137
f 137 122 136
f 139 54 138
f 54 126 138
f 54 40 126
f 138 128 139
f 128 55 139
f 128 41 55
f 141 57 140
f 57 130 140
f 57 45 130
f 141 140 133
f 131 141 133
f 142 141 131
f 131 134 143
f 131 143 142
f 64 144 135
f 64 135 52
f 146 136 145
f 136 144 145
f 136 135 144
f 136 146 137
f 139 65 54
f 65 139 55
f 141 66 57
f 66 141 67
f 67 141 142
f 143 147 142
f 147 67 142
f 147 68 67
f 68 148 69
f 147 148 68
f 69 149 70
f 148 149 69
f 70 150 71
f 149 150 70
f 71 151 72
f 150 151 71
f 64 72 144
f 72 152 144
f 72 151 152
f 144 152 145
f 155 154 153
f 157 156 153
f 153 156 155
f 159 158 157
f 157 158 156
f 161 160 159
f 159 160 158
f 163 162 161
f 161 162 160
f 165 164 163
f 163 164 162
f 167 166 165
f 165 166 164
f 169 168 167
f 167 168 166
f 169 170 168
f 172 171 75
f 75 171 74
f 174 173 76
f 173 75 76
f 173 172 75
f 78 79 174
f 79 173 174
f 79 175 173
f 80 153 154
f 175 80 154
f 79 80 175
f 153 80 82
f 176 153 82
f 157 153 176
f 176 84 85
f 159 176 85
f 157 176 159
f 159 85 86
f 159 86 161
f 161 86 88
f 161 88 163
f 163 88 90
f 163 90 165
f 165 90 92
f 165 92 167
f 167 92 94
f 177 167 94
f 169 167 177
f 170 169 178
f 169 179 178
f 169 177 179
f 179 180 178
f 182 181 97
f 97 181 96
f 97 74 171
f 97 171 182
f 99 174 76
f 174 99 78
f 103 176 82
f 176 103 84
f 110 177 94
f 177 110 112
f 183 177 112
f 179 177 183
f 180 179 184
f 179 185 184
f 179 183 185
f 185 186 184
f 188 113 187
f 113 181 187
f 113 96 181
f 189 188 187
f 115 183 112
f 183 115 117
f 183 117 185
f 117 119 185
f 119 186 185
f 119 190 186
f 191 120 188
f 188 120 113
f 188 189 192
f 188 192 191
f 123 193 124
f 193 194 124
f 194 119 124
f 194 190 119
f 191 125 120
f 196 195 126
f 196 126 125
f 192 196 125
f 191 192 125
f 127 128 195
f 196 127 195
f 197 127 196
f 127 198 129
f 197 198 127
f 130 129 198
f 130 198 199
f 133 200 132
f 200 134 132
f 137 201 193
f 137 193 123
f 194 193 202
f 202 193 201
f 195 138 126
f 138 195 128
f 199 203 130
f 130 203 140
f 133 140 200
f 140 204 200
f 140 203 204
f 134 200 204
f 205 134 204
f 143 134 205
f 145 206 146
f 201 137 146
f 206 201 146
f 207 201 206
f 202 201 208
f 208 201 207
f 205 209 143
f 143 209 147
f 147 210 148
f 209 210 147
f 210 212 211
f 149 210 211
f 148 210 149
f 213 150 149
f 213 149 211
f 214 151 150
f 214 150 213
f 215 152 151
f 215 151 214
f 206 145 152
f 215 206 152
f 216 206 215
f 206 217 207
f 206 216 217
f 208 207 218
f 218 207 217
f 212 219 211
f 221 220 219
f 220 211 219
f 220 213 211
f 213 222 214
f 213 220 222
f 214 223 215
f 214 222 223
f 225 216 224
f 216 223 224
f 216 215 223
f 216 225 217
f 217 225 226
f 217 226 218
f 221 227 220
f 220 227 222
f 222 227 228
f 222 228 223
f 223 228 229
f 223 229 224
f 232 231 230
f 234 233 230
f 230 233 232
f 236 235 234
f 234 235 233
f 236 237 235
f 240 239 238
f 242 241 238
f 238 241 240
f 244 243 242
f 242 243 241
f 246 245 244
f 244 245 243
f 248 247 246
f 246 247 245
f 250 249 248
f 248 249 247
f 250 251 249
f 230 231 252
f 252 231 253
f 252 154 155
f 234 252 155
f 230 252 234
f 234 155 156
f 234 156 236
f 254 237 236
f 156 254 236
f 158 254 156
f 160 238 239
f 254 160 239
f 158 160 254
f 238 160 162
f 238 162 242
f 242 162 164
f 242 164 244
f 244 164 166
f 244 166 246
f 246 166 168
f 246 168 248
f 248 168 170
f 255 248 170
f 250 248 255
f 251 250 256
f 250 257 256
f 250 255 257
f 257 258 256
f 259 171 172
f 259 172 260
f 172 261 260
f 172 173 261
f 175 252 253
f 261 175 253
f 173 175 261
f 252 175 154
f 178 255 170
f 255 178 180
f 262 255 180
f 257 255 262
f 258 257 263
f 263 257 262
f 264 181 182
f 265 264 182
f 265 182 171
f 266 265 171
f 259 266 171
f 266 259 260
f 184 262 180
f 184 186 262
f 186 263 262
f 186 267 263
f 264 187 181
f 269 268 189
f 269 189 187
f 265 269 187
f 264 265 187
f 270 268 269
f 190 267 186
f 190 271 267
f 272 192 268
f 268 192 189
f 268 270 273
f 268 273 272
f 194 271 190
f 194 274 271
f 272 196 192
f 273 275 272
f 275 196 272
f 275 197 196
f 275 277 276
f 198 275 276
f 197 275 198
f 276 199 198
f 202 274 194
f 202 278 274
f 277 279 276
f 279 281 280
f 279 280 203
f 276 279 203
f 199 276 203
f 282 204 203
f 282 203 280
f 282 205 204
f 208 278 202
f 208 283 278
f 281 284 280
f 280 284 282
f 282 284 285
f 282 285 205
f 285 209 205
f 285 286 209
f 286 288 287
f 210 286 287
f 209 286 210
f 287 212 210
f 218 283 208
f 218 289 283
f 288 290 287
f 290 292 291
f 290 291 219
f 287 290 219
f 212 287 219
f 291 221 219
f 224 293 225
f 294 226 225
f 294 225 293
f 294 295 226
f 295 218 226
f 295 289 218
f 292 296 291
f 291 296 221
f 296 227 221
f 296 297 227
f 297 299 298
f 228 297 298
f 227 297 228
f 228 298 300
f 301 228 300
f 229 228 301
f 224 229 293
f 229 302 293
f 229 301 302
f 293 302 294
f 294 302 303
f 294 303 295
f 299 304 298
f 298 304 300
f 306 305 232
f 232 305 231
f 307 232 233
f 307 306 232
f 308 233 235
f 308 307 233
f 310 309 237
f 309 235 237
f 309 308 235
f 239 240 310
f 240 309 310
f 240 311 309
f 312 240 241
f 312 311 240
f 313 241 243
f 313 312 241
f 314 243 245
f 314 313 243
f 315 245 247
f 315 314 245
f 316 247 249
f 316 315 247
f 318 317 251
f 317 249 251
f 317 316 249
f 318 319 317
f 305 253 231
f 320 253 305
f 254 310 237
f 310 254 239
f 256 318 251
f 256 258 318
f 258 319 318
f 258 321 319
f 323 322 261
f 261 322 260
f 261 253 320
f 261 320 323
f 263 321 258
f 263 324 321
f 325 265 266
f 326 325 266
f 260 326 266
f 322 326 260
f 267 324 263
f 267 327 324
f 325 269 265
f 329 328 270
f 329 270 269
f 326 329 269
f 325 326 269
f 330 328 329
f 271 332 331
f 327 271 331
f 267 271 327
f 334 333 332
f 332 333 331
f 334 335 333
f 336 273 328
f 328 273 270
f 328 330 337
f 328 337 336
f 274 338 332
f 274 332 271
f 340 334 339
f 334 338 339
f 334 332 338
f 334 340 335
f 336 275 273
f 342 341 277
f 342 277 275
f 337 342 275
f 336 337 275
f 343 341 342
f 278 344 338
f 278 338 274
f 339 338 345
f 345 338 344
f 341 279 277
f 347 346 281
f 347 281 279
f 343 347 279
f 341 343 279
f 349 348 346
f 349 346 347
f 350 348 349
f 352 351 344
f 278 352 344
f 283 352 278
f 344 351 345
f 346 284 281
f 284 346 285
f 285 346 348
f 350 353 348
f 353 285 348
f 353 286 285
f 288 286 353
f 288 353 354
f 289 352 283
f 289 355 352
f 354 356 288
f 288 356 290
f 292 290 356
f 292 356 357
f 295 355 289
f 295 358 355
f 357 359 292
f 292 359 296
f 296 360 297
f 359 360 296
f 362 361 299
f 297 362 299
f 360 362 297
f 301 300 361
f 362 301 361
f 363 301 362
f 301 364 302
f 363 364 301
f 302 365 303
f 364 365 302
f 295 303 358
f 358 303 365
f 361 304 299
f 304 361 300
f 368 367 366
f 370 369 366
f 366 369 368
f 372 371 370
f 370 371 369
f 374 373 372
f 372 373 371
f 376 375 374
f 374 375 373
f 378 377 376
f 376 377 375
f 380 379 378
f 378 379 377
f 380 381 379
f 384 383 382
f 382 385 384
f 388 387 386
f 388 386 367
f 367 386 366
f 386 305 366
f 305 306 366
f 366 306 307
f 366 307 370
f 370 307 308
f 370 308 372
f 372 308 309
f 372 309 374
f 374 309 311
f 374 311 376
f 376 311 312
f 376 312 378
f 378 312 313
f 378 313 380
f 389 381 380
f 313 389 380
f 314 389 313
f 315 382 383
f 389 315 383
f 314 315 389
f 390 385 382
f 315 390 382
f 316 390 315
f 391 316 317
f 391 390 316
f 317 319 391
f 391 319 392
f 386 387 393
f 393 387 394
f 393 320 305
f 393 305 386
f 321 392 319
f 321 395 392
f 393 394 323
f 394 322 323
f 394 396 322
f 393 323 320
f 324 395 321
f 324 397 395
f 396 326 322
f 398 326 396
f 327 400 399
f 397 327 399
f 324 327 397
f 400 401 399
f 329 326 402
f 326 403 402
f 326 398 403
f 402 330 329
f 331 400 327
f 331 333 400
f 333 404 400
f 404 401 400
f 333 405 404
f 335 405 333
f 403 406 402
f 330 402 406
f 407 330 406
f 337 330 407
f 404 405 340
f 339 404 340
f 408 404 339
f 340 405 335
f 407 409 337
f 337 409 342
f 343 342 409
f 343 409 410
f 413 412 411
f 412 408 411
f 408 345 411
f 408 339 345
f 410 414 343
f 343 414 347
f 347 415 349
f 414 415 347
f 350 349 415
f 350 415 416
f 413 411 351
f 352 413 351
f 417 413 352
f 351 411 345
f 353 350 418
f 350 419 418
f 350 416 419
f 418 354 353
f 355 417 352
f 355 420 417
f 419 421 418
f 421 423 422
f 421 422 356
f 418 421 356
f 354 418 356
f 422 357 356
f 358 420 355
f 358 424 420
f 423 425 422
f 422 425 357
f 425 359 357
f 425 426 359
f 426 428 427
f 360 426 427
f 359 426 360
f 429 362 360
f 429 360 427
f 362 429 430
f 431 362 430
f 363 362 431
f 363 432 364
f 431 432 363
f 364 433 365
f 432 433 364
f 358 365 424
f 424 365 433
f 428 434 427
f 427 434 429
f 429 434 435
f 429 435 430
f 436 367 368
f 369 437 368
f 368 437 436
f 371 438 369
f 369 438 437
f 373 439 371
f 371 439 438
f 375 440 373
f 373 440 439
f 377 441 375
f 375 441 440
f 379 442 377
f 377 442 441
f 381 442 379
f 443 383 384
f 385 443 384
f 444 387 388
f 445 444 388
f 445 388 367
f 446 445 367
f 436 446 367
f 446 436 437
f 446 437 447
f 447 437 438
f 447 438 448
f 448 438 439
f 448 439 449
f 449 439 440
f 449 440 450
f 450 440 441
f 450 441 451
f 451 441 442
f 451 442 452
f 452 442 381
f 389 452 381
f 453 452 389
f 389 383 443
f 454 389 443
f 453 389 454
f 454 443 385
f 390 454 385
f 455 454 390
f 456 390 391
f 456 455 390
f 458 457 392
f 457 391 392
f 457 456 391
f 458 459 457
f 460 394 444
f 444 394 387
f 444 445 461
f 444 461 460
f 395 462 458
f 395 458 392
f 459 458 463
f 463 458 462
f 465 464 460
f 464 394 460
f 464 396 394
f 465 460 461
f 397 466 462
f 397 462 395
f 463 462 467
f 467 462 466
f 464 398 396
f 468 398 464
f 399 466 397
f 399 401 466
f 401 467 466
f 401 469 467
f 468 403 398
f 470 403 468
f 404 472 471
f 469 404 471
f 401 404 469
f 472 473 471
f 406 403 474
f 403 475 474
f 403 470 475
f 474 407 406
f 408 476 472
f 408 472 404
f 473 472 477
f 477 472 476
f 475 478 474
f 474 478 407
f 478 409 407
f 478 479 409
f 410 409 479
f 410 479 480
f 413 481 412
f 476 408 412
f 481 476 412
f 482 476 481
f 477 476 483
f 483 476 482
f 480 484 410
f 410 484 414
f 414 485 415
f 484 485 414
f 416 415 485
f 416 485 486
f 417 487 481
f 417 481 413
f 489 482 488
f 482 487 488
f 482 481 487
f 482 489 483
f 486 419 416
f 490 419 486
f 492 491 487
f 417 492 487
f 420 492 417
f 487 491 488
f 490 493 419
f 419 493 421
f 423 421 493
f 423 493 494
f 424 492 420
f 424 495 492
f 494 496 423
f 423 496 425
f 496 498 497
f 426 496 497
f 425 496 426
f 497 428 426
f 430 499 431
f 500 432 431
f 500 431 499
f 501 433 432
f 501 432 500
f 501 502 433
f 502 424 433
f 502 495 424
f 498 503 497
f 497 503 428
f 503 434 428
f 503 504 434
f 434 505 435
f 504 505 434
f 430 435 499
f 435 506 499
f 435 505 506
f 499 506 500
f 500 506 507
f 500 507 501
f 501 507 508
f 501 508 502
f 511 510 509
f 509 512 511
f 515 514 513
f 513 516 515
f 518 517 446
f 446 517 445
f 519 446 447
f 519 518 446
f 520 447 448
f 520 519 447
f 521 448 449
f 521 520 448
f 450 509 510
f 521 450 510
f 449 450 521
f 522 512 509
f 450 522 509
f 451 522 450
f 523 451 452
f 523 522 451
f 453 513 514
f 523 453 514
f 452 453 523
f 524 516 513
f 453 524 513
f 454 524 453
f 525 454 455
f 525 524 454
f 526 455 456
f 526 525 455
f 527 456 457
f 527 526 456
f 457 459 527
f 527 459 528
f 517 461 445
f 529 461 517
f 463 528 459
f 463 530 528
f 532 531 465
f 465 531 464
f 465 461 529
f 465 529 532
f 467 530 463
f 467 533 530
f 531 468 464
f 534 468 531
f 469 533 467
f 469 535 533
f 534 470 468
f 536 470 534
f 537 535 469
f 537 469 471
f 539 538 473
f 538 471 473
f 538 537 471
f 539 540 538
f 536 475 470
f 541 475 536
f 543 542 539
f 473 543 539
f 477 543 473
f 539 542 540
f 541 544 475
f 475 544 478
f 478 545 479
f 544 545 478
f 480 479 545
f 480 545 546
f 483 543 477
f 483 547 543
f 546 548 480
f 480 548 484
f 484 549 485
f 548 549 484
f 486 485 549
f 486 549 550
f 552 551 489
f 552 489 488
f 483 489 547
f 547 489 551
f 554 490 553
f 490 550 553
f 490 486 550
f 555 554 553
f 492 556 491
f 556 557 491
f 557 488 491
f 557 552 488
f 554 493 490
f 559 558 494
f 559 494 493
f 555 559 493
f 554 555 493
f 560 558 559
f 562 561 556
f 492 562 556
f 495 562 492
f 556 561 557
f 558 496 494
f 564 563 498
f 564 498 496
f 560 564 496
f 558 560 496
f 566 565 563
f 566 563 564
f 568 567 565
f 568 565 566
f 570 569 567
f 570 567 568
f 572 571 569
f 572 569 570
f 574 573 571
f 574 571 572
f 574 562 573
f 562 502 573
f 562 495 502
f 563 503 498
f 503 563 504
f 504 563 565
f 504 565 505
f 505 565 567
f 505 567 506
f 506 567 569
f 506 569 507
f 507 569 571
f 507 571 508
f 508 571 573
f 508 573 502
f 577 576 575
f 579 578 575
f 575 578 577
f 510 511 579
f 511 578 579
f 511 580 578
f 582 581 512
f 581 511 512
f 581 580 511
f 584 583 582
f 582 583 581
f 514 515 584
f 515 583 584
f 515 585 583
f 587 586 516
f 586 515 516
f 586 585 515
f 589 588 587
f 587 588 586
f 589 590 588
f 592 591 518
f 518 591 517
f 593 518 519
f 593 592 518
f 520 575 576
f 593 520 576
f 519 520 593
f 575 520 521
f 575 521 579
f 579 521 510
f 522 582 512
f 582 522 523
f 582 523 584
f 584 523 514
f 524 587 516
f 587 524 525
f 587 525 589
f 594 590 589
f 525 594 589
f 526 594 525
f 595 526 527
f 595 594 526
f 527 528 595
f 595 528 596
f 599 598 597
f 591 599 597
f 529 591 597
f 517 591 529
f 530 596 528
f 530 600 596
f 597 598 532
f 598 531 532
f 598 601 531
f 597 532 529
f 533 603 602
f 600 533 602
f 530 533 600
f 603 604 602
f 601 534 531
f 605 534 601
f 535 606 603
f 535 603 533
f 604 603 607
f 607 603 606
f 609 536 608
f 536 605 608
f 536 534 605
f 610 609 608
f 537 606 535
f 611 607 606
f 537 611 606
f 538 611 537
f 538 540 611
f 611 540 612
f 613 541 609
f 609 541 536
f 609 610 614
f 609 614 613
f 616 615 542
f 616 542 543
f 540 542 612
f 612 542 615
f 613 544 541
f 614 617 613
f 617 544 613
f 617 545 544
f 546 545 617
f 546 617 618
f 547 616 543
f 547 619 616
f 548 546 620
f 546 621 620
f 546 618 621
f 622 549 548
f 622 548 620
f 622 550 549
f 552 623 551
f 623 624 551
f 624 547 551
f 624 619 547
f 621 625 620
f 620 625 622
f 622 625 626
f 622 626 550
f 626 553 550
f 626 627 553
f 555 553 627
f 555 627 628
f 557 629 623
f 557 623 552
f 624 623 630
f 630 623 629
f 628 631 555
f 555 631 559
f 560 559 631
f 560 631 632
f 634 633 561
f 634 561 562
f 557 561 629
f 561 635 629
f 561 633 635
f 629 635 630
f 632 636 560
f 560 636 564
f 564 637 566
f 636 637 564
f 566 638 568
f 637 638 566
f 568 639 570
f 638 639 568
f 639 641 640
f 572 639 640
f 570 639 572
f 642 574 572
f 642 572 640
f 642 643 574
f 643 562 574
f 643 634 562
f 641 644 640
f 640 644 642
f 642 644 645
f 642 645 643
f 646 576 577
f 578 647 577
f 577 647 646
f 580 648 578
f 578 648 647
f 581 649 580
f 580 649 648
f 583 650 581
f 581 650 649
f 585 651 583
f 583 651 650
f 586 652 585
f 585 652 651
f 588 653 586
f 586 653 652
f 590 653 588
f 655 654 592
f 592 654 591
f 656 592 593
f 656 655 592
f 593 576 646
f 657 593 646
f 656 593 657
f 657 646 647
f 657 647 658
f 658 647 648
f 658 648 659
f 659 648 649
f 659 649 660
f 660 649 650
f 660 650 661
f 661 650 651
f 661 651 662
f 662 651 652
f 662 652 663
f 663 652 653
f 663 653 664
f 666 664 665
f 665 664 594
f 664 653 594
f 653 590 594
f 595 667 594
f 594 667 665
f 596 667 595
f 669 668 599
f 599 668 598
f 599 591 654
f 599 654 669
f 670 666 665
f 672 671 670
f 665 672 670
f 667 672 665
f 600 672 596
f 596 672 667
f 668 601 598
f 673 601 668
f 671 672 674
f 671 674 675
f 602 676 600
f 676 672 600
f 676 674 672
f 604 676 602
f 673 605 601
f 677 605 673
f 675 674 678
f 675 678 679
f 680 674 676
f 678 674 680
f 607 680 604
f 604 680 676
f 608 605 681
f 605 682 681
f 605 677 682
f 681 610 608
f 683 679 678
f 683 678 680
f 683 680 684
f 686 684 685
f 685 684 611
f 684 680 611
f 680 607 611
f 612 685 611
f 681 682 687
f 687 682 688
f 687 614 610
f 687 610 681
f 691 690 689
f 689 690 686
f 689 686 685
f 616 689 685
f 615 616 685
f 615 685 612
f 688 692 687
f 692 694 693
f 692 693 617
f 687 692 617
f 614 687 617
f 693 618 617
f 691 689 695
f 691 695 696
f 619 695 616
f 616 695 689
f 694 697 693
f 618 693 697
f 698 618 697
f 621 618 698
f 701 700 699
f 699 700 696
f 695 699 696
f 702 699 695
f 624 702 619
f 619 702 695
f 698 703 621
f 621 703 625
f 625 704 626
f 703 704 625
f 704 706 705
f 627 704 705
f 626 704 627
f 705 628 627
f 707 701 699
f 707 699 702
f 707 702 708
f 702 624 708
f 624 709 708
f 624 630 709
f 706 710 705
f 705 710 628
f 710 631 628
f 710 711 631
f 632 631 711
f 632 711 712
f 714 713 633
f 714 633 634
f 633 715 635
f 713 715 633
f 630 635 709
f 709 635 715
f 712 716 632
f 632 716 636
f 636 717 637
f 716 717 636
f 637 718 638
f 717 718 637
f 638 719 639
f 718 719 638
f 721 720 641
f 639 721 641
f 719 721 639
f 723 722 720
f 723 720 721
f 723 714 722
f 714 643 722
f 714 634 643
f 720 644 641
f 644 720 645
f 645 720 722
f 645 722 643
f 724 654 655
f 656 725 655
f 655 725 724
f 657 726 656
f 656 726 725
f 726 657 727
f 657 728 727
f 657 658 728
f 729 658 659
f 729 728 658
f 730 659 660
f 730 729 659
f 731 660 661
f 731 730 660
f 732 661 662
f 732 731 661
f 733 662 663
f 733 732 662
f 735 733 734
f 733 664 734
f 733 663 664
f 666 734 664
f 736 668 669
f 654 724 669
f 724 736 669
f 724 737 736
f 725 739 738
f 737 725 738
f 724 725 737
f 739 725 726
f 739 726 740
f 740 726 727
f 741 735 734
f 741 734 666
f 670 741 666
f 742 741 670
f 670 671 742
f 742 671 743
f 745 744 736
f 744 668 736
f 744 673 668
f 745 736 737
f 745 737 746
f 746 737 738
f 675 743 671
f 675 747 743
f 744 677 673
f 748 677 744
f 679 747 675
f 679 749 747
f 748 682 677
f 750 682 748
f 751 749 679
f 751 679 683
f 753 751 752
f 751 684 752
f 751 683 684
f 686 752 684
f 750 688 682
f 754 688 750
f 757 756 755
f 755 756 753
f 755 753 752
f 691 755 752
f 690 691 752
f 690 752 686
f 754 758 688
f 688 758 692
f 760 759 694
f 692 760 694
f 758 760 692
f 761 759 760
f 757 755 762
f 757 762 763
f 696 762 691
f 691 762 755
f 759 697 694
f 698 697 759
f 761 698 759
f 764 698 761
f 763 762 700
f 701 763 700
f 765 763 701
f 700 762 696
f 764 766 698
f 698 766 703
f 703 767 704
f 766 767 703
f 706 704 767
f 706 767 768
f 769 765 701
f 769 701 707
f 770 707 708
f 770 769 707
f 708 709 770
f 770 709 771
f 768 772 706
f 706 772 710
f 772 774 773
f 711 772 773
f 710 772 711
f 712 711 773
f 777 776 775
f 779 778 777
f 779 777 775
f 781 780 778
f 781 778 779
f 782 780 781
f 784 783 713
f 784 713 714
f 713 785 715
f 783 785 713
f 709 715 771
f 771 715 785
f 774 786 773
f 776 777 786
f 777 716 786
f 712 773 786
f 712 786 716
f 716 777 717
f 717 777 778
f 717 778 718
f 718 778 780
f 782 787 780
f 787 718 780
f 787 719 718
f 719 788 721
f 787 788 719
f 721 789 723
f 788 789 721
f 714 723 784
f 784 723 789
f 791 790 728
f 728 790 727
f 792 728 729
f 792 791 728
f 793 729 730
f 793 792 729
f 794 730 731
f 794 793 730
f 795 731 732
f 795 794 731
f 796 732 733
f 796 795 732
f 798 797 735
f 797 733 735
f 797 796 733
f 798 799 797
f 801 800 739
f 739 800 738
f 802 739 740
f 802 801 739
f 740 727 790
f 740 790 802
f 741 798 735
f 741 742 798
f 742 803 798
f 803 799 798
f 742 804 803
f 743 804 742
f 805 744 745
f 805 745 806
f 745 807 806
f 745 746 807
f 746 738 800
f 746 800 807
f 808 803 804
f 804 743 808
f 743 809 808
f 743 747 809
f 811 810 805
f 810 744 805
f 810 748 744
f 811 805 806
f 749 809 747
f 749 812 809
f 810 750 748
f 813 750 810
f 749 751 814
f 815 749 814
f 812 749 815
f 753 814 751
f 813 754 750
f 816 754 813
f 815 814 756
f 757 815 756
f 817 815 757
f 756 814 753
f 816 818 754
f 754 818 758
f 818 820 819
f 760 818 819
f 758 818 760
f 819 761 760
f 763 817 757
f 763 821 817
f 820 822 819
f 761 819 822
f 823 761 822
f 764 761 823
f 765 821 763
f 765 824 821
f 823 825 764
f 764 825 766
f 766 826 767
f 825 826 766
f 768 767 826
f 768 826 827
f 828 824 765
f 828 765 769
f 829 769 770
f 829 828 769
f 770 771 829
f 829 771 830
f 827 831 768
f 768 831 772
f 833 832 774
f 772 833 774
f 831 833 772
f 775 776 832
f 833 775 832
f 834 775 833
f 775 835 779
f 834 835 775
f 835 837 836
f 781 835 836
f 779 835 781
f 836 782 781
f 839 838 783
f 839 783 784
f 783 840 785
f 838 840 783
f 771 785 830
f 830 785 840
f 832 786 774
f 786 832 776
f 837 841 836
f 836 841 782
f 841 787 782
f 841 842 787
f 787 843 788
f 842 843 787
f 788 844 789
f 843 844 788
f 784 789 839
f 839 789 844
f 845 790 791
f 792 846 791
f 791 846 845
f 846 792 847
f 792 848 847
f 792 793 848
f 849 793 794
f 849 848 793
f 850 794 795
f 850 849 794
f 852 850 851
f 850 796 851
f 850 795 796
f 797 853 796
f 796 853 851
f 799 853 797
f 855 854 801
f 801 854 800
f 856 801 802
f 856 855 801
f 802 790 845
f 857 802 845
f 856 802 857
f 857 845 846
f 857 846 858
f 858 846 847
f 859 852 851
f 859 851 853
f 859 853 860
f 853 799 860
f 799 861 860
f 799 803 861
f 863 862 807
f 807 862 806
f 807 800 854
f 807 854 863
f 803 808 864
f 865 803 864
f 861 803 865
f 809 864 808
f 866 810 811
f 867 866 811
f 806 867 811
f 862 867 806
f 868 865 864
f 864 809 868
f 809 869 868
f 809 812 869
f 871 870 866
f 870 810 866
f 870 813 810
f 871 866 867
f 815 869 812
f 815 872 869
f 870 816 813
f 873 816 870
f 817 872 815
f 817 874 872
f 873 875 816
f 816 875 818
f 820 818 875
f 820 875 876
f 821 874 817
f 821 877 874
f 876 878 820
f 820 878 822
f 823 822 878
f 823 878 879
f 824 877 821
f 824 880 877
f 879 881 823
f 823 881 825
f 825 882 826
f 881 882 825
f 884 883 827
f 826 884 827
f 882 884 826
f 886 885 883
f 886 883 884
f 888 887 885
f 888 885 886
f 889 887 888
f 824 828 890
f 891 824 890
f 880 824 891
f 829 892 828
f 828 892 890
f 830 892 829
f 883 831 827
f 831 883 833
f 833 883 885
f 833 885 834
f 834 885 887
f 889 893 887
f 893 834 887
f 893 835 834
f 895 894 837
f 835 895 837
f 893 895 835
f 897 896 894
f 897 894 895
f 899 898 896
f 899 896 897
f 901 900 898
f 901 898 899
f 900 901 891
f 900 891 890
f 839 900 890
f 838 839 890
f 838 890 840
f 840 890 892
f 840 892 830
f 894 841 837
f 841 894 842
f 842 894 896
f 842 896 843
f 843 896 898
f 843 898 844
f 844 898 900
f 844 900 839
f 902 847 848
f 849 903 848
f 848 903 902
f 850 904 849
f 849 904 903
f 852 904 850
f 905 854 855
f 856 906 855
f 855 906 905
f 857 907 856
f 856 907 906
f 858 908 857
f 857 908 907
f 847 902 858
f 902 908 858
f 902 909 908
f 910 902 903
f 909 902 910
f 911 903 904
f 910 903 911
f 859 912 852
f 912 904 852
f 912 911 904
f 860 913 859
f 859 913 912
f 861 913 860
f 914 862 863
f 854 905 863
f 905 914 863
f 905 915 914
f 916 905 906
f 915 905 916
f 907 918 917
f 916 907 917
f 906 907 916
f 918 907 908
f 918 908 919
f 919 908 909
f 919 909 920
f 920 909 910
f 920 910 921
f 921 910 911
f 921 911 922
f 924 923 922
f 911 924 922
f 912 924 911
f 925 912 913
f 924 912 925
f 865 925 861
f 861 925 913
f 926 867 914
f 914 867 862
f 915 928 927
f 926 915 927
f 914 915 926
f 928 915 916
f 928 916 929
f 929 916 917
f 930 923 924
f 932 931 930
f 924 932 930
f 925 932 924
f 868 933 865
f 933 925 865
f 933 932 925
f 869 933 868
f 934 870 871
f 935 934 871
f 935 871 867
f 936 935 867
f 926 936 867
f 936 926 927
f 937 931 932
f 937 932 933
f 937 933 938
f 933 869 938
f 869 939 938
f 869 872 939
f 940 873 934
f 934 873 870
f 934 935 941
f 934 941 940
f 874 939 872
f 874 942 939
f 940 875 873
f 944 943 876
f 944 876 875
f 941 944 875
f 940 941 875
f 945 943 944
f 877 942 874
f 877 946 942
f 943 878 876
f 879 878 943
f 945 879 943
f 947 879 945
f 950 949 948
f 951 948 949
f 880 946 877
f 880 952 946
f 947 953 879
f 879 953 881
f 948 882 950
f 882 953 950
f 882 881 953
f 951 954 948
f 954 882 948
f 954 884 882
f 884 955 886
f 954 955 884
f 886 956 888
f 955 956 886
f 958 957 889
f 888 958 889
f 956 958 888
f 959 957 958
f 891 952 880
f 891 960 952
f 957 893 889
f 959 961 957
f 961 893 957
f 961 895 893
f 895 962 897
f 961 962 895
f 897 963 899
f 962 963 897
f 899 964 901
f 963 964 899
f 891 901 960
f 960 901 964
f 965 917 918
f 919 966 918
f 918 966 965
f 920 967 919
f 919 967 966
f 921 968 920
f 920 968 967
f 922 969 921
f 921 969 968
f 923 969 922
f 970 927 928
f 929 971 928
f 928 971 970
f 917 965 929
f 965 971 929
f 965 972 971
f 973 965 966
f 972 965 973
f 974 966 967
f 973 966 974
f 975 967 968
f 974 967 975
f 976 968 969
f 975 968 976
f 930 977 923
f 977 969 923
f 977 976 969
f 931 977 930
f 978 935 936
f 927 970 936
f 970 978 936
f 970 979 978
f 980 970 971
f 979 970 980
f 981 971 972
f 980 971 981
f 982 972 973
f 981 972 982
f 983 973 974
f 982 973 983
f 984 974 975
f 983 974 984
f 985 975 976
f 984 975 985
f 986 976 977
f 985 976 986
f 937 987 931
f 987 977 931
f 987 986 977
f 938 988 937
f 937 988 987
f 939 988 938
f 989 941 978
f 978 941 935
f 990 978 979
f 989 978 990
f 991 979 980
f 990 979 991
f 992 980 981
f 991 980 992
f 993 981 982
f 992 981 993
f 994 982 983
f 993 982 994
f 995 983 984
f 994 983 995
f 996 984 985
f 995 984 996
f 997 985 986
f 996 985 997
f 998 986 987
f 997 986 998
f 999 987 988
f 998 987 999
f 942 999 939
f 939 999 988
f 989 944 941
f 944 989 945
f 989 1000 945
f 989 990 1000
f 1001 990 991
f 1000 990 1001
f 1002 991 992
f 1001 991 1002
f 1003 992 993
f 1002 992 1003
f 1004 993 994
f 1003 993 1004
f 1005 994 995
f 1004 994 1005
f 1006 995 996
f 1005 995 1006
f 1007 996 997
f 1006 996 1007
f 1008 997 998
f 1007 997 1008
f 1009 998 999
f 1008 998 1009
f 946 1009 942
f 942 1009 999
f 1010 947 1000
f 1000 947 945
f 950 1010 949
f 1010 1001 949
f 1010 1000 1001
f 949 1001 951
f 1001 1011 951
f 1001 1002 1011
f 1012 1002 1003
f 1011 1002 1012
f 1013 1003 1004
f 1012 1003 1013
f 1014 1004 1005
f 1013 1004 1014
f 1015 1005 1006
f 1014 1005 1015
f 1016 1006 1007
f 1015 1006 1016
f 1017 1007 1008
f 1016 1007 1017
f 1018 1008 1009
f 1017 1008 1018
f 952 1018 946
f 946 1018 1009
f 1010 953 947
f 953 1010 950
f 1011 954 951
f 954 1011 955
f 955 1011 1012
f 955 1012 956
f 956 1012 1013
f 956 1013 958
f 958 1013 1014
f 958 1014 959
f 1014 1019 959
f 1014 1015 1019
f 1020 1015 1016
f 1019 1015 1020
f 1021 1016 1017
f 1020 1016 1021
f 1022 1017 1018
f 1021 1017 1022
f 960 1022 952
f 952 1022 1018
f 1019 961 959
f 961 1019 962
f 962 1019 1020
f 962 1020 963
f 963 1020 1021
f 963 1021 964
f 964 1021 1022
f 964 1022 960

