# https://github.com/mikedh/trimesh
v 0.00578761 0.05625062 0.02760004
v 0.00526683 0.05608633 0.02803617
v 0.00575990 0.05562154 0.02790319
v 0.00624111 0.05607514 0.02810200
v 0.00090435 0.05722496 0.02760270
v 0.00038357 0.05706067 0.02803883
v 0.00087665 0.05659588 0.02790586
v 0.00135785 0.05704948 0.02810466
v 0.00577574 0.05716902 0.02793182
v 0.00525496 0.05700473 0.02836796
v 0.00622924 0.05699354 0.02843378
v 0.00086478 0.05751428 0.02823764
v 0.00573616 0.05745833 0.02856676
v -0.00008973 0.05322279 0.02714784
v -0.00061051 0.05305850 0.02758398
v -0.00011744 0.05259371 0.02745100
v 0.00036377 0.05304731 0.02764980
v -0.00107588 0.05415238 0.02741380
v -0.00159666 0.05398809 0.02784993
v -0.00110358 0.05352329 0.02771696
v -0.00010160 0.05414119 0.02747962
v 0.00084497 0.05350092 0.02784860
v 0.00087268 0.05413000 0.02754545
v 0.00181925 0.05348973 0.02791443
v 0.00184696 0.05411881 0.02761127
v 0.00279353 0.05347854 0.02798025
v 0.00282123 0.05410762 0.02767710
v 0.00327473 0.05393214 0.02817906
v -0.00206202 0.05508196 0.02767976
v -0.00258280 0.05491767 0.02811589
v -0.00208973 0.05445288 0.02798291
v -0.00108775 0.05507077 0.02774558
v -0.00011347 0.05505959 0.02781141
v 0.00086081 0.05504840 0.02787723
v 0.00183509 0.05503721 0.02794305
v 0.00280936 0.05502602 0.02800888
v 0.00326286 0.05485054 0.02851084
v 0.00573220 0.05499245 0.02820635
v 0.00521142 0.05482816 0.02864249
v 0.00570449 0.05436337 0.02850951
v 0.00618569 0.05481697 0.02870831
v -0.00207389 0.05600036 0.02801154
v -0.00259467 0.05583607 0.02844768
v -0.00109961 0.05598917 0.02807736
v -0.00012534 0.05597798 0.02814319
v 0.00084894 0.05596679 0.02820901
v 0.00182322 0.05595561 0.02827484
v 0.00279749 0.05594442 0.02834066
v 0.00325099 0.05576894 0.02884262
v 0.00474605 0.05592204 0.02847231
v 0.00422527 0.05575775 0.02890845
v 0.00471834 0.05529296 0.02877547
v 0.00617382 0.05573537 0.02904010
v -0.00211347 0.05628967 0.02864648
v -0.00111148 0.05690757 0.02840915
v -0.00163226 0.05674328 0.02884528
v -0.00013721 0.05689638 0.02847497
v 0.00181135 0.05687400 0.02860662
v 0.00278563 0.05686281 0.02867244
v 0.00323912 0.05668733 0.02917441
v 0.00473418 0.05684044 0.02880409
v 0.00421340 0.05667615 0.02924023
v 0.00616196 0.05665377 0.02937188
v -0.00112335 0.05782597 0.02874093
v -0.00164413 0.05766168 0.02917707
v -0.00014907 0.05781478 0.02880675
v 0.00082520 0.05780359 0.02887258
v 0.00179948 0.05779240 0.02893840
v 0.00225298 0.05761692 0.02944036
v 0.00274605 0.05715213 0.02930738
v 0.00469461 0.05712975 0.02943903
v 0.00566888 0.05711856 0.02950486
v -0.00116293 0.05811528 0.02937587
v -0.00018865 0.05810409 0.02944169
v 0.00078563 0.05809290 0.02950752
v 0.00175990 0.05808171 0.02957334
v 0.00082913 0.05195344 0.02781998
v 0.00030835 0.05178915 0.02825612
v 0.00080143 0.05132435 0.02812314
v 0.00128263 0.05177796 0.02832194
v 0.00375197 0.05191987 0.02801745
v 0.00323119 0.05175558 0.02845359
v 0.00372426 0.05129079 0.02832061
v 0.00420546 0.05174439 0.02851941
v -0.00113129 0.05289421 0.02802011
v -0.00165207 0.05272992 0.02845625
v -0.00115900 0.05226513 0.02832327
v -0.00018472 0.05225394 0.02838909
v 0.00081727 0.05287183 0.02815176
v 0.00176384 0.05223156 0.02852074
v 0.00179154 0.05286064 0.02821759
v 0.00273811 0.05222037 0.02858657
v 0.00276582 0.05284946 0.02828341
v 0.00374010 0.05283827 0.02834923
v 0.00468667 0.05219799 0.02871822
v 0.00471437 0.05282708 0.02841506
v 0.00516787 0.05265160 0.02891702
v -0.00211744 0.05382380 0.02828607
v -0.00263822 0.05365951 0.02872221
v -0.00214514 0.05319471 0.02858923
v 0.00372823 0.05375666 0.02868102
v 0.00470251 0.05374548 0.02874684
v 0.00564908 0.05310520 0.02911582
v 0.00567678 0.05373429 0.02881267
v 0.00662335 0.05309401 0.02918165
v 0.00665106 0.05372310 0.02887849
v 0.00710456 0.05354762 0.02938045
v -0.00265008 0.05457790 0.02905399
v 0.00371636 0.05467506 0.02901280
v 0.00469064 0.05466387 0.02907863
v 0.00663919 0.05464149 0.02921027
v 0.00758576 0.05400122 0.02957926
v 0.00761347 0.05463031 0.02927610
v 0.00806697 0.05445483 0.02977806
v -0.00266195 0.05549630 0.02938577
v 0.00370449 0.05559346 0.02934458
v 0.00662732 0.05555989 0.02954206
v 0.00760160 0.05554870 0.02960788
v 0.00805510 0.05537322 0.03010984
v -0.00215304 0.05657899 0.02928142
v -0.00267382 0.05641470 0.02971756
v 0.00369262 0.05651186 0.02967637
v 0.00661545 0.05647829 0.02987384
v 0.00758973 0.05646710 0.02993966
v 0.00804323 0.05629162 0.03044163
v -0.00216491 0.05749739 0.02961320
v -0.00268569 0.05733310 0.03004934
v 0.00270648 0.05744144 0.02994233
v 0.00368075 0.05743025 0.03000815
v 0.00465503 0.05741906 0.03007397
v 0.00562931 0.05740788 0.03013980
v 0.00660358 0.05739669 0.03020562
v 0.00757786 0.05738550 0.03027145
v 0.00852443 0.05674523 0.03064043
v 0.00855214 0.05737431 0.03033727
v 0.00900564 0.05719883 0.03083923
v -0.00220449 0.05778670 0.03024814
v -0.00120250 0.05840459 0.03001081
v -0.00172328 0.05824030 0.03044695
v -0.00022823 0.05839341 0.03007663
v 0.00074605 0.05838222 0.03014246
v 0.00172033 0.05837103 0.03020828
v 0.00269461 0.05835984 0.03027411
v 0.00366888 0.05834865 0.03033993
v 0.00464316 0.05833746 0.03040576
v 0.00561744 0.05832627 0.03047158
v 0.00659172 0.05831508 0.03053741
v 0.00756599 0.05830389 0.03060323
v 0.00801949 0.05812842 0.03110519
v 0.00851256 0.05766362 0.03097221
v -0.00124208 0.05869391 0.03064575
v -0.00026780 0.05868272 0.03071158
v 0.00070648 0.05867153 0.03077740
v 0.00168075 0.05866034 0.03084322
v 0.00265503 0.05864915 0.03090905
v 0.00362931 0.05863796 0.03097487
v 0.00460359 0.05862678 0.03104070
v 0.00560557 0.05924467 0.03080336
v 0.00508479 0.05908038 0.03123950
v 0.00657985 0.05923348 0.03086919
v 0.00703334 0.05905800 0.03137115
v 0.00752642 0.05859321 0.03123817
v 0.00556599 0.05953398 0.03143830
v 0.00654027 0.05952279 0.03150413
v 0.00174800 0.05068408 0.02849212
v 0.00122722 0.05051979 0.02892825
v 0.00172029 0.05005500 0.02879528
v 0.00220150 0.05050860 0.02899408
v -0.00118670 0.05163604 0.02862643
v -0.00170748 0.05147175 0.02906256
v -0.00121441 0.05100696 0.02892958
v -0.00024013 0.05099577 0.02899541
v -0.00021243 0.05162486 0.02869225
v 0.00073415 0.05098458 0.02906123
v 0.00173613 0.05160248 0.02882390
v 0.00268270 0.05096221 0.02919288
v 0.00271041 0.05159129 0.02888973
v 0.00365698 0.05095102 0.02925871
v 0.00463125 0.05093983 0.02932453
v 0.00465896 0.05156891 0.02902137
v 0.00511246 0.05139343 0.02952333
v -0.00171935 0.05239015 0.02939435
v 0.00559366 0.05184704 0.02972214
v 0.00562137 0.05247612 0.02941898
v 0.00656794 0.05183585 0.02978796
v 0.00659565 0.05246493 0.02948481
v 0.00704914 0.05228945 0.02998677
v -0.00270550 0.05331974 0.02966031
v -0.00221242 0.05285494 0.02952733
v 0.00753035 0.05274306 0.03018557
v 0.00755806 0.05337214 0.02988241
v 0.00801155 0.05319666 0.03038437
v -0.00317086 0.05441361 0.02949013
v -0.00369164 0.05424932 0.02992626
v -0.00319857 0.05378453 0.02979328
v 0.00849276 0.05365026 0.03058318
v 0.00852046 0.05427935 0.03028002
v 0.00897396 0.05410387 0.03078198
v -0.00318273 0.05533201 0.02982191
v -0.00370351 0.05516772 0.03025805
v 0.00850859 0.05519774 0.03061180
v 0.00896209 0.05502227 0.03111376
v -0.00319460 0.05625041 0.03015369
v -0.00371538 0.05608612 0.03058983
v 0.00849673 0.05611614 0.03094359
v 0.00944330 0.05547587 0.03131257
v 0.00947100 0.05610495 0.03100941
v 0.00992450 0.05592947 0.03151137
v -0.00323418 0.05653972 0.03078863
v -0.00275297 0.05699333 0.03098744
v 0.00945913 0.05702335 0.03134119
v 0.00991263 0.05684787 0.03184315
v -0.00227177 0.05744693 0.03118624
v -0.00179056 0.05790053 0.03138504
v 0.00847299 0.05795294 0.03160715
v 0.00944727 0.05794175 0.03167298
v 0.00990076 0.05776627 0.03217494
v -0.00130936 0.05835414 0.03158385
v -0.00030738 0.05897203 0.03134652
v -0.00082816 0.05880774 0.03178265
v 0.00066690 0.05896084 0.03141234
v 0.00164118 0.05894966 0.03147816
v 0.00261546 0.05893847 0.03154399
v 0.00358973 0.05892728 0.03160981
v 0.00456401 0.05891609 0.03167564
v 0.00748684 0.05888252 0.03187311
v 0.00846112 0.05887133 0.03193894
v 0.00943540 0.05886015 0.03200476
v 0.00988889 0.05868467 0.03250672
v -0.00034695 0.05926135 0.03198146
v 0.00062733 0.05925016 0.03204728
v 0.00160160 0.05923897 0.03211310
v 0.00257588 0.05922778 0.03217893
v 0.00355016 0.05921659 0.03224475
v 0.00455214 0.05983449 0.03200742
v 0.00403136 0.05967020 0.03244356
v 0.00552642 0.05982330 0.03207324
v 0.00650070 0.05981211 0.03213907
v 0.00747497 0.05980092 0.03220489
v 0.00792847 0.05962544 0.03270685
v 0.00842154 0.05916065 0.03257388
v 0.00939582 0.05914946 0.03263970
v 0.00451257 0.06012380 0.03264236
v 0.00548684 0.06011261 0.03270819
v 0.00646112 0.06010142 0.03277401
v 0.00743540 0.06009023 0.03283983
v -0.00026784 0.05036669 0.02929857
v -0.00078862 0.05020240 0.02973470
v -0.00029554 0.04973761 0.02960172
v 0.00067873 0.04972642 0.02966755
v 0.00070644 0.05035550 0.02936439
v 0.00165301 0.04971523 0.02973337
v 0.00262729 0.04970404 0.02979920
v 0.00265499 0.05033312 0.02949604
v 0.00360156 0.04969285 0.02986502
v 0.00362927 0.05032193 0.02956186
v 0.00457584 0.04968166 0.02993085
v 0.00460355 0.05031074 0.02962769
v 0.00505705 0.05013527 0.03012965
v -0.00177476 0.05113198 0.03000066
v -0.00128169 0.05066719 0.02986768
v 0.00553825 0.05058887 0.03032845
v 0.00556596 0.05121795 0.03002530
v 0.00651253 0.05057768 0.03039428
v 0.00654023 0.05120676 0.03009112
v 0.00699373 0.05103128 0.03059308
v -0.00224013 0.05222586 0.02983048
v -0.00276091 0.05206157 0.03026662
v -0.00226784 0.05159678 0.03013364
v 0.00747494 0.05148489 0.03079189
v 0.00750264 0.05211397 0.03048873
v 0.00795614 0.05193849 0.03099069
v -0.00322628 0.05315545 0.03009644
v -0.00374706 0.05299116 0.03053258
v -0.00325398 0.05252636 0.03039960
v 0.00843734 0.05239210 0.03118949
v 0.00846505 0.05302118 0.03088634
v 0.00891855 0.05284570 0.03138830
v -0.00375893 0.05390955 0.03086436
v 0.00939975 0.05329931 0.03158710
v 0.00942746 0.05392839 0.03128394
v 0.00988096 0.05375291 0.03178590
v -0.00377079 0.05482795 0.03119614
v 0.00941559 0.05484679 0.03161573
v 0.00986909 0.05467131 0.03211769
v -0.00378266 0.05574635 0.03152793
v 0.00985722 0.05558970 0.03244947
v -0.00330146 0.05619995 0.03172673
v -0.00282026 0.05665356 0.03192554
v 0.01033842 0.05604331 0.03264827
v 0.01036613 0.05667239 0.03234512
v 0.01081963 0.05649691 0.03284708
v -0.00231134 0.05773624 0.03182118
v -0.00283212 0.05757195 0.03225732
v 0.01035426 0.05759079 0.03267690
v 0.01080776 0.05741531 0.03317886
v -0.00235092 0.05802556 0.03245612
v -0.00134894 0.05864345 0.03221879
v -0.00186972 0.05847916 0.03265493
v 0.01034239 0.05850919 0.03300868
v 0.01079589 0.05833371 0.03351064
v -0.00138851 0.05893277 0.03285373
v -0.00041423 0.05892158 0.03291955
v 0.00056004 0.05891039 0.03298538
v 0.00156203 0.05952828 0.03274805
v 0.00104125 0.05936399 0.03318418
v 0.00201552 0.05935280 0.03325001
v 0.00250860 0.05888801 0.03311703
v 0.00351058 0.05950591 0.03287969
v 0.00298980 0.05934162 0.03331583
v 0.00838197 0.05944996 0.03320882
v 0.00935625 0.05943877 0.03327464
v 0.00980974 0.05926329 0.03377660
v 0.01030282 0.05879850 0.03364362
v 0.00152245 0.05981760 0.03338299
v 0.00347101 0.05979522 0.03351463
v 0.00447299 0.06041311 0.03327730
v 0.00395221 0.06024882 0.03371344
v 0.00544727 0.06040193 0.03334313
v 0.00642154 0.06039074 0.03340895
v 0.00739582 0.06037955 0.03347477
v 0.00784932 0.06020407 0.03397674
v 0.00834239 0.05973928 0.03384376
v 0.00931667 0.05972809 0.03390958
v 0.00443341 0.06070243 0.03391224
v 0.00540769 0.06069124 0.03397807
v 0.00638197 0.06068005 0.03404389
v 0.00735625 0.06066886 0.03410971
v 0.00065103 0.04909733 0.02997071
v 0.00013025 0.04893304 0.03040684
v 0.00062332 0.04846825 0.03027386
v 0.00159760 0.04845706 0.03033969
v 0.00162530 0.04908614 0.03003653
v 0.00257187 0.04844587 0.03040551
v 0.00259958 0.04907496 0.03010235
v 0.00354615 0.04843468 0.03047134
v 0.00357386 0.04906377 0.03016818
v 0.00402736 0.04888829 0.03067014
v -0.00130940 0.05003811 0.03017084
v -0.00183018 0.04987382 0.03060698
v -0.00133710 0.04940902 0.03047400
v -0.00036283 0.04939784 0.03053982
v 0.00450856 0.04934189 0.03086894
v 0.00548284 0.04933070 0.03093477
v 0.00551054 0.04995979 0.03063161
v 0.00596404 0.04978431 0.03113357
v -0.00184205 0.05079221 0.03093876
v 0.00644525 0.05023791 0.03133238
v 0.00741952 0.05022672 0.03139820
v 0.00744723 0.05085581 0.03109504
v 0.00790073 0.05068033 0.03159700
v -0.00282819 0.05172180 0.03120472
v -0.00233512 0.05125701 0.03107174
v 0.00838193 0.05113393 0.03179581
v 0.00840964 0.05176301 0.03149265
v 0.00886314 0.05158753 0.03199461
v -0.00381434 0.05265139 0.03147068
v -0.00332127 0.05218659 0.03133770
v 0.00934434 0.05204114 0.03219341
v 0.00937205 0.05267022 0.03189026
v 0.00982554 0.05249474 0.03239222
v -0.00382621 0.05356978 0.03180246
v 0.00448879 0.05364456 0.03189292
v 0.00446108 0.05301548 0.03219608
v 0.00396801 0.05348027 0.03232905
v 0.00494229 0.05346908 0.03239488
v 0.00981367 0.05341314 0.03272400
v -0.00383808 0.05448818 0.03213424
v 0.00444922 0.05393388 0.03252786
v 0.00493042 0.05438748 0.03272666
v 0.00545120 0.05455177 0.03229053
v 0.00542349 0.05392269 0.03259368
v 0.00590470 0.05437629 0.03279249
v 0.00980181 0.05433154 0.03305578
v -0.00384995 0.05540658 0.03246603
v 0.00541162 0.05484109 0.03292547
v 0.01028301 0.05478514 0.03325459
v 0.01031072 0.05541423 0.03295143
v 0.01076421 0.05523875 0.03345339
v -0.00334103 0.05648927 0.03236167
v -0.00386181 0.05632498 0.03279781
v 0.00445318 0.05639976 0.03288827
v 0.00442548 0.05577067 0.03319142
v 0.00393240 0.05623547 0.03332440
v 0.00490668 0.05622428 0.03339023
v 0.01075235 0.05615714 0.03378517
v -0.00338061 0.05677858 0.03299661
v -0.00289941 0.05723218 0.03319542
v 0.00441361 0.05668907 0.03352321
v 0.01123355 0.05661075 0.03398398
v 0.01126126 0.05723983 0.03368082
v 0.01171475 0.05706435 0.03418278
v -0.00241820 0.05768579 0.03339422
v -0.00193700 0.05813939 0.03359302
v 0.01124939 0.05815823 0.03401260
v 0.01170288 0.05798275 0.03451456
v -0.00145579 0.05859300 0.03379183
v -0.00045381 0.05921089 0.03355449
v -0.00097459 0.05904660 0.03399063
v 0.00052047 0.05919970 0.03362032
v 0.00246902 0.05917732 0.03375197
v 0.01026324 0.05908781 0.03427856
v 0.01071674 0.05891234 0.03478052
v 0.01120981 0.05844754 0.03464754
v -0.00049339 0.05950021 0.03418943
v 0.00048089 0.05948902 0.03425526
v 0.00145517 0.05947783 0.03432108
v 0.00242945 0.05946664 0.03438691
v 0.00343143 0.06008453 0.03414957
v 0.00291065 0.05992024 0.03458571
v 0.00830282 0.06002859 0.03447870
v 0.00927709 0.06001740 0.03454452
v 0.00973059 0.05984192 0.03504648
v 0.01022367 0.05937713 0.03491350
v 0.00339186 0.06037385 0.03478451
v 0.00436613 0.06036266 0.03485034
v 0.00534041 0.06035147 0.03491616
v 0.00631469 0.06034028 0.03498199
v 0.00728896 0.06032909 0.03504781
v 0.00826324 0.06031790 0.03511364
v 0.00923752 0.06030671 0.03517946
v -0.00039053 0.04876875 0.03084298
v -0.00091131 0.04860446 0.03127912
v -0.00041824 0.04813967 0.03114614
v 0.00055604 0.04812848 0.03121196
v 0.00153031 0.04811729 0.03127779
v 0.00250459 0.04810610 0.03134361
v 0.00347887 0.04809491 0.03140943
v 0.00445315 0.04808372 0.03147526
v 0.00448085 0.04871281 0.03117210
v 0.00493435 0.04853733 0.03167406
v -0.00189746 0.04953405 0.03154507
v -0.00140439 0.04906925 0.03141209
v 0.00541556 0.04899093 0.03187287
v 0.00638983 0.04897974 0.03193869
v 0.00641754 0.04960883 0.03163553
v 0.00687104 0.04943335 0.03213749
v -0.00190933 0.05045245 0.03187686
v 0.00735224 0.04988695 0.03233630
v 0.00832652 0.04987576 0.03240212
v 0.00835422 0.05050485 0.03209896
v 0.00880772 0.05032937 0.03260093
v -0.00289547 0.05138203 0.03214282
v -0.00240240 0.05091724 0.03200984
v 0.00928893 0.05078297 0.03279973
v 0.00931663 0.05141206 0.03249657
v 0.00977013 0.05123658 0.03299853
v -0.00388162 0.05231162 0.03240877
v -0.00338855 0.05184682 0.03227580
v 0.00975826 0.05215497 0.03333032
v -0.00389349 0.05323001 0.03274056
v 0.00442151 0.05330479 0.03283102
v 0.00974639 0.05307337 0.03366210
v -0.00390536 0.05414841 0.03307234
v 0.00538392 0.05421200 0.03322862
v 0.01022760 0.05352698 0.03386090
v 0.01025530 0.05415606 0.03355775
v 0.01070880 0.05398058 0.03405971
v -0.00391723 0.05506681 0.03340412
v 0.01069693 0.05489898 0.03439149
v -0.00392910 0.05598521 0.03373591
v 0.00435820 0.05543090 0.03412952
v 0.00386512 0.05589570 0.03426250
v 0.00483940 0.05588451 0.03432833
v 0.01117814 0.05535258 0.03459029
v 0.01120584 0.05598166 0.03428714
v 0.01165934 0.05580619 0.03478910
v -0.00344789 0.05643881 0.03393471
v -0.00296669 0.05689241 0.03413351
v 0.00145120 0.05701195 0.03396067
v 0.00142349 0.05638287 0.03426383
v 0.00093042 0.05684766 0.03439681
v 0.00190470 0.05683647 0.03446264
v 0.00437403 0.05697838 0.03415815
v 0.00385325 0.05681409 0.03459428
v 0.00532060 0.05633811 0.03452713
v 0.00534831 0.05696719 0.03422397
v 0.00580181 0.05679172 0.03472593
v 0.01164747 0.05672458 0.03512088
v -0.00248548 0.05734602 0.03433232
v -0.00200428 0.05779962 0.03453112
v 0.00141163 0.05730126 0.03459561
v 0.00433446 0.05726770 0.03479309
v 0.00481566 0.05772130 0.03499189
v 0.00533644 0.05788559 0.03455576
v 0.00578994 0.05771011 0.03505772
v 0.01163560 0.05764298 0.03545266
v -0.00152308 0.05825323 0.03472992
v -0.00104187 0.05870683 0.03492873
v 0.00529687 0.05817491 0.03519070
v 0.01114253 0.05810777 0.03558564
v 0.01064946 0.05857257 0.03571862
v -0.00056067 0.05916044 0.03512753
v 0.00041361 0.05914925 0.03519336
v 0.00138789 0.05913806 0.03525918
v 0.00236216 0.05912687 0.03532501
v 0.00284337 0.05958047 0.03552381
v 0.01015638 0.05903736 0.03585160
v 0.00966331 0.05950215 0.03598458
v 0.00332457 0.06003408 0.03572261
v 0.00432656 0.06065197 0.03548528
v 0.00380578 0.06048768 0.03592142
v 0.00530083 0.06064078 0.03555110
v 0.00575433 0.06046530 0.03605307
v 0.00624741 0.06000051 0.03592009
v 0.00722168 0.05998932 0.03598591
v 0.00819596 0.05997813 0.03605173
v 0.00917024 0.05996694 0.03611756
v 0.00428698 0.06094129 0.03612022
v 0.00526126 0.06093010 0.03618604
v 0.00052833 0.04749940 0.03151512
v 0.00000755 0.04733511 0.03195125
v 0.00050062 0.04687031 0.03181828
v 0.00147490 0.04685912 0.03188410
v 0.00150261 0.04748821 0.03158094
v 0.00244918 0.04684794 0.03194992
v 0.00247689 0.04747702 0.03164677
v 0.00293038 0.04730154 0.03214873
v -0.00143209 0.04844017 0.03171525
v -0.00195287 0.04827588 0.03215139
v -0.00145980 0.04781109 0.03201841
v -0.00048552 0.04779990 0.03208423
v 0.00341159 0.04775514 0.03234753
v 0.00438586 0.04774396 0.03241336
v 0.00486707 0.04819756 0.03261216
v -0.00196474 0.04919428 0.03248317
v 0.00534827 0.04865116 0.03281096
v 0.00632255 0.04863997 0.03287679
v 0.00680375 0.04909358 0.03307559
v -0.00197661 0.05011268 0.03281495
v 0.00728496 0.04954718 0.03327440
v 0.00825924 0.04953599 0.03334022
v 0.00874044 0.04998960 0.03353902
v -0.00296276 0.05104226 0.03308091
v -0.00246968 0.05057747 0.03294793
v 0.00632652 0.05110585 0.03323720
v 0.00629881 0.05047677 0.03354035
v 0.00580574 0.05094156 0.03367333
v 0.00678002 0.05093037 0.03373916
v 0.00922164 0.05044320 0.03373783
v 0.00970285 0.05089681 0.03393663
v -0.00342812 0.05213614 0.03291074
v -0.00297463 0.05196066 0.03341270
v 0.00628694 0.05139517 0.03387214
v 0.00969098 0.05181520 0.03426841
v -0.00396077 0.05289024 0.03367866
v -0.00346770 0.05242545 0.03354568
v 0.01017218 0.05226881 0.03446722
v 0.01019989 0.05289789 0.03416406
v 0.01065339 0.05272241 0.03466602
v -0.00397264 0.05380864 0.03401044
v 0.01064152 0.05364081 0.03499780
v -0.00398451 0.05472704 0.03434222
v 0.01062965 0.05455921 0.03532959
v -0.00399638 0.05564544 0.03467400
v 0.00431862 0.05572022 0.03476446
v 0.01111085 0.05501281 0.03552839
v 0.01159206 0.05546642 0.03572719
v -0.00351517 0.05609904 0.03487281
v -0.00303397 0.05655265 0.03507161
v 0.00138392 0.05667218 0.03489877
v 0.00430675 0.05663861 0.03509625
v 0.00528103 0.05662742 0.03516207
v 0.01158019 0.05638481 0.03605898
v -0.00255277 0.05700625 0.03527042
v -0.00207156 0.05745985 0.03546922
v 0.00526916 0.05754582 0.03549385
v 0.01156832 0.05730321 0.03639076
v -0.00159036 0.05791346 0.03566802
v -0.00058837 0.05853135 0.03543069
v -0.00061608 0.05790227 0.03573385
v -0.00013488 0.05835587 0.03593265
v 0.01107525 0.05776800 0.03652374
v 0.01058217 0.05823280 0.03665672
v 0.00034633 0.05880948 0.03613145
v 0.00134831 0.05942737 0.03589412
v 0.00082753 0.05926308 0.03633026
v 0.00180181 0.05925189 0.03639608
v 0.00229488 0.05878710 0.03626310
v 0.00277609 0.05924070 0.03646191
v 0.01008910 0.05869759 0.03678970
v 0.00959603 0.05916238 0.03692268
v 0.00130874 0.05971669 0.03652906
v 0.00325729 0.05969431 0.03666071
v 0.00373850 0.06014791 0.03685951
v 0.00620783 0.06028983 0.03655503
v 0.00666133 0.06011435 0.03705699
v 0.00715440 0.05964955 0.03692401
v 0.00812868 0.05963836 0.03698983
v 0.00910296 0.05962718 0.03705566
v 0.00421970 0.06060152 0.03705832
v 0.00519398 0.06059033 0.03712414
v 0.00616825 0.06057914 0.03718997
v -0.00005973 0.04699534 0.03288935
v 0.00043334 0.04653054 0.03275637
v 0.00140762 0.04651935 0.03282220
v 0.00238190 0.04650817 0.03288802
v 0.00286310 0.04696177 0.03308683
v -0.00202015 0.04793611 0.03308949
v -0.00152708 0.04747132 0.03295651
v -0.00055280 0.04746013 0.03302233
v 0.00334431 0.04741537 0.03328563
v 0.00431858 0.04740419 0.03335145
v 0.00479979 0.04785779 0.03355026
v -0.00203202 0.04885451 0.03342127
v 0.00528099 0.04831139 0.03374906
v 0.00625527 0.04830021 0.03381489
v 0.00673647 0.04875381 0.03401369
v -0.00204389 0.04977291 0.03375305
v 0.00721768 0.04920741 0.03421249
v 0.00819195 0.04919622 0.03427832
v 0.00867316 0.04964983 0.03447712
v -0.00303004 0.05070249 0.03401901
v -0.00253697 0.05023770 0.03388603
v 0.00625924 0.05076608 0.03417529
v 0.00915436 0.05010343 0.03467592
v 0.00963557 0.05055704 0.03487473
v -0.00304191 0.05162089 0.03435079
v 0.00962370 0.05147543 0.03520651
v -0.00350727 0.05271477 0.03418062
v -0.00305378 0.05253929 0.03468258
v 0.01010490 0.05192904 0.03540532
v 0.01058611 0.05238264 0.03560412
v -0.00403992 0.05346887 0.03494854
v -0.00354685 0.05300408 0.03481556
v 0.01057424 0.05330104 0.03593590
v -0.00355872 0.05392248 0.03514734
v -0.00353101 0.05455156 0.03484418
v -0.00307751 0.05437608 0.03534614
v 0.01056237 0.05421944 0.03626768
v -0.00354288 0.05546996 0.03517597
v -0.00308938 0.05529448 0.03567793
v 0.01104357 0.05467304 0.03646649
v 0.01152478 0.05512665 0.03666529
v -0.00310125 0.05621288 0.03600971
v 0.01151291 0.05604504 0.03699707
v -0.00262005 0.05666648 0.03620851
v -0.00161806 0.05728437 0.03597118
v -0.00164577 0.05665529 0.03627434
v -0.00116457 0.05710890 0.03647314
v 0.01150104 0.05696344 0.03732886
v -0.00068336 0.05756250 0.03667194
v -0.00020216 0.05801610 0.03687075
v 0.01100797 0.05742823 0.03746184
v 0.01051489 0.05789303 0.03759482
v 0.00027905 0.05846971 0.03706955
v 0.00076025 0.05892331 0.03726836
v 0.00222760 0.05844733 0.03720120
v 0.00173453 0.05891212 0.03733418
v 0.00270881 0.05890093 0.03740000
v 0.01002182 0.05835782 0.03772780
v 0.00952875 0.05882261 0.03786078
v 0.00124145 0.05937692 0.03746716
v 0.00319001 0.05935454 0.03759881
v 0.00419199 0.05997243 0.03736148
v 0.00416429 0.05934335 0.03766463
v 0.00464549 0.05979695 0.03786344
v 0.00614055 0.05995006 0.03749312
v 0.00611284 0.05932097 0.03779628
v 0.00561977 0.05978577 0.03792926
v 0.00708712 0.05930978 0.03786211
v 0.00806140 0.05929859 0.03792793
v 0.00903567 0.05928741 0.03799375
v 0.00512669 0.06025056 0.03806224
v -0.00012701 0.04665557 0.03382745
v 0.00036606 0.04619077 0.03369447
v 0.00134034 0.04617959 0.03376030
v 0.00231461 0.04616840 0.03382612
v 0.00279582 0.04662200 0.03402492
v -0.00156666 0.04776063 0.03359145
v -0.00111316 0.04758515 0.03409341
v -0.00062009 0.04712036 0.03396043
v 0.00327702 0.04707560 0.03422373
v 0.00427901 0.04769350 0.03398639
v 0.00375823 0.04752921 0.03442253
v -0.00157853 0.04867903 0.03392323
v -0.00112503 0.04850355 0.03442519
v 0.00423943 0.04798281 0.03462133
v 0.00521371 0.04797162 0.03468716
v 0.00621569 0.04858952 0.03444983
v 0.00569491 0.04842523 0.03488596
v -0.00211117 0.04943314 0.03469115
v -0.00161810 0.04896834 0.03455817
v 0.00617612 0.04887883 0.03508477
v 0.00715039 0.04886764 0.03515059
v 0.00812467 0.04885646 0.03521641
v 0.00860588 0.04931006 0.03541522
v -0.00257654 0.05052701 0.03452097
v -0.00212304 0.05035153 0.03502293
v 0.00911479 0.05039275 0.03531086
v 0.00859401 0.05022846 0.03574700
v -0.00310919 0.05128112 0.03528889
v -0.00261612 0.05081633 0.03515591
v 0.00907521 0.05068206 0.03594581
v 0.00955642 0.05113567 0.03614461
v -0.00312106 0.05219952 0.03562067
v 0.01006533 0.05221835 0.03604026
v 0.00954455 0.05205406 0.03647639
v -0.00358642 0.05329339 0.03545050
v -0.00313293 0.05311791 0.03595246
v 0.01005346 0.05313675 0.03637204
v 0.00953268 0.05297246 0.03680817
v -0.00314480 0.05403631 0.03628424
v 0.01001388 0.05342606 0.03700698
v 0.01049509 0.05387967 0.03720578
v -0.00315667 0.05495471 0.03661602
v 0.01097629 0.05433327 0.03740459
v 0.01145749 0.05478688 0.03760339
v -0.00267546 0.05540831 0.03681483
v -0.00264775 0.05603740 0.03651167
v -0.00219426 0.05586192 0.03701363
v 0.01099213 0.05588075 0.03743321
v 0.01096442 0.05525167 0.03773637
v 0.01047135 0.05571646 0.03786935
v -0.00171305 0.05631552 0.03721243
v -0.00123185 0.05676913 0.03741124
v 0.01098026 0.05679915 0.03776499
v 0.01045948 0.05663486 0.03820113
v -0.00075064 0.05722273 0.03761004
v -0.00026944 0.05767633 0.03780885
v 0.00999411 0.05772874 0.03803095
v 0.00996641 0.05709965 0.03833411
v 0.00947333 0.05756445 0.03846709
v 0.00021176 0.05812994 0.03800765
v 0.00069297 0.05858354 0.03820645
v 0.00218803 0.05873664 0.03783614
v 0.00900797 0.05865832 0.03829691
v 0.00898026 0.05802924 0.03860007
v 0.00848719 0.05849403 0.03873305
v 0.00117417 0.05903715 0.03840526
v 0.00214845 0.05902596 0.03847108
v 0.00312273 0.05901477 0.03853691
v 0.00409700 0.05900358 0.03860273
v 0.00509899 0.05962147 0.03836540
v 0.00507128 0.05899239 0.03866855
v 0.00604556 0.05898120 0.03873438
v 0.00701984 0.05897001 0.03880020
v 0.00799411 0.05895882 0.03886603
v 0.00032648 0.04648009 0.03432941
v 0.00077998 0.04630461 0.03483137
v 0.00127306 0.04583982 0.03469839
v 0.00224733 0.04582863 0.03476422
v 0.00272854 0.04628223 0.03496302
v -0.00118044 0.04724538 0.03503151
v -0.00068737 0.04678059 0.03489853
v 0.00028691 0.04676940 0.03496435
v 0.00323745 0.04736492 0.03485867
v 0.00271667 0.04720063 0.03529480
v -0.00119231 0.04816378 0.03536329
v 0.00319787 0.04765423 0.03549361
v 0.00417215 0.04764304 0.03555943
v 0.00517413 0.04826094 0.03532210
v 0.00465335 0.04809665 0.03575824
v -0.00165768 0.04925766 0.03519311
v -0.00120418 0.04908218 0.03569507
v 0.00513456 0.04855025 0.03595704
v 0.00610884 0.04853906 0.03602286
v 0.00708311 0.04852787 0.03608869
v 0.00808510 0.04914577 0.03585136
v 0.00756432 0.04898148 0.03628749
v -0.00219033 0.05001176 0.03596103
v -0.00169725 0.04954697 0.03582805
v 0.00804552 0.04943508 0.03648630
v 0.00852673 0.04988869 0.03668510
v -0.00265569 0.05110564 0.03579085
v -0.00220219 0.05093016 0.03629281
v 0.00903564 0.05097137 0.03658075
v 0.00851486 0.05080708 0.03701688
v -0.00318834 0.05185975 0.03655877
v -0.00269527 0.05139495 0.03642579
v 0.00899606 0.05126069 0.03721569
v 0.00947726 0.05171429 0.03741449
v -0.00320021 0.05277814 0.03689056
v 0.00946540 0.05263269 0.03774627
v -0.00321208 0.05369654 0.03722234
v 0.00997431 0.05371538 0.03764192
v 0.00945353 0.05355109 0.03807806
v 0.01092088 0.05307511 0.03801090
v 0.01042780 0.05353990 0.03814388
v 0.01094858 0.05370419 0.03770774
v 0.01140208 0.05352871 0.03820970
v -0.00273087 0.05415015 0.03742114
v -0.00270317 0.05477923 0.03711798
v -0.00224967 0.05460375 0.03761995
v 0.00993473 0.05400469 0.03827686
v 0.01139021 0.05444711 0.03854149
v -0.00174076 0.05568644 0.03751559
v -0.00176847 0.05505735 0.03781875
v -0.00128726 0.05551096 0.03801755
v 0.00410490 0.05561931 0.03791054
v 0.00407720 0.05499022 0.03821370
v 0.00358413 0.05545501 0.03834668
v 0.00455840 0.05544383 0.03841250
v 0.01089714 0.05491190 0.03867447
v 0.01040407 0.05537669 0.03880745
v -0.00077835 0.05659365 0.03791320
v -0.00080606 0.05596456 0.03821636
v -0.00032485 0.05641817 0.03841516
v 0.00406533 0.05590862 0.03854548
v 0.00993870 0.05647057 0.03863727
v 0.00991099 0.05584149 0.03894043
v 0.00941792 0.05630628 0.03907340
v 0.00018406 0.05750085 0.03831081
v 0.00015635 0.05687177 0.03861396
v 0.00063756 0.05732538 0.03881277
v 0.00895255 0.05740016 0.03890323
v 0.00892485 0.05677107 0.03920638
v 0.00843177 0.05723587 0.03933936
v 0.00114647 0.05840806 0.03870841
v 0.00111876 0.05777898 0.03901157
v 0.00159996 0.05823258 0.03921038
v 0.00796641 0.05832974 0.03916919
v 0.00793870 0.05770066 0.03947234
v 0.00744563 0.05816545 0.03960532
v 0.00208117 0.05868619 0.03940918
v 0.00305545 0.05867500 0.03947500
v 0.00402972 0.05866381 0.03954083
v 0.00500400 0.05865262 0.03960665
v 0.00597828 0.05864143 0.03967248
v 0.00695255 0.05863024 0.03973830
v 0.00123348 0.04612913 0.03533333
v 0.00168698 0.04595365 0.03583529
v 0.00218005 0.04548886 0.03570232
v 0.00266126 0.04594246 0.03590112
v -0.00072694 0.04706990 0.03553347
v -0.00027345 0.04689443 0.03603543
v 0.00021963 0.04642963 0.03590245
v 0.00119390 0.04641844 0.03596827
v 0.00167511 0.04687205 0.03616708
v 0.00219589 0.04703634 0.03573094
v 0.00216818 0.04640725 0.03603410
v -0.00125959 0.04782401 0.03630139
v -0.00076652 0.04735922 0.03616841
v 0.00215631 0.04732565 0.03636588
v 0.00315830 0.04794355 0.03612855
v 0.00263752 0.04777926 0.03656468
v 0.00413257 0.04793236 0.03619437
v -0.00127146 0.04874241 0.03663317
v 0.00311872 0.04823286 0.03676349
v 0.00359993 0.04868646 0.03696229
v 0.00412071 0.04885075 0.03652616
v 0.00509498 0.04883957 0.03659198
v 0.00606926 0.04882838 0.03665780
v 0.00704354 0.04881719 0.03672363
v -0.00173683 0.04983629 0.03646299
v -0.00128333 0.04966081 0.03696495
v 0.00408113 0.04914007 0.03716110
v 0.00456233 0.04959367 0.03735990
v 0.00508311 0.04975796 0.03692376
v 0.00605739 0.04974677 0.03698959
v 0.00651089 0.04957130 0.03749155
v 0.00700396 0.04910650 0.03735857
v 0.00800595 0.04972440 0.03712124
v 0.00748517 0.04956011 0.03755737
v -0.00226948 0.05059039 0.03723091
v -0.00177640 0.05012560 0.03709793
v 0.00504354 0.05004728 0.03755870
v 0.00601782 0.05003609 0.03762453
v 0.00799408 0.05064279 0.03745302
v 0.00747330 0.05047850 0.03788916
v -0.00273484 0.05168427 0.03706073
v -0.00228135 0.05150879 0.03756269
v 0.00798221 0.05156119 0.03778480
v 0.00746143 0.05139690 0.03822094
v 0.00895649 0.05155000 0.03785063
v -0.00274671 0.05260267 0.03739252
v -0.00229321 0.05242719 0.03789448
v 0.00794263 0.05185051 0.03841974
v 0.00842384 0.05230411 0.03861855
v 0.00894462 0.05246840 0.03818241
v -0.00275858 0.05352106 0.03772430
v -0.00230508 0.05334558 0.03822626
v 0.00890504 0.05275771 0.03881735
v 0.00938624 0.05321132 0.03901615
v 0.01088130 0.05336442 0.03864584
v -0.00231695 0.05426398 0.03855804
v 0.00986745 0.05366492 0.03921496
v 0.01086943 0.05428282 0.03897762
v 0.01034865 0.05411853 0.03941376
v -0.00183575 0.05471759 0.03875685
v -0.00083376 0.05533548 0.03851951
v -0.00086147 0.05470640 0.03882267
v 0.00014051 0.05532429 0.03858534
v 0.00011281 0.05469521 0.03888850
v 0.00059401 0.05514881 0.03908730
v 0.00403762 0.05527954 0.03884864
v 0.00988329 0.05521240 0.03924358
v 0.00985558 0.05458332 0.03954674
v 0.00936251 0.05504811 0.03967972
v 0.00012864 0.05624269 0.03891712
v 0.00058214 0.05606721 0.03941908
v 0.00889714 0.05614199 0.03950954
v 0.00886943 0.05551291 0.03981270
v 0.00837636 0.05597770 0.03994568
v 0.00057027 0.05698561 0.03975087
v 0.00791099 0.05707157 0.03977550
v 0.00788329 0.05644249 0.04007866
v 0.00739021 0.05690728 0.04021164
v 0.00105148 0.05743921 0.03994967
v 0.00205346 0.05805710 0.03971234
v 0.00202575 0.05742802 0.04001549
v 0.00250696 0.05788163 0.04021430
v 0.00400202 0.05803473 0.03984399
v 0.00397431 0.05740564 0.04014714
v 0.00348124 0.05787044 0.04028012
v 0.00497629 0.05802354 0.03990981
v 0.00494859 0.05739446 0.04021297
v 0.00542979 0.05784806 0.04041177
v 0.00692485 0.05800116 0.04004146
v 0.00689714 0.05737208 0.04034462
v 0.00640407 0.05783687 0.04047759
v 0.00298816 0.05833523 0.04041310
v 0.00591100 0.05830166 0.04061057
v 0.00214048 0.04577817 0.03633726
v 0.00018005 0.04671895 0.03653739
v 0.00115433 0.04670776 0.03660321
v -0.00080609 0.04764853 0.03680335
v 0.00016818 0.04763734 0.03686917
v 0.00114246 0.04762615 0.03693500
v 0.00211674 0.04761497 0.03700082
v -0.00081796 0.04856693 0.03713513
v 0.00015631 0.04855574 0.03720096
v 0.00113059 0.04854455 0.03726678
v 0.00210487 0.04853336 0.03733260
v 0.00307915 0.04852217 0.03739843
v -0.00082983 0.04948533 0.03746691
v -0.00037633 0.04930985 0.03796888
v 0.00011674 0.04884505 0.03783590
v 0.00109102 0.04883387 0.03790172
v 0.00206529 0.04882268 0.03796754
v 0.00254650 0.04927628 0.03816635
v 0.00306728 0.04944057 0.03773021
v 0.00404155 0.04942938 0.03779604
v 0.00696439 0.04939582 0.03799351
v -0.00181598 0.05041491 0.03773287
v -0.00136248 0.05023943 0.03823483
v -0.00086941 0.04977464 0.03810185
v 0.00302770 0.04972989 0.03836515
v 0.00350891 0.05018349 0.03856396
v 0.00402969 0.05034778 0.03812782
v 0.00500396 0.05033659 0.03819364
v 0.00597824 0.05032540 0.03825947
v 0.00695252 0.05031421 0.03832529
v -0.00234863 0.05116902 0.03850079
v -0.00185555 0.05070423 0.03836781
v 0.00399011 0.05063709 0.03876276
v 0.00496439 0.05062590 0.03882858
v 0.00544559 0.05107951 0.03902739
v 0.00596637 0.05124380 0.03859125
v 0.00694065 0.05123261 0.03865708
v -0.00236050 0.05208742 0.03883258
v 0.00592680 0.05153311 0.03922619
v 0.00690107 0.05152192 0.03929202
v 0.00790306 0.05213982 0.03905468
v 0.00738228 0.05197553 0.03949082
v -0.00187929 0.05254102 0.03903138
v -0.00185159 0.05317010 0.03872822
v -0.00139809 0.05299463 0.03923018
v 0.00786348 0.05242913 0.03968962
v 0.00883776 0.05241794 0.03975545
v 0.00931896 0.05287155 0.03995425
v -0.00186345 0.05408850 0.03906000
v -0.00091688 0.05344823 0.03942899
v -0.00088918 0.05407731 0.03912583
v -0.00043568 0.05390183 0.03962779
v 0.00980017 0.05332515 0.04015305
v 0.01028137 0.05377876 0.04035186
v 0.00004552 0.05435544 0.03982659
v 0.00052673 0.05480904 0.04002540
v 0.00786745 0.05489501 0.04005003
v 0.00783974 0.05426593 0.04035319
v 0.00734667 0.05473072 0.04048617
v 0.00884173 0.05488382 0.04011586
v 0.00881402 0.05425474 0.04041901
v 0.00981600 0.05487263 0.04018168
v 0.00929522 0.05470834 0.04061782
v 0.01026950 0.05469715 0.04068364
v 0.00100793 0.05526265 0.04022420
v 0.00103564 0.05589173 0.03992104
v 0.00148914 0.05571625 0.04042300
v 0.00688130 0.05582460 0.04031599
v 0.00685360 0.05519551 0.04061915
v 0.00636052 0.05566031 0.04075213
v 0.00785558 0.05581341 0.04038181
v 0.00977643 0.05516195 0.04081662
v 0.00102377 0.05681013 0.04025283
v 0.00197034 0.05616985 0.04062181
v 0.00199805 0.05679894 0.04031865
v 0.00297233 0.05678775 0.04038448
v 0.00294462 0.05615867 0.04068763
v 0.00394660 0.05677656 0.04045030
v 0.00391890 0.05614748 0.04075346
v 0.00492088 0.05676537 0.04051612
v 0.00489317 0.05613629 0.04081928
v 0.00589516 0.05675418 0.04058195
v 0.00586745 0.05612510 0.04088511
v 0.00686943 0.05674299 0.04064777
v 0.00296046 0.05770615 0.04071626
v 0.00588329 0.05767258 0.04091373
v 0.00007716 0.04913437 0.03847084
v 0.00105144 0.04912318 0.03853666
v 0.00202572 0.04911199 0.03860249
v -0.00090898 0.05006395 0.03873679
v -0.00045549 0.04988848 0.03923876
v 0.00003759 0.04942368 0.03910578
v 0.00051879 0.04987729 0.03930458
v 0.00103957 0.05004158 0.03886844
v 0.00201385 0.05003039 0.03893427
v 0.00298813 0.05001920 0.03900009
v -0.00189513 0.05099354 0.03900275
v -0.00144163 0.05081806 0.03950471
v -0.00094856 0.05035327 0.03937174
v 0.00100000 0.05033089 0.03950338
v 0.00148120 0.05078449 0.03970219
v 0.00200198 0.05094879 0.03926605
v 0.00297626 0.05093760 0.03933188
v 0.00395053 0.05092641 0.03939770
v 0.00492481 0.05091522 0.03946352
v -0.00190700 0.05191194 0.03933454
v -0.00145350 0.05173646 0.03983650
v 0.00199011 0.05186718 0.03959783
v 0.00146933 0.05170289 0.04003397
v 0.00296439 0.05185599 0.03966366
v 0.00393867 0.05184480 0.03972948
v 0.00491294 0.05183362 0.03979531
v 0.00585951 0.05119334 0.04016429
v 0.00536644 0.05165814 0.04029727
v 0.00683379 0.05118215 0.04023011
v 0.00731500 0.05163576 0.04042892
v -0.00094459 0.05281915 0.03973214
v -0.00097230 0.05219006 0.04003530
v -0.00049109 0.05264367 0.04023410
v 0.00195054 0.05215650 0.04023277
v 0.00292481 0.05214531 0.04029860
v 0.00340602 0.05259891 0.04049740
v 0.00392680 0.05276320 0.04006127
v 0.00438029 0.05258772 0.04056323
v 0.00487337 0.05212293 0.04043025
v 0.00779620 0.05208936 0.04062772
v 0.00879818 0.05270726 0.04039039
v 0.00827740 0.05254297 0.04082652
v 0.00001782 0.05372635 0.04012975
v -0.00000989 0.05309727 0.04043291
v 0.00047132 0.05355088 0.04063171
v 0.00388722 0.05305252 0.04069621
v 0.00875861 0.05299657 0.04102533
v 0.00973288 0.05298538 0.04109115
v 0.01021409 0.05343899 0.04128996
v 0.00098023 0.05463356 0.04052736
v 0.00095252 0.05400448 0.04083052
v 0.00143372 0.05445808 0.04102932
v 0.00682589 0.05456643 0.04092230
v 0.00679818 0.05393735 0.04122546
v 0.00630511 0.05440214 0.04135844
v 0.00780017 0.05455524 0.04098813
v 0.00727939 0.05439095 0.04142427
v 0.00877445 0.05454405 0.04105395
v 0.00972102 0.05390378 0.04142294
v 0.00922794 0.05436857 0.04155591
v 0.00974872 0.05453286 0.04111978
v 0.00194264 0.05554077 0.04092497
v 0.00191493 0.05491169 0.04122812
v 0.00239613 0.05536529 0.04142693
v 0.00583974 0.05549602 0.04118826
v 0.00581204 0.05486693 0.04149142
v 0.00531896 0.05533173 0.04162440
v 0.00776059 0.05484456 0.04162307
v 0.00873487 0.05483337 0.04168889
v 0.00287734 0.05581890 0.04162573
v 0.00385161 0.05580771 0.04169155
v 0.00482589 0.05579652 0.04175738
v -0.00000199 0.04971300 0.03974072
v -0.00098813 0.05064258 0.04000668
v -0.00053464 0.05046710 0.04050864
v -0.00004156 0.05000231 0.04037566
v 0.00093271 0.04999112 0.04044148
v 0.00141392 0.05044473 0.04064029
v -0.00100000 0.05156098 0.04033846
v -0.00054651 0.05138550 0.04084042
v 0.00140205 0.05136312 0.04097207
v 0.00581994 0.05148266 0.04079923
v 0.00679422 0.05147147 0.04086505
v -0.00003759 0.05246819 0.04073607
v -0.00006530 0.05183910 0.04103922
v 0.00093668 0.05245700 0.04080189
v 0.00090898 0.05182792 0.04110505
v 0.00191096 0.05244581 0.04086771
v 0.00288524 0.05243462 0.04093354
v 0.00483379 0.05241224 0.04106519
v 0.00528729 0.05223676 0.04156715
v 0.00578036 0.05177197 0.04143417
v 0.00675464 0.05176078 0.04149999
v 0.00775662 0.05237868 0.04126266
v 0.00723584 0.05221439 0.04169880
v 0.00092481 0.05337540 0.04113367
v 0.00189909 0.05336421 0.04119950
v 0.00287337 0.05335302 0.04126532
v 0.00384765 0.05334183 0.04133115
v 0.00482192 0.05333064 0.04139697
v 0.00527542 0.05315516 0.04189893
v 0.00771705 0.05266799 0.04189760
v 0.00869133 0.05265680 0.04196343
v 0.00969331 0.05327470 0.04172609
v 0.00917253 0.05311041 0.04216223
v 0.00188722 0.05428260 0.04153128
v 0.00286150 0.05427142 0.04159710
v 0.00383578 0.05426023 0.04166293
v 0.00481005 0.05424904 0.04172875
v 0.00575662 0.05360877 0.04209774
v 0.00578433 0.05423785 0.04179458
v 0.00673090 0.05359758 0.04216356
v 0.00773289 0.05421547 0.04192623
v 0.00770518 0.05358639 0.04222938
v 0.00870716 0.05420428 0.04199205
v 0.00867946 0.05357520 0.04229521
v 0.00284963 0.05518981 0.04192889
v 0.00382391 0.05517862 0.04199471
v 0.00479819 0.05516744 0.04206054
v -0.00008114 0.05029162 0.04101060
v 0.00089314 0.05028043 0.04107642
v -0.00009301 0.05121002 0.04134238
v 0.00088127 0.05119883 0.04140820
v 0.00574079 0.05206129 0.04206911
v 0.00619428 0.05188581 0.04257107
v 0.00668736 0.05142101 0.04243809
v 0.00716856 0.05187462 0.04263690
v 0.00572892 0.05297968 0.04240089
v 0.00667549 0.05233941 0.04276987
v 0.00670320 0.05296849 0.04246672
v 0.00767747 0.05295730 0.04253254
v 0.00865175 0.05294612 0.04259837
v 0.00664778 0.05171033 0.04307303
f 3 2 1
f 1 4 3
f 7 6 5
f 5 8 7
f 1 2 9
f 9 2 10
f 4 1 11
f 11 1 9
f 6 12 5
f 5 12 8
f 10 13 9
f 9 13 11
f 16 15 14
f 14 17 16
f 20 19 18
f 20 18 15
f 18 14 15
f 18 21 14
f 17 14 22
f 14 23 22
f 14 21 23
f 25 24 23
f 23 24 22
f 27 26 25
f 25 26 24
f 27 28 26
f 31 30 29
f 31 29 19
f 29 18 19
f 29 32 18
f 18 33 21
f 18 32 33
f 21 34 23
f 21 33 34
f 23 35 25
f 23 34 35
f 25 36 27
f 25 35 36
f 28 27 37
f 37 27 36
f 40 39 38
f 38 41 40
f 29 30 42
f 42 30 43
f 29 44 32
f 29 42 44
f 32 45 33
f 32 44 45
f 33 46 34
f 33 45 46
f 34 47 35
f 34 46 47
f 35 48 36
f 35 47 48
f 37 36 49
f 49 36 48
f 52 51 50
f 52 50 39
f 39 50 38
f 50 2 38
f 2 3 38
f 3 4 38
f 4 41 38
f 4 53 41
f 43 54 42
f 56 55 54
f 55 42 54
f 55 44 42
f 44 57 45
f 44 55 57
f 57 6 7
f 46 57 7
f 45 57 46
f 46 7 8
f 58 46 8
f 47 46 58
f 47 59 48
f 47 58 59
f 49 48 60
f 60 48 59
f 50 51 61
f 61 51 62
f 61 10 2
f 61 2 50
f 11 53 4
f 11 63 53
f 55 56 64
f 64 56 65
f 55 66 57
f 55 64 66
f 67 12 6
f 57 67 6
f 66 67 57
f 58 8 12
f 67 58 12
f 68 58 67
f 70 59 69
f 59 68 69
f 59 58 68
f 59 70 60
f 62 71 61
f 61 71 10
f 71 13 10
f 71 72 13
f 11 13 63
f 63 13 72
f 65 73 64
f 64 73 66
f 66 73 74
f 66 74 67
f 67 74 75
f 67 75 68
f 68 75 76
f 68 76 69
f 79 78 77
f 77 80 79
f 83 82 81
f 81 84 83
f 87 86 85
f 15 16 85
f 16 87 85
f 16 88 87
f 89 77 17
f 77 88 17
f 88 16 17
f 77 78 88
f 80 77 90
f 77 91 90
f 77 89 91
f 93 92 91
f 91 92 90
f 92 93 82
f 93 81 82
f 93 94 81
f 84 81 95
f 81 96 95
f 81 94 96
f 96 97 95
f 100 99 98
f 100 98 86
f 86 98 85
f 98 19 85
f 19 20 85
f 85 20 15
f 22 89 17
f 89 22 24
f 89 24 91
f 91 24 26
f 91 26 93
f 93 26 28
f 101 93 28
f 94 93 101
f 94 102 96
f 94 101 102
f 97 96 103
f 96 104 103
f 96 102 104
f 106 105 104
f 104 105 103
f 106 107 105
f 98 99 31
f 99 30 31
f 99 108 30
f 98 31 19
f 37 109 101
f 37 101 28
f 101 110 102
f 101 109 110
f 110 39 40
f 104 110 40
f 102 110 104
f 104 40 41
f 111 104 41
f 106 104 111
f 107 106 112
f 106 113 112
f 106 111 113
f 113 114 112
f 108 43 30
f 115 43 108
f 49 116 109
f 49 109 37
f 116 51 52
f 110 116 52
f 109 116 110
f 110 52 39
f 53 117 111
f 53 111 41
f 111 118 113
f 111 117 118
f 114 113 119
f 119 113 118
f 54 43 120
f 43 121 120
f 43 115 121
f 120 56 54
f 60 122 116
f 60 116 49
f 122 62 51
f 122 51 116
f 63 123 117
f 63 117 53
f 117 124 118
f 117 123 124
f 119 118 125
f 125 118 124
f 120 121 126
f 126 121 127
f 126 65 56
f 126 56 120
f 69 128 70
f 122 60 70
f 128 122 70
f 129 122 128
f 130 71 62
f 122 130 62
f 129 130 122
f 131 72 71
f 131 71 130
f 123 63 72
f 131 123 72
f 132 123 131
f 123 133 124
f 123 132 133
f 125 124 134
f 124 135 134
f 124 133 135
f 135 136 134
f 127 137 126
f 137 139 138
f 137 138 73
f 126 137 73
f 65 126 73
f 140 74 73
f 140 73 138
f 141 75 74
f 141 74 140
f 142 76 75
f 142 75 141
f 128 69 76
f 142 128 76
f 143 128 142
f 128 144 129
f 128 143 144
f 129 145 130
f 129 144 145
f 130 146 131
f 130 145 146
f 131 147 132
f 131 146 147
f 132 148 133
f 132 147 148
f 150 135 149
f 135 148 149
f 135 133 148
f 135 150 136
f 139 151 138
f 138 151 140
f 140 151 152
f 140 152 141
f 141 152 153
f 141 153 142
f 142 153 154
f 142 154 143
f 143 154 155
f 143 155 144
f 144 155 156
f 144 156 145
f 145 156 157
f 159 158 157
f 158 145 157
f 158 146 145
f 146 160 147
f 146 158 160
f 162 148 161
f 148 160 161
f 148 147 160
f 148 162 149
f 159 163 158
f 158 163 160
f 160 163 164
f 160 164 161
f 167 166 165
f 165 168 167
f 171 170 169
f 173 172 169
f 169 172 171
f 78 79 173
f 79 172 173
f 79 174 172
f 175 165 80
f 165 174 80
f 174 79 80
f 165 166 174
f 168 165 176
f 165 177 176
f 165 175 177
f 82 83 177
f 83 176 177
f 83 178 176
f 180 179 84
f 179 83 84
f 179 178 83
f 180 181 179
f 169 170 87
f 170 86 87
f 170 182 86
f 169 87 88
f 169 88 173
f 173 88 78
f 90 175 80
f 175 90 92
f 175 92 177
f 177 92 82
f 95 180 84
f 184 183 97
f 97 183 95
f 183 181 95
f 181 180 95
f 186 185 184
f 184 185 183
f 186 187 185
f 189 188 100
f 100 188 99
f 100 86 182
f 100 182 189
f 103 184 97
f 184 103 105
f 184 105 186
f 191 190 107
f 107 190 105
f 190 187 105
f 187 186 105
f 191 192 190
f 195 194 193
f 188 195 193
f 108 188 193
f 99 188 108
f 112 191 107
f 197 196 114
f 114 196 112
f 196 192 112
f 192 191 112
f 197 198 196
f 193 194 199
f 199 194 200
f 199 115 108
f 199 108 193
f 119 201 197
f 119 197 114
f 198 197 202
f 202 197 201
f 199 200 203
f 203 200 204
f 203 121 115
f 203 115 199
f 125 205 201
f 125 201 119
f 202 201 206
f 201 207 206
f 201 205 207
f 207 208 206
f 204 209 203
f 121 203 209
f 210 121 209
f 127 121 210
f 134 205 125
f 205 134 136
f 211 205 136
f 207 205 211
f 208 207 212
f 212 207 211
f 210 213 127
f 127 213 137
f 139 137 213
f 139 213 214
f 149 215 150
f 211 136 150
f 215 211 150
f 216 211 215
f 212 211 217
f 217 211 216
f 214 218 139
f 139 218 151
f 218 220 219
f 152 218 219
f 151 218 152
f 221 153 152
f 221 152 219
f 222 154 153
f 222 153 221
f 223 155 154
f 223 154 222
f 224 156 155
f 224 155 223
f 225 157 156
f 225 156 224
f 225 159 157
f 161 226 162
f 215 149 162
f 226 215 162
f 227 215 226
f 215 228 216
f 215 227 228
f 217 216 229
f 229 216 228
f 220 230 219
f 219 230 221
f 221 230 231
f 221 231 222
f 222 231 232
f 222 232 223
f 223 232 233
f 223 233 224
f 224 233 234
f 236 235 234
f 235 224 234
f 235 225 224
f 237 163 159
f 225 237 159
f 235 237 225
f 238 164 163
f 238 163 237
f 226 161 164
f 238 226 164
f 239 226 238
f 241 227 240
f 227 239 240
f 227 226 239
f 227 241 228
f 228 241 242
f 228 242 229
f 236 243 235
f 235 243 237
f 237 243 244
f 237 244 238
f 238 244 245
f 238 245 239
f 239 245 246
f 239 246 240
f 249 248 247
f 251 250 247
f 247 250 249
f 166 167 251
f 167 250 251
f 167 252 250
f 254 253 168
f 253 167 168
f 253 252 167
f 256 255 254
f 254 255 253
f 258 257 256
f 256 257 255
f 258 259 257
f 261 260 171
f 171 260 170
f 172 247 248
f 261 172 248
f 171 172 261
f 247 172 174
f 247 174 251
f 251 174 166
f 176 254 168
f 254 176 178
f 254 178 256
f 256 178 179
f 256 179 258
f 263 262 181
f 181 262 179
f 262 259 179
f 259 258 179
f 265 264 263
f 263 264 262
f 265 266 264
f 269 268 267
f 260 269 267
f 182 260 267
f 170 260 182
f 183 263 181
f 263 183 185
f 263 185 265
f 271 270 187
f 187 270 185
f 270 266 185
f 266 265 185
f 271 272 270
f 275 274 273
f 275 273 268
f 268 273 267
f 273 188 267
f 188 189 267
f 267 189 182
f 190 271 187
f 277 276 192
f 192 276 190
f 276 272 190
f 272 271 190
f 277 278 276
f 273 274 195
f 274 194 195
f 274 279 194
f 273 195 188
f 196 277 192
f 281 280 198
f 198 280 196
f 280 278 196
f 278 277 196
f 281 282 280
f 279 200 194
f 283 200 279
f 202 284 281
f 202 281 198
f 282 281 285
f 285 281 284
f 283 204 200
f 286 204 283
f 206 284 202
f 206 208 284
f 208 285 284
f 208 287 285
f 286 288 204
f 204 288 209
f 210 209 288
f 210 288 289
f 212 291 290
f 287 212 290
f 208 212 287
f 291 292 290
f 213 210 293
f 210 294 293
f 210 289 294
f 293 214 213
f 217 295 291
f 217 291 212
f 292 291 296
f 296 291 295
f 294 297 293
f 297 299 298
f 297 298 218
f 293 297 218
f 214 293 218
f 298 220 218
f 229 300 295
f 229 295 217
f 296 295 301
f 301 295 300
f 299 302 298
f 298 302 220
f 302 230 220
f 302 303 230
f 230 304 231
f 303 304 230
f 304 306 305
f 232 304 305
f 231 304 232
f 232 305 307
f 308 232 307
f 233 232 308
f 308 310 309
f 234 308 309
f 233 308 234
f 309 236 234
f 240 311 241
f 312 242 241
f 312 241 311
f 312 313 242
f 242 313 229
f 313 314 229
f 314 300 229
f 300 314 301
f 306 315 305
f 305 315 307
f 310 316 309
f 316 318 317
f 316 317 243
f 309 316 243
f 236 309 243
f 319 244 243
f 319 243 317
f 320 245 244
f 320 244 319
f 321 246 245
f 321 245 320
f 321 322 246
f 246 322 240
f 322 323 240
f 323 311 240
f 311 323 312
f 312 323 324
f 312 324 313
f 318 325 317
f 317 325 319
f 319 325 326
f 319 326 320
f 320 326 327
f 320 327 321
f 321 327 328
f 321 328 322
f 331 330 329
f 333 332 329
f 329 332 331
f 335 334 333
f 333 334 332
f 337 336 335
f 335 336 334
f 337 338 336
f 341 340 339
f 248 249 339
f 249 341 339
f 249 342 341
f 250 329 330
f 342 250 330
f 249 250 342
f 329 250 252
f 329 252 333
f 333 252 253
f 333 253 335
f 335 253 255
f 335 255 337
f 343 338 337
f 255 343 337
f 257 343 255
f 345 344 259
f 344 257 259
f 344 343 257
f 345 346 344
f 339 340 261
f 340 260 261
f 340 347 260
f 339 261 248
f 262 345 259
f 348 346 345
f 262 348 345
f 264 348 262
f 350 349 266
f 349 264 266
f 349 348 264
f 350 351 349
f 353 352 269
f 269 352 268
f 269 260 347
f 269 347 353
f 270 350 266
f 355 354 272
f 272 354 270
f 354 351 270
f 351 350 270
f 355 356 354
f 358 357 275
f 275 357 274
f 275 268 352
f 275 352 358
f 276 355 272
f 360 359 278
f 278 359 276
f 359 356 276
f 356 355 276
f 360 361 359
f 357 279 274
f 362 279 357
f 365 364 363
f 366 363 364
f 280 360 278
f 280 282 360
f 282 361 360
f 282 367 361
f 362 283 279
f 368 283 362
f 369 365 363
f 372 371 370
f 366 369 363
f 373 371 372
f 285 367 282
f 285 374 367
f 368 286 283
f 375 286 368
f 376 370 371
f 376 371 373
f 287 378 377
f 374 287 377
f 285 287 374
f 378 379 377
f 288 286 380
f 286 381 380
f 286 375 381
f 380 289 288
f 384 383 382
f 385 382 383
f 290 378 287
f 290 292 378
f 292 379 378
f 292 386 379
f 381 387 380
f 289 380 387
f 388 289 387
f 294 289 388
f 389 384 382
f 389 382 385
f 296 391 390
f 386 296 390
f 292 296 386
f 391 392 390
f 388 393 294
f 294 393 297
f 299 297 393
f 299 393 394
f 301 395 391
f 301 391 296
f 392 391 396
f 396 391 395
f 394 397 299
f 299 397 302
f 397 399 398
f 303 397 398
f 302 397 303
f 400 304 303
f 400 303 398
f 400 306 304
f 307 401 308
f 401 310 308
f 313 402 314
f 402 403 314
f 314 403 301
f 403 404 301
f 404 395 301
f 395 404 396
f 399 405 398
f 398 405 400
f 400 405 406
f 400 406 306
f 406 315 306
f 406 407 315
f 307 315 401
f 315 408 401
f 315 407 408
f 408 410 409
f 408 409 316
f 401 408 316
f 310 401 316
f 409 318 316
f 322 411 323
f 412 324 323
f 412 323 411
f 412 413 324
f 324 413 313
f 413 414 313
f 414 402 313
f 402 414 403
f 410 415 409
f 409 415 318
f 415 325 318
f 415 416 325
f 325 417 326
f 416 417 325
f 326 418 327
f 417 418 326
f 327 419 328
f 418 419 327
f 322 328 411
f 328 420 411
f 328 419 420
f 411 420 412
f 412 420 421
f 412 421 413
f 424 423 422
f 330 331 422
f 331 424 422
f 331 425 424
f 426 331 332
f 426 425 331
f 427 332 334
f 427 426 332
f 428 334 336
f 428 427 334
f 430 429 338
f 429 336 338
f 429 428 336
f 430 431 429
f 433 432 341
f 341 432 340
f 342 422 423
f 433 342 423
f 341 342 433
f 422 342 330
f 343 430 338
f 434 431 430
f 343 434 430
f 344 434 343
f 436 435 346
f 435 344 346
f 435 434 344
f 436 437 435
f 432 347 340
f 438 347 432
f 348 436 346
f 439 437 436
f 348 439 436
f 349 439 348
f 441 440 351
f 440 349 351
f 440 439 349
f 441 442 440
f 444 443 353
f 353 443 352
f 353 347 438
f 353 438 444
f 354 441 351
f 446 445 356
f 356 445 354
f 445 442 354
f 442 441 354
f 446 447 445
f 449 448 358
f 358 448 357
f 358 352 443
f 358 443 449
f 359 446 356
f 359 361 446
f 361 447 446
f 361 450 447
f 448 362 357
f 451 362 448
f 365 452 364
f 452 366 364
f 367 450 361
f 367 453 450
f 451 368 362
f 454 368 451
f 369 452 365
f 366 452 369
f 372 370 455
f 455 373 372
f 374 457 456
f 453 374 456
f 367 374 453
f 457 458 456
f 454 375 368
f 459 375 454
f 376 455 370
f 455 376 373
f 377 457 374
f 377 379 457
f 379 458 457
f 379 460 458
f 459 381 375
f 461 381 459
f 463 462 383
f 463 383 384
f 385 383 462
f 385 462 464
f 386 466 465
f 460 386 465
f 379 386 460
f 466 467 465
f 461 468 381
f 381 468 387
f 388 387 468
f 388 468 469
f 472 471 470
f 473 470 471
f 384 389 474
f 475 384 474
f 463 384 475
f 385 464 476
f 474 385 476
f 477 474 476
f 389 385 474
f 478 477 476
f 390 466 386
f 390 392 466
f 392 467 466
f 392 479 467
f 469 480 388
f 388 480 393
f 394 393 480
f 394 480 481
f 482 472 470
f 482 470 473
f 483 475 474
f 485 484 483
f 474 485 483
f 477 485 474
f 477 478 486
f 477 486 485
f 396 479 392
f 396 487 479
f 481 488 394
f 394 488 397
f 399 397 488
f 399 488 489
f 490 484 485
f 490 485 486
f 492 491 404
f 492 404 403
f 396 404 487
f 487 404 491
f 489 493 399
f 399 493 405
f 405 494 406
f 493 494 405
f 406 495 407
f 494 495 406
f 407 496 408
f 495 496 407
f 410 408 496
f 410 496 497
f 499 498 414
f 499 414 413
f 403 414 492
f 492 414 498
f 497 500 410
f 410 500 415
f 500 502 501
f 416 500 501
f 415 500 416
f 503 417 416
f 503 416 501
f 417 503 504
f 505 417 504
f 418 417 505
f 418 506 419
f 505 506 418
f 419 507 420
f 506 507 419
f 420 508 421
f 507 508 420
f 413 421 499
f 499 421 508
f 502 509 501
f 501 509 503
f 503 509 510
f 503 510 504
f 513 512 511
f 515 514 511
f 511 514 513
f 517 516 515
f 515 516 514
f 517 518 516
f 521 520 519
f 423 424 519
f 424 521 519
f 424 522 521
f 425 511 512
f 522 425 512
f 424 425 522
f 511 425 426
f 511 426 515
f 515 426 427
f 515 427 517
f 523 518 517
f 427 523 517
f 428 523 427
f 524 428 429
f 524 523 428
f 429 431 524
f 524 431 525
f 519 520 433
f 520 432 433
f 520 526 432
f 519 433 423
f 527 525 431
f 527 431 434
f 528 434 435
f 528 527 434
f 435 437 528
f 528 437 529
f 526 438 432
f 530 438 526
f 531 529 437
f 531 437 439
f 532 439 440
f 532 531 439
f 440 442 532
f 532 442 533
f 535 534 444
f 444 534 443
f 444 438 530
f 444 530 535
f 538 537 536
f 539 536 537
f 540 533 442
f 540 442 445
f 445 447 540
f 540 447 541
f 542 448 449
f 543 542 449
f 443 543 449
f 534 543 443
f 544 538 536
f 544 536 539
f 450 541 447
f 450 545 541
f 547 546 542
f 546 448 542
f 546 451 448
f 547 542 543
f 453 549 548
f 545 453 548
f 450 453 545
f 549 550 548
f 546 454 451
f 551 454 546
f 456 549 453
f 456 458 549
f 458 550 549
f 458 552 550
f 551 459 454
f 553 459 551
f 460 552 458
f 460 554 552
f 553 461 459
f 555 461 553
f 463 556 462
f 556 464 462
f 557 554 460
f 557 460 465
f 465 467 557
f 557 467 558
f 555 559 461
f 461 559 468
f 469 468 559
f 469 559 560
f 472 561 471
f 561 473 471
f 475 562 556
f 475 556 463
f 563 476 464
f 556 563 464
f 562 563 556
f 563 478 476
f 479 558 467
f 479 564 558
f 560 565 469
f 469 565 480
f 481 480 565
f 481 565 566
f 482 561 472
f 561 482 473
f 483 562 475
f 562 483 484
f 567 562 484
f 563 562 567
f 567 486 478
f 567 478 563
f 487 564 479
f 487 568 564
f 566 569 481
f 481 569 488
f 571 570 489
f 488 571 489
f 569 571 488
f 572 570 571
f 490 567 484
f 567 490 486
f 574 573 491
f 574 491 492
f 487 491 568
f 568 491 573
f 570 493 489
f 572 575 570
f 575 493 570
f 575 494 493
f 575 577 576
f 495 575 576
f 494 575 495
f 495 576 578
f 579 495 578
f 496 495 579
f 497 496 579
f 497 579 580
f 582 581 498
f 582 498 499
f 492 498 574
f 574 498 581
f 577 583 576
f 576 583 578
f 580 584 497
f 497 584 500
f 502 500 584
f 502 584 585
f 504 586 505
f 505 586 587
f 588 505 587
f 506 505 588
f 506 589 507
f 588 589 506
f 507 590 508
f 589 590 507
f 499 508 582
f 582 508 590
f 585 591 502
f 502 591 509
f 509 592 510
f 591 592 509
f 504 510 586
f 510 593 586
f 510 592 593
f 586 593 587
f 595 594 513
f 513 594 512
f 596 513 514
f 596 595 513
f 597 514 516
f 597 596 514
f 516 518 597
f 597 518 598
f 600 599 521
f 521 599 520
f 601 521 522
f 601 600 521
f 522 512 594
f 522 594 601
f 602 598 518
f 602 518 523
f 603 523 524
f 603 602 523
f 524 525 603
f 603 525 604
f 599 526 520
f 605 526 599
f 606 604 525
f 606 525 527
f 607 527 528
f 607 606 527
f 528 529 607
f 607 529 608
f 605 530 526
f 609 530 605
f 610 608 529
f 610 529 531
f 611 531 532
f 611 610 531
f 532 533 611
f 611 533 612
f 614 613 535
f 535 613 534
f 535 530 609
f 535 609 614
f 538 615 537
f 615 539 537
f 616 612 533
f 616 533 540
f 540 541 616
f 616 541 617
f 613 543 534
f 618 543 613
f 544 615 538
f 615 544 539
f 545 617 541
f 545 619 617
f 620 546 547
f 621 620 547
f 543 621 547
f 618 621 543
f 622 619 545
f 622 545 548
f 548 550 622
f 622 550 623
f 625 624 620
f 624 546 620
f 624 551 546
f 625 620 621
f 552 623 550
f 552 626 623
f 628 553 627
f 553 624 627
f 553 551 624
f 629 628 627
f 554 626 552
f 554 630 626
f 631 555 628
f 628 555 553
f 628 629 632
f 628 632 631
f 633 630 554
f 633 554 557
f 557 558 633
f 633 558 634
f 631 559 555
f 560 559 631
f 632 560 631
f 635 560 632
f 564 634 558
f 564 636 634
f 635 637 560
f 560 637 565
f 639 638 566
f 565 639 566
f 637 639 565
f 640 638 639
f 568 636 564
f 568 641 636
f 638 569 566
f 640 642 638
f 642 569 638
f 642 571 569
f 572 571 642
f 572 642 643
f 645 644 573
f 645 573 574
f 568 573 641
f 641 573 644
f 643 646 572
f 572 646 575
f 577 575 646
f 577 646 647
f 649 648 579
f 649 579 578
f 580 579 648
f 580 648 650
f 652 651 581
f 652 581 582
f 574 581 645
f 645 581 651
f 647 653 577
f 577 653 583
f 578 583 649
f 649 583 653
f 650 654 580
f 580 654 584
f 656 655 585
f 584 656 585
f 654 656 584
f 657 655 656
f 660 659 658
f 588 587 658
f 659 588 658
f 661 588 659
f 588 662 589
f 661 662 588
f 589 663 590
f 662 663 589
f 582 590 652
f 652 590 663
f 655 591 585
f 657 664 655
f 664 591 655
f 664 592 591
f 658 593 660
f 593 664 660
f 593 592 664
f 593 658 587
f 666 665 595
f 595 665 594
f 667 595 596
f 667 666 595
f 668 596 597
f 668 667 596
f 597 598 668
f 668 598 669
f 670 599 600
f 670 600 671
f 600 672 671
f 600 601 672
f 601 594 665
f 601 665 672
f 673 669 598
f 673 598 602
f 675 673 674
f 673 603 674
f 673 602 603
f 604 674 603
f 676 605 670
f 670 605 599
f 670 671 677
f 670 677 676
f 678 675 674
f 678 674 604
f 606 678 604
f 679 678 606
f 681 679 680
f 679 607 680
f 679 606 607
f 608 680 607
f 683 682 676
f 682 605 676
f 682 609 605
f 683 676 677
f 684 681 680
f 684 680 608
f 610 684 608
f 685 684 610
f 686 610 611
f 686 685 610
f 611 612 686
f 686 612 687
f 688 613 614
f 689 688 614
f 609 689 614
f 682 689 609
f 612 616 690
f 691 612 690
f 687 612 691
f 617 690 616
f 693 692 688
f 692 613 688
f 692 618 613
f 693 688 689
f 694 691 690
f 690 617 694
f 617 695 694
f 617 619 695
f 692 621 618
f 696 621 692
f 619 622 697
f 698 619 697
f 695 619 698
f 623 697 622
f 699 624 625
f 700 699 625
f 621 700 625
f 696 700 621
f 698 697 701
f 698 701 702
f 626 701 623
f 623 701 697
f 699 627 624
f 629 627 699
f 700 629 699
f 703 629 700
f 704 702 701
f 701 626 704
f 626 705 704
f 626 630 705
f 703 632 629
f 706 632 703
f 707 705 630
f 707 630 633
f 633 634 707
f 707 634 708
f 710 635 709
f 635 706 709
f 635 632 706
f 711 710 709
f 714 713 712
f 713 708 712
f 708 636 712
f 708 634 636
f 710 637 635
f 711 715 710
f 715 637 710
f 715 639 637
f 640 639 715
f 640 715 716
f 714 712 717
f 714 717 718
f 641 717 636
f 636 717 712
f 716 719 640
f 640 719 642
f 643 642 719
f 643 719 720
f 723 722 721
f 721 722 718
f 721 718 717
f 645 721 717
f 644 645 717
f 644 717 641
f 720 724 643
f 643 724 646
f 647 646 724
f 647 724 725
f 649 726 648
f 726 650 648
f 729 728 727
f 727 728 723
f 727 723 721
f 652 727 721
f 651 652 721
f 651 721 645
f 725 730 647
f 647 730 653
f 649 653 726
f 653 731 726
f 653 730 731
f 726 731 650
f 731 654 650
f 731 732 654
f 654 733 656
f 732 733 654
f 735 734 657
f 656 735 657
f 733 735 656
f 659 660 734
f 735 659 734
f 736 659 735
f 659 737 661
f 736 737 659
f 661 738 662
f 737 738 661
f 727 663 729
f 663 738 729
f 663 662 738
f 663 727 652
f 734 664 657
f 664 734 660
f 739 665 666
f 739 666 740
f 666 741 740
f 666 667 741
f 742 667 668
f 742 741 667
f 668 669 742
f 742 669 743
f 745 744 672
f 672 744 671
f 672 665 739
f 746 672 739
f 745 672 746
f 746 739 740
f 669 673 747
f 748 669 747
f 743 669 748
f 675 747 673
f 744 677 671
f 749 677 744
f 750 748 747
f 750 747 675
f 678 750 675
f 751 750 678
f 753 751 752
f 751 679 752
f 751 678 679
f 681 752 679
f 754 682 683
f 755 754 683
f 677 755 683
f 749 755 677
f 756 753 752
f 756 752 681
f 684 756 681
f 757 756 684
f 758 684 685
f 758 757 684
f 760 758 759
f 758 686 759
f 758 685 686
f 687 759 686
f 762 761 754
f 761 682 754
f 761 689 682
f 762 754 755
f 763 760 759
f 759 687 763
f 687 764 763
f 687 691 764
f 765 692 693
f 766 765 693
f 689 766 693
f 761 766 689
f 691 694 767
f 768 691 767
f 764 691 768
f 695 767 694
f 770 769 765
f 769 692 765
f 769 696 692
f 770 765 766
f 771 768 767
f 767 695 771
f 695 772 771
f 695 698 772
f 769 700 696
f 773 700 769
f 702 772 698
f 702 774 772
f 773 703 700
f 775 703 773
f 702 704 776
f 777 702 776
f 774 702 777
f 779 776 778
f 776 704 778
f 705 780 778
f 705 778 704
f 780 781 778
f 783 706 782
f 706 775 782
f 706 703 775
f 784 783 782
f 785 777 776
f 705 707 780
f 776 779 785
f 707 708 780
f 708 781 780
f 708 786 781
f 783 709 706
f 788 787 711
f 788 711 709
f 784 788 709
f 783 784 709
f 789 787 788
f 792 791 790
f 793 790 791
f 795 794 713
f 795 713 714
f 708 713 786
f 786 713 794
f 787 715 711
f 797 796 716
f 797 716 715
f 789 797 715
f 787 789 715
f 798 796 797
f 799 792 790
f 799 790 793
f 802 801 800
f 801 795 800
f 795 718 800
f 795 714 718
f 796 719 716
f 804 803 720
f 804 720 719
f 798 804 719
f 796 798 719
f 805 803 804
f 808 807 806
f 806 807 802
f 806 802 800
f 723 806 800
f 722 723 800
f 722 800 718
f 803 724 720
f 810 809 725
f 810 725 724
f 805 810 724
f 803 805 724
f 811 809 810
f 814 813 812
f 812 813 808
f 812 808 806
f 729 812 806
f 728 729 806
f 728 806 723
f 809 730 725
f 811 815 809
f 815 730 809
f 815 731 730
f 731 816 732
f 815 816 731
f 732 817 733
f 816 817 732
f 733 818 735
f 817 818 733
f 735 819 736
f 818 819 735
f 736 820 737
f 819 820 736
f 812 738 814
f 738 820 814
f 738 737 820
f 738 812 729
f 821 740 741
f 821 741 822
f 741 823 822
f 741 742 823
f 742 743 823
f 823 743 824
f 825 744 745
f 825 745 826
f 745 827 826
f 745 746 827
f 746 740 821
f 828 746 821
f 827 746 828
f 831 830 829
f 822 828 821
f 831 824 830
f 824 748 830
f 824 743 748
f 833 832 825
f 832 744 825
f 832 749 744
f 833 825 826
f 834 829 830
f 836 834 835
f 835 834 750
f 834 830 750
f 830 748 750
f 751 837 750
f 750 837 835
f 753 837 751
f 832 755 749
f 838 755 832
f 839 836 835
f 841 840 839
f 835 841 839
f 837 841 835
f 756 842 753
f 842 837 753
f 842 841 837
f 757 843 756
f 756 843 842
f 758 844 757
f 757 844 843
f 760 844 758
f 845 761 762
f 846 845 762
f 755 846 762
f 838 846 755
f 847 840 841
f 849 848 847
f 841 849 847
f 842 849 841
f 850 842 843
f 849 842 850
f 844 852 851
f 850 844 851
f 843 844 850
f 854 852 853
f 853 852 763
f 852 844 763
f 844 760 763
f 764 853 763
f 856 855 845
f 855 761 845
f 855 766 761
f 856 845 846
f 857 848 849
f 857 849 850
f 857 850 858
f 858 850 851
f 854 853 859
f 854 859 860
f 768 859 764
f 764 859 853
f 861 769 770
f 862 861 770
f 766 862 770
f 855 862 766
f 860 859 863
f 860 863 864
f 771 865 768
f 865 859 768
f 865 863 859
f 772 865 771
f 866 773 861
f 861 773 769
f 861 862 867
f 861 867 866
f 868 864 863
f 870 869 868
f 863 870 868
f 865 870 863
f 774 870 772
f 772 870 865
f 871 775 866
f 866 775 773
f 866 867 872
f 866 872 871
f 873 869 870
f 870 774 873
f 774 874 873
f 774 777 874
f 875 779 778
f 781 875 778
f 871 782 775
f 784 782 871
f 872 784 871
f 876 784 872
f 877 874 777
f 877 777 785
f 877 785 779
f 878 877 779
f 875 878 779
f 877 878 879
f 786 878 781
f 781 878 875
f 876 880 784
f 784 880 788
f 882 881 789
f 788 882 789
f 880 882 788
f 884 883 881
f 884 881 882
f 885 883 884
f 792 886 791
f 886 793 791
f 889 888 887
f 887 888 879
f 887 879 878
f 795 887 878
f 794 795 878
f 794 878 786
f 881 797 789
f 797 881 798
f 881 890 798
f 881 883 890
f 883 885 891
f 883 891 890
f 799 886 792
f 886 799 793
f 894 893 892
f 892 893 889
f 892 889 887
f 802 892 887
f 801 802 887
f 801 887 795
f 890 804 798
f 805 804 890
f 891 805 890
f 895 805 891
f 898 897 896
f 896 897 894
f 896 894 892
f 808 896 892
f 807 808 892
f 807 892 802
f 895 899 805
f 805 899 810
f 901 900 811
f 810 901 811
f 899 901 810
f 902 900 901
f 905 904 903
f 907 906 903
f 907 903 904
f 908 906 907
f 911 910 909
f 909 910 898
f 909 898 896
f 814 909 896
f 813 814 896
f 813 896 808
f 900 815 811
f 902 912 900
f 912 815 900
f 912 816 815
f 903 817 905
f 817 912 905
f 817 816 912
f 817 903 818
f 818 903 906
f 908 913 906
f 913 818 906
f 913 819 818
f 909 820 911
f 820 913 911
f 820 819 913
f 820 909 814
f 914 822 823
f 824 914 823
f 915 826 827
f 828 916 827
f 827 916 915
f 828 822 916
f 822 914 916
f 831 829 916
f 831 916 914
f 831 914 824
f 917 832 833
f 826 915 833
f 915 917 833
f 915 918 917
f 919 915 916
f 918 915 919
f 834 920 829
f 920 916 829
f 920 919 916
f 836 920 834
f 921 838 917
f 917 838 832
f 922 917 918
f 921 917 922
f 923 918 919
f 922 918 923
f 924 919 920
f 923 919 924
f 839 925 836
f 925 920 836
f 925 924 920
f 840 925 839
f 926 846 921
f 921 846 838
f 922 928 927
f 926 922 927
f 921 922 926
f 928 922 923
f 928 923 929
f 929 923 924
f 929 924 930
f 932 931 930
f 924 932 930
f 925 932 924
f 847 933 840
f 933 925 840
f 933 932 925
f 848 933 847
f 934 851 852
f 854 934 852
f 935 855 856
f 936 935 856
f 936 856 846
f 937 936 846
f 926 937 846
f 937 926 927
f 938 931 932
f 940 939 938
f 932 940 938
f 933 940 932
f 857 941 848
f 941 933 848
f 941 940 933
f 858 942 857
f 857 942 941
f 851 934 858
f 934 942 858
f 934 943 942
f 860 943 854
f 854 943 934
f 945 944 935
f 944 855 935
f 944 862 855
f 945 935 936
f 946 939 940
f 946 940 941
f 946 941 947
f 949 948 947
f 941 949 947
f 942 949 941
f 950 942 943
f 949 942 950
f 864 950 860
f 860 950 943
f 944 867 862
f 951 867 944
f 952 948 949
f 952 949 950
f 952 950 953
f 955 953 954
f 954 953 868
f 953 950 868
f 950 864 868
f 869 954 868
f 957 872 956
f 872 951 956
f 872 867 951
f 958 957 956
f 959 955 954
f 959 954 869
f 873 959 869
f 960 959 873
f 873 874 960
f 960 874 961
f 962 876 957
f 957 876 872
f 957 958 963
f 964 957 963
f 962 957 964
f 965 964 963
f 966 961 874
f 966 874 877
f 877 879 966
f 966 879 967
f 962 880 876
f 880 962 882
f 882 962 964
f 965 968 964
f 968 882 964
f 968 884 882
f 885 884 968
f 885 968 969
f 972 971 970
f 974 973 970
f 974 970 971
f 975 888 889
f 976 973 974
f 975 977 888
f 977 879 888
f 977 967 879
f 979 891 978
f 891 969 978
f 891 885 969
f 980 979 978
f 983 982 981
f 981 982 972
f 970 981 972
f 984 981 970
f 894 984 893
f 984 973 893
f 984 970 973
f 973 976 893
f 976 985 893
f 975 889 893
f 975 893 985
f 975 985 977
f 986 895 979
f 979 895 891
f 979 980 987
f 988 979 987
f 986 979 988
f 990 989 988
f 990 988 987
f 992 991 989
f 992 989 990
f 994 993 991
f 994 991 992
f 996 995 993
f 996 993 994
f 995 996 983
f 981 995 983
f 997 995 981
f 898 997 897
f 997 984 897
f 997 981 984
f 897 984 894
f 986 899 895
f 899 986 901
f 901 986 988
f 901 988 902
f 988 998 902
f 988 989 998
f 905 998 904
f 998 991 904
f 998 989 991
f 904 991 907
f 907 991 993
f 907 993 908
f 993 999 908
f 993 995 999
f 911 999 910
f 999 997 910
f 999 995 997
f 910 997 898
f 998 912 902
f 912 998 905
f 999 913 908
f 913 999 911
f 1000 927 928
f 929 1001 928
f 928 1001 1000
f 930 1002 929
f 929 1002 1001
f 931 1002 930
f 1003 936 937
f 1004 1003 937
f 1004 937 927
f 1005 1004 927
f 1000 1005 927
f 1007 1006 1005
f 1000 1007 1005
f 1001 1007 1000
f 1008 1001 1002
f 1007 1001 1008
f 938 1009 931
f 1009 1002 931
f 1009 1008 1002
f 939 1009 938
f 1010 944 945
f 1011 1010 945
f 1011 945 936
f 1012 1011 936
f 1003 1012 936
f 1012 1003 1004
f 1013 1006 1007
f 1015 1014 1013
f 1007 1015 1013
f 1008 1015 1007
f 1016 1008 1009
f 1015 1008 1016
f 946 1017 939
f 1017 1009 939
f 1017 1016 1009
f 947 1018 946
f 946 1018 1017
f 948 1018 947
f 1019 951 1010
f 1010 951 944
f 1010 1011 1020
f 1010 1020 1019
f 1014 1015 1021
f 1014 1021 1022
f 1023 1015 1016
f 1021 1015 1023
f 1024 1016 1017
f 1023 1016 1024
f 1025 1017 1018
f 1024 1017 1025
f 1025 1018 948
f 1026 1025 948
f 952 1026 948
f 1027 1025 1026
f 1028 952 953
f 1028 1026 952
f 953 955 1028
f 1028 955 1029
f 1019 956 951
f 1031 1030 958
f 1031 958 956
f 1020 1031 956
f 1019 1020 956
f 1032 1030 1031
f 1033 1022 1021
f 1033 1021 1023
f 1033 1023 1034
f 1036 1035 1034
f 1023 1036 1034
f 1024 1036 1023
f 1025 1038 1037
f 1036 1025 1037
f 1024 1025 1036
f 1038 1025 1027
f 1039 1029 955
f 1039 955 959
f 1041 1039 1040
f 1039 960 1040
f 1039 959 960
f 961 1040 960
f 1030 963 958
f 1043 1042 965
f 1043 965 963
f 1032 1043 963
f 1030 1032 963
f 1044 1042 1043
f 1045 1035 1036
f 1045 1036 1037
f 1046 1041 1040
f 1046 1040 961
f 966 1046 961
f 1047 1046 966
f 966 967 1047
f 1047 967 1048
f 1042 968 965
f 1050 1049 969
f 1050 969 968
f 1044 1050 968
f 1042 1044 968
f 1051 1049 1050
f 1054 1053 1052
f 1055 971 972
f 1056 1052 1053
f 1057 974 971
f 1057 971 1055
f 976 974 1057
f 1060 1059 1058
f 1058 1048 1060
f 1048 977 1060
f 1048 967 977
f 1049 978 969
f 1062 1061 980
f 1062 980 978
f 1051 1062 978
f 1049 1051 978
f 1063 1061 1062
f 1066 1065 1064
f 1064 1065 1054
f 1064 1054 1052
f 983 1064 1052
f 982 983 1052
f 1052 1056 982
f 1056 1067 982
f 1055 972 982
f 1055 982 1067
f 1055 1067 1057
f 1057 1067 1068
f 1059 1060 1068
f 1060 985 1068
f 976 1057 1068
f 976 1068 985
f 985 1060 977
f 1061 987 980
f 1063 1069 1061
f 1069 987 1061
f 1069 990 987
f 990 1070 992
f 1069 1070 990
f 992 1071 994
f 1070 1071 992
f 1064 996 1066
f 996 1071 1066
f 996 994 1071
f 996 1064 983
f 1072 1004 1005
f 1006 1072 1005
f 1073 1011 1012
f 1074 1073 1012
f 1074 1012 1004
f 1075 1074 1004
f 1072 1075 1004
f 1075 1072 1006
f 1013 1075 1006
f 1076 1075 1013
f 1013 1014 1076
f 1076 1014 1077
f 1078 1020 1073
f 1073 1020 1011
f 1073 1074 1079
f 1073 1079 1078
f 1022 1077 1014
f 1022 1080 1077
f 1081 1027 1026
f 1028 1082 1026
f 1026 1082 1081
f 1029 1082 1028
f 1078 1031 1020
f 1084 1083 1032
f 1084 1032 1031
f 1079 1084 1031
f 1078 1079 1031
f 1086 1085 1083
f 1086 1083 1084
f 1087 1085 1033
f 1085 1080 1033
f 1080 1022 1033
f 1080 1085 1086
f 1034 1088 1033
f 1033 1088 1087
f 1035 1088 1034
f 1089 1037 1038
f 1090 1089 1038
f 1090 1038 1027
f 1091 1090 1027
f 1081 1091 1027
f 1091 1081 1082
f 1091 1082 1092
f 1094 1092 1093
f 1093 1092 1039
f 1092 1082 1039
f 1082 1029 1039
f 1041 1093 1039
f 1083 1043 1032
f 1043 1083 1044
f 1083 1095 1044
f 1083 1085 1095
f 1096 1085 1087
f 1095 1085 1096
f 1097 1087 1088
f 1096 1087 1097
f 1045 1098 1035
f 1098 1088 1035
f 1098 1097 1088
f 1037 1089 1045
f 1089 1098 1045
f 1089 1099 1098
f 1089 1090 1100
f 1089 1100 1099
f 1101 1094 1093
f 1101 1093 1041
f 1046 1101 1041
f 1102 1101 1046
f 1104 1102 1103
f 1102 1047 1103
f 1102 1046 1047
f 1048 1103 1047
f 1095 1050 1044
f 1050 1095 1051
f 1095 1105 1051
f 1095 1096 1105
f 1106 1096 1097
f 1105 1096 1106
f 1107 1097 1098
f 1106 1097 1107
f 1108 1098 1099
f 1107 1098 1108
f 1099 1100 1109
f 1110 1099 1109
f 1108 1099 1110
f 1053 1054 1110
f 1109 1053 1110
f 1111 1053 1109
f 1113 1112 1056
f 1053 1113 1056
f 1111 1113 1053
f 1115 1114 1112
f 1115 1112 1113
f 1114 1115 1104
f 1114 1104 1103
f 1059 1114 1103
f 1058 1059 1103
f 1058 1103 1048
f 1105 1062 1051
f 1062 1105 1063
f 1105 1116 1063
f 1105 1106 1116
f 1117 1106 1107
f 1116 1106 1117
f 1118 1107 1108
f 1117 1107 1118
f 1066 1118 1065
f 1118 1110 1065
f 1118 1108 1110
f 1065 1110 1054
f 1112 1067 1056
f 1067 1112 1068
f 1068 1112 1114
f 1068 1114 1059
f 1116 1069 1063
f 1069 1116 1070
f 1070 1116 1117
f 1070 1117 1071
f 1071 1117 1118
f 1071 1118 1066
f 1119 1074 1075
f 1076 1120 1075
f 1075 1120 1119
f 1077 1120 1076
f 1121 1079 1119
f 1119 1079 1074
f 1122 1119 1120
f 1121 1119 1122
f 1080 1122 1077
f 1077 1122 1120
f 1121 1084 1079
f 1084 1121 1086
f 1086 1121 1122
f 1086 1122 1080
f 1123 1090 1091
f 1123 1091 1124
f 1091 1125 1124
f 1091 1092 1125
f 1092 1094 1125
f 1125 1094 1126
f 1127 1100 1123
f 1123 1100 1090
f 1123 1124 1128
f 1129 1123 1128
f 1127 1123 1129
f 1130 1129 1101
f 1129 1126 1101
f 1126 1094 1101
f 1126 1129 1128
f 1102 1131 1101
f 1101 1131 1130
f 1104 1131 1102
f 1127 1109 1100
f 1109 1127 1111
f 1111 1127 1129
f 1111 1129 1113
f 1113 1129 1130
f 1113 1130 1115
f 1115 1130 1131
f 1115 1131 1104
f 1132 1124 1125
f 1126 1132 1125
f 1132 1128 1124
f 1128 1132 1126

