# https://github.com/mikedh/trimesh
v 5.78760894 56.25061991 27.60003705
v 5.26682928 56.08632955 28.03617370
v 5.75990240 55.62153651 27.90319441
v 6.24110659 56.07514073 28.10199810
v 0.90435346 57.22496126 27.60269805
v 0.38357380 57.06067090 28.03883470
v 0.87664692 56.59587787 27.90585541
v 1.35785111 57.04948208 28.10465909
v 5.77574000 57.16901715 27.93182002
v 5.25496035 57.00472680 28.36795667
v 6.22923766 56.99353798 28.43378107
v 0.86477799 57.51427511 28.23763838
v 5.73616453 57.45833101 28.56676036
v -0.08973013 53.22279155 27.14783947
v -0.61050979 53.05850119 27.58397612
v -0.11743667 52.59370816 27.45099683
v 0.36376752 53.04731237 27.64980052
v -1.07587637 54.15237762 27.41379805
v -1.59665603 53.98808726 27.84993470
v -1.10358291 53.52329423 27.71695541
v -0.10159907 54.14118880 27.47962244
v 0.84497171 53.50091659 27.84860420
v 0.87267824 54.12999998 27.54544683
v 1.81924902 53.48972777 27.91442859
v 1.84695555 54.11881116 27.61127123
v 2.79352633 53.47853894 27.98025299
v 2.82123286 54.10762234 27.67709562
v 3.27473051 53.93214316 28.17905667
v -2.06202262 55.08196369 27.67975662
v -2.58280227 54.91767333 28.11589327
v -2.08972915 54.45288030 27.98291399
v -1.08774531 55.07077487 27.74558102
v -0.11346800 55.05958605 27.81140541
v 0.86080931 55.04839723 27.87722981
v 1.83508662 55.03720841 27.94305420
v 2.80936393 55.02601958 28.00887859
v 3.26286158 54.85054041 28.51083964
v 5.73219586 54.99245312 28.20635178
v 5.21141620 54.82816276 28.64248843
v 5.70448932 54.36336973 28.50950914
v 6.18569351 54.81697394 28.70831282
v -2.07389155 56.00036094 28.01153959
v -2.59467121 55.83607058 28.44767624
v -1.09961424 55.98917212 28.07736399
v -0.12533693 55.97798330 28.14318838
v 0.84894038 55.96679447 28.20901278
v 1.82321769 55.95560565 28.27483717
v 2.79749500 55.94441683 28.34066157
v 3.25099265 55.76893765 28.84262261
v 4.74604962 55.92203919 28.47231035
v 4.22526996 55.75774883 28.90844701
v 4.71834308 55.29295580 28.77546772
v 6.17382458 55.73537119 29.04009580
v -2.11346702 56.28967479 28.64647993
v -1.11148317 56.90756936 28.40914696
v -1.63226283 56.74327901 28.84528361
v -0.13720586 56.89638054 28.47497135
v 1.81134876 56.87400290 28.60662014
v 2.78562607 56.86281408 28.67244454
v 3.23912372 56.68733490 29.17440558
v 4.73418069 56.84043644 28.80409332
v 4.21340103 56.67614608 29.24022998
v 6.16195565 56.65376844 29.37187877
v -1.12335210 57.82596661 28.74092993
v -1.64413176 57.66167626 29.17706658
v -0.14907479 57.81477779 28.80675432
v 0.82520252 57.80358897 28.87257872
v 1.79947983 57.79240015 28.93840311
v 2.25297748 57.61692097 29.44036416
v 2.74605060 57.15212794 29.30738487
v 4.69460522 57.12975030 29.43903366
v 5.66888253 57.11856147 29.50485805
v -1.16292757 58.11528047 29.37587026
v -0.18865026 58.10409165 29.44169466
v 0.78562705 58.09290283 29.50751905
v 1.75990436 58.08171401 29.57334345
v 0.82913410 51.95343595 27.81997859
v 0.30835444 51.78914559 28.25611524
v 0.80142756 51.32435255 28.12313596
v 1.28263175 51.77795677 28.32193964
v 3.75196603 51.91986948 28.01745178
v 3.23118637 51.75557913 28.45358843
v 3.72425949 51.29078609 28.32060914
v 4.20546368 51.74439031 28.51941282
v -1.13128945 52.89421084 28.02011277
v -1.65206911 52.72992048 28.45624942
v -1.15899599 52.26512744 28.32327014
v -0.18471868 52.25393862 28.38909453
v 0.81726517 52.87183319 28.15176156
v 1.76383594 52.23156098 28.52074332
v 1.79154248 52.86064437 28.21758596
v 2.73811325 52.22037216 28.58656772
v 2.76581979 52.84945555 28.28341035
v 3.74009710 52.83826673 28.34923475
v 4.68666787 52.19799452 28.71821650
v 4.71437441 52.82707791 28.41505914
v 5.16787206 52.65159873 28.91702019
v -2.11743569 53.82379691 28.28607135
v -2.63821535 53.65950655 28.72220800
v -2.14514223 53.19471351 28.58922871
v 3.72822816 53.75666398 28.68101772
v 4.70250547 53.74547516 28.74684211
v 5.64907625 53.10520295 29.11582387
v 5.67678278 53.73428634 28.81266651
v 6.62335356 53.09401413 29.18164826
v 6.65106009 53.72309752 28.87849090
v 7.10455774 53.54761834 29.38045195
v -2.65008428 54.57790380 29.05399097
v 3.71635923 54.67506123 29.01280069
v 4.69063654 54.66387241 29.07862508
v 6.63919116 54.64149477 29.21027387
v 7.58576193 54.00122255 29.57925563
v 7.61346847 54.63030594 29.27609827
v 8.06696612 54.45482677 29.77805931
v -2.66195321 55.49630104 29.38577394
v 3.70449030 55.59345848 29.34458366
v 6.62732223 55.55989201 29.54205684
v 7.60159954 55.54870319 29.60788124
v 8.05509719 55.37322401 30.10984228
v -2.15304249 56.57898865 29.28142026
v -2.67382215 56.41469829 29.71755691
v 3.69262137 56.51185572 29.67636663
v 6.61545330 56.47828926 29.87383981
v 7.58973061 56.46710044 29.93966421
v 8.04322826 56.29162126 30.44162525
v -2.16491142 57.49738590 29.61320323
v -2.68569108 57.33309554 30.04933988
v 2.70647513 57.44144179 29.94232520
v 3.68075244 57.43025297 30.00814960
v 4.65502975 57.41906415 30.07397399
v 5.62930706 57.40787533 30.13979839
v 6.60358437 57.39668651 30.20562278
v 7.57786168 57.38549769 30.27144718
v 8.52443245 56.74522548 30.64042894
v 8.55213899 57.37430887 30.33727157
v 9.00563664 57.19882969 30.83923262
v -2.20448689 57.78669975 30.24814357
v -1.20250304 58.40459433 30.01081060
v -1.72328270 58.24030397 30.44694725
v -0.22822573 58.39340550 30.07663499
v 0.74605158 58.38221668 30.14245939
v 1.72032889 58.37102786 30.20828378
v 2.69460620 58.35983904 30.27410817
v 3.66888351 58.34865022 30.33993257
v 4.64316082 58.33746140 30.40575696
v 5.61743813 58.32627258 30.47158136
v 6.59171543 58.31508376 30.53740575
v 7.56599274 58.30389494 30.60323015
v 8.01949040 58.12841576 31.10519119
v 8.51256352 57.66362272 30.97221191
v -1.24207851 58.69390818 30.64575093
v -0.26780120 58.68271936 30.71157532
v 0.70647611 58.67153054 30.77739972
v 1.68075342 58.66034172 30.84322411
v 2.65503073 58.64915290 30.90904851
v 3.62930804 58.63796408 30.97487290
v 4.60358535 58.62677526 31.04069730
v 5.60556919 59.24466983 30.80336433
v 5.08478954 59.08037947 31.23950098
v 6.57984650 59.23348101 30.86918872
v 7.03334415 59.05800183 31.37114977
v 7.52641727 58.59320879 31.23817048
v 5.56599372 59.53398368 31.43830466
v 6.54027103 59.52279486 31.50412906
v 1.74799833 50.68408034 28.49211771
v 1.22721867 50.51978998 28.92825437
v 1.72029180 50.05499695 28.79527508
v 2.20149598 50.50860116 28.99407876
v -1.18670253 51.63604405 28.62642750
v -1.70748219 51.47175370 29.06256415
v -1.21440907 51.00696066 28.92958486
v -0.24013176 50.99577184 28.99540926
v -0.21242522 51.62485523 28.69225189
v 0.73414555 50.98458302 29.06123365
v 1.73612940 51.60247759 28.82390068
v 2.68270017 50.96220538 29.19288244
v 2.71040671 51.59128877 28.88972508
v 3.65697748 50.95101656 29.25870684
v 4.63125479 50.93982774 29.32453123
v 4.65896133 51.56891113 29.02137387
v 5.11245898 51.39343195 29.52333491
v -1.71935112 52.39015094 29.39434712
v 5.59366317 51.84703616 29.72213860
v 5.62136971 52.47611955 29.41898123
v 6.56794048 51.83584734 29.78796299
v 6.59564702 52.46493073 29.48480563
v 7.04914467 52.28945156 29.98676667
v -2.70549736 53.31973701 29.66030570
v -2.21242424 52.85494398 29.52732641
v 7.53034886 52.74305577 30.18557036
v 7.55805539 53.37213916 29.88241299
v 8.01155305 53.19665998 30.38437404
v -3.17086394 54.41361344 29.49012762
v -3.69164360 54.24932308 29.92626427
v -3.19857048 53.78453005 29.79328499
v 8.49275723 53.65026420 30.58317772
v 8.52046377 54.27934759 30.28002036
v 8.97396142 54.10386841 30.78198140
v -3.18273287 55.33201069 29.82191059
v -3.70351253 55.16772033 30.25804724
v 8.50859484 55.19774484 30.61180333
v 8.96209249 55.02226566 31.11376437
v -3.19460180 56.25040794 30.15369356
v -3.71538146 56.08611758 30.58983022
v 8.49672591 56.11614208 30.94358630
v 9.44329668 55.47586987 31.31256806
v 9.47100322 56.10495326 31.00941069
v 9.92450087 55.92947408 31.51137174
v -3.23417727 56.53972179 30.78863390
v -2.75297309 56.99332601 30.98743758
v 9.45913429 57.02335051 31.34119366
v 9.91263194 56.84787133 31.84315471
v -2.27176890 57.44693022 31.18624126
v -1.79056471 57.90053443 31.38504495
v 8.47298805 57.95293658 31.60715224
v 9.44726536 57.94174776 31.67297663
v 9.90076301 57.76626858 32.17493768
v -1.30936052 58.35413865 31.58384863
v -0.30737667 58.97203322 31.34651566
v -0.82815633 58.80774286 31.78265231
v 0.66690064 58.96084440 31.41234005
v 1.64117795 58.94965557 31.47816445
v 2.61545526 58.93846675 31.54398884
v 3.58973257 58.92727793 31.60981324
v 4.56400988 58.91608911 31.67563763
v 7.48684180 58.88252265 31.87311082
v 8.46111911 58.87133383 31.93893521
v 9.43539642 58.86014501 32.00475961
v 9.88889407 58.68466583 32.50672065
v -0.34695214 59.26134707 31.98145599
v 0.62732517 59.25015825 32.04728039
v 1.60160248 59.23896943 32.11310478
v 2.57587979 59.22778061 32.17892918
v 3.55015710 59.21659179 32.24475357
v 4.55214094 59.83448636 32.00742060
v 4.03136129 59.67019600 32.44355725
v 5.52641825 59.82329754 32.07324500
v 6.50069556 59.81210872 32.13906939
v 7.47497287 59.80091990 32.20489379
v 7.92847052 59.62544072 32.70685483
v 8.42154364 59.16064768 32.57387555
v 9.39582095 59.14945886 32.63969994
v 4.51256547 60.12380022 32.64236094
v 5.48684278 60.11261140 32.70818533
v 6.46112009 60.10142257 32.77400973
v 7.43539740 60.09023375 32.83983412
v -0.26783829 50.36668845 29.29856662
v -0.78861795 50.20239809 29.73470327
v -0.29554483 49.73760506 29.60172399
v 0.67873248 49.72641624 29.66754838
v 0.70643902 50.35549963 29.36439102
v 1.65300979 49.71522741 29.73337278
v 2.62728710 49.70403859 29.79919717
v 2.65499363 50.33312199 29.49603981
v 3.60156441 49.69284977 29.86502156
v 3.62927094 50.32193316 29.56186420
v 4.57584172 49.68166095 29.93084596
v 4.60354825 50.31074434 29.62768860
v 5.05704590 50.13526517 30.12964964
v -1.77476419 51.13198416 30.00066185
v -1.28169107 50.66719113 29.86768256
v 5.53825009 50.58886938 30.32845332
v 5.56595663 51.21795277 30.02529596
v 6.51252740 50.57768056 30.39427772
v 6.54023394 51.20676395 30.09112036
v 6.99373159 51.03128477 30.59308140
v -2.24013078 52.22586059 29.83048377
v -2.76091043 52.06157023 30.26662043
v -2.26783731 51.59677719 30.13364114
v 7.47493578 51.48488899 30.79188508
v 7.50264232 52.11397238 30.48872772
v 7.95613997 51.93849320 30.99068877
v -3.22627702 53.15544666 30.09644235
v -3.74705668 52.99115630 30.53257900
v -3.25398356 52.52636326 30.39959971
v 8.43734416 52.39209741 31.18949245
v 8.46505070 53.02118080 30.88633509
v 8.91854835 52.84570163 31.38829613
v -3.75892561 53.90955355 30.86436197
v 9.39975254 53.29930584 31.58709981
v 9.42745907 53.92838923 31.28394245
v 9.88095673 53.75291005 31.78590350
v -3.77079454 54.82795079 31.19614494
v 9.41559014 54.84678648 31.61572542
v 9.86908779 54.67130730 32.11768647
v -3.78266347 55.74634804 31.52792791
v 9.85721886 55.58970455 32.44946944
v -3.30145928 56.19995226 31.72673160
v -2.82025509 56.65355647 31.92553528
v 10.33842305 56.04330876 32.64827312
v 10.36612959 56.67239215 32.34511576
v 10.81962724 56.49691298 32.84707680
v -2.31134437 57.73624407 31.82118160
v -2.83212402 57.57195372 32.25731825
v 10.35426066 57.59078940 32.67689873
v 10.80775831 57.41531022 33.17885977
v -2.35091984 58.02555793 32.45612193
v -1.34893599 58.64345250 32.21878896
v -1.86971565 58.47916214 32.65492561
v 10.34239173 58.50918665 33.00868170
v 10.79588938 58.33370747 33.51064274
v -1.38851146 58.93276636 32.85372930
v -0.41423415 58.92157754 32.91955369
v 0.56004316 58.91038872 32.98537809
v 1.56202701 59.52828329 32.74804512
v 1.04124735 59.36399293 33.18418177
v 2.01552466 59.35280411 33.25000616
v 2.50859778 58.88801107 33.11702688
v 3.51058163 59.50590565 32.87969391
v 2.98980197 59.34161529 33.31583056
v 8.38196817 59.44996154 33.20881588
v 9.35624548 59.43877272 33.27464027
v 9.80974314 59.26329354 33.77660132
v 10.30281626 58.79850051 33.64362203
v 1.52245154 59.81759714 33.38298545
v 3.47100616 59.79521950 33.51463424
v 4.47299001 60.41311407 33.27730127
v 3.95221035 60.24882372 33.71343792
v 5.44726731 60.40192525 33.34312567
v 6.42154462 60.39073643 33.40895006
v 7.39582193 60.37954761 33.47477446
v 7.84931958 60.20406843 33.97673550
v 8.34239271 59.73927540 33.84375621
v 9.31667001 59.72808658 33.90958061
v 4.43341454 60.70242793 33.91224161
v 5.40769184 60.69123911 33.97806600
v 6.38196915 60.68005029 34.04389039
v 7.35624646 60.66886147 34.10971479
v 0.65102594 49.09733284 29.97070574
v 0.13024628 48.93304249 30.40684240
v 0.62331940 48.46824945 30.27386311
v 1.59759671 48.45706063 30.33968750
v 1.62530325 49.08614402 30.03653014
v 2.57187402 48.44587181 30.40551190
v 2.59958056 49.07495520 30.10235453
v 3.54615133 48.43468299 30.47133629
v 3.57385787 49.06376638 30.16817893
v 4.02735552 48.88828720 30.67013997
v -1.30939761 50.03810773 30.17083993
v -1.83017727 49.87381738 30.60697658
v -1.33710415 49.40902434 30.47399729
v -0.36282684 49.39783552 30.53982168
v 4.50855971 49.34189142 30.86894366
v 5.48283702 49.33070260 30.93476805
v 5.51054356 49.95978599 30.63161069
v 5.96404121 49.78430681 31.13357173
v -1.84204620 50.79221462 30.93875955
v 6.44524540 50.23791102 31.33237542
v 7.41952270 50.22672220 31.39819981
v 7.44722924 50.85580559 31.09504245
v 7.90072689 50.68032642 31.59700349
v -2.82819244 51.72180069 31.20471812
v -2.33511932 51.25700766 31.07173884
v 8.38193108 51.13393063 31.79580718
v 8.40963762 51.76301402 31.49264981
v 8.86313527 51.58753484 31.99461086
v -3.81433868 52.65138676 31.47067670
v -3.32126556 52.18659373 31.33769741
v 9.34433946 52.04113906 32.19341454
v 9.37204600 52.67022245 31.89025718
v 9.82554365 52.49474327 32.39221822
v -3.82620762 53.56978401 31.80245967
v 4.48879052 53.64456380 31.89291818
v 4.46108398 53.01548041 32.19607554
v 3.96801086 53.48027344 32.32905483
v 4.94228817 53.46908462 32.39487922
v 9.81367472 53.41314052 32.72400119
v -3.83807655 54.48818126 32.13424264
v 4.44921505 53.93387766 32.52785851
v 4.93041924 54.38748187 32.72666219
v 5.45119890 54.55177223 32.29052554
v 5.42349236 53.92268884 32.59368290
v 5.90469655 54.37629305 32.79248659
v 9.80180579 54.33153777 33.05578417
v -3.84994548 55.40657851 32.46602561
v 5.41162343 54.84108608 32.92546587
v 10.28300997 54.78514198 33.25458785
v 10.31071651 55.41422537 32.95143048
v 10.76421416 55.23874619 33.45339153
v -3.34103475 56.48926611 32.36167193
v -3.86181441 56.32497575 32.79780858
v 4.45318372 56.39975554 32.88826709
v 4.42547719 55.77067215 33.19142445
v 3.93240407 56.23546519 33.32440374
v 4.90668137 56.22427637 33.39022813
v 10.75234523 56.15714344 33.78517450
v -3.38061022 56.77857997 32.99661226
v -2.89940603 57.23218418 33.19541595
v 4.41360825 56.68906940 33.52320742
v 11.23354942 56.61074765 33.98397818
v 11.26125596 57.23983105 33.68082082
v 11.71475361 57.06435187 34.18278187
v -2.41820184 57.68578840 33.39421963
v -1.93699765 58.13939261 33.59302331
v 11.24938703 58.15822829 34.01260379
v 11.70288468 57.98274912 34.51456484
v -1.45579347 58.59299682 33.79182699
v -0.45380962 59.21089139 33.55449403
v -0.97458928 59.04660104 33.99063068
v 0.52046769 59.19970257 33.62031842
v 2.46902231 59.17732493 33.75196721
v 10.26324079 59.08781436 34.27856237
v 10.71673844 58.91233519 34.78052341
v 11.20981156 58.44754215 34.64754412
v -0.49338509 59.50020525 34.18943436
v 0.48089222 59.48901643 34.25525875
v 1.45516953 59.47782761 34.32108315
v 2.42944684 59.46663879 34.38690754
v 3.43143069 60.08453336 34.14957457
v 2.91065103 59.92024300 34.58571123
v 8.30281724 60.02858925 34.47869655
v 9.27709454 60.01740043 34.54452094
v 9.73059220 59.84192125 35.04648199
v 10.22366532 59.37712822 34.91350270
v 3.39185522 60.37384721 34.78451491
v 4.36613253 60.36265839 34.85033930
v 5.34040984 60.35146957 34.91616370
v 6.31468715 60.34028075 34.98198809
v 7.28896446 60.32909193 35.04781249
v 8.26324177 60.31790311 35.11363688
v 9.23751907 60.30671429 35.17946128
v -0.39053338 48.76875213 30.84297905
v -0.91131304 48.60446177 31.27911570
v -0.41823992 48.13966874 31.14613641
v 0.55603739 48.12847992 31.21196081
v 1.53031470 48.11729110 31.27778520
v 2.50459201 48.10610227 31.34360959
v 3.47886932 48.09491345 31.40943399
v 4.45314663 48.08372463 31.47525838
v 4.48085317 48.71280802 31.17210102
v 4.93435082 48.53732885 31.67406207
v -1.89745928 49.53404784 31.54507427
v -1.40438616 49.06925481 31.41209499
v 5.41555501 48.99093306 31.87286575
v 6.38983232 48.97974424 31.93869014
v 6.41753886 49.60882763 31.63553278
v 6.87103651 49.43334845 32.13749383
v -1.90932821 50.45244509 31.87685725
v 7.35224070 49.88695267 32.33629751
v 8.32651801 49.87576385 32.40212190
v 8.35422454 50.50484724 32.09896454
v 8.80772220 50.32936806 32.60092559
v -2.89547445 51.38203116 32.14281582
v -2.40240133 50.91723812 32.00983653
v 9.28892638 50.78297227 32.79972927
v 9.31663292 51.41205566 32.49657191
v 9.77013057 51.23657649 32.99853295
v -3.88162069 52.31161723 32.40877440
v -3.38854757 51.84682419 32.27579511
v 9.75826164 52.15497373 33.33031592
v -3.89348962 53.23001448 32.74055737
v 4.42150851 53.30479426 32.83101587
v 9.74639271 53.07337098 33.66209889
v -3.90535855 54.14841172 33.07234034
v 5.38391689 54.21200269 33.22862324
v 10.22759690 53.52697520 33.86090258
v 10.25530344 54.15605859 33.55774521
v 10.70880109 53.98057941 34.05970626
v -3.91722749 55.06680897 33.40412331
v 10.69693216 54.89897666 34.39148923
v -3.92909642 55.98520622 33.73590628
v 4.35819518 55.43090262 34.12952215
v 3.86512206 55.89569565 34.26250144
v 4.83939937 55.88450683 34.32832583
v 11.17813634 55.35258087 34.59029291
v 11.20584288 55.98166426 34.28713555
v 11.65934053 55.80618508 34.78909659
v -3.44789223 56.43881043 33.93470996
v -2.96668804 56.89241465 34.13351364
v 1.45120086 57.01194972 33.96067457
v 1.42349432 56.38286633 34.26383194
v 0.93042120 56.84765936 34.39681122
v 1.90469851 56.83647054 34.46263562
v 4.37403278 56.97838326 34.15814776
v 3.85325313 56.81409290 34.59428441
v 5.32060356 56.33811104 34.52712951
v 5.34831009 56.96719444 34.22397215
v 5.80180774 56.79171526 34.72593320
v 11.64747160 56.72458233 35.12087956
v -2.48548385 57.34601886 34.33231733
v -2.00427966 57.79962307 34.53112101
v 1.41162539 57.30126358 34.59561491
v 4.33445731 57.26769711 34.79308809
v 4.81566150 57.72130133 34.99189177
v 5.33644116 57.88559168 34.55575512
v 5.78993881 57.71011251 35.05771617
v 11.63560267 57.64297958 35.45266253
v -1.52307547 58.25322729 34.72992469
v -1.04187128 58.70683150 34.92872837
v 5.29686569 58.17490554 35.19069545
v 11.14252955 58.10777262 35.58564182
v 10.64945643 58.57256565 35.71862111
v -0.56066710 59.16043571 35.12753206
v 0.41361021 59.14924689 35.19335645
v 1.38788752 59.13805807 35.25918085
v 2.36216483 59.12686925 35.32500524
v 2.84336902 59.58047347 35.52380892
v 10.15638331 59.03735868 35.85160040
v 9.66331019 59.50215172 35.98457969
v 3.32457321 60.03407768 35.72261261
v 4.32655706 60.65197225 35.48527964
v 3.80577740 60.48768189 35.92141629
v 5.30083437 60.64078343 35.55110403
v 5.75433202 60.46530425 36.05306508
v 6.24740514 60.00051122 35.92008579
v 7.22168245 59.98932240 35.98591019
v 8.19595976 59.97813357 36.05173458
v 9.17023707 59.96694475 36.11755897
v 4.28698159 60.94128611 36.12021997
v 5.26125890 60.93009729 36.18604437
v 0.52833086 47.49939652 31.51511817
v 0.00755120 47.33510617 31.95125482
v 0.50062432 46.87031313 31.81827553
v 1.47490163 46.85912431 31.88409993
v 1.50260817 47.48820770 31.58094256
v 2.44917894 46.84793549 31.94992432
v 2.47688547 47.47701888 31.64676696
v 2.93038313 47.30153970 32.14872800
v -1.43209269 48.44017141 31.71525235
v -1.95287235 48.27588106 32.15138900
v -1.45979923 47.81108802 32.01840971
v -0.48552192 47.79989920 32.08423411
v 3.41158731 47.75514392 32.34753169
v 4.38586462 47.74395510 32.41335608
v 4.86706881 48.19755931 32.61215976
v -1.96474129 49.19427831 32.48317197
v 5.34827300 48.65116352 32.81096345
v 6.32255031 48.63997470 32.87678784
v 6.80375450 49.09357892 33.07559152
v -1.97661022 50.11267555 32.81495494
v 7.28495869 49.54718313 33.27439521
v 8.25923600 49.53599431 33.34021960
v 8.74044019 49.98959852 33.53902328
v -2.96275646 51.04226162 33.08091352
v -2.46968334 50.57746859 32.94793423
v 6.32651899 51.10585259 33.23719642
v 6.29881245 50.47676920 33.54035378
v 5.80573933 50.94156223 33.67333307
v 6.78001664 50.93037341 33.73915747
v 9.22164438 50.44320274 33.73782697
v 9.70284857 50.89680695 33.93663065
v -3.42812304 52.13613805 32.91073544
v -2.97462539 51.96065887 33.41269649
v 6.28694352 51.39516645 33.87213675
v 9.69097963 51.81520420 34.26841362
v -3.96077163 52.89024494 33.67865507
v -3.46769851 52.42545191 33.54567578
v 10.17218382 52.26880841 34.46721730
v 10.19989036 52.89789180 34.16405994
v 10.65338801 52.72241263 34.66602099
v -3.97264056 53.80864219 34.01043804
v 10.64151908 53.64080987 34.99780396
v -3.98450949 54.72703944 34.34222101
v 10.62965015 54.55920712 35.32958693
v -3.99637843 55.64543668 34.67400398
v 4.31861971 55.72021647 34.76446248
v 11.11085434 55.01281134 35.52839061
v 11.59205853 55.46641555 35.72719429
v -3.51517424 56.09904090 34.87280766
v -3.03397005 56.55264511 35.07161134
v 1.38391885 56.67218018 34.89877227
v 4.30675078 56.63861372 35.09624545
v 5.28102809 56.62742490 35.16206985
v 11.58018959 56.38481280 36.05897726
v -2.55276586 57.00624932 35.27041503
v -2.07156167 57.45985354 35.46921871
v 5.26915915 57.54582215 35.49385282
v 11.56832066 57.30321005 36.39076023
v -1.59035748 57.91345775 35.66802239
v -0.58837363 58.53135232 35.43068942
v -0.61608017 57.90226893 35.73384678
v -0.13487598 58.35587314 35.93265047
v 11.07524754 57.76800308 36.52373952
v 10.58217442 58.23279611 36.65671881
v 0.34632821 58.80947736 36.13145415
v 1.34831205 59.42737193 35.89412118
v 0.82753239 59.26308157 36.33025783
v 1.80180970 59.25189275 36.39608223
v 2.29488282 58.78709972 36.26310294
v 2.77608701 59.24070393 36.46190662
v 10.08910130 58.69758915 36.78969810
v 9.59602818 59.16238218 36.92267738
v 1.30873658 59.71668579 36.52906152
v 3.25729120 59.69430814 36.66071030
v 3.73849539 60.14791236 36.85951399
v 6.20782967 60.28982507 36.55502612
v 6.66132732 60.11434589 37.05698717
v 7.15440044 59.64955286 36.92400788
v 8.12867775 59.63836404 36.98983228
v 9.10295506 59.62717522 37.05565667
v 4.21969958 60.60151657 37.05831767
v 5.19397689 60.59032775 37.12414206
v 6.16825420 60.57913893 37.18996646
v -0.05973081 46.99533663 32.88935252
v 0.43334231 46.53054360 32.75637323
v 1.40761962 46.51935478 32.82219763
v 2.38189693 46.50816596 32.88802202
v 2.86310112 46.96177017 33.08682570
v -2.02015436 47.93611152 33.08948670
v -1.52708124 47.47131849 32.95650741
v -0.55280393 47.46012967 33.02233181
v 3.34430531 47.41537438 33.28562939
v 4.31858262 47.40418556 33.35145378
v 4.79978680 47.85778978 33.55025746
v -2.03202329 48.85450877 33.42126967
v 5.28099099 48.31139399 33.74906115
v 6.25526830 48.30020517 33.81488554
v 6.73647249 48.75380938 34.01368922
v -2.04389222 49.77290602 33.75305264
v 7.21767668 49.20741359 34.21249290
v 8.19195399 49.19622477 34.27831730
v 8.67315818 49.64982899 34.47712098
v -3.03003847 50.70249209 34.01901122
v -2.53696535 50.23769905 33.88603193
v 6.25923698 50.76608306 34.17529412
v 9.15436237 50.10343320 34.67592466
v 9.63556656 50.55703741 34.87472835
v -3.04190740 51.62088933 34.35079419
v 9.62369763 51.47543466 35.20651132
v -3.50727398 52.71476576 34.18061611
v -3.05377633 52.53928658 34.68257716
v 10.10490181 51.92903888 35.40531500
v 10.58610600 52.38264309 35.60411868
v -4.03992257 53.46887265 34.94853573
v -3.54684945 53.00407962 34.81555645
v 10.57423707 53.30104034 35.93590165
v -3.55871838 53.92247687 35.14733942
v -3.53101184 54.55156026 34.84418205
v -3.07751419 54.37608108 35.34614310
v 10.56236814 54.21943759 36.26768462
v -3.54288078 55.46995751 35.17596502
v -3.08938312 55.29447833 35.67792607
v 11.04357233 54.67304180 36.46648831
v 11.52477652 55.12664601 36.66529199
v -3.10125206 56.21287558 36.00970904
v 11.51290759 56.04504326 36.99707496
v -2.62004787 56.66647979 36.20851272
v -1.61806402 57.28437436 35.97117975
v -1.64577056 56.65529097 36.27433712
v -1.16456637 57.10889518 36.47314080
v 11.50103865 56.96344051 37.32885793
v -0.68336218 57.56249940 36.67194448
v -0.20215799 58.01610361 36.87074817
v 11.00796553 57.42823354 37.46183722
v 10.51489241 57.89302658 37.59481651
v 0.27904620 58.46970782 37.06955185
v 0.76025039 58.92331204 37.26835553
v 2.22760082 58.44733018 37.20120064
v 1.73452770 58.91212322 37.33417993
v 2.70880501 58.90093439 37.40000432
v 10.02181929 58.35781961 37.72779579
v 9.52874617 58.82261265 37.86077508
v 1.24145458 59.37691625 37.46715921
v 3.19000919 59.35453861 37.59880800
v 4.19199304 59.97243318 37.36147503
v 4.16428650 59.34334979 37.66463240
v 4.64549069 59.79695400 37.86343608
v 6.14054766 59.95005554 37.49312382
v 6.11284112 59.32097215 37.79628119
v 5.61976800 59.78576518 37.92926047
v 7.08711843 59.30978332 37.86210558
v 8.06139574 59.29859450 37.92792998
v 9.03567305 59.28740568 37.99375437
v 5.12669488 60.25055821 38.06223976
v -0.12701282 46.65556710 33.82745022
v 0.36606030 46.19077406 33.69447093
v 1.34033761 46.17958524 33.76029532
v 2.31461492 46.16839642 33.82611972
v 2.79581911 46.62200063 34.02492340
v -1.56665671 47.76063234 33.59144775
v -1.11315906 47.58515317 34.09340879
v -0.62008594 47.12036013 33.96042950
v 3.27702330 47.07560485 34.22372708
v 4.27900715 47.69349942 33.98639411
v 3.75822749 47.52920906 34.42253077
v -1.57852564 48.67902959 33.92323072
v -1.12502799 48.50355041 34.42519176
v 4.23943168 47.98281327 34.62133445
v 5.21370899 47.97162445 34.68715884
v 6.21569283 48.58951902 34.44982587
v 5.69491317 48.42522867 34.88596253
v -2.11117423 49.43313648 34.69115034
v -1.61810111 48.96834345 34.55817105
v 6.17611736 48.87883288 35.08476621
v 7.15039467 48.86764406 35.15059060
v 8.12467198 48.85645524 35.21641500
v 8.60587617 49.31005945 35.41521868
v -2.57654082 50.52701291 34.52097226
v -2.12304316 50.35153373 35.02293331
v 9.11478690 50.39274706 35.31086500
v 8.59400724 50.22845670 35.74700165
v -3.10918941 51.28111980 35.28889189
v -2.61611628 50.81632676 35.15591260
v 9.07521143 50.68206091 35.94580533
v 9.55641562 51.13566513 36.14460902
v -3.12105834 52.19951705 35.62067486
v 10.06532634 52.21835273 36.04025533
v 9.54454669 52.05406238 36.47639199
v -3.58642492 53.29339347 35.45049678
v -3.13292727 53.11791430 35.95245783
v 10.05345741 53.13674998 36.37203831
v 9.53267775 52.97245962 36.80817496
v -3.14479620 54.03631154 36.28424080
v 10.01388194 53.42606384 37.00697864
v 10.49508613 53.87966805 37.20578232
v -3.15666513 54.95470879 36.61602377
v 10.97629032 54.33327226 37.40458600
v 11.45749451 54.78687648 37.60338969
v -2.67546094 55.40831301 36.81482745
v -2.64775441 56.03739640 36.51167009
v -2.19425675 55.86191722 37.01363113
v 10.99212793 55.88075290 37.43321161
v 10.96442139 55.25166951 37.73636898
v 10.47134827 55.71646255 37.86934826
v -1.71305257 56.31552143 37.21243482
v -1.23184838 56.76912565 37.41123850
v 10.98025900 56.79915015 37.76499458
v 10.45947934 56.63485980 38.20113123
v -0.75064419 57.22272986 37.61004218
v -0.26944000 57.67633407 37.80884586
v 9.99411275 57.72873622 38.03095316
v 9.96640622 57.09965283 38.33411052
v 9.47333310 57.56444586 38.46708981
v 0.21176419 58.12993829 38.00764955
v 0.69296838 58.58354250 38.20645323
v 2.18802535 58.73664404 37.83614097
v 9.00796651 58.65832229 38.29691173
v 8.98025998 58.02923890 38.60006910
v 8.48718685 58.49403193 38.73304839
v 1.17417257 59.03714671 38.40525691
v 2.14844988 59.02595789 38.47108131
v 3.12272719 59.01476907 38.53690570
v 4.09700450 59.00358025 38.60273009
v 5.09898834 59.62147482 38.36539713
v 5.07128181 58.99239143 38.66855449
v 6.04555912 58.98120261 38.73437888
v 7.01983642 58.97001379 38.80020328
v 7.99411373 58.95882497 38.86602767
v 0.32648483 46.48008792 34.32941126
v 0.77998248 46.30460874 34.83137231
v 1.27305560 45.83981571 34.69839302
v 2.24733291 45.82862688 34.76421742
v 2.72853710 46.28223110 34.96302110
v -1.18044107 47.24538363 35.03150649
v -0.68736795 46.78059060 34.89852720
v 0.28690936 46.76940177 34.96435160
v 3.23744783 47.36491870 34.85866742
v 2.71666817 47.20062835 35.29480407
v -1.19231000 48.16378088 35.36328946
v 3.19787236 47.65423256 35.49360775
v 4.17214967 47.64304374 35.55943215
v 5.17413352 48.26093831 35.32209918
v 4.65335386 48.09664795 35.75823583
v -1.65767658 49.25765730 35.19311139
v -1.20417893 49.08217813 35.69507243
v 5.13455805 48.55025217 35.95703951
v 6.10883536 48.53906334 36.02286391
v 7.08311267 48.52787452 36.08868830
v 8.08509651 49.14576909 35.85135533
v 7.56431685 48.98147874 36.28749198
v -2.19032517 50.01176419 35.96103101
v -1.69725205 49.54697116 35.82805172
v 8.04552104 49.43508295 36.48629567
v 8.52672523 49.88868716 36.68509935
v -2.65569175 51.10564062 35.79085293
v -2.20219410 50.93016144 36.29281398
v 9.03563596 50.97137477 36.58074567
v 8.51485630 50.80708441 37.01688232
v -3.18834034 51.85974751 36.55877255
v -2.69526722 51.39495448 36.42579327
v 8.99606049 51.26068863 37.21568600
v 9.47726468 51.71429284 37.41448968
v -3.20020928 52.77814476 36.89055552
v 9.46539575 52.63269009 37.74627265
v -3.21207821 53.69654201 37.22233849
v 9.97430647 53.71537769 37.64191897
v 9.45352681 53.55108734 38.07805563
v 10.92087724 53.07510548 38.01090073
v 10.42780412 53.53989852 38.14388002
v 10.94858378 53.70418887 37.70774337
v 11.40208143 53.52870969 38.20970441
v -2.73087402 54.15014622 37.42114218
v -2.70316748 54.77922961 37.11798481
v -2.24966983 54.60375044 37.61994586
v 9.93473100 54.00469155 38.27685931
v 11.39021250 54.44710694 38.54148739
v -1.74075910 55.68643804 37.51559218
v -1.76846564 55.05735465 37.81874954
v -1.28726145 55.51095886 38.01755323
v 4.10490475 55.61930512 37.91053855
v 4.07719822 54.99022172 38.21369591
v 3.58412509 55.45501476 38.34667520
v 4.55840240 55.44382594 38.41249959
v 10.89713938 54.91189998 38.67446667
v 10.40406626 55.37669301 38.80744596
v -0.77835073 56.59364647 37.91319954
v -0.80605726 55.96456308 38.21635691
v -0.32485307 56.41816729 38.41516059
v 4.06532928 55.90861897 38.54547888
v 9.93869968 56.47056944 38.63726789
v 9.91099314 55.84148605 38.94042525
v 9.41792002 56.30627908 39.07340454
v 0.18405765 57.50085490 38.31080691
v 0.15635111 56.87177150 38.61396427
v 0.63755530 57.32537572 38.81276796
v 8.95255344 57.40015551 38.90322646
v 8.92484690 56.77107211 39.20638382
v 8.43177378 57.23586515 39.33936311
v 1.14646603 58.40806332 38.70841427
v 1.11875949 57.77897993 39.01157164
v 1.59996368 58.23258414 39.21037532
v 7.96640720 58.32974158 39.16918504
v 7.93870066 57.70065818 39.47234240
v 7.44562754 58.16545122 39.60532169
v 2.08116787 58.68618836 39.40917900
v 3.05544518 58.67499954 39.47500340
v 4.02972249 58.66381072 39.54082779
v 5.00399980 58.65262189 39.60665219
v 5.97827711 58.64143307 39.67247658
v 6.95255442 58.63024425 39.73830098
v 1.23348013 46.12912956 35.33333336
v 1.68697778 45.95365038 35.83529440
v 2.18005091 45.48885735 35.70231511
v 2.66125509 45.94246156 35.90111880
v -0.72694342 47.06990445 35.53346754
v -0.27344577 46.89442527 36.03542858
v 0.21962735 46.42963224 35.90244929
v 1.19390466 46.41844342 35.96827369
v 1.67510885 46.87204763 36.16707737
v 2.19588851 47.03633799 35.73094072
v 2.16818197 46.40725460 36.03409808
v -1.25959201 47.82401134 36.30138716
v -0.76651889 47.35921831 36.16840787
v 2.15631304 47.32565184 36.36588105
v 3.15829689 47.94354642 36.12854809
v 2.63751723 47.77925606 36.56468474
v 4.13257420 47.93235759 36.19437248
v -1.27146094 48.74240859 36.63317013
v 3.11872142 48.23286027 36.76348842
v 3.59992561 48.68646449 36.96229210
v 4.12070527 48.85075484 36.52615545
v 5.09498258 48.83956602 36.59197985
v 6.06925989 48.82837720 36.65780424
v 7.04353720 48.81718838 36.72362863
v -1.73682752 49.83628502 36.46299205
v -1.28332987 49.66080584 36.96495310
v 4.08112980 49.14006870 37.16109579
v 4.56233399 49.59367291 37.35989947
v 5.08311365 49.75796327 36.92376282
v 6.05739095 49.74677445 36.98958721
v 6.51088861 49.57129527 37.49154826
v 7.00396173 49.10650224 37.35856897
v 8.00594557 49.72439681 37.12123600
v 7.48516591 49.56010645 37.55737265
v -2.26947611 50.59039191 37.23091168
v -1.77640299 50.12559887 37.09793239
v 5.04353818 50.04727713 37.55870315
v 6.01781548 50.03608831 37.62452754
v 7.99407664 50.64279406 37.45301897
v 7.47329698 50.47850370 37.88915562
v -2.73484269 51.68426833 37.06073360
v -2.28134504 51.50878916 37.56269465
v 7.98220771 51.56119130 37.78480194
v 7.46142805 51.39690095 38.22093859
v 8.95648502 51.55000248 37.85062634
v -2.74671163 52.60266558 37.39251657
v -2.29321397 52.42718640 37.89447762
v 7.94263224 51.85050516 38.41974228
v 8.42383643 52.30410937 38.61854596
v 8.94461609 52.46839973 38.18240931
v -2.75858056 53.52106283 37.72429954
v -2.30508291 53.34558365 38.22626059
v 8.90504062 52.75771359 38.81734964
v 9.38624481 53.21131780 39.01615332
v 10.88130178 53.36441934 38.64584107
v -2.31695184 54.26398090 38.55804356
v 9.86744900 53.66492201 39.21495701
v 10.86943284 54.28281659 38.97762404
v 10.34865318 54.11852623 39.41376069
v -1.83574765 54.71758511 38.75684724
v -0.83376380 55.33547968 38.51951427
v -0.86147034 54.70639629 38.82267164
v 0.14051351 55.32429086 38.58533867
v 0.11280697 54.69520747 38.88849603
v 0.59401116 55.14881169 39.08729971
v 4.03762275 55.27953558 38.84863624
v 9.88328660 55.21240265 39.24358261
v 9.85558006 54.58331926 39.54673998
v 9.36250694 55.04811230 39.67971926
v 0.12864458 56.24268811 38.91712164
v 0.58214223 56.06720893 39.41908268
v 8.89714036 56.14198872 39.50954119
v 8.86943382 55.51290533 39.81269855
v 8.37636070 55.97769837 39.94567784
v 0.57027329 56.98560618 39.75086565
v 7.91099412 57.07157479 39.77549976
v 7.88328758 56.44249140 40.07865713
v 7.39021446 56.90728443 40.21163642
v 1.05147748 57.43921039 39.94966934
v 2.05346133 58.05710497 39.71233637
v 2.02575479 57.42802157 40.01549373
v 2.50695898 57.88162579 40.21429741
v 4.00201595 58.03472732 39.84398516
v 3.97430941 57.40564393 40.14714252
v 3.48123629 57.87043697 40.28012181
v 4.97629326 58.02353850 39.90980955
v 4.94858672 57.39445511 40.21296691
v 5.42979091 57.84805932 40.41177060
v 6.92484788 58.00116086 40.04145834
v 6.89714134 57.37207747 40.34461570
v 6.40406822 57.83687050 40.47759499
v 2.98816317 58.33523000 40.41310110
v 5.91099510 58.30166354 40.61057428
v 2.14047544 45.77817120 36.33725545
v 0.18005188 46.71894609 36.53738963
v 1.15432919 46.70775727 36.60321402
v -0.80609436 47.64853216 36.80334821
v 0.16818295 47.63734334 36.86917260
v 1.14246026 47.62615452 36.93499699
v 2.11673757 47.61496570 37.00082139
v -0.81796329 48.56692941 37.13513118
v 0.15631402 48.55574059 37.20095557
v 1.13059133 48.54455177 37.26677996
v 2.10486864 48.53336295 37.33260436
v 3.07914595 48.52217413 37.39842875
v -0.82983222 49.48532666 37.46691415
v -0.37633457 49.30984748 37.96887519
v 0.11673855 48.84505445 37.83589590
v 1.09101586 48.83386563 37.90172030
v 2.06529317 48.82267681 37.96754469
v 2.54649736 49.27628102 38.16634838
v 3.06727702 49.44057138 37.73021172
v 4.04155433 49.42938256 37.79603612
v 6.96438626 49.39581609 37.99350930
v -1.81597846 50.41491273 37.73287272
v -1.36248081 50.23943355 38.23483377
v -0.86940769 49.77464052 38.10185448
v 3.02770155 49.72988523 38.36515206
v 3.50890574 50.18348945 38.56395574
v 4.02968540 50.34777980 38.12781909
v 5.00396271 50.33659098 38.19364348
v 5.97824002 50.32540216 38.25946788
v 6.95251732 50.31421334 38.32529227
v -2.34862705 51.16901962 38.50079234
v -1.85555393 50.70422659 38.36781306
v 3.99010993 50.63709366 38.76275942
v 4.96438724 50.62590484 38.82858382
v 5.44559142 51.07950905 39.02738750
v 5.96637108 51.24379941 38.59125085
v 6.94064839 51.23261059 38.65707524
v -2.36049598 52.08741687 38.83257531
v 5.92679561 51.53311327 39.22619118
v 6.90107292 51.52192445 39.29201558
v 7.90305677 52.13981902 39.05468261
v 7.38227711 51.97552866 39.49081926
v -1.87929179 52.54102108 39.03137900
v -1.85158526 53.17010447 38.72822163
v -1.39808761 52.99462530 39.23018268
v 7.86348130 52.42913287 39.68962294
v 8.83775861 52.41794405 39.75544734
v 9.31896280 52.87154827 39.95425102
v -1.86345419 54.08850172 39.06000460
v -0.91688342 53.44822951 39.42898636
v -0.88917688 54.07731290 39.12582900
v -0.43567923 53.90183372 39.62779005
v 9.80016699 53.32515248 40.15305470
v 10.28137118 53.77875669 40.35185839
v 0.04552496 54.35543794 39.82659373
v 0.52672915 54.80904215 40.02539741
v 7.86744998 54.89501076 40.05003152
v 7.83974344 54.26592737 40.35318888
v 7.34667032 54.73072040 40.48616817
v 8.84172729 54.88382194 40.11585592
v 8.81402075 54.25473855 40.41901328
v 9.81600459 54.87263312 40.18168031
v 9.29522494 54.70834276 40.61781696
v 10.26950225 54.69715394 40.68364136
v 1.00793334 55.26264636 40.22420109
v 1.03563988 55.89172976 39.92104373
v 1.48913753 55.71625058 40.42300478
v 6.88130373 55.82459683 40.31599010
v 6.85359720 55.19551344 40.61914746
v 6.36052408 55.66030647 40.75212675
v 7.85558104 55.81340801 40.38181449
v 9.77642912 55.16194697 40.81662064
v 1.02377095 56.81012700 40.25282670
v 1.97034172 56.16985479 40.62180846
v 1.99804826 56.79893818 40.31865109
v 2.97232556 56.78774936 40.38447549
v 2.94461903 56.15866597 40.68763285
v 3.94660287 56.77656054 40.45029988
v 3.91889634 56.14747715 40.75345725
v 4.92088018 56.76537172 40.51612428
v 4.89317365 56.13628833 40.81928164
v 5.89515749 56.75418290 40.58194867
v 5.86745096 56.12509951 40.88510604
v 6.86943480 56.74299408 40.64777307
v 2.96045663 57.70614661 40.71625846
v 5.88328856 57.67258015 40.91373164
v 0.07716308 49.13436830 38.47083624
v 1.05144039 49.12317948 38.53666063
v 2.02571770 49.11199066 38.60248503
v -0.90898316 50.06395437 38.73679481
v -0.45548551 49.88847519 39.23875586
v 0.03758761 49.42368216 39.10577657
v 0.51879180 49.87728637 39.30458026
v 1.03957146 50.04157673 38.86844360
v 2.01384877 50.03038791 38.93426800
v 2.98812608 50.01919909 39.00009239
v -1.89512940 50.99354044 39.00275339
v -1.44163175 50.81806126 39.50471444
v -0.94855863 50.35326823 39.37173515
v 0.99999599 50.33089059 39.50338394
v 1.48120018 50.78449480 39.70218762
v 2.00197984 50.94878516 39.26605097
v 2.97625715 50.93759634 39.33187536
v 3.95053446 50.92640752 39.39769976
v 4.92481177 50.91521870 39.46352415
v -1.90699833 51.91193769 39.33453636
v -1.45350068 51.73645851 39.83649741
v 1.99011091 51.86718241 39.59783394
v 1.46933125 51.70289205 40.03397059
v 2.96438822 51.85599359 39.66365833
v 3.93866552 51.84480476 39.72948273
v 4.91294283 51.83361594 39.79530712
v 5.85951361 51.19334373 40.16428888
v 5.36644049 51.65813677 40.29726817
v 6.83379092 51.18215491 40.23011328
v 7.31499510 51.63575912 40.42891696
v -0.94458995 52.81914612 39.73214373
v -0.97229649 52.19006273 40.03530109
v -0.49109230 52.64366694 40.23410477
v 1.95053544 52.15649626 40.23277427
v 2.92481275 52.14530744 40.29859867
v 3.40601693 52.59891166 40.49740235
v 3.92679659 52.76320201 40.06126570
v 4.38029424 52.58772283 40.56322675
v 4.87336736 52.12292980 40.43024746
v 7.79619929 52.08936334 40.62772064
v 8.79818314 52.70725791 40.39038767
v 8.27740348 52.54296755 40.82652432
v 0.01781842 53.72635454 40.12975109
v -0.00988811 53.09727115 40.43290846
v 0.47131607 53.55087537 40.63171214
v 3.88722112 53.05251587 40.69620603
v 8.75860767 52.99657176 41.02532801
v 9.73288498 52.98538294 41.09115240
v 10.21408917 53.43898716 41.28995608
v 0.98022680 54.63356297 40.52735846
v 0.95252026 54.00447958 40.83051582
v 1.43372445 54.45808379 41.02931950
v 6.82589066 54.56643005 40.92230482
v 6.79818412 53.93734665 41.22546219
v 6.30511100 54.40213969 41.35844148
v 7.80016797 54.55524122 40.98812922
v 7.27938831 54.39095087 41.42426587
v 8.77444528 54.54405240 41.05395361
v 9.72101605 53.90378019 41.42293537
v 9.22794293 54.36857323 41.55591466
v 9.74872259 54.53286358 41.11977801
v 1.94263518 55.54077140 40.92496582
v 1.91492864 54.91168801 41.22812319
v 2.39613283 55.36529222 41.42692687
v 5.83974442 55.49601611 41.18826340
v 5.81203788 54.86693272 41.49142076
v 5.31896476 55.33172576 41.62440005
v 7.76059250 54.84455508 41.62306955
v 8.73486981 54.83336626 41.68889395
v 2.87733702 55.81889643 41.62573055
v 3.85161433 55.80770761 41.69155495
v 4.82589164 55.79651879 41.75737934
v -0.00198786 49.71299602 39.74071691
v -0.98813410 50.64258209 40.00667548
v -0.53463645 50.46710291 40.50863653
v -0.04156333 50.00230987 40.37565724
v 0.93271398 49.99112105 40.44148164
v 1.41391817 50.44472527 40.64028532
v -1.00000303 51.56097933 40.33845845
v -0.54650538 51.38550016 40.84041950
v 1.40204924 51.36312251 40.97206829
v 5.81993814 51.48265759 40.79922922
v 6.79421545 51.47146877 40.86505361
v -0.03759465 52.46818776 40.73606582
v -0.06530119 51.83910437 41.03922318
v 0.93668266 52.45699894 40.80189021
v 0.90897612 51.82791555 41.10504758
v 1.91095997 52.44581012 40.86771461
v 2.88523728 52.43462130 40.93353900
v 4.83379189 52.41224366 41.06518779
v 5.28728955 52.23676448 41.56714884
v 5.78036267 51.77197144 41.43416955
v 6.75463998 51.76078262 41.49999394
v 7.75662382 52.37867719 41.26266098
v 7.23584416 52.21438684 41.69879763
v 0.92481373 53.37539619 41.13367318
v 1.89909103 53.36420737 41.19949758
v 2.87336834 53.35301855 41.26532197
v 3.84764565 53.34182973 41.33114637
v 4.82192296 53.33064090 41.39697076
v 5.27542061 53.15516173 41.89893181
v 7.71704835 52.66799105 41.89760131
v 8.69132566 52.65680223 41.96342570
v 9.69330951 53.27469680 41.72609274
v 9.17252985 53.11040644 42.16222939
v 1.88722210 54.28260461 41.53128055
v 2.86149941 54.27141579 41.59710494
v 3.83577672 54.26022697 41.66292934
v 4.81005403 54.24903815 41.72875373
v 5.75662480 53.60876594 42.09773549
v 5.78433134 54.23784933 41.79457813
v 6.73090211 53.59757712 42.16355989
v 7.73288596 54.21547169 41.92622692
v 7.70517942 53.58638830 42.22938428
v 8.70716327 54.20428287 41.99205131
v 8.67945673 53.57519948 42.29520868
v 2.84963048 55.18981304 41.92888791
v 3.82390779 55.17862422 41.99471231
v 4.79818510 55.16743540 42.06053670
v -0.08113880 50.29162373 41.01059758
v 0.89313851 50.28043491 41.07642197
v -0.09300773 51.21002098 41.34238055
v 0.88126958 51.19883216 41.40820494
v 5.74078720 52.06128530 42.06910988
v 6.19428485 51.88580612 42.57107093
v 6.68735797 51.42101309 42.43809164
v 7.16856216 51.87461730 42.63689533
v 5.72891826 52.97968255 42.40089285
v 6.67548904 52.33941033 42.76987461
v 6.70319557 52.96849373 42.46671725
v 7.67747288 52.95730491 42.53254164
v 8.65175019 52.94611608 42.59836604
v 6.64778250 51.71032694 43.07303198
f 3 2 1
f 1 4 3
f 7 6 5
f 5 8 7
f 1 2 9
f 9 2 10
f 4 1 11
f 11 1 9
f 6 12 5
f 5 12 8
f 10 13 9
f 9 13 11
f 16 15 14
f 14 17 16
f 20 19 18
f 20 18 15
f 18 14 15
f 18 21 14
f 17 14 22
f 14 23 22
f 14 21 23
f 25 24 23
f 23 24 22
f 27 26 25
f 25 26 24
f 27 28 26
f 31 30 29
f 31 29 19
f 29 18 19
f 29 32 18
f 18 33 21
f 18 32 33
f 21 34 23
f 21 33 34
f 23 35 25
f 23 34 35
f 25 36 27
f 25 35 36
f 28 27 37
f 37 27 36
f 40 39 38
f 38 41 40
f 29 30 42
f 42 30 43
f 29 44 32
f 29 42 44
f 32 45 33
f 32 44 45
f 33 46 34
f 33 45 46
f 34 47 35
f 34 46 47
f 35 48 36
f 35 47 48
f 37 36 49
f 49 36 48
f 52 51 50
f 52 50 39
f 39 50 38
f 50 2 38
f 2 3 38
f 3 4 38
f 4 41 38
f 4 53 41
f 43 54 42
f 56 55 54
f 55 42 54
f 55 44 42
f 44 57 45
f 44 55 57
f 57 6 7
f 46 57 7
f 45 57 46
f 46 7 8
f 58 46 8
f 47 46 58
f 47 59 48
f 47 58 59
f 49 48 60
f 60 48 59
f 50 51 61
f 61 51 62
f 61 10 2
f 61 2 50
f 11 53 4
f 11 63 53
f 55 56 64
f 64 56 65
f 55 66 57
f 55 64 66
f 67 12 6
f 57 67 6
f 66 67 57
f 58 8 12
f 67 58 12
f 68 58 67
f 70 59 69
f 59 68 69
f 59 58 68
f 59 70 60
f 62 71 61
f 61 71 10
f 71 13 10
f 71 72 13
f 11 13 63
f 63 13 72
f 65 73 64
f 64 73 66
f 66 73 74
f 66 74 67
f 67 74 75
f 67 75 68
f 68 75 76
f 68 76 69
f 79 78 77
f 77 80 79
f 83 82 81
f 81 84 83
f 87 86 85
f 15 16 85
f 16 87 85
f 16 88 87
f 89 77 17
f 77 88 17
f 88 16 17
f 77 78 88
f 80 77 90
f 77 91 90
f 77 89 91
f 93 92 91
f 91 92 90
f 92 93 82
f 93 81 82
f 93 94 81
f 84 81 95
f 81 96 95
f 81 94 96
f 96 97 95
f 100 99 98
f 100 98 86
f 86 98 85
f 98 19 85
f 19 20 85
f 85 20 15
f 22 89 17
f 89 22 24
f 89 24 91
f 91 24 26
f 91 26 93
f 93 26 28
f 101 93 28
f 94 93 101
f 94 102 96
f 94 101 102
f 97 96 103
f 96 104 103
f 96 102 104
f 106 105 104
f 104 105 103
f 106 107 105
f 98 99 31
f 99 30 31
f 99 108 30
f 98 31 19
f 37 109 101
f 37 101 28
f 101 110 102
f 101 109 110
f 110 39 40
f 104 110 40
f 102 110 104
f 104 40 41
f 111 104 41
f 106 104 111
f 107 106 112
f 106 113 112
f 106 111 113
f 113 114 112
f 108 43 30
f 115 43 108
f 49 116 109
f 49 109 37
f 116 51 52
f 110 116 52
f 109 116 110
f 110 52 39
f 53 117 111
f 53 111 41
f 111 118 113
f 111 117 118
f 114 113 119
f 119 113 118
f 54 43 120
f 43 121 120
f 43 115 121
f 120 56 54
f 60 122 116
f 60 116 49
f 122 62 51
f 122 51 116
f 63 123 117
f 63 117 53
f 117 124 118
f 117 123 124
f 119 118 125
f 125 118 124
f 120 121 126
f 126 121 127
f 126 65 56
f 126 56 120
f 69 128 70
f 122 60 70
f 128 122 70
f 129 122 128
f 130 71 62
f 122 130 62
f 129 130 122
f 131 72 71
f 131 71 130
f 123 63 72
f 131 123 72
f 132 123 131
f 123 133 124
f 123 132 133
f 125 124 134
f 124 135 134
f 124 133 135
f 135 136 134
f 127 137 126
f 137 139 138
f 137 138 73
f 126 137 73
f 65 126 73
f 140 74 73
f 140 73 138
f 141 75 74
f 141 74 140
f 142 76 75
f 142 75 141
f 128 69 76
f 142 128 76
f 143 128 142
f 128 144 129
f 128 143 144
f 129 145 130
f 129 144 145
f 130 146 131
f 130 145 146
f 131 147 132
f 131 146 147
f 132 148 133
f 132 147 148
f 150 135 149
f 135 148 149
f 135 133 148
f 135 150 136
f 139 151 138
f 138 151 140
f 140 151 152
f 140 152 141
f 141 152 153
f 141 153 142
f 142 153 154
f 142 154 143
f 143 154 155
f 143 155 144
f 144 155 156
f 144 156 145
f 145 156 157
f 159 158 157
f 158 145 157
f 158 146 145
f 146 160 147
f 146 158 160
f 162 148 161
f 148 160 161
f 148 147 160
f 148 162 149
f 159 163 158
f 158 163 160
f 160 163 164
f 160 164 161
f 167 166 165
f 165 168 167
f 171 170 169
f 173 172 169
f 169 172 171
f 78 79 173
f 79 172 173
f 79 174 172
f 175 165 80
f 165 174 80
f 174 79 80
f 165 166 174
f 168 165 176
f 165 177 176
f 165 175 177
f 82 83 177
f 83 176 177
f 83 178 176
f 180 179 84
f 179 83 84
f 179 178 83
f 180 181 179
f 169 170 87
f 170 86 87
f 170 182 86
f 169 87 88
f 169 88 173
f 173 88 78
f 90 175 80
f 175 90 92
f 175 92 177
f 177 92 82
f 95 180 84
f 184 183 97
f 97 183 95
f 183 181 95
f 181 180 95
f 186 185 184
f 184 185 183
f 186 187 185
f 189 188 100
f 100 188 99
f 100 86 182
f 100 182 189
f 103 184 97
f 184 103 105
f 184 105 186
f 191 190 107
f 107 190 105
f 190 187 105
f 187 186 105
f 191 192 190
f 195 194 193
f 188 195 193
f 108 188 193
f 99 188 108
f 112 191 107
f 197 196 114
f 114 196 112
f 196 192 112
f 192 191 112
f 197 198 196
f 193 194 199
f 199 194 200
f 199 115 108
f 199 108 193
f 119 201 197
f 119 197 114
f 198 197 202
f 202 197 201
f 199 200 203
f 203 200 204
f 203 121 115
f 203 115 199
f 125 205 201
f 125 201 119
f 202 201 206
f 201 207 206
f 201 205 207
f 207 208 206
f 204 209 203
f 121 203 209
f 210 121 209
f 127 121 210
f 134 205 125
f 205 134 136
f 211 205 136
f 207 205 211
f 208 207 212
f 212 207 211
f 210 213 127
f 127 213 137
f 139 137 213
f 139 213 214
f 149 215 150
f 211 136 150
f 215 211 150
f 216 211 215
f 212 211 217
f 217 211 216
f 214 218 139
f 139 218 151
f 218 220 219
f 152 218 219
f 151 218 152
f 221 153 152
f 221 152 219
f 222 154 153
f 222 153 221
f 223 155 154
f 223 154 222
f 224 156 155
f 224 155 223
f 225 157 156
f 225 156 224
f 225 159 157
f 161 226 162
f 215 149 162
f 226 215 162
f 227 215 226
f 215 228 216
f 215 227 228
f 217 216 229
f 229 216 228
f 220 230 219
f 219 230 221
f 221 230 231
f 221 231 222
f 222 231 232
f 222 232 223
f 223 232 233
f 223 233 224
f 224 233 234
f 236 235 234
f 235 224 234
f 235 225 224
f 237 163 159
f 225 237 159
f 235 237 225
f 238 164 163
f 238 163 237
f 226 161 164
f 238 226 164
f 239 226 238
f 241 227 240
f 227 239 240
f 227 226 239
f 227 241 228
f 228 241 242
f 228 242 229
f 236 243 235
f 235 243 237
f 237 243 244
f 237 244 238
f 238 244 245
f 238 245 239
f 239 245 246
f 239 246 240
f 249 248 247
f 251 250 247
f 247 250 249
f 166 167 251
f 167 250 251
f 167 252 250
f 254 253 168
f 253 167 168
f 253 252 167
f 256 255 254
f 254 255 253
f 258 257 256
f 256 257 255
f 258 259 257
f 261 260 171
f 171 260 170
f 172 247 248
f 261 172 248
f 171 172 261
f 247 172 174
f 247 174 251
f 251 174 166
f 176 254 168
f 254 176 178
f 254 178 256
f 256 178 179
f 256 179 258
f 263 262 181
f 181 262 179
f 262 259 179
f 259 258 179
f 265 264 263
f 263 264 262
f 265 266 264
f 269 268 267
f 260 269 267
f 182 260 267
f 170 260 182
f 183 263 181
f 263 183 185
f 263 185 265
f 271 270 187
f 187 270 185
f 270 266 185
f 266 265 185
f 271 272 270
f 275 274 273
f 275 273 268
f 268 273 267
f 273 188 267
f 188 189 267
f 267 189 182
f 190 271 187
f 277 276 192
f 192 276 190
f 276 272 190
f 272 271 190
f 277 278 276
f 273 274 195
f 274 194 195
f 274 279 194
f 273 195 188
f 196 277 192
f 281 280 198
f 198 280 196
f 280 278 196
f 278 277 196
f 281 282 280
f 279 200 194
f 283 200 279
f 202 284 281
f 202 281 198
f 282 281 285
f 285 281 284
f 283 204 200
f 286 204 283
f 206 284 202
f 206 208 284
f 208 285 284
f 208 287 285
f 286 288 204
f 204 288 209
f 210 209 288
f 210 288 289
f 212 291 290
f 287 212 290
f 208 212 287
f 291 292 290
f 213 210 293
f 210 294 293
f 210 289 294
f 293 214 213
f 217 295 291
f 217 291 212
f 292 291 296
f 296 291 295
f 294 297 293
f 297 299 298
f 297 298 218
f 293 297 218
f 214 293 218
f 298 220 218
f 229 300 295
f 229 295 217
f 296 295 301
f 301 295 300
f 299 302 298
f 298 302 220
f 302 230 220
f 302 303 230
f 230 304 231
f 303 304 230
f 304 306 305
f 232 304 305
f 231 304 232
f 232 305 307
f 308 232 307
f 233 232 308
f 308 310 309
f 234 308 309
f 233 308 234
f 309 236 234
f 240 311 241
f 312 242 241
f 312 241 311
f 312 313 242
f 242 313 229
f 313 314 229
f 314 300 229
f 300 314 301
f 306 315 305
f 305 315 307
f 310 316 309
f 316 318 317
f 316 317 243
f 309 316 243
f 236 309 243
f 319 244 243
f 319 243 317
f 320 245 244
f 320 244 319
f 321 246 245
f 321 245 320
f 321 322 246
f 246 322 240
f 322 323 240
f 323 311 240
f 311 323 312
f 312 323 324
f 312 324 313
f 318 325 317
f 317 325 319
f 319 325 326
f 319 326 320
f 320 326 327
f 320 327 321
f 321 327 328
f 321 328 322
f 331 330 329
f 333 332 329
f 329 332 331
f 335 334 333
f 333 334 332
f 337 336 335
f 335 336 334
f 337 338 336
f 341 340 339
f 248 249 339
f 249 341 339
f 249 342 341
f 250 329 330
f 342 250 330
f 249 250 342
f 329 250 252
f 329 252 333
f 333 252 253
f 333 253 335
f 335 253 255
f 335 255 337
f 343 338 337
f 255 343 337
f 257 343 255
f 345 344 259
f 344 257 259
f 344 343 257
f 345 346 344
f 339 340 261
f 340 260 261
f 340 347 260
f 339 261 248
f 262 345 259
f 348 346 345
f 262 348 345
f 264 348 262
f 350 349 266
f 349 264 266
f 349 348 264
f 350 351 349
f 353 352 269
f 269 352 268
f 269 260 347
f 269 347 353
f 270 350 266
f 355 354 272
f 272 354 270
f 354 351 270
f 351 350 270
f 355 356 354
f 358 357 275
f 275 357 274
f 275 268 352
f 275 352 358
f 276 355 272
f 360 359 278
f 278 359 276
f 359 356 276
f 356 355 276
f 360 361 359
f 357 279 274
f 362 279 357
f 365 364 363
f 366 363 364
f 280 360 278
f 280 282 360
f 282 361 360
f 282 367 361
f 362 283 279
f 368 283 362
f 369 365 363
f 372 371 370
f 366 369 363
f 373 371 372
f 285 367 282
f 285 374 367
f 368 286 283
f 375 286 368
f 376 370 371
f 376 371 373
f 287 378 377
f 374 287 377
f 285 287 374
f 378 379 377
f 288 286 380
f 286 381 380
f 286 375 381
f 380 289 288
f 384 383 382
f 385 382 383
f 290 378 287
f 290 292 378
f 292 379 378
f 292 386 379
f 381 387 380
f 289 380 387
f 388 289 387
f 294 289 388
f 389 384 382
f 389 382 385
f 296 391 390
f 386 296 390
f 292 296 386
f 391 392 390
f 388 393 294
f 294 393 297
f 299 297 393
f 299 393 394
f 301 395 391
f 301 391 296
f 392 391 396
f 396 391 395
f 394 397 299
f 299 397 302
f 397 399 398
f 303 397 398
f 302 397 303
f 400 304 303
f 400 303 398
f 400 306 304
f 307 401 308
f 401 310 308
f 313 402 314
f 402 403 314
f 314 403 301
f 403 404 301
f 404 395 301
f 395 404 396
f 399 405 398
f 398 405 400
f 400 405 406
f 400 406 306
f 406 315 306
f 406 407 315
f 307 315 401
f 315 408 401
f 315 407 408
f 408 410 409
f 408 409 316
f 401 408 316
f 310 401 316
f 409 318 316
f 322 411 323
f 412 324 323
f 412 323 411
f 412 413 324
f 324 413 313
f 413 414 313
f 414 402 313
f 402 414 403
f 410 415 409
f 409 415 318
f 415 325 318
f 415 416 325
f 325 417 326
f 416 417 325
f 326 418 327
f 417 418 326
f 327 419 328
f 418 419 327
f 322 328 411
f 328 420 411
f 328 419 420
f 411 420 412
f 412 420 421
f 412 421 413
f 424 423 422
f 330 331 422
f 331 424 422
f 331 425 424
f 426 331 332
f 426 425 331
f 427 332 334
f 427 426 332
f 428 334 336
f 428 427 334
f 430 429 338
f 429 336 338
f 429 428 336
f 430 431 429
f 433 432 341
f 341 432 340
f 342 422 423
f 433 342 423
f 341 342 433
f 422 342 330
f 343 430 338
f 434 431 430
f 343 434 430
f 344 434 343
f 436 435 346
f 435 344 346
f 435 434 344
f 436 437 435
f 432 347 340
f 438 347 432
f 348 436 346
f 439 437 436
f 348 439 436
f 349 439 348
f 441 440 351
f 440 349 351
f 440 439 349
f 441 442 440
f 444 443 353
f 353 443 352
f 353 347 438
f 353 438 444
f 354 441 351
f 446 445 356
f 356 445 354
f 445 442 354
f 442 441 354
f 446 447 445
f 449 448 358
f 358 448 357
f 358 352 443
f 358 443 449
f 359 446 356
f 359 361 446
f 361 447 446
f 361 450 447
f 448 362 357
f 451 362 448
f 365 452 364
f 452 366 364
f 367 450 361
f 367 453 450
f 451 368 362
f 454 368 451
f 369 452 365
f 366 452 369
f 372 370 455
f 455 373 372
f 374 457 456
f 453 374 456
f 367 374 453
f 457 458 456
f 454 375 368
f 459 375 454
f 376 455 370
f 455 376 373
f 377 457 374
f 377 379 457
f 379 458 457
f 379 460 458
f 459 381 375
f 461 381 459
f 463 462 383
f 463 383 384
f 385 383 462
f 385 462 464
f 386 466 465
f 460 386 465
f 379 386 460
f 466 467 465
f 461 468 381
f 381 468 387
f 388 387 468
f 388 468 469
f 472 471 470
f 473 470 471
f 384 389 474
f 475 384 474
f 463 384 475
f 385 464 476
f 474 385 476
f 477 474 476
f 389 385 474
f 478 477 476
f 390 466 386
f 390 392 466
f 392 467 466
f 392 479 467
f 469 480 388
f 388 480 393
f 394 393 480
f 394 480 481
f 482 472 470
f 482 470 473
f 483 475 474
f 485 484 483
f 474 485 483
f 477 485 474
f 477 478 486
f 477 486 485
f 396 479 392
f 396 487 479
f 481 488 394
f 394 488 397
f 399 397 488
f 399 488 489
f 490 484 485
f 490 485 486
f 492 491 404
f 492 404 403
f 396 404 487
f 487 404 491
f 489 493 399
f 399 493 405
f 405 494 406
f 493 494 405
f 406 495 407
f 494 495 406
f 407 496 408
f 495 496 407
f 410 408 496
f 410 496 497
f 499 498 414
f 499 414 413
f 403 414 492
f 492 414 498
f 497 500 410
f 410 500 415
f 500 502 501
f 416 500 501
f 415 500 416
f 503 417 416
f 503 416 501
f 417 503 504
f 505 417 504
f 418 417 505
f 418 506 419
f 505 506 418
f 419 507 420
f 506 507 419
f 420 508 421
f 507 508 420
f 413 421 499
f 499 421 508
f 502 509 501
f 501 509 503
f 503 509 510
f 503 510 504
f 513 512 511
f 515 514 511
f 511 514 513
f 517 516 515
f 515 516 514
f 517 518 516
f 521 520 519
f 423 424 519
f 424 521 519
f 424 522 521
f 425 511 512
f 522 425 512
f 424 425 522
f 511 425 426
f 511 426 515
f 515 426 427
f 515 427 517
f 523 518 517
f 427 523 517
f 428 523 427
f 524 428 429
f 524 523 428
f 429 431 524
f 524 431 525
f 519 520 433
f 520 432 433
f 520 526 432
f 519 433 423
f 527 525 431
f 527 431 434
f 528 434 435
f 528 527 434
f 435 437 528
f 528 437 529
f 526 438 432
f 530 438 526
f 531 529 437
f 531 437 439
f 532 439 440
f 532 531 439
f 440 442 532
f 532 442 533
f 535 534 444
f 444 534 443
f 444 438 530
f 444 530 535
f 538 537 536
f 539 536 537
f 540 533 442
f 540 442 445
f 445 447 540
f 540 447 541
f 542 448 449
f 543 542 449
f 443 543 449
f 534 543 443
f 544 538 536
f 544 536 539
f 450 541 447
f 450 545 541
f 547 546 542
f 546 448 542
f 546 451 448
f 547 542 543
f 453 549 548
f 545 453 548
f 450 453 545
f 549 550 548
f 546 454 451
f 551 454 546
f 456 549 453
f 456 458 549
f 458 550 549
f 458 552 550
f 551 459 454
f 553 459 551
f 460 552 458
f 460 554 552
f 553 461 459
f 555 461 553
f 463 556 462
f 556 464 462
f 557 554 460
f 557 460 465
f 465 467 557
f 557 467 558
f 555 559 461
f 461 559 468
f 469 468 559
f 469 559 560
f 472 561 471
f 561 473 471
f 475 562 556
f 475 556 463
f 563 476 464
f 556 563 464
f 562 563 556
f 563 478 476
f 479 558 467
f 479 564 558
f 560 565 469
f 469 565 480
f 481 480 565
f 481 565 566
f 482 561 472
f 561 482 473
f 483 562 475
f 562 483 484
f 567 562 484
f 563 562 567
f 567 486 478
f 567 478 563
f 487 564 479
f 487 568 564
f 566 569 481
f 481 569 488
f 571 570 489
f 488 571 489
f 569 571 488
f 572 570 571
f 490 567 484
f 567 490 486
f 574 573 491
f 574 491 492
f 487 491 568
f 568 491 573
f 570 493 489
f 572 575 570
f 575 493 570
f 575 494 493
f 575 577 576
f 495 575 576
f 494 575 495
f 495 576 578
f 579 495 578
f 496 495 579
f 497 496 579
f 497 579 580
f 582 581 498
f 582 498 499
f 492 498 574
f 574 498 581
f 577 583 576
f 576 583 578
f 580 584 497
f 497 584 500
f 502 500 584
f 502 584 585
f 504 586 505
f 505 586 587
f 588 505 587
f 506 505 588
f 506 589 507
f 588 589 506
f 507 590 508
f 589 590 507
f 499 508 582
f 582 508 590
f 585 591 502
f 502 591 509
f 509 592 510
f 591 592 509
f 504 510 586
f 510 593 586
f 510 592 593
f 586 593 587
f 595 594 513
f 513 594 512
f 596 513 514
f 596 595 513
f 597 514 516
f 597 596 514
f 516 518 597
f 597 518 598
f 600 599 521
f 521 599 520
f 601 521 522
f 601 600 521
f 522 512 594
f 522 594 601
f 602 598 518
f 602 518 523
f 603 523 524
f 603 602 523
f 524 525 603
f 603 525 604
f 599 526 520
f 605 526 599
f 606 604 525
f 606 525 527
f 607 527 528
f 607 606 527
f 528 529 607
f 607 529 608
f 605 530 526
f 609 530 605
f 610 608 529
f 610 529 531
f 611 531 532
f 611 610 531
f 532 533 611
f 611 533 612
f 614 613 535
f 535 613 534
f 535 530 609
f 535 609 614
f 538 615 537
f 615 539 537
f 616 612 533
f 616 533 540
f 540 541 616
f 616 541 617
f 613 543 534
f 618 543 613
f 544 615 538
f 615 544 539
f 545 617 541
f 545 619 617
f 620 546 547
f 621 620 547
f 543 621 547
f 618 621 543
f 622 619 545
f 622 545 548
f 548 550 622
f 622 550 623
f 625 624 620
f 624 546 620
f 624 551 546
f 625 620 621
f 552 623 550
f 552 626 623
f 628 553 627
f 553 624 627
f 553 551 624
f 629 628 627
f 554 626 552
f 554 630 626
f 631 555 628
f 628 555 553
f 628 629 632
f 628 632 631
f 633 630 554
f 633 554 557
f 557 558 633
f 633 558 634
f 631 559 555
f 560 559 631
f 632 560 631
f 635 560 632
f 564 634 558
f 564 636 634
f 635 637 560
f 560 637 565
f 639 638 566
f 565 639 566
f 637 639 565
f 640 638 639
f 568 636 564
f 568 641 636
f 638 569 566
f 640 642 638
f 642 569 638
f 642 571 569
f 572 571 642
f 572 642 643
f 645 644 573
f 645 573 574
f 568 573 641
f 641 573 644
f 643 646 572
f 572 646 575
f 577 575 646
f 577 646 647
f 649 648 579
f 649 579 578
f 580 579 648
f 580 648 650
f 652 651 581
f 652 581 582
f 574 581 645
f 645 581 651
f 647 653 577
f 577 653 583
f 578 583 649
f 649 583 653
f 650 654 580
f 580 654 584
f 656 655 585
f 584 656 585
f 654 656 584
f 657 655 656
f 660 659 658
f 588 587 658
f 659 588 658
f 661 588 659
f 588 662 589
f 661 662 588
f 589 663 590
f 662 663 589
f 582 590 652
f 652 590 663
f 655 591 585
f 657 664 655
f 664 591 655
f 664 592 591
f 658 593 660
f 593 664 660
f 593 592 664
f 593 658 587
f 666 665 595
f 595 665 594
f 667 595 596
f 667 666 595
f 668 596 597
f 668 667 596
f 597 598 668
f 668 598 669
f 670 599 600
f 670 600 671
f 600 672 671
f 600 601 672
f 601 594 665
f 601 665 672
f 673 669 598
f 673 598 602
f 675 673 674
f 673 603 674
f 673 602 603
f 604 674 603
f 676 605 670
f 670 605 599
f 670 671 677
f 670 677 676
f 678 675 674
f 678 674 604
f 606 678 604
f 679 678 606
f 681 679 680
f 679 607 680
f 679 606 607
f 608 680 607
f 683 682 676
f 682 605 676
f 682 609 605
f 683 676 677
f 684 681 680
f 684 680 608
f 610 684 608
f 685 684 610
f 686 610 611
f 686 685 610
f 611 612 686
f 686 612 687
f 688 613 614
f 689 688 614
f 609 689 614
f 682 689 609
f 612 616 690
f 691 612 690
f 687 612 691
f 617 690 616
f 693 692 688
f 692 613 688
f 692 618 613
f 693 688 689
f 694 691 690
f 690 617 694
f 617 695 694
f 617 619 695
f 692 621 618
f 696 621 692
f 619 622 697
f 698 619 697
f 695 619 698
f 623 697 622
f 699 624 625
f 700 699 625
f 621 700 625
f 696 700 621
f 698 697 701
f 698 701 702
f 626 701 623
f 623 701 697
f 699 627 624
f 629 627 699
f 700 629 699
f 703 629 700
f 704 702 701
f 701 626 704
f 626 705 704
f 626 630 705
f 703 632 629
f 706 632 703
f 707 705 630
f 707 630 633
f 633 634 707
f 707 634 708
f 710 635 709
f 635 706 709
f 635 632 706
f 711 710 709
f 714 713 712
f 713 708 712
f 708 636 712
f 708 634 636
f 710 637 635
f 711 715 710
f 715 637 710
f 715 639 637
f 640 639 715
f 640 715 716
f 714 712 717
f 714 717 718
f 641 717 636
f 636 717 712
f 716 719 640
f 640 719 642
f 643 642 719
f 643 719 720
f 723 722 721
f 721 722 718
f 721 718 717
f 645 721 717
f 644 645 717
f 644 717 641
f 720 724 643
f 643 724 646
f 647 646 724
f 647 724 725
f 649 726 648
f 726 650 648
f 729 728 727
f 727 728 723
f 727 723 721
f 652 727 721
f 651 652 721
f 651 721 645
f 725 730 647
f 647 730 653
f 649 653 726
f 653 731 726
f 653 730 731
f 726 731 650
f 731 654 650
f 731 732 654
f 654 733 656
f 732 733 654
f 735 734 657
f 656 735 657
f 733 735 656
f 659 660 734
f 735 659 734
f 736 659 735
f 659 737 661
f 736 737 659
f 661 738 662
f 737 738 661
f 727 663 729
f 663 738 729
f 663 662 738
f 663 727 652
f 734 664 657
f 664 734 660
f 739 665 666
f 739 666 740
f 666 741 740
f 666 667 741
f 742 667 668
f 742 741 667
f 668 669 742
f 742 669 743
f 745 744 672
f 672 744 671
f 672 665 739
f 746 672 739
f 745 672 746
f 746 739 740
f 669 673 747
f 748 669 747
f 743 669 748
f 675 747 673
f 744 677 671
f 749 677 744
f 750 748 747
f 750 747 675
f 678 750 675
f 751 750 678
f 753 751 752
f 751 679 752
f 751 678 679
f 681 752 679
f 754 682 683
f 755 754 683
f 677 755 683
f 749 755 677
f 756 753 752
f 756 752 681
f 684 756 681
f 757 756 684
f 758 684 685
f 758 757 684
f 760 758 759
f 758 686 759
f 758 685 686
f 687 759 686
f 762 761 754
f 761 682 754
f 761 689 682
f 762 754 755
f 763 760 759
f 759 687 763
f 687 764 763
f 687 691 764
f 765 692 693
f 766 765 693
f 689 766 693
f 761 766 689
f 691 694 767
f 768 691 767
f 764 691 768
f 695 767 694
f 770 769 765
f 769 692 765
f 769 696 692
f 770 765 766
f 771 768 767
f 767 695 771
f 695 772 771
f 695 698 772
f 769 700 696
f 773 700 769
f 702 772 698
f 702 774 772
f 773 703 700
f 775 703 773
f 702 704 776
f 777 702 776
f 774 702 777
f 779 776 778
f 776 704 778
f 705 780 778
f 705 778 704
f 780 781 778
f 783 706 782
f 706 775 782
f 706 703 775
f 784 783 782
f 785 777 776
f 705 707 780
f 776 779 785
f 707 708 780
f 708 781 780
f 708 786 781
f 783 709 706
f 788 787 711
f 788 711 709
f 784 788 709
f 783 784 709
f 789 787 788
f 792 791 790
f 793 790 791
f 795 794 713
f 795 713 714
f 708 713 786
f 786 713 794
f 787 715 711
f 797 796 716
f 797 716 715
f 789 797 715
f 787 789 715
f 798 796 797
f 799 792 790
f 799 790 793
f 802 801 800
f 801 795 800
f 795 718 800
f 795 714 718
f 796 719 716
f 804 803 720
f 804 720 719
f 798 804 719
f 796 798 719
f 805 803 804
f 808 807 806
f 806 807 802
f 806 802 800
f 723 806 800
f 722 723 800
f 722 800 718
f 803 724 720
f 810 809 725
f 810 725 724
f 805 810 724
f 803 805 724
f 811 809 810
f 814 813 812
f 812 813 808
f 812 808 806
f 729 812 806
f 728 729 806
f 728 806 723
f 809 730 725
f 811 815 809
f 815 730 809
f 815 731 730
f 731 816 732
f 815 816 731
f 732 817 733
f 816 817 732
f 733 818 735
f 817 818 733
f 735 819 736
f 818 819 735
f 736 820 737
f 819 820 736
f 812 738 814
f 738 820 814
f 738 737 820
f 738 812 729
f 821 740 741
f 821 741 822
f 741 823 822
f 741 742 823
f 742 743 823
f 823 743 824
f 825 744 745
f 825 745 826
f 745 827 826
f 745 746 827
f 746 740 821
f 828 746 821
f 827 746 828
f 831 830 829
f 822 828 821
f 831 824 830
f 824 748 830
f 824 743 748
f 833 832 825
f 832 744 825
f 832 749 744
f 833 825 826
f 834 829 830
f 836 834 835
f 835 834 750
f 834 830 750
f 830 748 750
f 751 837 750
f 750 837 835
f 753 837 751
f 832 755 749
f 838 755 832
f 839 836 835
f 841 840 839
f 835 841 839
f 837 841 835
f 756 842 753
f 842 837 753
f 842 841 837
f 757 843 756
f 756 843 842
f 758 844 757
f 757 844 843
f 760 844 758
f 845 761 762
f 846 845 762
f 755 846 762
f 838 846 755
f 847 840 841
f 849 848 847
f 841 849 847
f 842 849 841
f 850 842 843
f 849 842 850
f 844 852 851
f 850 844 851
f 843 844 850
f 854 852 853
f 853 852 763
f 852 844 763
f 844 760 763
f 764 853 763
f 856 855 845
f 855 761 845
f 855 766 761
f 856 845 846
f 857 848 849
f 857 849 850
f 857 850 858
f 858 850 851
f 854 853 859
f 854 859 860
f 768 859 764
f 764 859 853
f 861 769 770
f 862 861 770
f 766 862 770
f 855 862 766
f 860 859 863
f 860 863 864
f 771 865 768
f 865 859 768
f 865 863 859
f 772 865 771
f 866 773 861
f 861 773 769
f 861 862 867
f 861 867 866
f 868 864 863
f 870 869 868
f 863 870 868
f 865 870 863
f 774 870 772
f 772 870 865
f 871 775 866
f 866 775 773
f 866 867 872
f 866 872 871
f 873 869 870
f 870 774 873
f 774 874 873
f 774 777 874
f 875 779 778
f 781 875 778
f 871 782 775
f 784 782 871
f 872 784 871
f 876 784 872
f 877 874 777
f 877 777 785
f 877 785 779
f 878 877 779
f 875 878 779
f 877 878 879
f 786 878 781
f 781 878 875
f 876 880 784
f 784 880 788
f 882 881 789
f 788 882 789
f 880 882 788
f 884 883 881
f 884 881 882
f 885 883 884
f 792 886 791
f 886 793 791
f 889 888 887
f 887 888 879
f 887 879 878
f 795 887 878
f 794 795 878
f 794 878 786
f 881 797 789
f 797 881 798
f 881 890 798
f 881 883 890
f 883 885 891
f 883 891 890
f 799 886 792
f 886 799 793
f 894 893 892
f 892 893 889
f 892 889 887
f 802 892 887
f 801 802 887
f 801 887 795
f 890 804 798
f 805 804 890
f 891 805 890
f 895 805 891
f 898 897 896
f 896 897 894
f 896 894 892
f 808 896 892
f 807 808 892
f 807 892 802
f 895 899 805
f 805 899 810
f 901 900 811
f 810 901 811
f 899 901 810
f 902 900 901
f 905 904 903
f 907 906 903
f 907 903 904
f 908 906 907
f 911 910 909
f 909 910 898
f 909 898 896
f 814 909 896
f 813 814 896
f 813 896 808
f 900 815 811
f 902 912 900
f 912 815 900
f 912 816 815
f 903 817 905
f 817 912 905
f 817 816 912
f 817 903 818
f 818 903 906
f 908 913 906
f 913 818 906
f 913 819 818
f 909 820 911
f 820 913 911
f 820 819 913
f 820 909 814
f 914 822 823
f 824 914 823
f 915 826 827
f 828 916 827
f 827 916 915
f 828 822 916
f 822 914 916
f 831 829 916
f 831 916 914
f 831 914 824
f 917 832 833
f 826 915 833
f 915 917 833
f 915 918 917
f 919 915 916
f 918 915 919
f 834 920 829
f 920 916 829
f 920 919 916
f 836 920 834
f 921 838 917
f 917 838 832
f 922 917 918
f 921 917 922
f 923 918 919
f 922 918 923
f 924 919 920
f 923 919 924
f 839 925 836
f 925 920 836
f 925 924 920
f 840 925 839
f 926 846 921
f 921 846 838
f 922 928 927
f 926 922 927
f 921 922 926
f 928 922 923
f 928 923 929
f 929 923 924
f 929 924 930
f 932 931 930
f 924 932 930
f 925 932 924
f 847 933 840
f 933 925 840
f 933 932 925
f 848 933 847
f 934 851 852
f 854 934 852
f 935 855 856
f 936 935 856
f 936 856 846
f 937 936 846
f 926 937 846
f 937 926 927
f 938 931 932
f 940 939 938
f 932 940 938
f 933 940 932
f 857 941 848
f 941 933 848
f 941 940 933
f 858 942 857
f 857 942 941
f 851 934 858
f 934 942 858
f 934 943 942
f 860 943 854
f 854 943 934
f 945 944 935
f 944 855 935
f 944 862 855
f 945 935 936
f 946 939 940
f 946 940 941
f 946 941 947
f 949 948 947
f 941 949 947
f 942 949 941
f 950 942 943
f 949 942 950
f 864 950 860
f 860 950 943
f 944 867 862
f 951 867 944
f 952 948 949
f 952 949 950
f 952 950 953
f 955 953 954
f 954 953 868
f 953 950 868
f 950 864 868
f 869 954 868
f 957 872 956
f 872 951 956
f 872 867 951
f 958 957 956
f 959 955 954
f 959 954 869
f 873 959 869
f 960 959 873
f 873 874 960
f 960 874 961
f 962 876 957
f 957 876 872
f 957 958 963
f 964 957 963
f 962 957 964
f 965 964 963
f 966 961 874
f 966 874 877
f 877 879 966
f 966 879 967
f 962 880 876
f 880 962 882
f 882 962 964
f 965 968 964
f 968 882 964
f 968 884 882
f 885 884 968
f 885 968 969
f 972 971 970
f 974 973 970
f 974 970 971
f 975 888 889
f 976 973 974
f 975 977 888
f 977 879 888
f 977 967 879
f 979 891 978
f 891 969 978
f 891 885 969
f 980 979 978
f 983 982 981
f 981 982 972
f 970 981 972
f 984 981 970
f 894 984 893
f 984 973 893
f 984 970 973
f 973 976 893
f 976 985 893
f 975 889 893
f 975 893 985
f 975 985 977
f 986 895 979
f 979 895 891
f 979 980 987
f 988 979 987
f 986 979 988
f 990 989 988
f 990 988 987
f 992 991 989
f 992 989 990
f 994 993 991
f 994 991 992
f 996 995 993
f 996 993 994
f 995 996 983
f 981 995 983
f 997 995 981
f 898 997 897
f 997 984 897
f 997 981 984
f 897 984 894
f 986 899 895
f 899 986 901
f 901 986 988
f 901 988 902
f 988 998 902
f 988 989 998
f 905 998 904
f 998 991 904
f 998 989 991
f 904 991 907
f 907 991 993
f 907 993 908
f 993 999 908
f 993 995 999
f 911 999 910
f 999 997 910
f 999 995 997
f 910 997 898
f 998 912 902
f 912 998 905
f 999 913 908
f 913 999 911
f 1000 927 928
f 929 1001 928
f 928 1001 1000
f 930 1002 929
f 929 1002 1001
f 931 1002 930
f 1003 936 937
f 1004 1003 937
f 1004 937 927
f 1005 1004 927
f 1000 1005 927
f 1007 1006 1005
f 1000 1007 1005
f 1001 1007 1000
f 1008 1001 1002
f 1007 1001 1008
f 938 1009 931
f 1009 1002 931
f 1009 1008 1002
f 939 1009 938
f 1010 944 945
f 1011 1010 945
f 1011 945 936
f 1012 1011 936
f 1003 1012 936
f 1012 1003 1004
f 1013 1006 1007
f 1015 1014 1013
f 1007 1015 1013
f 1008 1015 1007
f 1016 1008 1009
f 1015 1008 1016
f 946 1017 939
f 1017 1009 939
f 1017 1016 1009
f 947 1018 946
f 946 1018 1017
f 948 1018 947
f 1019 951 1010
f 1010 951 944
f 1010 1011 1020
f 1010 1020 1019
f 1014 1015 1021
f 1014 1021 1022
f 1023 1015 1016
f 1021 1015 1023
f 1024 1016 1017
f 1023 1016 1024
f 1025 1017 1018
f 1024 1017 1025
f 1025 1018 948
f 1026 1025 948
f 952 1026 948
f 1027 1025 1026
f 1028 952 953
f 1028 1026 952
f 953 955 1028
f 1028 955 1029
f 1019 956 951
f 1031 1030 958
f 1031 958 956
f 1020 1031 956
f 1019 1020 956
f 1032 1030 1031
f 1033 1022 1021
f 1033 1021 1023
f 1033 1023 1034
f 1036 1035 1034
f 1023 1036 1034
f 1024 1036 1023
f 1025 1038 1037
f 1036 1025 1037
f 1024 1025 1036
f 1038 1025 1027
f 1039 1029 955
f 1039 955 959
f 1041 1039 1040
f 1039 960 1040
f 1039 959 960
f 961 1040 960
f 1030 963 958
f 1043 1042 965
f 1043 965 963
f 1032 1043 963
f 1030 1032 963
f 1044 1042 1043
f 1045 1035 1036
f 1045 1036 1037
f 1046 1041 1040
f 1046 1040 961
f 966 1046 961
f 1047 1046 966
f 966 967 1047
f 1047 967 1048
f 1042 968 965
f 1050 1049 969
f 1050 969 968
f 1044 1050 968
f 1042 1044 968
f 1051 1049 1050
f 1054 1053 1052
f 1055 971 972
f 1056 1052 1053
f 1057 974 971
f 1057 971 1055
f 976 974 1057
f 1060 1059 1058
f 1058 1048 1060
f 1048 977 1060
f 1048 967 977
f 1049 978 969
f 1062 1061 980
f 1062 980 978
f 1051 1062 978
f 1049 1051 978
f 1063 1061 1062
f 1066 1065 1064
f 1064 1065 1054
f 1064 1054 1052
f 983 1064 1052
f 982 983 1052
f 1052 1056 982
f 1056 1067 982
f 1055 972 982
f 1055 982 1067
f 1055 1067 1057
f 1057 1067 1068
f 1059 1060 1068
f 1060 985 1068
f 976 1057 1068
f 976 1068 985
f 985 1060 977
f 1061 987 980
f 1063 1069 1061
f 1069 987 1061
f 1069 990 987
f 990 1070 992
f 1069 1070 990
f 992 1071 994
f 1070 1071 992
f 1064 996 1066
f 996 1071 1066
f 996 994 1071
f 996 1064 983
f 1072 1004 1005
f 1006 1072 1005
f 1073 1011 1012
f 1074 1073 1012
f 1074 1012 1004
f 1075 1074 1004
f 1072 1075 1004
f 1075 1072 1006
f 1013 1075 1006
f 1076 1075 1013
f 1013 1014 1076
f 1076 1014 1077
f 1078 1020 1073
f 1073 1020 1011
f 1073 1074 1079
f 1073 1079 1078
f 1022 1077 1014
f 1022 1080 1077
f 1081 1027 1026
f 1028 1082 1026
f 1026 1082 1081
f 1029 1082 1028
f 1078 1031 1020
f 1084 1083 1032
f 1084 1032 1031
f 1079 1084 1031
f 1078 1079 1031
f 1086 1085 1083
f 1086 1083 1084
f 1087 1085 1033
f 1085 1080 1033
f 1080 1022 1033
f 1080 1085 1086
f 1034 1088 1033
f 1033 1088 1087
f 1035 1088 1034
f 1089 1037 1038
f 1090 1089 1038
f 1090 1038 1027
f 1091 1090 1027
f 1081 1091 1027
f 1091 1081 1082
f 1091 1082 1092
f 1094 1092 1093
f 1093 1092 1039
f 1092 1082 1039
f 1082 1029 1039
f 1041 1093 1039
f 1083 1043 1032
f 1043 1083 1044
f 1083 1095 1044
f 1083 1085 1095
f 1096 1085 1087
f 1095 1085 1096
f 1097 1087 1088
f 1096 1087 1097
f 1045 1098 1035
f 1098 1088 1035
f 1098 1097 1088
f 1037 1089 1045
f 1089 1098 1045
f 1089 1099 1098
f 1089 1090 1100
f 1089 1100 1099
f 1101 1094 1093
f 1101 1093 1041
f 1046 1101 1041
f 1102 1101 1046
f 1104 1102 1103
f 1102 1047 1103
f 1102 1046 1047
f 1048 1103 1047
f 1095 1050 1044
f 1050 1095 1051
f 1095 1105 1051
f 1095 1096 1105
f 1106 1096 1097
f 1105 1096 1106
f 1107 1097 1098
f 1106 1097 1107
f 1108 1098 1099
f 1107 1098 1108
f 1099 1100 1109
f 1110 1099 1109
f 1108 1099 1110
f 1053 1054 1110
f 1109 1053 1110
f 1111 1053 1109
f 1113 1112 1056
f 1053 1113 1056
f 1111 1113 1053
f 1115 1114 1112
f 1115 1112 1113
f 1114 1115 1104
f 1114 1104 1103
f 1059 1114 1103
f 1058 1059 1103
f 1058 1103 1048
f 1105 1062 1051
f 1062 1105 1063
f 1105 1116 1063
f 1105 1106 1116
f 1117 1106 1107
f 1116 1106 1117
f 1118 1107 1108
f 1117 1107 1118
f 1066 1118 1065
f 1118 1110 1065
f 1118 1108 1110
f 1065 1110 1054
f 1112 1067 1056
f 1067 1112 1068
f 1068 1112 1114
f 1068 1114 1059
f 1116 1069 1063
f 1069 1116 1070
f 1070 1116 1117
f 1070 1117 1071
f 1071 1117 1118
f 1071 1118 1066
f 1119 1074 1075
f 1076 1120 1075
f 1075 1120 1119
f 1077 1120 1076
f 1121 1079 1119
f 1119 1079 1074
f 1122 1119 1120
f 1121 1119 1122
f 1080 1122 1077
f 1077 1122 1120
f 1121 1084 1079
f 1084 1121 1086
f 1086 1121 1122
f 1086 1122 1080
f 1123 1090 1091
f 1123 1091 1124
f 1091 1125 1124
f 1091 1092 1125
f 1092 1094 1125
f 1125 1094 1126
f 1127 1100 1123
f 1123 1100 1090
f 1123 1124 1128
f 1129 1123 1128
f 1127 1123 1129
f 1130 1129 1101
f 1129 1126 1101
f 1126 1094 1101
f 1126 1129 1128
f 1102 1131 1101
f 1101 1131 1130
f 1104 1131 1102
f 1127 1109 1100
f 1109 1127 1111
f 1111 1127 1129
f 1111 1129 1113
f 1113 1129 1130
f 1113 1130 1115
f 1115 1130 1131
f 1115 1131 1104
f 1132 1124 1125
f 1126 1132 1125
f 1132 1128 1124
f 1128 1132 1126

