# https://github.com/mikedh/trimesh
v -51.19702397 62.33108603 10.89493298
v -51.72686938 62.21539104 11.33572441
v -51.16127144 61.82082579 11.37114178
v -50.20615961 61.99140856 11.48221480
v -50.24191213 62.50166881 11.00600600
v -49.25104778 62.16199134 11.59328783
v -49.28680030 62.67225159 11.11707903
v -48.86153388 62.72713938 11.66894348
v -51.37310801 63.29079932 10.93517127
v -51.90295342 63.17510434 11.37596271
v -50.41799617 63.46138210 11.04624430
v -49.99272975 63.51626990 11.59810876
v -49.42713182 63.12170464 11.63352612
v -51.51343952 63.74025237 11.45161837
v -50.55832769 63.91083515 11.56269139
v -48.86312717 59.73230451 11.98902003
v -49.39297259 59.61660952 12.42981147
v -48.82737465 59.22204427 12.46522883
v -48.43786075 59.78719230 12.54088449
v -50.94943488 60.35085225 11.80711228
v -51.47928029 60.23515726 12.24790371
v -50.91368236 59.84059200 12.28332108
v -49.95857052 60.01117478 12.39439410
v -49.99432305 60.52143503 11.91818530
v -49.03921121 60.69201781 12.02925833
v -48.04834686 60.35234034 12.61654015
v -48.08409938 60.86260058 12.14033135
v -47.65883296 60.91748838 12.69219581
v -52.08063075 61.13998276 11.73627755
v -52.61047617 61.02428778 12.17706898
v -52.04487823 60.62972252 12.21248635
v -51.12551892 61.31056554 11.84735057
v -50.17040709 61.48114832 11.95842360
v -49.21529525 61.65173110 12.06949662
v -48.26018342 61.82231388 12.18056965
v -47.83491700 61.87720167 12.73243411
v -52.25671479 62.09969606 11.77651585
v -52.78656021 61.98400107 12.21730728
v -48.43626746 62.78202717 12.22080794
v -47.44540310 62.44234971 12.80808977
v -47.48115562 62.95260995 12.33188097
v -47.05588920 63.00749774 12.88374543
v -52.43279883 63.05940935 11.81675414
v -52.96264425 62.94371437 12.25754557
v -49.56746333 63.57115769 12.14997321
v -48.61235150 63.74174047 12.26104624
v -47.65723966 63.91232325 12.37211926
v -47.23197324 63.96721104 12.92398372
v -52.60888287 64.01912265 11.85699244
v -53.13872829 63.90342766 12.29778387
v -51.65377104 64.18970542 11.96806546
v -50.69865920 64.36028820 12.07913848
v -49.74354737 64.53087098 12.19021151
v -48.78843554 64.70145376 12.30128453
v -48.36316912 64.75634155 12.85314899
v -47.79757118 64.36177630 12.88856636
v -52.78496691 64.97883594 11.89723073
v -53.31481232 64.86314095 12.33802216
v -51.82985508 65.14941872 12.00830375
v -50.87474324 65.32000150 12.11937678
v -49.91963141 65.49058428 12.23044980
v -48.96451958 65.66116706 12.34152283
v -48.53925315 65.71605485 12.89338729
v -52.92529843 65.42828899 12.41367782
v -51.97018659 65.59887177 12.52475085
v -51.01507476 65.76945455 12.63582387
v -50.05996293 65.94003733 12.74689690
v -49.10485109 66.11062011 12.85796992
v -49.74673396 58.54120124 12.83036461
v -50.27657937 58.42550626 13.27115604
v -49.71098144 58.03094100 13.30657340
v -48.75586960 58.20152378 13.41764643
v -48.79162213 58.71178402 12.94143763
v -47.80075777 58.37210656 13.52871945
v -47.83651029 58.88236680 13.05251066
v -47.41124387 58.93725459 13.60437511
v -50.87792983 59.33033176 12.75952988
v -51.40777525 59.21463677 13.20032131
v -50.84217731 58.82007152 13.23573868
v -49.92281800 59.50091454 12.87060290
v -48.01259433 59.84208010 13.09274895
v -47.02172997 59.50240263 13.68003077
v -47.05748250 60.01266288 13.20382197
v -46.63221608 60.06755067 13.75568643
v -52.00912571 60.11946228 12.68869515
v -52.53897112 60.00376729 13.12948658
v -51.97337318 59.60920203 13.16490395
v -47.23356654 60.97237617 13.24406027
v -46.80830012 61.02726396 13.79592473
v -53.14032158 60.90859279 12.61786042
v -53.67016699 60.79289781 13.05865185
v -53.10456906 60.39833255 13.09406922
v -47.40965058 61.93208946 13.28429856
v -46.41878622 61.59241200 13.87158039
v -46.45453874 62.10267224 13.39537159
v -46.02927232 62.15756003 13.94723605
v -53.31640562 61.86830609 12.65809871
v -53.84625103 61.75261110 13.09889015
v -46.63062278 63.06238554 13.43560988
v -46.20535636 63.11727333 13.98747434
v -53.49248966 62.82801938 12.69833701
v -54.02233507 62.71232439 13.13912844
v -46.80670682 64.02209883 13.47584818
v -46.38144040 64.07698662 14.02771264
v -53.66857370 63.78773267 12.73857530
v -54.19841911 63.67203769 13.17936674
v -47.93790269 64.81122935 13.40501345
v -46.98279086 64.98181212 13.51608647
v -46.55752444 65.03669992 14.06795093
v -53.84465774 64.74744597 12.77881360
v -54.37450315 64.63175098 13.21960503
v -48.11398673 65.77094264 13.44525174
v -47.68872031 65.82583043 13.99711620
v -47.12312238 65.43126518 14.03253357
v -53.98498925 65.19689902 13.29526069
v -53.06562994 65.87774204 12.93012492
v -53.59547535 65.76204706 13.37091635
v -52.11051811 66.04832482 13.04119794
v -51.15540627 66.21890760 13.15227097
v -50.20029444 66.38949038 13.26334399
v -49.24518261 66.56007316 13.37441701
v -48.81991619 66.61496095 13.92628147
v -48.25431825 66.22039569 13.96169884
v -53.20596146 66.32719509 13.44657201
v -52.25084962 66.49777787 13.55764503
v -51.29573779 66.66836065 13.66871806
v -50.34062596 66.83894343 13.77979108
v -49.38551412 67.00952621 13.89086411
v -48.72011708 57.69126354 13.89385523
v -49.24996249 57.57556855 14.33464666
v -48.68436455 57.18100329 14.37006403
v -47.72925272 57.35158607 14.48113705
v -47.76500524 57.86184631 14.00492825
v -47.33973882 57.91673411 14.55679271
v -50.80642479 58.30981127 13.71194747
v -51.33627020 58.19411629 14.15273891
v -50.77067226 57.79955103 14.18815627
v -49.81556043 57.97013381 14.29922930
v -46.95022493 58.48188214 14.63244837
v -46.98597745 58.99214239 14.15623957
v -46.56071103 59.04703018 14.70810403
v -51.93762066 59.09894179 13.64111274
v -52.46746607 58.98324680 14.08190418
v -51.90186814 58.58868154 14.11732154
v -46.17119713 59.61217822 14.78375969
v -46.20694966 60.12243846 14.30755089
v -45.78168323 60.17732625 14.85941535
v -53.06881653 59.88807230 13.57027801
v -53.59866194 59.77237732 14.01106945
v -53.03306401 59.37781206 14.04648681
v -46.38303369 61.08215175 14.34778919
v -45.95776727 61.13703955 14.89965364
v -53.77474598 60.73209061 14.05130774
v -45.56825338 61.70218758 14.97530930
v -45.60400590 62.21244783 14.49910051
v -45.17873948 62.26733562 15.05096496
v -54.37609644 61.63691611 13.53968158
v -54.90594186 61.52122113 13.98047301
v -54.34034392 61.12665587 14.01589038
v -45.78008994 63.17216112 14.53933880
v -45.35482352 63.22704891 15.09120326
v -54.55218048 62.59662941 13.57991988
v -55.08202590 62.48093442 14.02071131
v -45.95617398 64.13187442 14.57957710
v -45.53090756 64.18676221 15.13144155
v -54.72826452 63.55634270 13.62015817
v -55.25810994 63.44064772 14.06094960
v -46.13225802 65.09158771 14.61981539
v -45.70699160 65.14647550 15.17167985
v -54.90434856 64.51605600 13.66039646
v -55.43419397 64.40036101 14.10118790
v -47.26345389 65.88071823 14.54898066
v -46.83818747 65.93560602 15.10084512
v -46.27258953 65.54104076 15.13626248
v -55.04468008 64.96550905 14.17684356
v -54.12532077 65.64635207 13.81170778
v -54.65516618 65.53065708 14.25249922
v -48.39464976 66.66984874 14.47814593
v -47.43953793 66.84043152 14.58921896
v -47.01427151 66.89531931 15.14108341
v -54.26565228 66.09580512 14.32815488
v -53.34629297 66.77664814 13.96301910
v -53.87613839 66.66095316 14.40381054
v -52.39118114 66.94723092 14.07409213
v -51.43606930 67.11781370 14.18516515
v -50.48095747 67.28839648 14.29623818
v -49.52584564 67.45897926 14.40731120
v -49.10057922 67.51386705 14.95917566
v -48.53498128 67.11930179 14.99459302
v -47.57986945 67.28988457 15.10566605
v -53.48662449 67.22610119 14.47946620
v -52.53151265 67.39668397 14.59053922
v -51.57640082 67.56726675 14.70161225
v -50.62128899 67.73784953 14.81268527
v -49.66617715 67.90843231 14.92375830
v -50.73491974 57.28929079 14.66436507
v -51.26476515 57.17359580 15.10515650
v -50.69916721 56.77903054 15.14057387
v -49.74405538 56.94961332 15.25164689
v -49.77980790 57.45987356 14.77543810
v -48.78894355 57.12019610 15.36271992
v -47.83383171 57.29077888 15.47379294
v -46.87871988 57.46136166 15.58486597
v -46.91447240 57.97162190 15.10865717
v -46.48920598 58.02650969 15.66052163
v -51.86611561 58.07842130 14.59353034
v -52.39596102 57.96272631 15.03432177
v -51.83036309 57.56816106 15.06973914
v -46.09969208 58.59165773 15.73617729
v -46.13544461 59.10191797 15.25996849
v -45.71017819 59.15680577 15.81183295
v -52.99731148 58.86755182 14.52269561
v -53.52715690 58.75185683 14.96348705
v -52.96155896 58.35729157 14.99890441
v -45.88626223 60.11651906 15.85207124
v -53.70324094 59.71157012 15.00372534
v -45.49674833 60.68166710 15.92772690
v -45.53250085 61.19192734 15.45151810
v -45.10723443 61.24681513 16.00338256
v -54.30459140 60.61639563 14.49209918
v -54.83443681 60.50070064 14.93289061
v -54.26883887 60.10613538 14.96830798
v -45.28331847 62.20652843 16.04362086
v -55.01052085 61.46041393 14.97312891
v -45.45940251 63.16624172 16.08385915
v -55.18660489 62.42012723 15.01336720
v -45.06988861 63.73138976 16.15951481
v -45.10564114 64.24165000 15.68330601
v -44.68037471 64.29653779 16.23517047
v -55.36268893 63.37984052 15.05360550
v -45.28172518 65.20136330 15.72354431
v -44.85645875 65.25625109 16.27540877
v -55.53877297 64.33955382 15.09384379
v -46.41292105 65.99049381 15.65270958
v -45.98765463 66.04538160 16.20457404
v -45.42205669 65.65081635 16.23999140
v -55.18501159 65.41496210 14.69329065
v -55.71485701 65.29926711 15.13408209
v -46.55325256 66.43994686 16.16915667
v -47.11885050 66.83451212 16.13373931
v -55.32534311 65.86441515 15.20973775
v -54.37023127 66.03499793 15.32081077
v -53.98071738 66.60014596 15.39646643
v -48.67531279 67.56875484 15.51104012
v -48.25004637 67.62364264 16.06290458
v -47.68444844 67.22907738 16.09832194
v -53.59120348 67.16529400 15.47212209
v -52.63609165 67.33587678 15.58319511
v -51.68097981 67.50645956 15.69426814
v -50.72586798 67.67704234 15.80534116
v -49.77075614 67.84762511 15.91641419
v -48.81564431 68.01820789 16.02748721
v -49.70830286 56.43935308 15.72785569
v -50.23814827 56.32365809 16.16864713
v -49.67255033 55.92909283 16.20406449
v -48.71743850 56.09967561 16.31513752
v -48.75319102 56.60993585 15.83892872
v -47.76232666 56.27025839 16.42621054
v -47.79807919 56.78051863 15.95000174
v -47.37281277 56.83540643 16.50186620
v -51.79461056 57.05790081 15.54594794
v -52.32445598 56.94220583 15.98673937
v -51.75885804 56.54764057 16.02215674
v -50.80374621 56.71822335 16.13322976
v -46.98329887 57.40055446 16.57752186
v -46.02818704 57.57113724 16.68859488
v -46.06393956 58.08139749 16.21238609
v -45.63867314 58.13628528 16.76425054
v -52.92580644 57.84703133 15.47511321
v -53.45565185 57.73133634 15.91590464
v -52.89005391 57.33677108 15.95132201
v -45.24915924 58.70143331 16.83990620
v -45.28491177 59.21169356 16.36369740
v -44.85964534 59.26658135 16.91556186
v -53.63173589 58.69104964 15.95614294
v -45.46099580 60.17140685 16.40393570
v -45.03572938 60.22629465 16.95580016
v -54.23308635 59.59587514 15.44451677
v -54.76293176 59.48018015 15.88530821
v -54.19733382 59.08561489 15.92072557
v -45.21181342 61.18600794 16.99603845
v -54.93901580 60.43989345 15.92554650
v -44.82229952 61.75115598 17.07169411
v -44.85805205 62.26141622 16.59548531
v -44.43278563 62.31630401 17.14734977
v -55.54036626 61.34471895 15.41392034
v -56.07021167 61.22902396 15.85471177
v -55.50461374 60.83445870 15.89012914
v -45.03413609 63.22112951 16.63572361
v -44.60886967 63.27601731 17.18758807
v -55.71645030 62.30443224 15.45415863
v -56.24629571 62.18873726 15.89495007
v -44.78495371 64.23573060 17.22782636
v -55.89253434 63.26414554 15.49439693
v -56.42237975 63.14845055 15.93518836
v -44.96103775 65.19544390 17.26806466
v -56.03286585 63.71359859 16.01084402
v -55.64335196 64.27874662 16.08649968
v -45.56238821 66.10026940 16.75643849
v -45.13712178 66.15515719 17.30830295
v -55.81943600 65.23845992 16.12673798
v -46.69358408 66.88939991 16.68560376
v -46.26831766 66.94428771 17.23746822
v -45.70271972 66.54972245 17.27288559
v -55.42992210 65.80360795 16.20239364
v -54.51056279 66.48445098 15.83725786
v -55.04040820 66.36875599 16.27804930
v -47.82477995 67.67853043 16.61476903
v -47.39951353 67.73341822 17.16663349
v -46.83391559 67.33885296 17.20205086
v -54.65089430 66.93390403 16.35370496
v -53.69578247 67.10448681 16.46477798
v -52.74067064 67.27506958 16.57585101
v -51.78555880 67.44565236 16.68692403
v -50.83044697 67.61623514 16.79799705
v -49.87533514 67.78681792 16.90907008
v -48.92022330 67.95740070 17.02014310
v -47.96511147 68.12798348 17.13121613
v -50.76799368 56.20796310 16.60943856
v -51.29783909 56.09226812 17.05022999
v -50.73224116 55.69770286 17.08564736
v -49.77712932 55.86828564 17.19672038
v -48.82201749 56.03886842 17.30779341
v -47.86690566 56.20945120 17.41886643
v -46.91179382 56.38003398 17.52993946
v -46.94754635 56.89029422 17.05373066
v -46.52227992 56.94518201 17.60559512
v -52.42903497 56.88139863 16.97939526
v -51.86343703 56.48683338 17.01481263
v -46.13276603 57.51033005 17.68125078
v -45.74325213 58.07547808 17.75690644
v -53.56023084 57.67052915 16.90856053
v -52.99463290 57.27596389 16.94397790
v -45.35373823 58.64062612 17.83256210
v -44.96422434 59.20577416 17.90821775
v -54.16158130 58.57535465 16.39693437
v -54.69142671 58.45965966 16.83772580
v -54.12582878 58.06509441 16.87314317
v -45.14030837 60.16548745 17.94845605
v -54.86751075 59.41937296 16.87796410
v -44.75079448 60.73063549 18.02411171
v -44.78654700 61.24089573 17.54790291
v -44.36128058 61.29578352 18.09976737
v -55.46886121 60.32419846 16.36633794
v -55.99870663 60.20850347 16.80712937
v -55.43310869 59.81393822 16.84254674
v -44.53736462 62.25549682 18.14000566
v -56.17479066 61.16821677 16.84736767
v -44.71344866 63.21521011 18.18024396
v -56.35087470 62.12793006 16.88760596
v -48.18013462 63.60828728 17.33539872
v -48.14438210 63.09802704 17.81160752
v -48.70998003 63.49259229 17.77619016
v -47.75486820 63.66317507 17.88726318
v -44.32393476 63.78035815 18.25589962
v -44.35968728 64.29061839 17.77969082
v -43.93442086 64.34550619 18.33155528
v -56.52695874 63.08764336 16.92784426
v -49.31133049 64.39741779 17.26456399
v -49.27557797 63.88715755 17.74077279
v -49.84117591 64.28172281 17.70535543
v -48.32046614 64.05774033 17.85184582
v -48.88606407 64.45230559 17.81642845
v -44.50001880 64.74007144 18.29613791
v -45.06561674 65.13463670 18.26072055
v -56.17319737 64.16305164 16.52729112
v -56.70304278 64.04735665 16.96808255
v -49.45166201 64.84687084 17.78101109
v -45.24170078 66.09435000 18.30095884
v -56.31352889 64.61250469 17.04373821
v -55.92401499 65.17765272 17.11939387
v -45.80729871 66.48891525 18.26554148
v -46.37289665 66.88348051 18.23012411
v -55.53450109 65.74280076 17.19504953
v -55.14498719 66.30794880 17.27070519
v -46.93849459 67.27804577 18.19470675
v -47.50409252 67.67261103 18.15928938
v -54.75547330 66.87309683 17.34636085
v -53.80036146 67.04367961 17.45743387
v -52.84524963 67.21426239 17.56850690
v -51.89013779 67.38484517 17.67957992
v -50.97077848 68.06568819 17.31444415
v -51.50062390 67.94999321 17.75523558
v -50.54551206 68.12057599 17.86630861
v -49.97991413 67.72601073 17.90172597
v -49.02480229 67.89659351 18.01279900
v -48.06969046 68.06717629 18.12387202
v -51.11111000 68.51514124 17.83089124
v -50.87257267 56.14715591 17.60209445
v -50.44730625 56.20204370 18.15395891
v -49.88170831 55.80747845 18.18937627
v -48.92659648 55.97806122 18.30044930
v -47.97148465 56.14864400 18.41152232
v -47.01637281 56.31922678 18.52259535
v -46.62685892 56.88437482 18.59825101
v -52.53361396 56.82059144 17.97205116
v -51.96801602 56.42602618 18.00746852
v -51.01290419 56.59660896 18.11854155
v -46.23734502 57.44952286 18.67390667
v -45.28223318 57.62010563 18.78497969
v -45.31798571 58.13036588 18.30877089
v -44.89271929 58.18525367 18.86063535
v -53.66480983 57.60972196 17.90121643
v -53.09921190 57.21515670 17.93663379
v -45.06880333 59.14496696 18.90087365
v -54.79600570 58.39885247 17.83038170
v -54.23040777 58.00428721 17.86579906
v -44.67928943 59.71011500 18.97652931
v -44.71504195 60.22037524 18.50032051
v -44.28977553 60.27526304 19.05218497
v -54.97208974 59.35856577 17.87061999
v -44.46585957 61.23497633 19.09242326
v -56.10328562 60.14769628 17.79978526
v -55.53768768 59.75313102 17.83520263
v -44.64194361 62.19468963 19.13266156
v -56.27936966 61.10740958 17.84002356
v -44.25242971 62.75983766 19.20831722
v -44.28818224 63.27009791 18.73210842
v -43.86291582 63.32498570 19.28397288
v -56.45545370 62.06712287 17.88026185
v -48.28471361 63.54748009 18.32805461
v -44.03899985 64.28469899 19.32421117
v -56.63153773 63.02683616 17.92050015
v -49.41590948 64.33661060 18.25721988
v -44.60459779 64.67926425 19.28879381
v -45.17019573 65.07382951 19.25337644
v -56.80762177 63.98654946 17.96073844
v -45.34627977 66.03354280 19.29361474
v -56.41810788 64.55169749 18.03639410
v -56.02859398 65.11684553 18.11204976
v -45.94763023 66.93836830 18.78198857
v -45.52236381 66.99325610 19.33385303
v -55.63908008 65.68199357 18.18770542
v -55.24956618 66.24714160 18.26336108
v -47.07882610 67.72749882 18.71115384
v -46.65355968 67.78238661 19.26301830
v -46.08796174 67.38782135 19.29843567
v -54.86005229 66.81228964 18.33901674
v -53.90494045 66.98287242 18.45008977
v -52.94982862 67.15345520 18.56116279
v -52.03046931 67.83429822 18.19602702
v -52.56031472 67.71860323 18.63681845
v -50.12024564 68.17546378 18.41817306
v -49.69497922 68.23035157 18.97003752
v -49.12938128 67.83578631 19.00545489
v -48.17426945 68.00636909 19.11652791
v -47.21915762 68.17695187 19.22760094
v -52.17080082 68.28375127 18.71247411
v -51.21568899 68.45433405 18.82354713
v -50.26057716 68.62491683 18.93462016
v -50.55188524 56.14123651 19.14661480
v -49.98628731 55.74667125 19.18203217
v -49.03117547 55.91725403 19.29310519
v -48.07606364 56.08783681 19.40417822
v -47.15670433 56.76867983 19.03904244
v -47.68654974 56.65298485 19.47983388
v -52.63819295 56.75978425 18.96470705
v -52.07259501 56.36521899 19.00012441
v -51.11748318 56.53580177 19.11119744
v -47.29703584 57.21813288 19.55548953
v -46.34192401 57.38871566 19.66656256
v -45.42256470 58.06955868 19.30142679
v -45.95241011 57.95386370 19.74221822
v -53.76938882 57.54891476 18.89387232
v -53.20379089 57.15434951 18.92928968
v -45.56289622 58.51901173 19.81787388
v -45.17338232 59.08415977 19.89352954
v -54.90058470 58.33804528 18.82303759
v -54.33498676 57.94348002 18.85845495
v -44.78386842 59.64930781 19.96918520
v -44.39435452 60.21445584 20.04484086
v -55.07666874 59.29775857 18.86327588
v -44.57043856 61.17416914 20.08507915
v -56.20786461 60.08688909 18.79244115
v -55.64226667 59.69232383 18.82785852
v -44.74652260 62.13388243 20.12531745
v -56.38394865 61.04660238 18.83267945
v -44.35700870 62.69903047 20.20097311
v -43.96749481 63.26417851 20.27662877
v -56.56003269 62.00631568 18.87291774
v -44.14357885 64.22389180 20.31686706
v -56.73611673 62.96602897 18.91315604
v -44.70917678 64.61845706 20.28144970
v -45.27477472 65.01302232 20.24603233
v -56.91220077 63.92574227 18.95339433
v -45.45085876 65.97273561 20.28627063
v -56.52268687 64.49089030 19.02904999
v -56.13317297 65.05603834 19.10470565
v -46.05220922 66.87756111 19.77464446
v -46.01645670 66.36730087 20.25085326
v -46.58205463 66.76186613 20.21543590
v -55.74365907 65.62118637 19.18036131
v -55.35414518 66.18633441 19.25601697
v -46.75813867 67.72157942 20.25567419
v -54.96463128 66.75148245 19.33167263
v -54.00951944 66.92206523 19.44274566
v -53.05440761 67.09264800 19.55381868
v -52.66489371 67.65779604 19.62947434
v -49.23396028 67.77497912 19.99811078
v -49.79955821 68.16954438 19.96269341
v -48.27884844 67.94556190 20.10918380
v -47.32373661 68.11614468 20.22025683
v -52.27537982 68.22294408 19.70513000
v -51.32026798 68.39352686 19.81620303
v -50.36515615 68.56410964 19.92727605
v -50.12661882 56.19612430 19.69847926
v -49.17150699 56.36670708 19.80955228
v -48.21639515 56.53728986 19.92062531
v -52.21292653 56.81467204 19.51657151
v -51.78766011 56.86955983 20.06843596
v -51.22206217 56.47499457 20.10385333
v -50.26695034 56.64557735 20.21492635
v -49.31183850 56.81616013 20.32599938
v -48.35672667 56.98674291 20.43707240
v -47.40161484 57.15732569 20.54814543
v -46.44650300 57.32790847 20.65921845
v -46.05698910 57.89305650 20.73487411
v -53.34412240 57.60380256 19.44573678
v -52.91885598 57.65869035 19.99760123
v -52.35325804 57.26412509 20.03301860
v -45.66747521 58.45820454 20.81052977
v -45.27796131 59.02335258 20.88618543
v -55.00516369 58.27723809 19.81569348
v -54.43956575 57.88267283 19.85111085
v -53.48445392 58.05325561 19.96218387
v -44.88844741 59.58850061 20.96184109
v -44.49893351 60.15364865 21.03749675
v -55.18124773 59.23695138 19.85593178
v -44.67501755 61.11336195 21.07773504
v -56.31244360 60.02608189 19.78509705
v -55.74684566 59.63151664 19.82051441
v -44.85110159 62.07307524 21.11797334
v -56.48852764 60.98579519 19.82533534
v -44.49734022 63.14848352 20.71742020
v -45.02718563 63.03278853 21.15821163
v -56.66461168 61.94550848 19.86557364
v -44.67342426 64.10819681 20.75765850
v -45.20326967 63.99250183 21.19844993
v -56.84069572 62.90522178 19.90581193
v -45.37935371 64.95221512 21.23868822
v -56.45118182 63.47036981 19.98146759
v -56.48693434 63.98063006 19.50525879
v -56.06166792 64.03551785 20.05712325
v -45.55543775 65.91192842 21.27892652
v -55.70790655 65.11092613 19.65657011
v -55.67215403 64.60066589 20.13277891
v -55.28264013 65.16581392 20.20843457
v -46.12103569 66.30649367 21.24350916
v -46.68663362 66.70105893 21.20809179
v -54.92887875 66.24122220 19.80788143
v -54.89312623 65.73096196 20.28409023
v -54.50361233 66.29611000 20.35974589
v -47.28798408 67.60588443 20.69646563
v -47.25223156 67.09562419 21.17267443
v -47.81782950 67.49018945 21.13725706
v -54.11409844 66.86125803 20.43540155
v -53.15898660 67.03184081 20.54647457
v -52.23962729 67.71268383 20.18133880
v -52.20387477 67.20242359 20.65754760
v -51.81436087 67.76757163 20.73320326
v -49.33853927 67.71417193 20.99076667
v -49.90413720 68.10873718 20.95534931
v -48.38342743 67.88475471 21.10183970
v -51.42484697 68.33271966 20.80885892
v -50.46973514 68.50330244 20.91993194
v -51.36239369 56.92444763 20.62030042
v -50.40728185 57.09503040 20.73137345
v -49.45217002 57.26561318 20.84244647
v -48.49705818 57.43619596 20.95351950
v -47.54194635 57.60677874 21.06459252
v -46.58683452 57.77736152 21.17566554
v -53.02343497 57.59788315 20.99025713
v -52.45783704 57.20331790 21.02567449
v -51.50272520 57.37390068 21.13674752
v -50.54761337 57.54448345 21.24782054
v -49.59250153 57.71506623 21.35889356
v -48.63738970 57.88564901 21.46996659
v -47.68227787 58.05623179 21.58103961
v -46.72716603 58.22681457 21.69211264
v -45.80780672 58.90765759 21.32697686
v -46.33765213 58.79196261 21.76776830
v -54.57989727 58.33212588 20.36755794
v -54.15463084 58.38701367 20.91942240
v -53.58903291 57.99244841 20.95483976
v -45.94813824 59.35711064 21.84342396
v -45.02877893 60.03795366 21.47828818
v -45.55862434 59.92225868 21.91907962
v -55.28582672 59.17614419 20.84858767
v -54.72022878 58.78157893 20.88400503
v -45.16911044 60.48740672 21.99473528
v -44.77959655 61.05255475 22.07039094
v -56.41702259 59.96527470 20.77775294
v -55.85142465 59.57070944 20.81317030
v -44.95568058 62.01226805 22.11062923
v -56.59310663 60.92498800 20.81799123
v -45.13176462 62.97198134 22.15086753
v -56.76919067 61.88470129 20.85822953
v -45.30784866 63.93169463 22.19110582
v -56.37967677 62.44984933 20.93388519
v -56.41542930 62.96010957 20.45767639
v -55.99016287 63.01499736 21.00954085
v -45.48393270 64.89140793 22.23134412
v -56.16624691 63.97471066 21.04977914
v -46.08528316 65.79623343 21.71971795
v -46.04953064 65.28597319 22.19592675
v -46.61512858 65.68053844 22.16050939
v -55.77673302 64.53985869 21.12543480
v -55.38721912 65.10500673 21.20109046
v -46.79121261 66.64025174 22.20074768
v -54.99770522 65.67015477 21.27674612
v -54.60819132 66.23530280 21.35240178
v -47.35681055 67.03481700 22.16533032
v -47.92240849 67.42938225 22.12991295
v -54.21867743 66.80045084 21.42805744
v -53.26356559 66.97103362 21.53913047
v -52.30845376 67.14161640 21.65020349
v -51.38909445 67.82245942 21.28506772
v -51.35334193 67.31219918 21.76127651
v -50.43398262 67.99304220 21.39614074
v -50.39823009 67.48278195 21.87234954
v -49.44311826 67.65336473 21.98342256
v -48.48800642 67.82394751 22.09449559
v -52.59816855 57.65277095 21.54212158
v -51.64305672 57.82335373 21.65319461
v -51.21779030 57.87824152 22.20505907
v -50.65219236 57.48367626 22.24047643
v -49.69708052 57.65425904 22.35154946
v -48.74196869 57.82484182 22.46262248
v -47.82260938 58.50568484 22.09748671
v -48.35245479 58.38998986 22.53827814
v -46.86749755 58.67626762 22.20855973
v -53.72936442 58.44190146 21.47128686
v -53.30409800 58.49678926 22.02315131
v -52.73850007 58.10222400 22.05856868
v -51.78338823 58.27280678 22.16964170
v -47.96294090 58.95513789 22.61393380
v -47.00782906 59.12572067 22.72500683
v -46.05271723 59.29630345 22.83607985
v -45.66320333 59.86145149 22.91173551
v -54.86056030 59.23103198 21.40045213
v -54.43529388 59.28591977 21.95231658
v -53.86969594 58.89135451 21.98773395
v -45.30944196 60.93685977 22.51118237
v -45.83928737 60.82116478 22.95197380
v -55.99175617 60.02016249 21.32961740
v -55.56648975 60.07505029 21.88148185
v -55.00089181 59.68048503 21.91689922
v -45.44977347 61.38631282 23.02762946
v -45.06025958 61.95146085 23.10328512
v -56.16784021 60.97987579 21.36985569
v -55.74257379 61.03476358 21.92172015
v -45.23634361 62.91117415 23.14352342
v -56.34392425 61.93958908 21.41009399
v -55.91865783 61.99447688 21.96195844
v -45.83769408 63.81599965 22.63189726
v -45.80194155 63.30573940 23.10810605
v -46.36753949 63.70030466 23.07268869
v -56.09474187 62.95419017 22.00219674
v -46.01377811 64.77571294 22.67213555
v -46.54362353 64.66001796 23.11292698
v -55.70522797 63.51933821 22.07785240
v -55.74098049 64.02959845 21.60164360
v -55.31571407 64.08448624 22.15350806
v -46.71970757 65.61973125 23.15316528
v -54.96195270 65.15989452 21.75295492
v -54.92620017 64.64963428 22.22916372
v -54.53668628 65.21478232 22.30481938
v -47.32105803 66.52455675 22.64153912
v -47.28530550 66.01429651 23.11774791
v -47.85090344 66.40886177 23.08233055
v -54.18292490 66.29019060 21.90426624
v -54.14717238 65.77993035 22.38047504
v -53.75765848 66.34507839 22.45613070
v -48.45225390 67.31368727 22.57070439
v -48.41650138 66.80342702 23.04691318
v -48.98209931 67.19799228 23.01149582
v -53.36814458 66.91022643 22.53178636
v -52.41303275 67.08080920 22.64285938
v -51.45792092 67.25139198 22.75393241
v -50.50280908 67.42197476 22.86500543
v -49.54769725 67.59255754 22.97607846
v -50.79252387 57.93312931 22.75692353
v -49.83741204 58.10371209 22.86799655
v -48.88230021 58.27429487 22.97906957
v -52.87883158 58.55167705 22.57501577
v -51.92371975 58.72225983 22.68608880
v -51.49845333 58.77714762 23.23795325
v -50.93285539 58.38258236 23.27337062
v -49.97774356 58.55316514 23.38444364
v -49.02263172 58.72374792 23.49551667
v -48.06751989 58.89433070 23.60658969
v -47.14816058 59.57517372 23.24145392
v -47.67800599 59.45947873 23.68224535
v -46.19304874 59.74575650 23.35252694
v -54.01002745 59.34080756 22.50418104
v -53.58476103 59.39569536 23.05604550
v -53.01916310 59.00113010 23.09146287
v -52.06405126 59.17171288 23.20253589
v -47.28849209 60.02462677 23.75790101
v -46.89897820 60.58977481 23.83355667
v -46.36913278 60.70546979 23.39276524
v -55.14122333 60.12993808 22.43334631
v -54.71595691 60.18482587 22.98521077
v -54.15035897 59.79026061 23.02062814
v -46.50946430 61.15492284 23.90921233
v -45.59010499 61.83576587 23.54407656
v -46.11995040 61.72007088 23.98486799
v -55.31730737 61.08965137 22.47358461
v -54.89204095 61.14453917 23.02544907
v -45.76618903 62.79547916 23.58431485
v -46.29603444 62.67978418 24.02510629
v -55.49339141 62.04936467 22.51382290
v -55.06812498 62.10425246 23.06568736
v -46.47211848 63.63949747 24.06534458
v -55.66947544 63.00907796 22.55406120
v -55.24420902 63.06396576 23.10592566
v -47.07346894 64.54432297 23.55371842
v -47.03771642 64.03406273 24.02992722
v -47.60331435 64.42862798 23.99450985
v -54.89044765 64.13937404 22.70537252
v -54.85469513 63.62911379 23.18158132
v -54.46518123 64.19426183 23.25723698
v -47.24955298 65.50403627 23.59395671
v -47.77939839 65.38834128 24.03474815
v -54.11141986 65.26967011 22.85668384
v -54.07566733 64.75940986 23.33289263
v -53.68615343 65.32455790 23.40854829
v -48.38074885 66.29316678 23.52312198
v -48.34499633 65.78290654 23.99933078
v -48.91059426 66.17747179 23.96391342
v -53.33239206 66.39996618 23.00799516
v -53.29663954 65.88970594 23.48420395
v -52.37728023 66.57054896 23.11906818
v -52.34152770 66.06028872 23.59527698
v -51.42216839 66.74113174 23.23014120
v -51.38641587 66.23087149 23.70635000
v -50.46705656 66.91171452 23.34121423
v -50.43130404 66.40145427 23.81742303
v -49.51194473 67.08229730 23.45228725
v -49.47619220 66.57203705 23.92849605
v -51.07318690 58.83203541 23.78981771
v -50.11807507 59.00261819 23.90089074
v -49.16296324 59.17320097 24.01196376
v -48.20785140 59.34378375 24.12303679
v -53.15949461 59.45058315 23.60790996
v -52.20438278 59.62116593 23.71898298
v -51.77911636 59.67605372 24.27084744
v -51.21351842 59.28148846 24.30626481
v -50.25840659 59.45207124 24.41733783
v -49.30329475 59.62265402 24.52841086
v -48.34818292 59.79323680 24.63948388
v -47.42882361 60.47407982 24.27434811
v -47.95866902 60.35838484 24.71513954
v -54.29069048 60.23971367 23.53707523
v -53.33557865 60.41029644 23.64814825
v -52.91031223 60.46518424 24.20001271
v -52.34471429 60.07061898 24.23543008
v -47.56915512 60.92353287 24.79079520
v -46.64979581 61.60437589 24.42565943
v -47.17964123 61.48868091 24.86645086
v -54.46677452 61.19942696 23.57731352
v -53.51166269 61.37000974 23.68838655
v -53.08639627 61.42489753 24.24025101
v -46.82587985 62.56408919 24.46589772
v -47.35572527 62.44839420 24.90668915
v -54.64285856 62.15914025 23.61755182
v -53.68774673 62.32972303 23.72862484
v -53.26248031 62.38461083 24.28048930
v -47.00196389 63.52380248 24.50613601
v -47.53180930 63.40810750 24.94692745
v -54.81894260 63.11885355 23.65779011
v -53.86383077 63.28943633 23.76886314
v -53.43856435 63.34432412 24.32072760
v -48.13315977 64.31293300 24.43530129
v -48.09740724 63.80267276 24.91151008
v -48.66300518 64.19723801 24.87609272
v -54.03991481 64.24914962 23.80910143
v -53.04905045 63.90947216 24.39638326
v -53.08480297 64.41973240 23.92017446
v -52.12969114 64.59031518 24.03124748
v -52.09393862 64.08005493 24.50745628
v -51.70442472 64.64520297 24.58311194
v -49.26435564 65.10206351 24.36446656
v -49.22860311 64.59180327 24.84067535
v -49.79420105 64.98636853 24.80525799
v -48.30924380 65.27264629 24.47553958
v -53.26088701 65.37944569 23.96041275
v -52.30577518 65.55002847 24.07148578
v -51.31491082 65.21035101 24.65876760
v -51.35066335 65.72061125 24.18255880
v -50.39555151 65.89119403 24.29363183
v -50.35979899 65.38093379 24.76984062
v -49.44043968 66.06177681 24.40470485
v -51.35384994 59.73094151 24.82271190
v -50.39873810 59.90152429 24.93378492
v -49.44362627 60.07210707 25.04485795
v -48.48851443 60.24268985 25.15593097
v -52.48504581 60.52007203 24.75187717
v -51.52993397 60.69065481 24.86295019
v -50.57482214 60.86123759 24.97402322
v -49.61971031 61.03182037 25.08509624
v -48.66459847 61.20240314 25.19616927
v -47.70948664 61.37298592 25.30724229
v -52.66112985 61.47978532 24.79211547
v -51.70601801 61.65036810 24.90318849
v -50.75090618 61.82095088 25.01426151
v -49.79579435 61.99153366 25.12533454
v -48.84068251 62.16211644 25.23640756
v -47.88557068 62.33269922 25.34748059
v -52.83721389 62.43949862 24.83235376
v -51.88210205 62.61008140 24.94342678
v -50.92699022 62.78066418 25.05449981
v -49.97187838 62.95124695 25.16557283
v -49.01676655 63.12182973 25.27664586
v -48.06165472 63.29241251 25.38771888
v -53.01329793 63.39921191 24.87259205
v -52.05818609 63.56979469 24.98366508
v -51.10307426 63.74037747 25.09473810
v -50.14796242 63.91096025 25.20581113
v -49.19285059 64.08154303 25.31688415
v -51.27915830 64.70009076 25.13497640
v -50.32404646 64.87067354 25.24604942
f 3 2 1
f 5 4 1
f 1 4 3
f 7 6 5
f 5 6 4
f 7 8 6
f 1 2 9
f 9 2 10
f 1 11 5
f 1 9 11
f 13 7 12
f 7 11 12
f 7 5 11
f 7 13 8
f 10 14 9
f 9 14 11
f 11 14 15
f 11 15 12
f 18 17 16
f 16 19 18
f 22 21 20
f 24 23 20
f 20 23 22
f 23 24 17
f 24 16 17
f 24 25 16
f 19 16 26
f 16 27 26
f 16 25 27
f 27 28 26
f 31 30 29
f 31 29 21
f 29 20 21
f 29 32 20
f 20 33 24
f 20 32 33
f 24 34 25
f 24 33 34
f 25 35 27
f 25 34 35
f 28 27 36
f 36 27 35
f 29 30 37
f 37 30 38
f 37 2 3
f 32 37 3
f 29 37 32
f 32 3 4
f 32 4 33
f 33 4 6
f 33 6 34
f 34 6 8
f 39 34 8
f 35 34 39
f 36 35 40
f 35 41 40
f 35 39 41
f 41 42 40
f 37 38 43
f 43 38 44
f 43 10 2
f 43 2 37
f 12 45 13
f 39 8 13
f 45 39 13
f 46 39 45
f 39 47 41
f 39 46 47
f 42 41 48
f 48 41 47
f 43 44 49
f 49 44 50
f 51 14 10
f 43 51 10
f 49 51 43
f 52 15 14
f 52 14 51
f 45 12 15
f 52 45 15
f 53 45 52
f 45 54 46
f 45 53 54
f 56 47 55
f 47 54 55
f 47 46 54
f 47 56 48
f 49 50 57
f 57 50 58
f 49 59 51
f 49 57 59
f 51 60 52
f 51 59 60
f 52 61 53
f 52 60 61
f 53 62 54
f 53 61 62
f 55 54 63
f 63 54 62
f 58 64 57
f 57 64 59
f 59 64 65
f 59 65 60
f 60 65 66
f 60 66 61
f 61 66 67
f 61 67 62
f 62 67 68
f 62 68 63
f 71 70 69
f 73 72 69
f 69 72 71
f 75 74 73
f 73 74 72
f 75 76 74
f 79 78 77
f 79 77 70
f 77 69 70
f 77 80 69
f 80 17 18
f 73 80 18
f 69 80 73
f 73 18 19
f 81 73 19
f 75 73 81
f 76 75 82
f 75 83 82
f 75 81 83
f 83 84 82
f 87 86 85
f 87 85 78
f 78 85 77
f 85 21 77
f 21 22 77
f 77 22 23
f 77 23 80
f 80 23 17
f 26 81 19
f 81 26 28
f 88 81 28
f 83 81 88
f 84 83 89
f 89 83 88
f 92 91 90
f 92 90 86
f 86 90 85
f 90 30 85
f 30 31 85
f 85 31 21
f 36 93 88
f 36 88 28
f 89 88 94
f 88 95 94
f 88 93 95
f 95 96 94
f 90 91 97
f 97 91 98
f 97 38 30
f 97 30 90
f 40 93 36
f 93 40 42
f 99 93 42
f 95 93 99
f 96 95 100
f 100 95 99
f 97 98 101
f 101 98 102
f 101 44 38
f 101 38 97
f 48 103 99
f 48 99 42
f 100 99 104
f 104 99 103
f 101 102 105
f 105 102 106
f 105 50 44
f 105 44 101
f 55 107 56
f 103 48 56
f 107 103 56
f 108 103 107
f 104 103 109
f 109 103 108
f 105 106 110
f 110 106 111
f 110 58 50
f 110 50 105
f 63 112 107
f 63 107 55
f 114 108 113
f 108 112 113
f 108 107 112
f 108 114 109
f 111 115 110
f 115 117 116
f 115 116 64
f 110 115 64
f 58 110 64
f 118 65 64
f 118 64 116
f 119 66 65
f 119 65 118
f 120 67 66
f 120 66 119
f 121 68 67
f 121 67 120
f 121 122 68
f 68 122 63
f 122 123 63
f 123 112 63
f 112 123 113
f 117 124 116
f 116 124 118
f 118 124 125
f 118 125 119
f 119 125 126
f 119 126 120
f 120 126 127
f 120 127 121
f 121 127 128
f 121 128 122
f 131 130 129
f 133 132 129
f 129 132 131
f 133 134 132
f 137 136 135
f 70 71 135
f 71 137 135
f 71 138 137
f 72 129 130
f 138 72 130
f 71 72 138
f 129 72 74
f 129 74 133
f 140 139 76
f 76 139 74
f 139 134 74
f 134 133 74
f 140 141 139
f 144 143 142
f 144 142 136
f 136 142 135
f 142 78 135
f 78 79 135
f 135 79 70
f 82 140 76
f 146 145 84
f 84 145 82
f 145 141 82
f 141 140 82
f 146 147 145
f 150 149 148
f 150 148 143
f 143 148 142
f 148 86 142
f 86 87 142
f 142 87 78
f 89 151 146
f 89 146 84
f 147 146 152
f 152 146 151
f 148 149 92
f 149 91 92
f 149 153 91
f 148 92 86
f 94 151 89
f 155 154 96
f 96 154 94
f 154 152 94
f 152 151 94
f 155 156 154
f 159 158 157
f 153 159 157
f 98 153 157
f 91 153 98
f 100 160 155
f 100 155 96
f 156 155 161
f 161 155 160
f 157 158 162
f 162 158 163
f 162 102 98
f 162 98 157
f 104 164 160
f 104 160 100
f 161 160 165
f 165 160 164
f 162 163 166
f 166 163 167
f 166 106 102
f 166 102 162
f 109 168 164
f 109 164 104
f 165 164 169
f 169 164 168
f 166 167 170
f 170 167 171
f 170 111 106
f 170 106 166
f 113 172 114
f 172 173 114
f 114 173 109
f 173 174 109
f 174 168 109
f 168 174 169
f 171 175 170
f 175 177 176
f 175 176 115
f 170 175 115
f 111 170 115
f 176 117 115
f 122 178 123
f 172 113 123
f 178 172 123
f 179 172 178
f 173 172 180
f 180 172 179
f 177 181 176
f 181 183 182
f 181 182 124
f 176 181 124
f 117 176 124
f 184 125 124
f 184 124 182
f 185 126 125
f 185 125 184
f 186 127 126
f 186 126 185
f 187 128 127
f 187 127 186
f 187 188 128
f 128 188 122
f 188 189 122
f 189 178 122
f 178 189 179
f 179 189 190
f 179 190 180
f 183 191 182
f 182 191 184
f 184 191 192
f 184 192 185
f 185 192 193
f 185 193 186
f 186 193 194
f 186 194 187
f 187 194 195
f 187 195 188
f 198 197 196
f 200 199 196
f 196 199 198
f 130 131 200
f 131 199 200
f 131 201 199
f 202 131 132
f 202 201 131
f 204 203 134
f 203 132 134
f 203 202 132
f 204 205 203
f 208 207 206
f 208 206 197
f 197 206 196
f 206 136 196
f 136 137 196
f 196 137 138
f 196 138 200
f 200 138 130
f 139 204 134
f 210 209 141
f 141 209 139
f 209 205 139
f 205 204 139
f 210 211 209
f 214 213 212
f 214 212 207
f 207 212 206
f 212 143 206
f 143 144 206
f 206 144 136
f 145 210 141
f 145 147 210
f 147 211 210
f 147 215 211
f 212 213 150
f 213 149 150
f 213 216 149
f 212 150 143
f 152 218 217
f 215 152 217
f 147 152 215
f 218 219 217
f 222 221 220
f 216 222 220
f 153 216 220
f 149 216 153
f 154 218 152
f 154 156 218
f 156 219 218
f 156 223 219
f 220 221 159
f 221 158 159
f 221 224 158
f 220 159 153
f 161 223 156
f 161 225 223
f 224 163 158
f 226 163 224
f 165 228 227
f 225 165 227
f 161 165 225
f 228 229 227
f 226 167 163
f 230 167 226
f 169 231 228
f 169 228 165
f 229 228 232
f 232 228 231
f 230 171 167
f 233 171 230
f 173 234 174
f 234 235 174
f 174 235 169
f 235 236 169
f 236 231 169
f 231 236 232
f 175 171 237
f 171 238 237
f 171 233 238
f 237 177 175
f 240 239 234
f 173 240 234
f 180 240 173
f 234 239 235
f 238 241 237
f 237 241 177
f 241 181 177
f 241 242 181
f 183 181 242
f 183 242 243
f 188 244 189
f 189 244 245
f 246 189 245
f 190 189 246
f 180 190 240
f 240 190 246
f 243 247 183
f 183 247 191
f 191 248 192
f 247 248 191
f 192 249 193
f 248 249 192
f 193 250 194
f 249 250 193
f 194 251 195
f 250 251 194
f 188 195 244
f 195 252 244
f 195 251 252
f 244 252 245
f 255 254 253
f 257 256 253
f 253 256 255
f 259 258 257
f 257 258 256
f 259 260 258
f 263 262 261
f 197 198 261
f 198 263 261
f 198 264 263
f 199 253 254
f 264 199 254
f 198 199 264
f 253 199 201
f 253 201 257
f 257 201 202
f 257 202 259
f 265 260 259
f 202 265 259
f 203 265 202
f 267 266 205
f 266 203 205
f 266 265 203
f 267 268 266
f 271 270 269
f 271 269 262
f 262 269 261
f 269 207 261
f 207 208 261
f 261 208 197
f 209 267 205
f 273 272 211
f 211 272 209
f 272 268 209
f 268 267 209
f 273 274 272
f 269 270 214
f 270 213 214
f 270 275 213
f 269 214 207
f 215 276 273
f 215 273 211
f 274 273 277
f 277 273 276
f 280 279 278
f 275 280 278
f 216 275 278
f 213 275 216
f 217 276 215
f 217 219 276
f 219 277 276
f 219 281 277
f 278 279 222
f 279 221 222
f 279 282 221
f 278 222 216
f 223 284 283
f 281 223 283
f 219 223 281
f 284 285 283
f 288 287 286
f 282 288 286
f 224 282 286
f 221 282 224
f 225 289 284
f 225 284 223
f 285 284 290
f 290 284 289
f 286 287 291
f 291 287 292
f 291 226 224
f 291 224 286
f 227 289 225
f 227 229 289
f 229 290 289
f 229 293 290
f 291 292 294
f 294 292 295
f 294 230 226
f 294 226 291
f 232 293 229
f 232 296 293
f 295 297 294
f 230 294 297
f 298 230 297
f 233 230 298
f 235 299 236
f 299 300 236
f 300 232 236
f 300 296 232
f 298 238 233
f 301 238 298
f 240 302 239
f 302 303 239
f 239 303 235
f 303 304 235
f 304 299 235
f 299 304 300
f 301 305 238
f 238 305 241
f 305 307 306
f 242 305 306
f 241 305 242
f 306 243 242
f 245 308 246
f 308 309 246
f 246 309 240
f 309 310 240
f 310 302 240
f 302 310 303
f 307 311 306
f 306 311 243
f 311 247 243
f 311 312 247
f 247 313 248
f 312 313 247
f 248 314 249
f 313 314 248
f 249 315 250
f 314 315 249
f 250 316 251
f 315 316 250
f 251 317 252
f 316 317 251
f 245 252 308
f 252 318 308
f 252 317 318
f 308 318 309
f 321 320 319
f 254 255 319
f 255 321 319
f 255 322 321
f 323 255 256
f 323 322 255
f 324 256 258
f 324 323 256
f 326 325 260
f 325 258 260
f 325 324 258
f 326 327 325
f 329 328 263
f 263 328 262
f 264 319 320
f 329 264 320
f 263 264 329
f 319 264 254
f 265 326 260
f 330 327 326
f 265 330 326
f 266 330 265
f 266 268 330
f 330 268 331
f 333 332 271
f 271 332 270
f 271 262 328
f 271 328 333
f 334 331 268
f 334 268 272
f 272 274 334
f 334 274 335
f 338 337 336
f 332 338 336
f 275 332 336
f 270 332 275
f 277 335 274
f 277 339 335
f 336 337 280
f 337 279 280
f 337 340 279
f 336 280 275
f 281 342 341
f 339 281 341
f 277 281 339
f 342 343 341
f 346 345 344
f 340 346 344
f 282 340 344
f 279 340 282
f 283 342 281
f 283 285 342
f 285 343 342
f 285 347 343
f 344 345 288
f 345 287 288
f 345 348 287
f 344 288 282
f 290 347 285
f 290 349 347
f 348 292 287
f 350 292 348
f 353 352 351
f 354 351 352
f 293 356 355
f 349 293 355
f 290 293 349
f 356 357 355
f 350 295 292
f 358 295 350
f 361 360 359
f 353 351 362
f 360 363 359
f 362 351 354
f 365 364 356
f 293 365 356
f 296 365 293
f 356 364 357
f 297 295 366
f 295 367 366
f 295 358 367
f 366 298 297
f 368 361 359
f 368 359 363
f 300 365 296
f 300 369 365
f 367 370 366
f 298 366 370
f 371 298 370
f 301 298 371
f 373 372 304
f 373 304 303
f 300 304 369
f 369 304 372
f 371 374 301
f 301 374 305
f 307 305 374
f 307 374 375
f 377 376 310
f 377 310 309
f 303 310 373
f 373 310 376
f 375 378 307
f 307 378 311
f 311 379 312
f 378 379 311
f 312 380 313
f 379 380 312
f 313 381 314
f 380 381 313
f 381 383 382
f 315 381 382
f 314 381 315
f 315 382 384
f 385 315 384
f 316 315 385
f 316 386 317
f 385 386 316
f 317 387 318
f 386 387 317
f 309 318 377
f 377 318 387
f 383 388 382
f 382 388 384
f 389 320 321
f 389 321 390
f 321 391 390
f 321 322 391
f 392 322 323
f 392 391 322
f 393 323 324
f 393 392 323
f 394 324 325
f 394 393 324
f 325 327 394
f 394 327 395
f 397 396 329
f 329 396 328
f 329 320 389
f 398 329 389
f 397 329 398
f 398 389 390
f 399 395 327
f 399 327 330
f 401 400 331
f 400 330 331
f 400 399 330
f 401 402 400
f 404 403 333
f 333 403 332
f 333 328 396
f 333 396 404
f 334 401 331
f 334 335 401
f 335 402 401
f 335 405 402
f 407 406 338
f 338 406 337
f 338 332 403
f 338 403 407
f 339 409 408
f 405 339 408
f 335 339 405
f 409 410 408
f 406 340 337
f 411 340 406
f 341 409 339
f 341 343 409
f 343 410 409
f 343 412 410
f 414 413 346
f 346 413 345
f 346 340 411
f 346 411 414
f 347 412 343
f 347 415 412
f 413 348 345
f 416 348 413
f 349 418 417
f 415 349 417
f 347 349 415
f 418 419 417
f 416 350 348
f 420 350 416
f 353 421 352
f 421 354 352
f 355 418 349
f 355 357 418
f 357 419 418
f 357 422 419
f 420 358 350
f 423 358 420
f 361 424 360
f 362 421 353
f 363 360 424
f 421 362 354
f 426 425 364
f 426 364 365
f 357 364 422
f 422 364 425
f 423 367 358
f 427 367 423
f 368 424 361
f 424 368 363
f 369 426 365
f 369 428 426
f 427 429 367
f 367 429 370
f 371 370 429
f 371 429 430
f 373 431 372
f 431 432 372
f 432 369 372
f 432 428 369
f 430 433 371
f 371 433 374
f 375 374 433
f 375 433 434
f 377 435 376
f 435 436 376
f 376 436 373
f 436 437 373
f 437 431 373
f 431 437 432
f 434 438 375
f 375 438 378
f 378 439 379
f 438 439 378
f 379 440 380
f 439 440 379
f 440 442 441
f 381 440 441
f 380 440 381
f 441 383 381
f 384 443 385
f 385 443 444
f 445 385 444
f 386 385 445
f 386 446 387
f 445 446 386
f 377 387 435
f 387 447 435
f 387 446 447
f 435 447 436
f 442 448 441
f 441 448 383
f 448 388 383
f 448 449 388
f 384 388 443
f 388 450 443
f 388 449 450
f 443 450 444
f 452 451 391
f 391 451 390
f 453 391 392
f 453 452 391
f 454 392 393
f 454 453 392
f 456 454 455
f 454 394 455
f 454 393 394
f 395 455 394
f 458 457 397
f 397 457 396
f 459 397 398
f 459 458 397
f 398 390 451
f 398 451 459
f 460 456 455
f 460 455 395
f 399 460 395
f 461 460 399
f 463 461 462
f 461 400 462
f 461 399 400
f 402 462 400
f 465 464 404
f 404 464 403
f 404 396 457
f 404 457 465
f 466 463 462
f 462 402 466
f 402 467 466
f 402 405 467
f 469 468 407
f 407 468 406
f 407 403 464
f 407 464 469
f 470 467 405
f 470 405 408
f 408 410 470
f 470 410 471
f 468 411 406
f 472 411 468
f 412 471 410
f 412 473 471
f 475 474 414
f 414 474 413
f 414 411 472
f 414 472 475
f 415 473 412
f 415 476 473
f 474 416 413
f 477 416 474
f 478 476 415
f 478 415 417
f 417 419 478
f 478 419 479
f 477 420 416
f 480 420 477
f 422 479 419
f 422 481 479
f 480 423 420
f 482 423 480
f 484 483 425
f 484 425 426
f 422 425 481
f 481 425 483
f 482 427 423
f 485 427 482
f 428 484 426
f 428 486 484
f 485 487 427
f 427 487 429
f 430 429 487
f 430 487 488
f 491 490 489
f 490 486 489
f 486 432 489
f 486 428 432
f 488 492 430
f 430 492 433
f 434 433 492
f 434 492 493
f 491 489 437
f 436 491 437
f 494 491 436
f 437 489 432
f 493 495 434
f 434 495 438
f 438 496 439
f 495 496 438
f 439 497 440
f 496 497 439
f 442 440 497
f 442 497 498
f 500 499 445
f 500 445 444
f 445 501 446
f 499 501 445
f 446 502 447
f 501 502 446
f 436 447 494
f 494 447 502
f 498 503 442
f 442 503 448
f 448 504 449
f 503 504 448
f 449 505 450
f 504 505 449
f 444 450 500
f 500 450 505
f 506 451 452
f 453 507 452
f 452 507 506
f 454 508 453
f 453 508 507
f 456 508 454
f 509 457 458
f 509 458 510
f 458 511 510
f 458 459 511
f 459 451 506
f 512 459 506
f 511 459 512
f 512 506 507
f 512 507 513
f 513 507 508
f 513 508 514
f 514 508 456
f 460 514 456
f 515 514 460
f 516 460 461
f 516 515 460
f 461 463 516
f 516 463 517
f 518 464 465
f 519 518 465
f 519 465 457
f 520 519 457
f 509 520 457
f 520 509 510
f 521 517 463
f 521 463 466
f 466 467 521
f 521 467 522
f 524 523 469
f 469 523 468
f 469 464 518
f 525 469 518
f 524 469 525
f 525 518 519
f 526 522 467
f 526 467 470
f 470 471 526
f 526 471 527
f 523 472 468
f 528 472 523
f 473 527 471
f 473 529 527
f 531 530 475
f 475 530 474
f 475 472 528
f 475 528 531
f 476 529 473
f 476 532 529
f 530 477 474
f 533 477 530
f 476 478 534
f 535 476 534
f 532 476 535
f 479 534 478
f 533 480 477
f 536 480 533
f 535 534 537
f 535 537 538
f 481 537 479
f 479 537 534
f 536 482 480
f 539 482 536
f 538 537 483
f 484 538 483
f 540 538 484
f 483 537 481
f 542 485 541
f 485 539 541
f 485 482 539
f 543 542 541
f 486 540 484
f 486 544 540
f 542 487 485
f 546 545 488
f 546 488 487
f 543 546 487
f 542 543 487
f 547 545 546
f 549 548 490
f 549 490 491
f 486 490 544
f 544 490 548
f 545 492 488
f 551 550 493
f 551 493 492
f 547 551 492
f 545 547 492
f 552 550 551
f 555 554 553
f 554 549 553
f 549 494 553
f 549 491 494
f 550 495 493
f 552 556 550
f 556 495 550
f 556 496 495
f 496 557 497
f 556 557 496
f 559 558 498
f 497 559 498
f 557 559 497
f 560 558 559
f 562 561 499
f 562 499 500
f 499 563 501
f 561 563 499
f 553 502 555
f 502 563 555
f 502 501 563
f 502 553 494
f 558 503 498
f 560 564 558
f 564 503 558
f 564 504 503
f 504 565 505
f 564 565 504
f 500 505 562
f 562 505 565
f 566 510 511
f 512 567 511
f 511 567 566
f 513 568 512
f 512 568 567
f 514 569 513
f 513 569 568
f 515 570 514
f 514 570 569
f 516 571 515
f 515 571 570
f 517 571 516
f 573 572 520
f 520 572 519
f 520 510 566
f 574 520 566
f 573 520 574
f 574 566 567
f 574 567 575
f 575 567 568
f 575 568 576
f 576 568 569
f 576 569 577
f 577 569 570
f 577 570 578
f 578 570 571
f 578 571 579
f 581 579 580
f 580 579 521
f 579 571 521
f 571 517 521
f 522 580 521
f 582 523 524
f 582 524 583
f 524 584 583
f 524 525 584
f 525 519 572
f 525 572 584
f 585 581 580
f 587 585 586
f 586 585 526
f 585 580 526
f 580 522 526
f 527 586 526
f 589 588 582
f 588 523 582
f 588 528 523
f 589 582 583
f 590 587 586
f 586 527 590
f 527 591 590
f 527 529 591
f 593 592 531
f 531 592 530
f 531 528 588
f 531 588 593
f 532 591 529
f 532 594 591
f 592 533 530
f 595 533 592
f 535 594 532
f 535 596 594
f 595 536 533
f 597 536 595
f 538 596 535
f 538 598 596
f 600 539 599
f 539 597 599
f 539 536 597
f 601 600 599
f 540 598 538
f 540 602 598
f 600 541 539
f 543 541 600
f 601 543 600
f 603 543 601
f 606 605 604
f 605 602 604
f 602 544 604
f 602 540 544
f 603 607 543
f 543 607 546
f 547 546 607
f 547 607 608
f 606 604 548
f 549 606 548
f 609 606 549
f 548 604 544
f 608 610 547
f 547 610 551
f 552 551 610
f 552 610 611
f 613 612 554
f 613 554 555
f 549 554 609
f 609 554 612
f 611 614 552
f 552 614 556
f 556 615 557
f 614 615 556
f 557 616 559
f 615 616 557
f 618 617 560
f 559 618 560
f 616 618 559
f 620 619 617
f 620 617 618
f 561 562 619
f 620 561 619
f 621 561 620
f 561 622 563
f 621 622 561
f 555 563 613
f 613 563 622
f 617 564 560
f 564 617 565
f 565 617 619
f 565 619 562
f 623 572 573
f 574 624 573
f 573 624 623
f 624 574 625
f 574 626 625
f 574 575 626
f 627 575 576
f 627 626 575
f 628 576 577
f 628 627 576
f 630 628 629
f 628 578 629
f 628 577 578
f 579 631 578
f 578 631 629
f 581 631 579
f 632 583 584
f 633 632 584
f 633 584 572
f 634 633 572
f 623 634 572
f 634 623 624
f 634 624 635
f 635 624 625
f 636 630 629
f 636 629 631
f 636 631 637
f 637 631 581
f 585 637 581
f 638 637 585
f 585 587 638
f 638 587 639
f 640 588 589
f 641 640 589
f 641 589 583
f 642 641 583
f 632 642 583
f 642 632 633
f 587 590 643
f 644 587 643
f 639 587 644
f 591 643 590
f 645 592 593
f 646 645 593
f 646 593 588
f 647 646 588
f 640 647 588
f 647 640 641
f 648 644 643
f 643 591 648
f 591 649 648
f 591 594 649
f 650 595 645
f 645 595 592
f 645 646 651
f 645 651 650
f 596 649 594
f 596 652 649
f 653 597 650
f 650 597 595
f 650 651 654
f 650 654 653
f 657 656 655
f 656 652 655
f 652 598 655
f 652 596 598
f 653 599 597
f 601 599 653
f 654 601 653
f 658 601 654
f 657 655 659
f 657 659 660
f 602 659 598
f 598 659 655
f 662 603 661
f 603 658 661
f 603 601 658
f 663 662 661
f 660 659 605
f 606 660 605
f 664 660 606
f 605 659 602
f 662 607 603
f 666 665 608
f 666 608 607
f 663 666 607
f 662 663 607
f 667 665 666
f 670 669 668
f 669 664 668
f 664 609 668
f 664 606 609
f 665 610 608
f 672 671 611
f 672 611 610
f 667 672 610
f 665 667 610
f 673 671 672
f 676 675 674
f 674 675 670
f 674 670 668
f 613 674 668
f 612 613 668
f 612 668 609
f 671 614 611
f 673 677 671
f 677 614 671
f 677 615 614
f 615 678 616
f 677 678 615
f 616 679 618
f 678 679 616
f 618 680 620
f 679 680 618
f 620 681 621
f 680 681 620
f 674 622 676
f 622 681 676
f 622 621 681
f 622 674 613
f 682 625 626
f 627 683 626
f 626 683 682
f 628 684 627
f 627 684 683
f 630 684 628
f 685 633 634
f 635 686 634
f 634 686 685
f 687 686 635
f 687 635 625
f 688 687 625
f 682 688 625
f 688 682 683
f 688 683 689
f 689 683 684
f 689 684 690
f 690 684 630
f 636 690 630
f 691 690 636
f 693 691 692
f 691 637 692
f 691 636 637
f 638 694 637
f 637 694 692
f 639 694 638
f 695 641 642
f 696 695 642
f 696 642 633
f 697 696 633
f 685 697 633
f 697 685 686
f 697 686 698
f 698 686 687
f 699 693 692
f 701 700 699
f 692 701 699
f 694 701 692
f 644 701 639
f 639 701 694
f 702 646 647
f 703 702 647
f 703 647 641
f 704 703 641
f 695 704 641
f 704 695 696
f 705 700 701
f 707 705 706
f 706 705 648
f 705 701 648
f 701 644 648
f 649 706 648
f 708 651 702
f 702 651 646
f 702 703 709
f 702 709 708
f 707 706 710
f 707 710 711
f 652 710 649
f 649 710 706
f 712 654 708
f 708 654 651
f 708 709 713
f 708 713 712
f 711 710 656
f 657 711 656
f 714 711 657
f 656 710 652
f 715 658 712
f 712 658 654
f 712 713 716
f 712 716 715
f 719 718 717
f 718 714 717
f 714 660 717
f 714 657 660
f 715 661 658
f 721 720 663
f 721 663 661
f 716 721 661
f 715 716 661
f 722 720 721
f 719 717 723
f 719 723 724
f 664 723 660
f 660 723 717
f 720 666 663
f 726 725 667
f 726 667 666
f 722 726 666
f 720 722 666
f 727 725 726
f 730 729 728
f 728 729 724
f 728 724 723
f 670 728 723
f 669 670 723
f 669 723 664
f 725 672 667
f 732 731 673
f 732 673 672
f 727 732 672
f 725 727 672
f 734 733 731
f 734 731 732
f 736 735 733
f 736 733 734
f 738 737 735
f 738 735 736
f 740 739 737
f 740 737 738
f 739 740 730
f 739 730 728
f 676 739 728
f 675 676 728
f 675 728 670
f 731 677 673
f 677 731 678
f 678 731 733
f 678 733 679
f 679 733 735
f 679 735 680
f 680 735 737
f 680 737 681
f 681 737 739
f 681 739 676
f 741 687 688
f 689 742 688
f 688 742 741
f 690 743 689
f 689 743 742
f 691 744 690
f 690 744 743
f 693 744 691
f 745 696 697
f 698 746 697
f 697 746 745
f 747 746 698
f 747 698 687
f 748 747 687
f 741 748 687
f 748 741 742
f 748 742 749
f 749 742 743
f 749 743 750
f 750 743 744
f 750 744 751
f 753 751 752
f 752 751 699
f 751 744 699
f 744 693 699
f 700 752 699
f 754 703 704
f 696 745 704
f 745 754 704
f 745 755 754
f 746 757 756
f 755 746 756
f 745 746 755
f 757 746 747
f 758 753 752
f 760 758 759
f 759 758 705
f 758 752 705
f 752 700 705
f 707 759 705
f 761 709 754
f 754 709 703
f 762 754 755
f 761 754 762
f 755 756 763
f 755 763 762
f 760 759 764
f 760 764 765
f 711 764 707
f 707 764 759
f 766 713 761
f 761 713 709
f 767 761 762
f 766 761 767
f 762 763 768
f 762 768 767
f 765 764 769
f 765 769 770
f 714 769 711
f 711 769 764
f 771 716 766
f 766 716 713
f 772 766 767
f 771 766 772
f 767 768 773
f 767 773 772
f 776 775 774
f 774 775 770
f 774 770 769
f 719 774 769
f 718 719 769
f 718 769 714
f 771 721 716
f 721 771 722
f 771 777 722
f 771 772 777
f 772 773 778
f 779 772 778
f 777 772 779
f 781 780 779
f 781 779 778
f 782 780 781
f 785 784 783
f 783 784 776
f 774 783 776
f 786 783 774
f 724 786 719
f 719 786 774
f 777 726 722
f 726 777 727
f 777 787 727
f 777 779 787
f 788 779 780
f 787 779 788
f 780 782 789
f 790 780 789
f 788 780 790
f 792 791 790
f 792 790 789
f 791 792 785
f 783 791 785
f 793 791 783
f 730 793 729
f 793 786 729
f 793 783 786
f 729 786 724
f 787 732 727
f 732 787 734
f 734 787 788
f 734 788 736
f 736 788 790
f 736 790 738
f 738 790 791
f 738 791 740
f 740 791 793
f 740 793 730
f 794 747 748
f 749 795 748
f 748 795 794
f 750 796 749
f 749 796 795
f 751 797 750
f 750 797 796
f 753 797 751
f 798 756 757
f 747 794 757
f 794 798 757
f 794 799 798
f 800 794 795
f 799 794 800
f 801 795 796
f 800 795 801
f 802 796 797
f 801 796 802
f 758 803 753
f 803 797 753
f 803 802 797
f 760 803 758
f 804 763 798
f 798 763 756
f 805 798 799
f 804 798 805
f 806 799 800
f 805 799 806
f 807 800 801
f 806 800 807
f 808 801 802
f 807 801 808
f 809 802 803
f 808 802 809
f 765 809 760
f 760 809 803
f 810 768 804
f 804 768 763
f 811 804 805
f 810 804 811
f 812 805 806
f 811 805 812
f 813 806 807
f 812 806 813
f 814 807 808
f 813 807 814
f 815 808 809
f 814 808 815
f 770 815 765
f 765 815 809
f 816 773 810
f 810 773 768
f 817 810 811
f 816 810 817
f 818 811 812
f 817 811 818
f 819 812 813
f 818 812 819
f 820 813 814
f 819 813 820
f 776 820 775
f 820 815 775
f 820 814 815
f 775 815 770
f 816 778 773
f 778 816 781
f 781 816 817
f 781 817 782
f 817 821 782
f 817 818 821
f 822 818 819
f 821 818 822
f 785 822 784
f 822 820 784
f 822 819 820
f 784 820 776
f 821 789 782
f 789 821 792
f 792 821 822
f 792 822 785

